<?xml version="1.0" encoding="utf-8"?>
<!-- Generator: Adobe Illustrator 23.0.4, SVG Export Plug-In . SVG Version: 6.00 Build 0)  -->
<svg version="1.1" id="Layer_1" xmlns="http://www.w3.org/2000/svg" xmlns:xlink="http://www.w3.org/1999/xlink" x="0px" y="0px"
	 viewBox="0 0 1067.9 397.1" style="enable-background:new 0 0 1067.9 397.1;" xml:space="preserve">
<style type="text/css">
	.st0{fill:none;stroke:#000000;stroke-width:0.1417;}
</style>
<polygon class="st0" points="1091.7,454.6 52.2,454.6 52.2,85.9 1091.7,85.9 "/>
<polygon class="st0" points="545.6,353.2 543.3,351.9 538.7,360 540.9,361.3 538.5,365.6 546.4,370.1 544.2,373.9 532.7,367.2 
	512.9,401.6 524.4,408.3 522.2,412 514.3,407.4 511.9,411.7 509.6,410.4 504.9,418.5 507.2,419.8 504.7,424 512.7,428.6 
	511.5,430.6 518.4,434.6 519.5,432.5 534.9,441.4 537.4,437.2 539.8,438.6 544.5,430.5 542.1,429.1 544.5,424.9 533.5,418.5 
	535.7,414.8 547.2,421.4 567.1,387.1 555.5,380.4 557.7,376.7 568.7,383 571.1,378.8 573.5,380.2 578.2,372.1 575.8,370.7 
	578.2,366.4 562.8,357.5 564,355.5 557.1,351.5 556,353.6 548,349 "/>
<polygon class="st0" points="509,308.7 506.7,307.4 502,315.5 504.3,316.8 501.8,321 509.8,325.6 507.6,329.4 496.1,322.7 
	476.2,357.1 487.8,363.7 485.6,367.5 477.7,362.9 475.2,367.1 473,365.8 468.3,373.9 470.6,375.2 468.1,379.5 476,384 474.9,386.1 
	481.7,390 482.9,388 498.3,396.9 500.7,392.7 503.1,394 507.8,385.9 505.4,384.6 507.9,380.3 496.9,374 499.1,370.2 510.6,376.9 
	530.4,342.5 518.9,335.9 521.1,332.1 532,338.5 534.5,334.2 536.9,335.6 541.6,327.5 539.2,326.1 541.6,321.9 526.2,313 527.4,311 
	520.5,307 519.3,309 511.4,304.5 "/>
<polygon class="st0" points="608.2,361.2 628,395.6 662.4,375.7 642.5,341.4 "/>
<polygon class="st0" points="394.1,366.3 428.4,386.1 448.3,351.8 413.9,331.9 "/>
<polygon class="st0" points="662.6,294.9 661.5,292.9 654.6,296.8 655.8,298.8 640.4,307.7 642.8,312 640.4,313.4 645.1,321.5 
	647.5,320.1 650,324.3 660.9,318 663.1,321.7 651.5,328.4 671.4,362.7 682.9,356.1 685.1,359.8 674.1,366.2 676.6,370.4 
	674.2,371.8 678.8,379.9 681.2,378.5 683.7,382.7 699.1,373.8 700.2,375.9 707.1,371.9 705.9,369.9 713.9,365.3 711.4,361.1 
	713.7,359.8 709,351.7 706.8,353 704.3,348.7 696.4,353.3 694.2,349.6 705.8,342.9 685.9,308.5 674.4,315.2 672.2,311.4 
	680.1,306.9 677.7,302.6 680,301.3 675.3,293.2 673,294.5 670.6,290.3 "/>
<polygon class="st0" points="732.8,336 752.6,370.4 787,350.5 767.2,316.2 "/>
<polygon class="st0" points="160.6,329.3 160.6,369 200.3,369 200.3,329.3 "/>
<polygon class="st0" points="221.4,329.3 221.4,369 261.1,369 261.1,329.3 "/>
<polygon class="st0" points="923.4,329.3 923.4,369 963.1,369 963.1,329.3 "/>
<polygon class="st0" points="984.1,329.3 984.1,369 1023.8,369 1023.8,329.3 "/>
<polygon class="st0" points="275.4,315.8 275.4,355.5 315.1,355.5 315.1,315.8 "/>
<polygon class="st0" points="869.4,315.8 869.4,355.5 909.1,355.5 909.1,315.8 "/>
<polygon class="st0" points="329.4,309 329.4,348.7 369.1,348.7 369.1,309 "/>
<polygon class="st0" points="815.4,309 815.4,348.7 855.1,348.7 855.1,309 "/>
<polygon class="st0" points="133.6,275.3 133.6,288.6 129.3,288.6 129.3,279.5 124.4,279.5 124.4,276.8 115.1,276.8 115.1,279.5 
	110.2,279.5 110.2,288.6 107.8,288.6 107.8,296.5 110.2,296.5 110.2,314.3 115.1,314.3 115.1,317.1 124.4,317.1 124.4,314.3 
	129.3,314.3 129.3,301.7 133.6,301.7 133.6,315 173.3,315 173.3,301.7 177.6,301.7 177.6,314.3 182.5,314.3 182.5,317.1 
	191.9,317.1 191.9,314.3 196.8,314.3 196.8,296.5 199.1,296.5 199.1,288.6 196.8,288.6 196.8,279.5 191.9,279.5 191.9,276.8 
	182.5,276.8 182.5,279.5 177.6,279.5 177.6,288.6 173.3,288.6 173.3,275.3 "/>
<polygon class="st0" points="1011.1,275.3 1011.1,288.6 1006.8,288.6 1006.8,279.5 1001.9,279.5 1001.9,276.8 992.6,276.8 
	992.6,279.5 987.7,279.5 987.7,288.6 985.3,288.6 985.3,296.5 987.7,296.5 987.7,314.3 992.6,314.3 992.6,317.1 1001.9,317.1 
	1001.9,314.3 1006.8,314.3 1006.8,301.7 1011.1,301.7 1011.1,315 1050.8,315 1050.8,301.7 1055.1,301.7 1055.1,314.3 1060,314.3 
	1060,317.1 1069.4,317.1 1069.4,314.3 1074.3,314.3 1074.3,296.5 1076.6,296.5 1076.6,288.6 1074.3,288.6 1074.3,279.5 
	1069.4,279.5 1069.4,276.8 1060,276.8 1060,279.5 1055.1,279.5 1055.1,288.6 1050.8,288.6 1050.8,275.3 "/>
<polygon class="st0" points="221.4,275.3 221.4,315 261.1,315 261.1,275.3 "/>
<polygon class="st0" points="923.4,275.3 923.4,315 963.1,315 963.1,275.3 "/>
<polygon class="st0" points="437.4,268.5 437.4,308.2 477.1,308.2 477.1,268.5 "/>
<polygon class="st0" points="707.4,268.5 707.4,308.2 747.1,308.2 747.1,268.5 "/>
<polygon class="st0" points="275.4,261.8 275.4,301.5 315.1,301.5 315.1,261.8 "/>
<polygon class="st0" points="383.4,261.8 383.4,301.5 423.1,301.5 423.1,261.8 "/>
<polygon class="st0" points="761.4,261.8 761.4,301.5 801.1,301.5 801.1,261.8 "/>
<polygon class="st0" points="869.4,261.8 869.4,301.5 909.1,301.5 909.1,261.8 "/>
<polygon class="st0" points="329.4,255 329.4,294.7 369.1,294.7 369.1,255 "/>
<polygon class="st0" points="815.4,255 815.4,294.7 855.1,294.7 855.1,255 "/>
<polygon class="st0" points="147.1,221.3 147.1,261 186.8,261 186.8,221.3 "/>
<polygon class="st0" points="221.4,221.3 221.4,261 261.1,261 261.1,221.3 "/>
<polygon class="st0" points="923.4,221.3 923.4,261 963.1,261 963.1,221.3 "/>
<polygon class="st0" points="997.6,221.3 997.6,261 1037.3,261 1037.3,221.3 "/>
<polygon class="st0" points="437.4,214.5 437.4,254.2 477.1,254.2 477.1,214.5 "/>
<polygon class="st0" points="491.4,214.5 491.4,254.2 531.1,254.2 531.1,214.5 "/>
<polygon class="st0" points="653.4,214.5 653.4,254.2 693.1,254.2 693.1,214.5 "/>
<polygon class="st0" points="707.4,214.5 707.4,254.2 747.1,254.2 747.1,214.5 "/>
<polygon class="st0" points="275.4,207.8 275.4,247.5 315.1,247.5 315.1,207.8 "/>
<polygon class="st0" points="383.4,207.8 383.4,247.5 423.1,247.5 423.1,207.8 "/>
<polygon class="st0" points="761.4,207.8 761.4,247.5 801.1,247.5 801.1,207.8 "/>
<polygon class="st0" points="869.4,207.8 869.4,247.5 909.1,247.5 909.1,207.8 "/>
<polygon class="st0" points="329.4,201 329.4,240.7 369.1,240.7 369.1,201 "/>
<polygon class="st0" points="815.4,201 815.4,240.7 855.1,240.7 855.1,201 "/>
<polygon class="st0" points="153.9,167.3 153.9,207 193.6,207 193.6,167.3 "/>
<polygon class="st0" points="221.4,167.3 221.4,207 261.1,207 261.1,167.3 "/>
<polygon class="st0" points="923.4,167.3 923.4,207 963.1,207 963.1,167.3 "/>
<polygon class="st0" points="990.9,167.3 990.9,207 1030.6,207 1030.6,167.3 "/>
<polygon class="st0" points="437.4,160.5 437.4,200.2 477.1,200.2 477.1,160.5 "/>
<polygon class="st0" points="491.4,160.5 491.4,200.2 531.1,200.2 531.1,160.5 "/>
<polygon class="st0" points="653.4,160.5 653.4,200.2 693.1,200.2 693.1,160.5 "/>
<polygon class="st0" points="707.4,160.5 707.4,200.2 747.1,200.2 747.1,160.5 "/>
<polygon class="st0" points="275.4,153.8 275.4,193.5 315.1,193.5 315.1,153.8 "/>
<polygon class="st0" points="383.4,153.8 383.4,193.5 423.1,193.5 423.1,153.8 "/>
<polygon class="st0" points="761.4,153.8 761.4,193.5 801.1,193.5 801.1,153.8 "/>
<polygon class="st0" points="869.4,153.8 869.4,193.5 909.1,193.5 909.1,153.8 "/>
<polygon class="st0" points="329.4,147 329.4,186.7 369.1,186.7 369.1,147 "/>
<polygon class="st0" points="815.4,147 815.4,186.7 855.1,186.7 855.1,147 "/>
<polygon class="st0" points="113.4,113.3 113.4,153 153.1,153 153.1,113.3 "/>
<polygon class="st0" points="167.4,113.3 167.4,153 207.1,153 207.1,113.3 "/>
<polygon class="st0" points="221.4,113.3 221.4,153 261.1,153 261.1,113.3 "/>
<polygon class="st0" points="923.4,113.3 923.4,153 963.1,153 963.1,113.3 "/>
<polygon class="st0" points="977.4,113.3 977.4,153 1017.1,153 1017.1,113.3 "/>
<polygon class="st0" points="1031.4,113.3 1031.4,153 1071.1,153 1071.1,113.3 "/>
<polygon class="st0" points="437.4,106.5 437.4,146.2 477.1,146.2 477.1,106.5 "/>
<polygon class="st0" points="491.4,106.5 491.4,146.2 531.1,146.2 531.1,106.5 "/>
<polygon class="st0" points="653.4,106.5 653.4,146.2 693.1,146.2 693.1,106.5 "/>
<polygon class="st0" points="707.4,106.5 707.4,146.2 747.1,146.2 747.1,106.5 "/>
<polygon class="st0" points="275.4,99.8 275.4,139.5 315.1,139.5 315.1,99.8 "/>
<polygon class="st0" points="383.4,99.8 383.4,139.5 423.1,139.5 423.1,99.8 "/>
<polygon class="st0" points="761.4,99.8 761.4,139.5 801.1,139.5 801.1,99.8 "/>
<polygon class="st0" points="869.4,99.8 869.4,139.5 909.1,139.5 909.1,99.8 "/>
<polygon class="st0" points="329.4,93 329.4,132.7 369.1,132.7 369.1,93 "/>
<polygon class="st0" points="815.4,93 815.4,132.7 855.1,132.7 855.1,93 "/>
</svg>
