M48
; DRILL file {KiCad (5.1.0)-1} date 7/5/2019 8:06:19 AM
; FORMAT={-:-/ absolute / metric / decimal}
; #@! TF.CreationDate,2019-07-05T08:06:19-04:00
; #@! TF.GenerationSoftware,Kicad,Pcbnew,(5.1.0)-1
FMAT,2
METRIC
T1C0.400
T2C0.600
T3C1.000
T4C1.092
T5C1.100
T6C1.499
T7C1.500
T8C1.800
T9C3.048
T10C3.988
%
G90
G05
T1
X80.64Y-44.49
X156.84Y-66.48
X165.62Y-79.74
X166.11Y-96.41
X167.55Y-48.23
X175.89Y-90.45
X175.931Y-64.559
X178.147Y-33.973
X178.17Y-73.76
X179.67Y-67.91
X179.773Y-46.793
X180.78Y-53.83
X180.97Y-72.68
X181.02Y-94.53
X181.96Y-60.29
X182.604Y-44.55
X182.604Y-63.226
X189.845Y-105.555
X190.67Y-97.95
X190.67Y-114.59
X191.96Y-96.45
X191.98Y-110.87
X192.79Y-73.76
X193.674Y-63.226
X194.49Y-94.53
X194.5Y-105.29
X194.52Y-72.48
X196.39Y-67.78
X197.255Y-84.445
X197.88Y-66.59
X198.619Y-64.559
X203.72Y-85.267
X205.91Y-121.7
X207.49Y-115.98
X208.22Y-50.8
X208.31Y-60.62
X209.26Y-110.87
X210.36Y-55.88
X210.37Y-79.668
X211.33Y-105.29
X212.4Y-55.48
X212.42Y-75.95
X213.13Y-40.75
X213.19Y-73.76
X213.814Y-43.486
X213.814Y-63.226
X214.81Y-66.55
X214.89Y-48.45
X215.33Y-73.11
X215.68Y-45.94
X216.52Y-68.54
X216.8Y-89.51
X217.383Y-85.267
X218.31Y-90.84
X218.85Y-77.57
X218.922Y-79.668
X220.23Y-76.19
X220.36Y-82.45
X290.19Y-49.21
X308.743Y-46.297
X327.793Y-48.007
T3
X222.903Y-106.88
X229.657Y-102.98
X146.24Y-73.13
X146.24Y-80.93
X126.96Y-70.81
X126.96Y-78.61
X69.99Y-37.38
X69.99Y-45.18
X336.33Y-56.41
X336.33Y-64.21
X279.4Y-68.44
X279.4Y-76.24
X88.95Y-32.7
X88.95Y-40.5
X48.1Y-113.83
X48.1Y-121.63
X69.89Y-93.36
X69.89Y-101.16
X107.97Y-106.55
X107.97Y-114.35
X222.76Y-34.95
X222.76Y-42.75
X107.83Y-68.66
X107.83Y-76.46
X279.73Y-30.27
X279.73Y-38.07
X145.96Y-92.18
X145.96Y-99.98
X246.243Y-115.15
X252.997Y-111.25
X336.36Y-37.35
X336.36Y-45.15
X241.35Y-92.05
X241.35Y-99.85
X69.84Y-56.34
X69.84Y-64.14
X298.69Y-89.63
X298.69Y-97.43
X279.41Y-106.27
X279.41Y-114.07
X88.84Y-51.72
X88.84Y-59.52
X176.173Y-99.3
X182.927Y-103.2
X241.77Y-53.99
X241.77Y-61.79
X260.41Y-89.94
X260.41Y-97.74
X88.95Y-70.79
X88.95Y-78.59
X127.13Y-51.77
X127.13Y-59.57
X88.88Y-89.84
X88.88Y-97.64
X165.15Y-73.34
X165.15Y-81.14
X107.98Y-30.28
X107.98Y-38.08
X317.47Y-94.69
X317.47Y-102.49
X260.41Y-70.77
X260.41Y-78.57
X241.46Y-34.95
X241.46Y-42.75
X66.26Y-113.44
X66.26Y-121.24
X126.94Y-89.84
X126.94Y-97.64
X131.17Y-119.627
X135.07Y-112.873
X41.63Y-75.52
X41.63Y-83.32
X298.32Y-32.64
X298.32Y-40.44
X355.09Y-37.28
X355.09Y-45.08
X188.633Y-115.24
X195.387Y-119.14
X165.64Y-53.89
X165.64Y-61.69
X213.243Y-130.34
X219.997Y-126.44
X50.71Y-37.42
X50.71Y-45.22
X336.85Y-113.67
X336.85Y-121.47
X222.95Y-54.08
X222.95Y-61.88
X279.42Y-49.61
X279.42Y-57.41
X298.42Y-51.77
X298.42Y-59.57
X88.84Y-107.38
X88.84Y-115.18
X298.63Y-70.8
X298.63Y-78.6
X260.36Y-51.55
X260.36Y-59.35
X298.54Y-108.58
X298.54Y-116.38
X64.36Y-93.0
X64.36Y-100.8
X107.78Y-87.58
X107.78Y-95.38
X222.37Y-73.13
X222.37Y-80.93
X165.34Y-34.69
X165.34Y-42.49
X337.9Y-93.97
X337.9Y-101.77
X336.35Y-74.05
X336.35Y-81.85
X260.4Y-32.66
X260.4Y-40.46
X69.88Y-75.53
X69.88Y-83.33
X127.13Y-32.61
X127.13Y-40.41
X317.78Y-75.56
X317.78Y-83.36
X317.56Y-37.43
X317.56Y-45.23
X241.28Y-73.22
X241.28Y-81.02
X44.66Y-56.47
X44.66Y-64.27
X279.33Y-87.55
X279.33Y-95.35
X146.03Y-35.05
X146.03Y-42.85
X318.1Y-113.64
X318.1Y-121.44
X146.03Y-53.96
X146.03Y-61.76
X48.28Y-37.25
X48.28Y-45.05
X317.5Y-56.34
X317.5Y-64.14
X108.02Y-49.31
X108.02Y-57.11
T4
X203.67Y-30.48
X203.67Y-33.02
X203.67Y-35.56
X203.67Y-38.1
X203.67Y-40.64
X203.67Y-43.18
X203.67Y-45.72
X203.67Y-48.26
X203.67Y-50.8
X203.67Y-53.34
X203.67Y-55.88
X203.67Y-58.42
X218.91Y-30.48
X218.91Y-33.02
X218.91Y-35.56
X218.91Y-38.1
X218.91Y-40.64
X218.91Y-43.18
X218.91Y-45.72
X218.91Y-48.26
X218.91Y-50.8
X218.91Y-53.34
X218.91Y-55.88
X218.91Y-58.42
X184.58Y-30.48
X184.58Y-33.02
X184.58Y-35.56
X184.58Y-38.1
X184.58Y-40.64
X184.58Y-43.18
X184.58Y-45.72
X184.58Y-48.26
X184.58Y-50.8
X184.58Y-53.34
X184.58Y-55.88
X184.58Y-58.42
X199.82Y-30.48
X199.82Y-33.02
X199.82Y-35.56
X199.82Y-38.1
X199.82Y-40.64
X199.82Y-43.18
X199.82Y-45.72
X199.82Y-48.26
X199.82Y-50.8
X199.82Y-53.34
X199.82Y-55.88
X199.82Y-58.42
T5
X218.72Y-89.183
X220.97Y-93.08
X224.349Y-85.933
X226.599Y-89.83
X181.53Y-90.0
X183.78Y-86.103
X187.159Y-93.25
X189.409Y-89.353
T6
X345.256Y-56.385
X351.606Y-53.845
X342.88Y-94.42
X349.23Y-91.88
X150.49Y-73.145
X156.84Y-70.605
X226.193Y-54.015
X232.543Y-51.475
X245.243Y-73.052
X251.593Y-70.512
X131.44Y-32.664
X137.79Y-30.124
X50.477Y-56.476
X56.827Y-53.936
X93.34Y-51.714
X99.69Y-49.174
X302.393Y-108.784
X308.743Y-106.244
X74.29Y-37.426
X80.64Y-34.886
X93.34Y-89.814
X99.69Y-87.274
X226.193Y-73.06
X232.543Y-70.52
X359.543Y-37.338
X365.893Y-34.798
X235.435Y-115.8
X240.809Y-120.03
X321.443Y-94.494
X327.793Y-91.954
X264.79Y-89.814
X271.14Y-87.274
X36.19Y-37.456
X42.54Y-34.916
X112.39Y-87.433
X118.74Y-84.893
X321.374Y-113.535
X327.724Y-110.995
X283.343Y-30.184
X289.693Y-27.644
X150.49Y-92.195
X156.84Y-89.655
X302.393Y-32.588
X308.743Y-30.048
X222.785Y-131.58
X228.159Y-135.81
X169.54Y-73.145
X175.89Y-70.605
X74.29Y-56.476
X80.64Y-53.936
X93.34Y-70.764
X99.69Y-68.224
X131.44Y-51.714
X137.79Y-49.174
X321.443Y-56.4
X327.793Y-53.86
X169.54Y-54.095
X175.89Y-51.555
X245.243Y-54.004
X251.593Y-51.464
X264.293Y-70.671
X270.643Y-68.131
X245.243Y-34.957
X251.593Y-32.417
X302.393Y-70.677
X308.743Y-68.137
X93.34Y-32.665
X99.69Y-30.125
X283.84Y-49.333
X290.19Y-46.793
X55.24Y-37.426
X61.59Y-34.886
X264.293Y-51.623
X270.643Y-49.083
X226.193Y-34.957
X232.543Y-32.417
X52.858Y-113.626
X59.208Y-111.086
X283.343Y-106.391
X289.693Y-103.851
X74.29Y-94.576
X80.64Y-92.036
X74.29Y-113.626
X80.64Y-111.086
X302.393Y-89.72
X308.743Y-87.18
X150.49Y-35.045
X156.84Y-32.505
X112.39Y-106.483
X118.74Y-103.943
X173.699Y-121.19
X174.675Y-114.42
X283.343Y-87.338
X289.693Y-84.798
X321.443Y-37.338
X327.793Y-34.798
X257.21Y-119.285
X261.44Y-113.911
X112.39Y-49.333
X118.74Y-46.793
X347.637Y-75.43
X353.987Y-72.89
X179.415Y-134.15
X180.391Y-127.38
X150.49Y-54.095
X156.84Y-51.555
X302.393Y-51.634
X308.743Y-49.094
X323.85Y-113.58
X330.2Y-111.04
X112.39Y-30.283
X118.74Y-27.743
X48.096Y-75.526
X54.446Y-72.986
X264.24Y-32.588
X270.59Y-30.048
X131.44Y-89.814
X137.79Y-87.274
X71.86Y-113.72
X78.21Y-111.18
X321.443Y-75.438
X327.793Y-72.898
X112.39Y-68.383
X118.74Y-65.843
X352.404Y-94.472
X358.754Y-91.932
X245.243Y-92.076
X251.593Y-89.536
X74.29Y-75.526
X80.64Y-72.986
X169.54Y-35.045
X175.89Y-32.505
X93.34Y-108.864
X99.69Y-106.324
X283.343Y-68.309
X289.693Y-65.769
X43.36Y-94.576
X49.71Y-92.036
X139.55Y-115.615
X146.32Y-116.591
X131.44Y-70.764
X137.79Y-68.224
X340.493Y-37.338
X346.843Y-34.798
X342.875Y-113.55
X349.225Y-111.01
T7
X192.3Y-83.0
X199.3Y-83.0
X204.33Y-83.0
X211.33Y-83.0
T8
X224.923Y-56.555
X235.083Y-56.555
X243.973Y-75.592
X254.133Y-75.592
X130.17Y-35.204
X140.33Y-35.204
X49.207Y-59.016
X59.367Y-59.016
X92.07Y-54.254
X102.23Y-54.254
X301.123Y-111.324
X311.283Y-111.324
X73.02Y-39.966
X83.18Y-39.966
X92.07Y-92.354
X102.23Y-92.354
X224.923Y-75.6
X235.083Y-75.6
X358.273Y-39.878
X368.433Y-39.878
X232.6Y-115.971
X237.68Y-124.769
X320.173Y-97.034
X330.333Y-97.034
X263.52Y-92.354
X273.68Y-92.354
X34.92Y-39.996
X45.08Y-39.996
X111.12Y-89.973
X121.28Y-89.973
X320.104Y-116.075
X330.264Y-116.075
X282.073Y-32.724
X292.233Y-32.724
X149.22Y-94.735
X159.38Y-94.735
X301.123Y-35.128
X311.283Y-35.128
X219.95Y-131.751
X225.03Y-140.549
X168.27Y-75.685
X178.43Y-75.685
X73.02Y-59.016
X83.18Y-59.016
X92.07Y-73.304
X102.23Y-73.304
X130.17Y-54.254
X140.33Y-54.254
X320.173Y-58.94
X330.333Y-58.94
X168.27Y-56.635
X178.43Y-56.635
X243.973Y-56.544
X254.133Y-56.544
X263.023Y-73.211
X273.183Y-73.211
X243.973Y-37.497
X254.133Y-37.497
X301.123Y-73.217
X311.283Y-73.217
X92.07Y-35.205
X102.23Y-35.205
X282.57Y-51.873
X292.73Y-51.873
X53.97Y-39.966
X64.13Y-39.966
X263.023Y-54.163
X273.183Y-54.163
X224.923Y-37.497
X235.083Y-37.497
X51.588Y-116.166
X61.748Y-116.166
X282.073Y-108.931
X292.233Y-108.931
X73.02Y-97.116
X83.18Y-97.116
X73.02Y-116.166
X83.18Y-116.166
X301.123Y-92.26
X311.283Y-92.26
X149.22Y-37.585
X159.38Y-37.585
X111.12Y-109.023
X121.28Y-109.023
X168.03Y-120.849
X173.11Y-112.051
X282.073Y-89.878
X292.233Y-89.878
X320.173Y-39.878
X330.333Y-39.878
X257.381Y-122.12
X266.179Y-117.04
X111.12Y-51.873
X121.28Y-51.873
X346.367Y-77.97
X356.527Y-77.97
X180.98Y-136.519
X186.06Y-127.721
X149.22Y-56.635
X159.38Y-56.635
X301.123Y-54.174
X311.283Y-54.174
X322.58Y-116.12
X332.74Y-116.12
X111.12Y-32.823
X121.28Y-32.823
X46.826Y-78.066
X56.986Y-78.066
X262.97Y-35.128
X273.13Y-35.128
X130.17Y-92.354
X140.33Y-92.354
X70.59Y-116.26
X80.75Y-116.26
X320.173Y-77.978
X330.333Y-77.978
X111.12Y-70.923
X121.28Y-70.923
X351.134Y-97.012
X361.294Y-97.012
X243.973Y-94.616
X254.133Y-94.616
X73.02Y-78.066
X83.18Y-78.066
X168.27Y-37.585
X178.43Y-37.585
X92.07Y-111.404
X102.23Y-111.404
X282.073Y-70.849
X292.233Y-70.849
X42.09Y-97.116
X52.25Y-97.116
X137.181Y-117.18
X145.979Y-122.26
X130.17Y-73.304
X140.33Y-73.304
X339.223Y-39.878
X349.383Y-39.878
X341.605Y-116.09
X351.765Y-116.09
X343.986Y-58.925
X354.146Y-58.925
X341.61Y-96.96
X351.77Y-96.96
X149.22Y-75.685
X159.38Y-75.685
T9
X170.65Y-130.281
X182.588Y-109.604
X171.502Y-138.966
X183.44Y-118.289
X344.276Y-90.027
X368.152Y-90.027
X35.232Y-90.131
X59.108Y-90.131
X235.22Y-106.539
X247.158Y-127.216
T10
X306.203Y-54.174
X327.66Y-116.12
X116.2Y-32.823
X51.906Y-78.066
X268.05Y-35.128
X135.25Y-92.354
X75.67Y-116.26
X325.253Y-77.978
X116.2Y-70.923
X344.276Y-105.267
X356.214Y-97.012
X368.152Y-105.267
X249.053Y-94.616
X78.1Y-78.066
X173.35Y-37.585
X97.15Y-111.404
X287.153Y-70.849
X35.232Y-105.371
X47.17Y-97.116
X59.108Y-105.371
X141.58Y-119.72
X135.25Y-73.304
X344.303Y-39.878
X346.685Y-116.09
X349.066Y-58.925
X346.69Y-96.96
X154.3Y-75.685
X230.003Y-56.555
X249.053Y-75.592
X135.25Y-35.204
X54.287Y-59.016
X97.15Y-54.254
X306.203Y-111.324
X78.1Y-39.966
X97.15Y-92.354
X230.003Y-75.6
X363.353Y-39.878
X222.022Y-114.159
X233.96Y-134.836
X235.14Y-120.37
X325.253Y-97.034
X268.6Y-92.354
X40.0Y-39.996
X116.2Y-89.973
X325.184Y-116.075
X287.153Y-32.724
X154.3Y-94.735
X306.203Y-35.128
X222.49Y-136.15
X173.35Y-75.685
X78.1Y-59.016
X97.15Y-73.304
X135.25Y-54.254
X325.253Y-58.94
X173.35Y-56.635
X249.053Y-56.544
X268.103Y-73.211
X249.053Y-37.497
X306.203Y-73.217
X97.15Y-35.205
X287.65Y-51.873
X59.05Y-39.966
X268.103Y-54.163
X230.003Y-37.497
X56.668Y-116.166
X287.153Y-108.931
X78.1Y-97.116
X78.1Y-116.166
X306.203Y-92.26
X154.3Y-37.585
X116.2Y-109.023
X157.452Y-122.661
X169.39Y-101.984
X170.57Y-116.45
X287.153Y-89.878
X325.253Y-39.878
X261.78Y-119.58
X116.2Y-51.873
X351.447Y-77.97
X183.52Y-132.12
X184.7Y-146.586
X196.638Y-125.909
X154.3Y-56.635
T2
X189.9Y-85.3G85X189.3Y-85.3
G05
X191.0Y-80.7G85X190.4Y-80.7
G05
X195.0Y-80.7G85X194.4Y-80.7
G05
X198.0Y-80.7G85X197.4Y-80.7
G05
X205.63Y-85.3G85X206.23Y-85.3
G05
X208.63Y-85.3G85X209.23Y-85.3
G05
X212.63Y-85.3G85X213.23Y-85.3
G05
X213.73Y-80.7G85X214.33Y-80.7
G05
T0
M30
