M48
; DRILL file {KiCad (5.1.0)-1} date 7/24/2019 9:38:26 PM
; FORMAT={-:-/ absolute / metric / decimal}
; #@! TF.CreationDate,2019-07-24T21:38:26-04:00
; #@! TF.GenerationSoftware,Kicad,Pcbnew,(5.1.0)-1
; #@! TF.FileFunction,Plated,1,2,PTH
FMAT,2
METRIC
T1C0.400
T2C0.900
T3C1.000
T4C1.092
T5C1.100
T6C1.499
%
G90
G05
T1
X48.03Y-49.62
X65.61Y-49.89
X150.5Y-99.3
X150.53Y-124.69
X156.84Y-117.01
X162.37Y-28.81
X162.37Y-64.27
X177.1Y-106.19
X178.272Y-120.612
X179.46Y-83.83
X180.78Y-71.16
X181.47Y-61.78
X182.38Y-81.78
X183.29Y-97.49
X184.62Y-99.12
X185.47Y-106.31
X185.6Y-80.81
X187.0Y-40.52
X189.03Y-71.89
X189.27Y-99.12
X189.75Y-70.81
X191.26Y-64.56
X191.885Y-71.955
X193.67Y-62.63
X194.39Y-65.51
X195.36Y-66.66
X196.51Y-67.8
X197.75Y-68.76
X198.619Y-70.111
X200.01Y-65.51
X202.97Y-64.01
X203.67Y-106.36
X204.871Y-97.249
X205.605Y-80.835
X206.41Y-61.77
X207.17Y-99.42
X207.32Y-60.24
X208.46Y-49.34
X208.51Y-44.21
X210.23Y-94.21
X210.84Y-78.28
X210.93Y-49.49
X210.95Y-46.66
X211.25Y-31.28
X212.7Y-69.69
X213.07Y-63.3
X213.085Y-66.155
X214.09Y-106.88
X214.22Y-64.34
X215.15Y-65.53
X216.08Y-66.73
X216.09Y-67.79
X216.22Y-69.69
X216.91Y-68.44
X217.709Y-70.371
X220.111Y-83.299
X221.47Y-60.07
X228.445Y-111.295
X235.435Y-111.175
X245.238Y-108.388
X246.47Y-124.01
X362.519Y-101.249
T3
X188.633Y-115.24
X195.387Y-119.14
X298.42Y-51.77
X298.42Y-59.57
X88.84Y-51.72
X88.84Y-59.52
X69.88Y-75.53
X69.88Y-83.33
X260.4Y-32.66
X260.4Y-40.46
X146.24Y-73.13
X146.24Y-80.93
X337.9Y-93.97
X337.9Y-101.77
X317.56Y-37.43
X317.56Y-45.23
X241.28Y-73.22
X241.28Y-81.02
X88.84Y-107.38
X88.84Y-115.18
X69.84Y-56.34
X69.84Y-64.14
X298.63Y-70.8
X298.63Y-78.6
X336.36Y-37.35
X336.36Y-45.15
X69.99Y-37.38
X69.99Y-45.18
X126.96Y-70.81
X126.96Y-78.61
X88.88Y-89.84
X88.88Y-97.64
X213.243Y-130.34
X219.997Y-126.44
X107.78Y-87.58
X107.78Y-95.38
X336.85Y-113.67
X336.85Y-121.47
X241.35Y-92.05
X241.35Y-99.85
X246.243Y-115.15
X252.997Y-111.25
X145.96Y-92.18
X145.96Y-99.98
X146.03Y-35.05
X146.03Y-42.85
X107.98Y-30.28
X107.98Y-38.08
X279.42Y-49.61
X279.42Y-57.41
X241.46Y-34.95
X241.46Y-42.75
X107.83Y-68.66
X107.83Y-76.46
X176.173Y-99.3
X182.927Y-103.2
X127.13Y-32.61
X127.13Y-40.41
X317.5Y-56.34
X317.5Y-64.14
X146.03Y-53.96
X146.03Y-61.76
X260.41Y-70.77
X260.41Y-78.57
X298.54Y-108.58
X298.54Y-116.38
X108.02Y-49.31
X108.02Y-57.11
X50.71Y-37.42
X50.71Y-45.22
X317.78Y-75.56
X317.78Y-83.36
X298.32Y-32.64
X298.32Y-40.44
X222.95Y-54.08
X222.95Y-61.88
X88.95Y-32.7
X88.95Y-40.5
X279.4Y-68.44
X279.4Y-76.24
X317.47Y-94.69
X317.47Y-102.49
X298.69Y-89.63
X298.69Y-97.43
X260.41Y-89.94
X260.41Y-97.74
X279.41Y-106.27
X279.41Y-114.07
X222.903Y-106.88
X229.657Y-102.98
X69.89Y-93.36
X69.89Y-101.16
X222.37Y-73.13
X222.37Y-80.93
X165.34Y-34.69
X165.34Y-42.49
X41.63Y-75.52
X41.63Y-83.32
X279.73Y-30.27
X279.73Y-38.07
X88.95Y-70.79
X88.95Y-78.59
X48.28Y-37.25
X48.28Y-45.05
X127.13Y-51.77
X127.13Y-59.57
X64.36Y-93.0
X64.36Y-100.8
X165.15Y-73.34
X165.15Y-81.14
X44.66Y-56.47
X44.66Y-64.27
X131.17Y-119.627
X135.07Y-112.873
X336.33Y-56.41
X336.33Y-64.21
X165.64Y-53.89
X165.64Y-61.69
X260.36Y-51.55
X260.36Y-59.35
X336.35Y-74.05
X336.35Y-81.85
X222.76Y-34.95
X222.76Y-42.75
X126.94Y-89.84
X126.94Y-97.64
X107.97Y-106.55
X107.97Y-114.35
X318.1Y-113.64
X318.1Y-121.44
X279.33Y-87.55
X279.33Y-95.35
X48.1Y-113.83
X48.1Y-121.63
X66.26Y-113.44
X66.26Y-121.24
X355.09Y-37.28
X355.09Y-45.08
X241.77Y-53.99
X241.77Y-61.79
T4
X203.67Y-30.48
X203.67Y-33.02
X203.67Y-35.56
X203.67Y-38.1
X203.67Y-40.64
X203.67Y-43.18
X203.67Y-45.72
X203.67Y-48.26
X203.67Y-50.8
X203.67Y-53.34
X203.67Y-55.88
X203.67Y-58.42
X218.91Y-30.48
X218.91Y-33.02
X218.91Y-35.56
X218.91Y-38.1
X218.91Y-40.64
X218.91Y-43.18
X218.91Y-45.72
X218.91Y-48.26
X218.91Y-50.8
X218.91Y-53.34
X218.91Y-55.88
X218.91Y-58.42
X184.58Y-30.48
X184.58Y-33.02
X184.58Y-35.56
X184.58Y-38.1
X184.58Y-40.64
X184.58Y-43.18
X184.58Y-45.72
X184.58Y-48.26
X184.58Y-50.8
X184.58Y-53.34
X184.58Y-55.88
X184.58Y-58.42
X199.82Y-30.48
X199.82Y-33.02
X199.82Y-35.56
X199.82Y-38.1
X199.82Y-40.64
X199.82Y-43.18
X199.82Y-45.72
X199.82Y-48.26
X199.82Y-50.8
X199.82Y-53.34
X199.82Y-55.88
X199.82Y-58.42
T5
X208.88Y-83.4
X208.88Y-87.9
X215.38Y-83.4
X215.38Y-87.9
X187.99Y-83.54
X187.99Y-88.04
X194.49Y-83.54
X194.49Y-88.04
T6
X235.435Y-115.8
X240.809Y-120.03
X302.393Y-70.677
X308.743Y-68.137
X48.096Y-75.526
X54.446Y-72.986
X150.49Y-73.145
X156.84Y-70.605
X283.343Y-30.184
X289.693Y-27.644
X245.243Y-92.076
X251.593Y-89.536
X245.243Y-54.004
X251.593Y-51.464
X93.34Y-108.864
X99.69Y-106.324
X74.29Y-56.476
X80.64Y-53.936
X321.443Y-94.494
X327.793Y-91.954
X131.44Y-70.764
X137.79Y-68.224
X264.293Y-51.623
X270.643Y-49.083
X302.393Y-32.588
X308.743Y-30.048
X131.44Y-32.664
X137.79Y-30.124
X283.84Y-49.333
X290.19Y-46.793
X179.415Y-134.15
X180.391Y-127.38
X150.49Y-54.095
X156.84Y-51.555
X283.343Y-87.338
X289.693Y-84.798
X169.54Y-35.045
X175.89Y-32.505
X321.443Y-75.438
X327.793Y-72.898
X359.543Y-37.338
X365.893Y-34.798
X222.785Y-131.58
X228.159Y-135.81
X93.34Y-89.814
X99.69Y-87.274
X36.19Y-37.456
X42.54Y-34.916
X283.343Y-106.391
X289.693Y-103.851
X150.49Y-92.195
X156.84Y-89.655
X321.374Y-113.535
X327.724Y-110.995
X169.54Y-73.145
X175.89Y-70.605
X139.55Y-115.615
X146.32Y-116.591
X226.193Y-54.015
X232.543Y-51.475
X347.637Y-75.43
X353.987Y-72.89
X321.443Y-56.4
X327.793Y-53.86
X93.34Y-51.714
X99.69Y-49.174
X74.29Y-94.576
X80.64Y-92.036
X345.256Y-56.385
X351.606Y-53.845
X112.39Y-49.333
X118.74Y-46.793
X264.24Y-32.588
X270.59Y-30.048
X93.34Y-70.764
X99.69Y-68.224
X55.24Y-37.426
X61.59Y-34.886
X150.49Y-35.045
X156.84Y-32.505
X173.699Y-121.19
X174.675Y-114.42
X43.36Y-94.576
X49.71Y-92.036
X50.57Y-56.47
X56.92Y-53.93
X302.393Y-89.72
X308.743Y-87.18
X93.34Y-32.665
X99.69Y-30.125
X226.193Y-34.957
X232.543Y-32.417
X342.9Y-75.43
X349.25Y-72.89
X112.39Y-87.433
X118.74Y-84.893
X112.39Y-106.483
X118.74Y-103.943
X131.44Y-89.814
X137.79Y-87.274
X71.86Y-113.72
X78.21Y-111.18
X342.875Y-113.55
X349.225Y-111.01
X264.293Y-70.671
X270.643Y-68.131
X302.393Y-108.784
X308.743Y-106.244
X283.343Y-68.309
X289.693Y-65.769
X112.39Y-68.383
X118.74Y-65.843
X321.443Y-37.338
X327.793Y-34.798
X264.79Y-89.814
X271.14Y-87.274
X302.393Y-51.634
X308.743Y-49.094
X340.493Y-37.338
X346.843Y-34.798
X112.39Y-30.283
X118.74Y-27.743
X74.29Y-75.526
X80.64Y-72.986
X131.44Y-51.714
X137.79Y-49.174
X245.243Y-73.052
X251.593Y-70.512
X352.404Y-94.472
X358.754Y-91.932
X74.29Y-37.426
X80.64Y-34.886
X257.21Y-119.285
X261.44Y-113.911
X52.858Y-113.626
X59.208Y-111.086
X323.85Y-113.58
X330.2Y-111.04
X245.243Y-34.957
X251.593Y-32.417
X74.29Y-113.626
X80.64Y-111.086
X169.54Y-54.095
X175.89Y-51.555
X226.193Y-73.06
X232.543Y-70.52
X342.88Y-94.42
X349.23Y-91.88
T2
G00X207.73Y-74.29
M15
G01X208.13Y-74.29
M16
G05
G00X210.73Y-74.29
M15
G01X211.13Y-74.29
M16
G05
G00X214.73Y-74.29
M15
G01X215.13Y-74.29
M16
G05
G00X215.83Y-78.89
M15
G01X216.23Y-78.89
M16
G05
G00X187.73Y-74.24
M15
G01X187.33Y-74.24
M16
G05
G00X188.83Y-78.84
M15
G01X188.43Y-78.84
M16
G05
G00X192.83Y-78.84
M15
G01X192.43Y-78.84
M16
G05
G00X195.83Y-78.84
M15
G01X195.43Y-78.84
M16
G05
T0
M30
