M48
; DRILL file {KiCad (5.1.0)-1} date 7/24/2019 9:38:26 PM
; FORMAT={-:-/ absolute / metric / decimal}
; #@! TF.CreationDate,2019-07-24T21:38:26-04:00
; #@! TF.GenerationSoftware,Kicad,Pcbnew,(5.1.0)-1
; #@! TF.FileFunction,NonPlated,1,2,NPTH
FMAT,2
METRIC
T1C0.800
T2C1.800
T3C3.048
T4C3.988
%
G90
G05
T1
X206.33Y-76.59
X213.33Y-76.59
X190.23Y-76.54
X197.23Y-76.54
T2
X341.605Y-116.09
X351.765Y-116.09
X263.023Y-73.211
X273.183Y-73.211
X301.123Y-111.324
X311.283Y-111.324
X282.073Y-70.849
X292.233Y-70.849
X111.12Y-70.923
X121.28Y-70.923
X320.173Y-39.878
X330.333Y-39.878
X263.52Y-92.354
X273.68Y-92.354
X301.123Y-54.174
X311.283Y-54.174
X339.223Y-39.878
X349.383Y-39.878
X111.12Y-32.823
X121.28Y-32.823
X73.02Y-78.066
X83.18Y-78.066
X130.17Y-54.254
X140.33Y-54.254
X243.973Y-75.592
X254.133Y-75.592
X351.134Y-97.012
X361.294Y-97.012
X73.02Y-39.966
X83.18Y-39.966
X257.381Y-122.12
X266.179Y-117.04
X51.588Y-116.166
X61.748Y-116.166
X322.58Y-116.12
X332.74Y-116.12
X243.973Y-37.497
X254.133Y-37.497
X73.02Y-116.166
X83.18Y-116.166
X168.27Y-56.635
X178.43Y-56.635
X224.923Y-75.6
X235.083Y-75.6
X341.61Y-96.96
X351.77Y-96.96
X232.6Y-115.971
X237.68Y-124.769
X301.123Y-73.217
X311.283Y-73.217
X46.826Y-78.066
X56.986Y-78.066
X149.22Y-75.685
X159.38Y-75.685
X282.073Y-32.724
X292.233Y-32.724
X243.973Y-94.616
X254.133Y-94.616
X243.973Y-56.544
X254.133Y-56.544
X92.07Y-111.404
X102.23Y-111.404
X73.02Y-59.016
X83.18Y-59.016
X320.173Y-97.034
X330.333Y-97.034
X130.17Y-73.304
X140.33Y-73.304
X263.023Y-54.163
X273.183Y-54.163
X301.123Y-35.128
X311.283Y-35.128
X130.17Y-35.204
X140.33Y-35.204
X282.57Y-51.873
X292.73Y-51.873
X180.98Y-136.519
X186.06Y-127.721
X149.22Y-56.635
X159.38Y-56.635
X282.073Y-89.878
X292.233Y-89.878
X168.27Y-37.585
X178.43Y-37.585
X320.173Y-77.978
X330.333Y-77.978
X358.273Y-39.878
X368.433Y-39.878
X219.95Y-131.751
X225.03Y-140.549
X92.07Y-92.354
X102.23Y-92.354
X34.92Y-39.996
X45.08Y-39.996
X282.073Y-108.931
X292.233Y-108.931
X149.22Y-94.735
X159.38Y-94.735
X320.104Y-116.075
X330.264Y-116.075
X168.27Y-75.685
X178.43Y-75.685
X137.181Y-117.18
X145.979Y-122.26
X224.923Y-56.555
X235.083Y-56.555
X346.367Y-77.97
X356.527Y-77.97
X320.173Y-58.94
X330.333Y-58.94
X92.07Y-54.254
X102.23Y-54.254
X73.02Y-97.116
X83.18Y-97.116
X343.986Y-58.925
X354.146Y-58.925
X111.12Y-51.873
X121.28Y-51.873
X262.97Y-35.128
X273.13Y-35.128
X92.07Y-73.304
X102.23Y-73.304
X53.97Y-39.966
X64.13Y-39.966
X149.22Y-37.585
X159.38Y-37.585
X168.03Y-120.849
X173.11Y-112.051
X42.09Y-97.116
X52.25Y-97.116
X49.3Y-59.01
X59.46Y-59.01
X301.123Y-92.26
X311.283Y-92.26
X92.07Y-35.205
X102.23Y-35.205
X224.923Y-37.497
X235.083Y-37.497
X341.63Y-77.97
X351.79Y-77.97
X111.12Y-89.973
X121.28Y-89.973
X111.12Y-109.023
X121.28Y-109.023
X130.17Y-92.354
X140.33Y-92.354
X70.59Y-116.26
X80.75Y-116.26
T3
X171.502Y-138.966
X183.44Y-118.289
X170.65Y-130.281
X182.588Y-109.604
X35.232Y-90.131
X59.108Y-90.131
X344.276Y-90.027
X368.152Y-90.027
X235.22Y-106.539
X247.158Y-127.216
T4
X287.153Y-89.878
X173.35Y-37.585
X325.253Y-77.978
X363.353Y-39.878
X222.49Y-136.15
X97.15Y-92.354
X40.0Y-39.996
X287.153Y-108.931
X154.3Y-94.735
X325.184Y-116.075
X173.35Y-75.685
X141.58Y-119.72
X230.003Y-56.555
X351.447Y-77.97
X325.253Y-58.94
X97.15Y-54.254
X78.1Y-97.116
X349.066Y-58.925
X116.2Y-51.873
X268.05Y-35.128
X97.15Y-73.304
X59.05Y-39.966
X154.3Y-37.585
X157.452Y-122.661
X169.39Y-101.984
X170.57Y-116.45
X35.232Y-105.371
X47.17Y-97.116
X59.108Y-105.371
X54.38Y-59.01
X306.203Y-92.26
X97.15Y-35.205
X230.003Y-37.497
X346.71Y-77.97
X116.2Y-89.973
X116.2Y-109.023
X135.25Y-92.354
X75.67Y-116.26
X346.685Y-116.09
X268.103Y-73.211
X306.203Y-111.324
X287.153Y-70.849
X116.2Y-70.923
X325.253Y-39.878
X268.6Y-92.354
X306.203Y-54.174
X344.303Y-39.878
X116.2Y-32.823
X78.1Y-78.066
X135.25Y-54.254
X249.053Y-75.592
X344.276Y-105.267
X356.214Y-97.012
X368.152Y-105.267
X78.1Y-39.966
X261.78Y-119.58
X56.668Y-116.166
X327.66Y-116.12
X249.053Y-37.497
X78.1Y-116.166
X173.35Y-56.635
X230.003Y-75.6
X346.69Y-96.96
X222.022Y-114.159
X233.96Y-134.836
X235.14Y-120.37
X306.203Y-73.217
X51.906Y-78.066
X154.3Y-75.685
X287.153Y-32.724
X249.053Y-94.616
X249.053Y-56.544
X97.15Y-111.404
X78.1Y-59.016
X325.253Y-97.034
X135.25Y-73.304
X268.103Y-54.163
X306.203Y-35.128
X135.25Y-35.204
X287.65Y-51.873
X183.52Y-132.12
X184.7Y-146.586
X196.638Y-125.909
X154.3Y-56.635
T0
M30
