<svg version="1.1" xmlns="http://www.w3.org/2000/svg" xmlns:xlink="http://www.w3.org/1999/xlink" stroke-linecap="round" stroke-linejoin="round" stroke-width="0" fill-rule="evenodd" clip-rule="evenodd" id="jFVwq-M2jlYYtJdqGzKI_bottom" viewBox="33238 -148580 336908 121685.5" width="336.908mm" height="121.6855mm" class="w-100 h-100"><defs><style>.jFVwq-M2jlYYtJdqGzKI_fr4 {color: #666666;}
.jFVwq-M2jlYYtJdqGzKI_cu {color: #cccccc;}
.jFVwq-M2jlYYtJdqGzKI_cf {color: #cc9933;}
.jFVwq-M2jlYYtJdqGzKI_sm {color: #004200; opacity: 0.75;}
.jFVwq-M2jlYYtJdqGzKI_ss {color: #ffffff;}
.jFVwq-M2jlYYtJdqGzKI_sp {color: #999999;}
.jFVwq-M2jlYYtJdqGzKI_out {color: #000000;}</style><circle cx="0" cy="0" r="200" id="EX0QJ7J6rvCW5_Es35TW_pad-1"/><circle cx="0" cy="0" r="500" id="EX0QJ7J6rvCW5_Es35TW_pad-3"/><circle cx="0" cy="0" r="546" id="EX0QJ7J6rvCW5_Es35TW_pad-4"/><circle cx="0" cy="0" r="550" id="EX0QJ7J6rvCW5_Es35TW_pad-5"/><circle cx="0" cy="0" r="749.5" id="EX0QJ7J6rvCW5_Es35TW_pad-6"/><circle cx="0" cy="0" r="750" id="EX0QJ7J6rvCW5_Es35TW_pad-7"/><circle cx="0" cy="0" r="900" id="EX0QJ7J6rvCW5_Es35TW_pad-8"/><circle cx="0" cy="0" r="1524" id="EX0QJ7J6rvCW5_Es35TW_pad-9"/><circle cx="0" cy="0" r="1994" id="EX0QJ7J6rvCW5_Es35TW_pad-10"/><g id="jFVwq-M2jlYYtJdqGzKI_bottom_drill1"><use xlink:href="#EX0QJ7J6rvCW5_Es35TW_pad-1" x="80640" y="-44490"/><use xlink:href="#EX0QJ7J6rvCW5_Es35TW_pad-1" x="156840" y="-66480"/><use xlink:href="#EX0QJ7J6rvCW5_Es35TW_pad-1" x="165620" y="-79740"/><use xlink:href="#EX0QJ7J6rvCW5_Es35TW_pad-1" x="166110" y="-96410"/><use xlink:href="#EX0QJ7J6rvCW5_Es35TW_pad-1" x="167550" y="-48230"/><use xlink:href="#EX0QJ7J6rvCW5_Es35TW_pad-1" x="175890" y="-90450"/><use xlink:href="#EX0QJ7J6rvCW5_Es35TW_pad-1" x="175931" y="-64559"/><use xlink:href="#EX0QJ7J6rvCW5_Es35TW_pad-1" x="178147" y="-33973"/><use xlink:href="#EX0QJ7J6rvCW5_Es35TW_pad-1" x="178170" y="-73760"/><use xlink:href="#EX0QJ7J6rvCW5_Es35TW_pad-1" x="179670" y="-67910"/><use xlink:href="#EX0QJ7J6rvCW5_Es35TW_pad-1" x="179773" y="-46793"/><use xlink:href="#EX0QJ7J6rvCW5_Es35TW_pad-1" x="180780" y="-53830"/><use xlink:href="#EX0QJ7J6rvCW5_Es35TW_pad-1" x="180970" y="-72680"/><use xlink:href="#EX0QJ7J6rvCW5_Es35TW_pad-1" x="181020" y="-94530"/><use xlink:href="#EX0QJ7J6rvCW5_Es35TW_pad-1" x="181960" y="-60290"/><use xlink:href="#EX0QJ7J6rvCW5_Es35TW_pad-1" x="182604" y="-44550"/><use xlink:href="#EX0QJ7J6rvCW5_Es35TW_pad-1" x="182604" y="-63226"/><use xlink:href="#EX0QJ7J6rvCW5_Es35TW_pad-1" x="189845" y="-105555"/><use xlink:href="#EX0QJ7J6rvCW5_Es35TW_pad-1" x="190670" y="-97950"/><use xlink:href="#EX0QJ7J6rvCW5_Es35TW_pad-1" x="190670" y="-114590"/><use xlink:href="#EX0QJ7J6rvCW5_Es35TW_pad-1" x="191960" y="-96450"/><use xlink:href="#EX0QJ7J6rvCW5_Es35TW_pad-1" x="191980" y="-110870"/><use xlink:href="#EX0QJ7J6rvCW5_Es35TW_pad-1" x="192790" y="-73760"/><use xlink:href="#EX0QJ7J6rvCW5_Es35TW_pad-1" x="193674" y="-63226"/><use xlink:href="#EX0QJ7J6rvCW5_Es35TW_pad-1" x="194490" y="-94530"/><use xlink:href="#EX0QJ7J6rvCW5_Es35TW_pad-1" x="194500" y="-105290"/><use xlink:href="#EX0QJ7J6rvCW5_Es35TW_pad-1" x="194520" y="-72480"/><use xlink:href="#EX0QJ7J6rvCW5_Es35TW_pad-1" x="196390" y="-67780"/><use xlink:href="#EX0QJ7J6rvCW5_Es35TW_pad-1" x="197255" y="-84445"/><use xlink:href="#EX0QJ7J6rvCW5_Es35TW_pad-1" x="197880" y="-66590"/><use xlink:href="#EX0QJ7J6rvCW5_Es35TW_pad-1" x="198619" y="-64559"/><use xlink:href="#EX0QJ7J6rvCW5_Es35TW_pad-1" x="203720" y="-85267"/><use xlink:href="#EX0QJ7J6rvCW5_Es35TW_pad-1" x="205910" y="-121700"/><use xlink:href="#EX0QJ7J6rvCW5_Es35TW_pad-1" x="207490" y="-115980"/><use xlink:href="#EX0QJ7J6rvCW5_Es35TW_pad-1" x="208220" y="-50800"/><use xlink:href="#EX0QJ7J6rvCW5_Es35TW_pad-1" x="208310" y="-60620"/><use xlink:href="#EX0QJ7J6rvCW5_Es35TW_pad-1" x="209260" y="-110870"/><use xlink:href="#EX0QJ7J6rvCW5_Es35TW_pad-1" x="210360" y="-55880"/><use xlink:href="#EX0QJ7J6rvCW5_Es35TW_pad-1" x="210370" y="-79668"/><use xlink:href="#EX0QJ7J6rvCW5_Es35TW_pad-1" x="211330" y="-105290"/><use xlink:href="#EX0QJ7J6rvCW5_Es35TW_pad-1" x="212400" y="-55480"/><use xlink:href="#EX0QJ7J6rvCW5_Es35TW_pad-1" x="212420" y="-75950"/><use xlink:href="#EX0QJ7J6rvCW5_Es35TW_pad-1" x="213130" y="-40750"/><use xlink:href="#EX0QJ7J6rvCW5_Es35TW_pad-1" x="213190" y="-73760"/><use xlink:href="#EX0QJ7J6rvCW5_Es35TW_pad-1" x="213814" y="-43486"/><use xlink:href="#EX0QJ7J6rvCW5_Es35TW_pad-1" x="213814" y="-63226"/><use xlink:href="#EX0QJ7J6rvCW5_Es35TW_pad-1" x="214810" y="-66550"/><use xlink:href="#EX0QJ7J6rvCW5_Es35TW_pad-1" x="214890" y="-48450"/><use xlink:href="#EX0QJ7J6rvCW5_Es35TW_pad-1" x="215330" y="-73110"/><use xlink:href="#EX0QJ7J6rvCW5_Es35TW_pad-1" x="215680" y="-45940"/><use xlink:href="#EX0QJ7J6rvCW5_Es35TW_pad-1" x="216520" y="-68540"/><use xlink:href="#EX0QJ7J6rvCW5_Es35TW_pad-1" x="216800" y="-89510"/><use xlink:href="#EX0QJ7J6rvCW5_Es35TW_pad-1" x="217383" y="-85267"/><use xlink:href="#EX0QJ7J6rvCW5_Es35TW_pad-1" x="218310" y="-90840"/><use xlink:href="#EX0QJ7J6rvCW5_Es35TW_pad-1" x="218850" y="-77570"/><use xlink:href="#EX0QJ7J6rvCW5_Es35TW_pad-1" x="218922" y="-79668"/><use xlink:href="#EX0QJ7J6rvCW5_Es35TW_pad-1" x="220230" y="-76190"/><use xlink:href="#EX0QJ7J6rvCW5_Es35TW_pad-1" x="220360" y="-82450"/><use xlink:href="#EX0QJ7J6rvCW5_Es35TW_pad-1" x="290190" y="-49210"/><use xlink:href="#EX0QJ7J6rvCW5_Es35TW_pad-1" x="308743" y="-46297"/><use xlink:href="#EX0QJ7J6rvCW5_Es35TW_pad-1" x="327793" y="-48007"/><use xlink:href="#EX0QJ7J6rvCW5_Es35TW_pad-3" x="222903" y="-106880"/><use xlink:href="#EX0QJ7J6rvCW5_Es35TW_pad-3" x="229657" y="-102980"/><use xlink:href="#EX0QJ7J6rvCW5_Es35TW_pad-3" x="146240" y="-73130"/><use xlink:href="#EX0QJ7J6rvCW5_Es35TW_pad-3" x="146240" y="-80930"/><use xlink:href="#EX0QJ7J6rvCW5_Es35TW_pad-3" x="126960" y="-70810"/><use xlink:href="#EX0QJ7J6rvCW5_Es35TW_pad-3" x="126960" y="-78610"/><use xlink:href="#EX0QJ7J6rvCW5_Es35TW_pad-3" x="69990" y="-37380"/><use xlink:href="#EX0QJ7J6rvCW5_Es35TW_pad-3" x="69990" y="-45180"/><use xlink:href="#EX0QJ7J6rvCW5_Es35TW_pad-3" x="336330" y="-56410"/><use xlink:href="#EX0QJ7J6rvCW5_Es35TW_pad-3" x="336330" y="-64210"/><use xlink:href="#EX0QJ7J6rvCW5_Es35TW_pad-3" x="279400" y="-68440"/><use xlink:href="#EX0QJ7J6rvCW5_Es35TW_pad-3" x="279400" y="-76240"/><use xlink:href="#EX0QJ7J6rvCW5_Es35TW_pad-3" x="88950" y="-32700"/><use xlink:href="#EX0QJ7J6rvCW5_Es35TW_pad-3" x="88950" y="-40500"/><use xlink:href="#EX0QJ7J6rvCW5_Es35TW_pad-3" x="48100" y="-113830"/><use xlink:href="#EX0QJ7J6rvCW5_Es35TW_pad-3" x="48100" y="-121630"/><use xlink:href="#EX0QJ7J6rvCW5_Es35TW_pad-3" x="69890" y="-93360"/><use xlink:href="#EX0QJ7J6rvCW5_Es35TW_pad-3" x="69890" y="-101160"/><use xlink:href="#EX0QJ7J6rvCW5_Es35TW_pad-3" x="107970" y="-106550"/><use xlink:href="#EX0QJ7J6rvCW5_Es35TW_pad-3" x="107970" y="-114350"/><use xlink:href="#EX0QJ7J6rvCW5_Es35TW_pad-3" x="222760" y="-34950"/><use xlink:href="#EX0QJ7J6rvCW5_Es35TW_pad-3" x="222760" y="-42750"/><use xlink:href="#EX0QJ7J6rvCW5_Es35TW_pad-3" x="107830" y="-68660"/><use xlink:href="#EX0QJ7J6rvCW5_Es35TW_pad-3" x="107830" y="-76460"/><use xlink:href="#EX0QJ7J6rvCW5_Es35TW_pad-3" x="279730" y="-30270"/><use xlink:href="#EX0QJ7J6rvCW5_Es35TW_pad-3" x="279730" y="-38070"/><use xlink:href="#EX0QJ7J6rvCW5_Es35TW_pad-3" x="145960" y="-92180"/><use xlink:href="#EX0QJ7J6rvCW5_Es35TW_pad-3" x="145960" y="-99980"/><use xlink:href="#EX0QJ7J6rvCW5_Es35TW_pad-3" x="246243" y="-115150"/><use xlink:href="#EX0QJ7J6rvCW5_Es35TW_pad-3" x="252997" y="-111250"/><use xlink:href="#EX0QJ7J6rvCW5_Es35TW_pad-3" x="336360" y="-37350"/><use xlink:href="#EX0QJ7J6rvCW5_Es35TW_pad-3" x="336360" y="-45150"/><use xlink:href="#EX0QJ7J6rvCW5_Es35TW_pad-3" x="241350" y="-92050"/><use xlink:href="#EX0QJ7J6rvCW5_Es35TW_pad-3" x="241350" y="-99850"/><use xlink:href="#EX0QJ7J6rvCW5_Es35TW_pad-3" x="69840" y="-56340"/><use xlink:href="#EX0QJ7J6rvCW5_Es35TW_pad-3" x="69840" y="-64140"/><use xlink:href="#EX0QJ7J6rvCW5_Es35TW_pad-3" x="298690" y="-89630"/><use xlink:href="#EX0QJ7J6rvCW5_Es35TW_pad-3" x="298690" y="-97430"/><use xlink:href="#EX0QJ7J6rvCW5_Es35TW_pad-3" x="279410" y="-106270"/><use xlink:href="#EX0QJ7J6rvCW5_Es35TW_pad-3" x="279410" y="-114070"/><use xlink:href="#EX0QJ7J6rvCW5_Es35TW_pad-3" x="88840" y="-51720"/><use xlink:href="#EX0QJ7J6rvCW5_Es35TW_pad-3" x="88840" y="-59520"/><use xlink:href="#EX0QJ7J6rvCW5_Es35TW_pad-3" x="176173" y="-99300"/><use xlink:href="#EX0QJ7J6rvCW5_Es35TW_pad-3" x="182927" y="-103200"/><use xlink:href="#EX0QJ7J6rvCW5_Es35TW_pad-3" x="241770" y="-53990"/><use xlink:href="#EX0QJ7J6rvCW5_Es35TW_pad-3" x="241770" y="-61790"/><use xlink:href="#EX0QJ7J6rvCW5_Es35TW_pad-3" x="260410" y="-89940"/><use xlink:href="#EX0QJ7J6rvCW5_Es35TW_pad-3" x="260410" y="-97740"/><use xlink:href="#EX0QJ7J6rvCW5_Es35TW_pad-3" x="88950" y="-70790"/><use xlink:href="#EX0QJ7J6rvCW5_Es35TW_pad-3" x="88950" y="-78590"/><use xlink:href="#EX0QJ7J6rvCW5_Es35TW_pad-3" x="127130" y="-51770"/><use xlink:href="#EX0QJ7J6rvCW5_Es35TW_pad-3" x="127130" y="-59570"/><use xlink:href="#EX0QJ7J6rvCW5_Es35TW_pad-3" x="88880" y="-89840"/><use xlink:href="#EX0QJ7J6rvCW5_Es35TW_pad-3" x="88880" y="-97640"/><use xlink:href="#EX0QJ7J6rvCW5_Es35TW_pad-3" x="165150" y="-73340"/><use xlink:href="#EX0QJ7J6rvCW5_Es35TW_pad-3" x="165150" y="-81140"/><use xlink:href="#EX0QJ7J6rvCW5_Es35TW_pad-3" x="107980" y="-30280"/><use xlink:href="#EX0QJ7J6rvCW5_Es35TW_pad-3" x="107980" y="-38080"/><use xlink:href="#EX0QJ7J6rvCW5_Es35TW_pad-3" x="317470" y="-94690"/><use xlink:href="#EX0QJ7J6rvCW5_Es35TW_pad-3" x="317470" y="-102490"/><use xlink:href="#EX0QJ7J6rvCW5_Es35TW_pad-3" x="260410" y="-70770"/><use xlink:href="#EX0QJ7J6rvCW5_Es35TW_pad-3" x="260410" y="-78570"/><use xlink:href="#EX0QJ7J6rvCW5_Es35TW_pad-3" x="241460" y="-34950"/><use xlink:href="#EX0QJ7J6rvCW5_Es35TW_pad-3" x="241460" y="-42750"/><use xlink:href="#EX0QJ7J6rvCW5_Es35TW_pad-3" x="66260" y="-113440"/><use xlink:href="#EX0QJ7J6rvCW5_Es35TW_pad-3" x="66260" y="-121240"/><use xlink:href="#EX0QJ7J6rvCW5_Es35TW_pad-3" x="126940" y="-89840"/><use xlink:href="#EX0QJ7J6rvCW5_Es35TW_pad-3" x="126940" y="-97640"/><use xlink:href="#EX0QJ7J6rvCW5_Es35TW_pad-3" x="131170" y="-119627"/><use xlink:href="#EX0QJ7J6rvCW5_Es35TW_pad-3" x="135070" y="-112873"/><use xlink:href="#EX0QJ7J6rvCW5_Es35TW_pad-3" x="41630" y="-75520"/><use xlink:href="#EX0QJ7J6rvCW5_Es35TW_pad-3" x="41630" y="-83320"/><use xlink:href="#EX0QJ7J6rvCW5_Es35TW_pad-3" x="298320" y="-32640"/><use xlink:href="#EX0QJ7J6rvCW5_Es35TW_pad-3" x="298320" y="-40440"/><use xlink:href="#EX0QJ7J6rvCW5_Es35TW_pad-3" x="355090" y="-37280"/><use xlink:href="#EX0QJ7J6rvCW5_Es35TW_pad-3" x="355090" y="-45080"/><use xlink:href="#EX0QJ7J6rvCW5_Es35TW_pad-3" x="188633" y="-115240"/><use xlink:href="#EX0QJ7J6rvCW5_Es35TW_pad-3" x="195387" y="-119140"/><use xlink:href="#EX0QJ7J6rvCW5_Es35TW_pad-3" x="165640" y="-53890"/><use xlink:href="#EX0QJ7J6rvCW5_Es35TW_pad-3" x="165640" y="-61690"/><use xlink:href="#EX0QJ7J6rvCW5_Es35TW_pad-3" x="213243" y="-130340"/><use xlink:href="#EX0QJ7J6rvCW5_Es35TW_pad-3" x="219997" y="-126440"/><use xlink:href="#EX0QJ7J6rvCW5_Es35TW_pad-3" x="50710" y="-37420"/><use xlink:href="#EX0QJ7J6rvCW5_Es35TW_pad-3" x="50710" y="-45220"/><use xlink:href="#EX0QJ7J6rvCW5_Es35TW_pad-3" x="336850" y="-113670"/><use xlink:href="#EX0QJ7J6rvCW5_Es35TW_pad-3" x="336850" y="-121470"/><use xlink:href="#EX0QJ7J6rvCW5_Es35TW_pad-3" x="222950" y="-54080"/><use xlink:href="#EX0QJ7J6rvCW5_Es35TW_pad-3" x="222950" y="-61880"/><use xlink:href="#EX0QJ7J6rvCW5_Es35TW_pad-3" x="279420" y="-49610"/><use xlink:href="#EX0QJ7J6rvCW5_Es35TW_pad-3" x="279420" y="-57410"/><use xlink:href="#EX0QJ7J6rvCW5_Es35TW_pad-3" x="298420" y="-51770"/><use xlink:href="#EX0QJ7J6rvCW5_Es35TW_pad-3" x="298420" y="-59570"/><use xlink:href="#EX0QJ7J6rvCW5_Es35TW_pad-3" x="88840" y="-107380"/><use xlink:href="#EX0QJ7J6rvCW5_Es35TW_pad-3" x="88840" y="-115180"/><use xlink:href="#EX0QJ7J6rvCW5_Es35TW_pad-3" x="298630" y="-70800"/><use xlink:href="#EX0QJ7J6rvCW5_Es35TW_pad-3" x="298630" y="-78600"/><use xlink:href="#EX0QJ7J6rvCW5_Es35TW_pad-3" x="260360" y="-51550"/><use xlink:href="#EX0QJ7J6rvCW5_Es35TW_pad-3" x="260360" y="-59350"/><use xlink:href="#EX0QJ7J6rvCW5_Es35TW_pad-3" x="298540" y="-108580"/><use xlink:href="#EX0QJ7J6rvCW5_Es35TW_pad-3" x="298540" y="-116380"/><use xlink:href="#EX0QJ7J6rvCW5_Es35TW_pad-3" x="64360" y="-93000"/><use xlink:href="#EX0QJ7J6rvCW5_Es35TW_pad-3" x="64360" y="-100800"/><use xlink:href="#EX0QJ7J6rvCW5_Es35TW_pad-3" x="107780" y="-87580"/><use xlink:href="#EX0QJ7J6rvCW5_Es35TW_pad-3" x="107780" y="-95380"/><use xlink:href="#EX0QJ7J6rvCW5_Es35TW_pad-3" x="222370" y="-73130"/><use xlink:href="#EX0QJ7J6rvCW5_Es35TW_pad-3" x="222370" y="-80930"/><use xlink:href="#EX0QJ7J6rvCW5_Es35TW_pad-3" x="165340" y="-34690"/><use xlink:href="#EX0QJ7J6rvCW5_Es35TW_pad-3" x="165340" y="-42490"/><use xlink:href="#EX0QJ7J6rvCW5_Es35TW_pad-3" x="337900" y="-93970"/><use xlink:href="#EX0QJ7J6rvCW5_Es35TW_pad-3" x="337900" y="-101770"/><use xlink:href="#EX0QJ7J6rvCW5_Es35TW_pad-3" x="336350" y="-74050"/><use xlink:href="#EX0QJ7J6rvCW5_Es35TW_pad-3" x="336350" y="-81850"/><use xlink:href="#EX0QJ7J6rvCW5_Es35TW_pad-3" x="260400" y="-32660"/><use xlink:href="#EX0QJ7J6rvCW5_Es35TW_pad-3" x="260400" y="-40460"/><use xlink:href="#EX0QJ7J6rvCW5_Es35TW_pad-3" x="69880" y="-75530"/><use xlink:href="#EX0QJ7J6rvCW5_Es35TW_pad-3" x="69880" y="-83330"/><use xlink:href="#EX0QJ7J6rvCW5_Es35TW_pad-3" x="127130" y="-32610"/><use xlink:href="#EX0QJ7J6rvCW5_Es35TW_pad-3" x="127130" y="-40410"/><use xlink:href="#EX0QJ7J6rvCW5_Es35TW_pad-3" x="317780" y="-75560"/><use xlink:href="#EX0QJ7J6rvCW5_Es35TW_pad-3" x="317780" y="-83360"/><use xlink:href="#EX0QJ7J6rvCW5_Es35TW_pad-3" x="317560" y="-37430"/><use xlink:href="#EX0QJ7J6rvCW5_Es35TW_pad-3" x="317560" y="-45230"/><use xlink:href="#EX0QJ7J6rvCW5_Es35TW_pad-3" x="241280" y="-73220"/><use xlink:href="#EX0QJ7J6rvCW5_Es35TW_pad-3" x="241280" y="-81020"/><use xlink:href="#EX0QJ7J6rvCW5_Es35TW_pad-3" x="44660" y="-56470"/><use xlink:href="#EX0QJ7J6rvCW5_Es35TW_pad-3" x="44660" y="-64270"/><use xlink:href="#EX0QJ7J6rvCW5_Es35TW_pad-3" x="279330" y="-87550"/><use xlink:href="#EX0QJ7J6rvCW5_Es35TW_pad-3" x="279330" y="-95350"/><use xlink:href="#EX0QJ7J6rvCW5_Es35TW_pad-3" x="146030" y="-35050"/><use xlink:href="#EX0QJ7J6rvCW5_Es35TW_pad-3" x="146030" y="-42850"/><use xlink:href="#EX0QJ7J6rvCW5_Es35TW_pad-3" x="318100" y="-113640"/><use xlink:href="#EX0QJ7J6rvCW5_Es35TW_pad-3" x="318100" y="-121440"/><use xlink:href="#EX0QJ7J6rvCW5_Es35TW_pad-3" x="146030" y="-53960"/><use xlink:href="#EX0QJ7J6rvCW5_Es35TW_pad-3" x="146030" y="-61760"/><use xlink:href="#EX0QJ7J6rvCW5_Es35TW_pad-3" x="48280" y="-37250"/><use xlink:href="#EX0QJ7J6rvCW5_Es35TW_pad-3" x="48280" y="-45050"/><use xlink:href="#EX0QJ7J6rvCW5_Es35TW_pad-3" x="317500" y="-56340"/><use xlink:href="#EX0QJ7J6rvCW5_Es35TW_pad-3" x="317500" y="-64140"/><use xlink:href="#EX0QJ7J6rvCW5_Es35TW_pad-3" x="108020" y="-49310"/><use xlink:href="#EX0QJ7J6rvCW5_Es35TW_pad-3" x="108020" y="-57110"/><use xlink:href="#EX0QJ7J6rvCW5_Es35TW_pad-4" x="203670" y="-30480"/><use xlink:href="#EX0QJ7J6rvCW5_Es35TW_pad-4" x="203670" y="-33020"/><use xlink:href="#EX0QJ7J6rvCW5_Es35TW_pad-4" x="203670" y="-35560"/><use xlink:href="#EX0QJ7J6rvCW5_Es35TW_pad-4" x="203670" y="-38100"/><use xlink:href="#EX0QJ7J6rvCW5_Es35TW_pad-4" x="203670" y="-40640"/><use xlink:href="#EX0QJ7J6rvCW5_Es35TW_pad-4" x="203670" y="-43180"/><use xlink:href="#EX0QJ7J6rvCW5_Es35TW_pad-4" x="203670" y="-45720"/><use xlink:href="#EX0QJ7J6rvCW5_Es35TW_pad-4" x="203670" y="-48260"/><use xlink:href="#EX0QJ7J6rvCW5_Es35TW_pad-4" x="203670" y="-50800"/><use xlink:href="#EX0QJ7J6rvCW5_Es35TW_pad-4" x="203670" y="-53340"/><use xlink:href="#EX0QJ7J6rvCW5_Es35TW_pad-4" x="203670" y="-55880"/><use xlink:href="#EX0QJ7J6rvCW5_Es35TW_pad-4" x="203670" y="-58420"/><use xlink:href="#EX0QJ7J6rvCW5_Es35TW_pad-4" x="218910" y="-30480"/><use xlink:href="#EX0QJ7J6rvCW5_Es35TW_pad-4" x="218910" y="-33020"/><use xlink:href="#EX0QJ7J6rvCW5_Es35TW_pad-4" x="218910" y="-35560"/><use xlink:href="#EX0QJ7J6rvCW5_Es35TW_pad-4" x="218910" y="-38100"/><use xlink:href="#EX0QJ7J6rvCW5_Es35TW_pad-4" x="218910" y="-40640"/><use xlink:href="#EX0QJ7J6rvCW5_Es35TW_pad-4" x="218910" y="-43180"/><use xlink:href="#EX0QJ7J6rvCW5_Es35TW_pad-4" x="218910" y="-45720"/><use xlink:href="#EX0QJ7J6rvCW5_Es35TW_pad-4" x="218910" y="-48260"/><use xlink:href="#EX0QJ7J6rvCW5_Es35TW_pad-4" x="218910" y="-50800"/><use xlink:href="#EX0QJ7J6rvCW5_Es35TW_pad-4" x="218910" y="-53340"/><use xlink:href="#EX0QJ7J6rvCW5_Es35TW_pad-4" x="218910" y="-55880"/><use xlink:href="#EX0QJ7J6rvCW5_Es35TW_pad-4" x="218910" y="-58420"/><use xlink:href="#EX0QJ7J6rvCW5_Es35TW_pad-4" x="184580" y="-30480"/><use xlink:href="#EX0QJ7J6rvCW5_Es35TW_pad-4" x="184580" y="-33020"/><use xlink:href="#EX0QJ7J6rvCW5_Es35TW_pad-4" x="184580" y="-35560"/><use xlink:href="#EX0QJ7J6rvCW5_Es35TW_pad-4" x="184580" y="-38100"/><use xlink:href="#EX0QJ7J6rvCW5_Es35TW_pad-4" x="184580" y="-40640"/><use xlink:href="#EX0QJ7J6rvCW5_Es35TW_pad-4" x="184580" y="-43180"/><use xlink:href="#EX0QJ7J6rvCW5_Es35TW_pad-4" x="184580" y="-45720"/><use xlink:href="#EX0QJ7J6rvCW5_Es35TW_pad-4" x="184580" y="-48260"/><use xlink:href="#EX0QJ7J6rvCW5_Es35TW_pad-4" x="184580" y="-50800"/><use xlink:href="#EX0QJ7J6rvCW5_Es35TW_pad-4" x="184580" y="-53340"/><use xlink:href="#EX0QJ7J6rvCW5_Es35TW_pad-4" x="184580" y="-55880"/><use xlink:href="#EX0QJ7J6rvCW5_Es35TW_pad-4" x="184580" y="-58420"/><use xlink:href="#EX0QJ7J6rvCW5_Es35TW_pad-4" x="199820" y="-30480"/><use xlink:href="#EX0QJ7J6rvCW5_Es35TW_pad-4" x="199820" y="-33020"/><use xlink:href="#EX0QJ7J6rvCW5_Es35TW_pad-4" x="199820" y="-35560"/><use xlink:href="#EX0QJ7J6rvCW5_Es35TW_pad-4" x="199820" y="-38100"/><use xlink:href="#EX0QJ7J6rvCW5_Es35TW_pad-4" x="199820" y="-40640"/><use xlink:href="#EX0QJ7J6rvCW5_Es35TW_pad-4" x="199820" y="-43180"/><use xlink:href="#EX0QJ7J6rvCW5_Es35TW_pad-4" x="199820" y="-45720"/><use xlink:href="#EX0QJ7J6rvCW5_Es35TW_pad-4" x="199820" y="-48260"/><use xlink:href="#EX0QJ7J6rvCW5_Es35TW_pad-4" x="199820" y="-50800"/><use xlink:href="#EX0QJ7J6rvCW5_Es35TW_pad-4" x="199820" y="-53340"/><use xlink:href="#EX0QJ7J6rvCW5_Es35TW_pad-4" x="199820" y="-55880"/><use xlink:href="#EX0QJ7J6rvCW5_Es35TW_pad-4" x="199820" y="-58420"/><use xlink:href="#EX0QJ7J6rvCW5_Es35TW_pad-5" x="218720" y="-89183"/><use xlink:href="#EX0QJ7J6rvCW5_Es35TW_pad-5" x="220970" y="-93080"/><use xlink:href="#EX0QJ7J6rvCW5_Es35TW_pad-5" x="224349" y="-85933"/><use xlink:href="#EX0QJ7J6rvCW5_Es35TW_pad-5" x="226599" y="-89830"/><use xlink:href="#EX0QJ7J6rvCW5_Es35TW_pad-5" x="181530" y="-90000"/><use xlink:href="#EX0QJ7J6rvCW5_Es35TW_pad-5" x="183780" y="-86103"/><use xlink:href="#EX0QJ7J6rvCW5_Es35TW_pad-5" x="187159" y="-93250"/><use xlink:href="#EX0QJ7J6rvCW5_Es35TW_pad-5" x="189409" y="-89353"/><use xlink:href="#EX0QJ7J6rvCW5_Es35TW_pad-6" x="345256" y="-56385"/><use xlink:href="#EX0QJ7J6rvCW5_Es35TW_pad-6" x="351606" y="-53845"/><use xlink:href="#EX0QJ7J6rvCW5_Es35TW_pad-6" x="342880" y="-94420"/><use xlink:href="#EX0QJ7J6rvCW5_Es35TW_pad-6" x="349230" y="-91880"/><use xlink:href="#EX0QJ7J6rvCW5_Es35TW_pad-6" x="150490" y="-73145"/><use xlink:href="#EX0QJ7J6rvCW5_Es35TW_pad-6" x="156840" y="-70605"/><use xlink:href="#EX0QJ7J6rvCW5_Es35TW_pad-6" x="226193" y="-54015"/><use xlink:href="#EX0QJ7J6rvCW5_Es35TW_pad-6" x="232543" y="-51475"/><use xlink:href="#EX0QJ7J6rvCW5_Es35TW_pad-6" x="245243" y="-73052"/><use xlink:href="#EX0QJ7J6rvCW5_Es35TW_pad-6" x="251593" y="-70512"/><use xlink:href="#EX0QJ7J6rvCW5_Es35TW_pad-6" x="131440" y="-32664"/><use xlink:href="#EX0QJ7J6rvCW5_Es35TW_pad-6" x="137790" y="-30124"/><use xlink:href="#EX0QJ7J6rvCW5_Es35TW_pad-6" x="50477" y="-56476"/><use xlink:href="#EX0QJ7J6rvCW5_Es35TW_pad-6" x="56827" y="-53936"/><use xlink:href="#EX0QJ7J6rvCW5_Es35TW_pad-6" x="93340" y="-51714"/><use xlink:href="#EX0QJ7J6rvCW5_Es35TW_pad-6" x="99690" y="-49174"/><use xlink:href="#EX0QJ7J6rvCW5_Es35TW_pad-6" x="302393" y="-108784"/><use xlink:href="#EX0QJ7J6rvCW5_Es35TW_pad-6" x="308743" y="-106244"/><use xlink:href="#EX0QJ7J6rvCW5_Es35TW_pad-6" x="74290" y="-37426"/><use xlink:href="#EX0QJ7J6rvCW5_Es35TW_pad-6" x="80640" y="-34886"/><use xlink:href="#EX0QJ7J6rvCW5_Es35TW_pad-6" x="93340" y="-89814"/><use xlink:href="#EX0QJ7J6rvCW5_Es35TW_pad-6" x="99690" y="-87274"/><use xlink:href="#EX0QJ7J6rvCW5_Es35TW_pad-6" x="226193" y="-73060"/><use xlink:href="#EX0QJ7J6rvCW5_Es35TW_pad-6" x="232543" y="-70520"/><use xlink:href="#EX0QJ7J6rvCW5_Es35TW_pad-6" x="359543" y="-37338"/><use xlink:href="#EX0QJ7J6rvCW5_Es35TW_pad-6" x="365893" y="-34798"/><use xlink:href="#EX0QJ7J6rvCW5_Es35TW_pad-6" x="235435" y="-115800"/><use xlink:href="#EX0QJ7J6rvCW5_Es35TW_pad-6" x="240809" y="-120030"/><use xlink:href="#EX0QJ7J6rvCW5_Es35TW_pad-6" x="321443" y="-94494"/><use xlink:href="#EX0QJ7J6rvCW5_Es35TW_pad-6" x="327793" y="-91954"/><use xlink:href="#EX0QJ7J6rvCW5_Es35TW_pad-6" x="264790" y="-89814"/><use xlink:href="#EX0QJ7J6rvCW5_Es35TW_pad-6" x="271140" y="-87274"/><use xlink:href="#EX0QJ7J6rvCW5_Es35TW_pad-6" x="36190" y="-37456"/><use xlink:href="#EX0QJ7J6rvCW5_Es35TW_pad-6" x="42540" y="-34916"/><use xlink:href="#EX0QJ7J6rvCW5_Es35TW_pad-6" x="112390" y="-87433"/><use xlink:href="#EX0QJ7J6rvCW5_Es35TW_pad-6" x="118740" y="-84893"/><use xlink:href="#EX0QJ7J6rvCW5_Es35TW_pad-6" x="321374" y="-113535"/><use xlink:href="#EX0QJ7J6rvCW5_Es35TW_pad-6" x="327724" y="-110995"/><use xlink:href="#EX0QJ7J6rvCW5_Es35TW_pad-6" x="283343" y="-30184"/><use xlink:href="#EX0QJ7J6rvCW5_Es35TW_pad-6" x="289693" y="-27644"/><use xlink:href="#EX0QJ7J6rvCW5_Es35TW_pad-6" x="150490" y="-92195"/><use xlink:href="#EX0QJ7J6rvCW5_Es35TW_pad-6" x="156840" y="-89655"/><use xlink:href="#EX0QJ7J6rvCW5_Es35TW_pad-6" x="302393" y="-32588"/><use xlink:href="#EX0QJ7J6rvCW5_Es35TW_pad-6" x="308743" y="-30048"/><use xlink:href="#EX0QJ7J6rvCW5_Es35TW_pad-6" x="222785" y="-131580"/><use xlink:href="#EX0QJ7J6rvCW5_Es35TW_pad-6" x="228159" y="-135810"/><use xlink:href="#EX0QJ7J6rvCW5_Es35TW_pad-6" x="169540" y="-73145"/><use xlink:href="#EX0QJ7J6rvCW5_Es35TW_pad-6" x="175890" y="-70605"/><use xlink:href="#EX0QJ7J6rvCW5_Es35TW_pad-6" x="74290" y="-56476"/><use xlink:href="#EX0QJ7J6rvCW5_Es35TW_pad-6" x="80640" y="-53936"/><use xlink:href="#EX0QJ7J6rvCW5_Es35TW_pad-6" x="93340" y="-70764"/><use xlink:href="#EX0QJ7J6rvCW5_Es35TW_pad-6" x="99690" y="-68224"/><use xlink:href="#EX0QJ7J6rvCW5_Es35TW_pad-6" x="131440" y="-51714"/><use xlink:href="#EX0QJ7J6rvCW5_Es35TW_pad-6" x="137790" y="-49174"/><use xlink:href="#EX0QJ7J6rvCW5_Es35TW_pad-6" x="321443" y="-56400"/><use xlink:href="#EX0QJ7J6rvCW5_Es35TW_pad-6" x="327793" y="-53860"/><use xlink:href="#EX0QJ7J6rvCW5_Es35TW_pad-6" x="169540" y="-54095"/><use xlink:href="#EX0QJ7J6rvCW5_Es35TW_pad-6" x="175890" y="-51555"/><use xlink:href="#EX0QJ7J6rvCW5_Es35TW_pad-6" x="245243" y="-54004"/><use xlink:href="#EX0QJ7J6rvCW5_Es35TW_pad-6" x="251593" y="-51464"/><use xlink:href="#EX0QJ7J6rvCW5_Es35TW_pad-6" x="264293" y="-70671"/><use xlink:href="#EX0QJ7J6rvCW5_Es35TW_pad-6" x="270643" y="-68131"/><use xlink:href="#EX0QJ7J6rvCW5_Es35TW_pad-6" x="245243" y="-34957"/><use xlink:href="#EX0QJ7J6rvCW5_Es35TW_pad-6" x="251593" y="-32417"/><use xlink:href="#EX0QJ7J6rvCW5_Es35TW_pad-6" x="302393" y="-70677"/><use xlink:href="#EX0QJ7J6rvCW5_Es35TW_pad-6" x="308743" y="-68137"/><use xlink:href="#EX0QJ7J6rvCW5_Es35TW_pad-6" x="93340" y="-32665"/><use xlink:href="#EX0QJ7J6rvCW5_Es35TW_pad-6" x="99690" y="-30125"/><use xlink:href="#EX0QJ7J6rvCW5_Es35TW_pad-6" x="283840" y="-49333"/><use xlink:href="#EX0QJ7J6rvCW5_Es35TW_pad-6" x="290190" y="-46793"/><use xlink:href="#EX0QJ7J6rvCW5_Es35TW_pad-6" x="55240" y="-37426"/><use xlink:href="#EX0QJ7J6rvCW5_Es35TW_pad-6" x="61590" y="-34886"/><use xlink:href="#EX0QJ7J6rvCW5_Es35TW_pad-6" x="264293" y="-51623"/><use xlink:href="#EX0QJ7J6rvCW5_Es35TW_pad-6" x="270643" y="-49083"/><use xlink:href="#EX0QJ7J6rvCW5_Es35TW_pad-6" x="226193" y="-34957"/><use xlink:href="#EX0QJ7J6rvCW5_Es35TW_pad-6" x="232543" y="-32417"/><use xlink:href="#EX0QJ7J6rvCW5_Es35TW_pad-6" x="52858" y="-113626"/><use xlink:href="#EX0QJ7J6rvCW5_Es35TW_pad-6" x="59208" y="-111086"/><use xlink:href="#EX0QJ7J6rvCW5_Es35TW_pad-6" x="283343" y="-106391"/><use xlink:href="#EX0QJ7J6rvCW5_Es35TW_pad-6" x="289693" y="-103851"/><use xlink:href="#EX0QJ7J6rvCW5_Es35TW_pad-6" x="74290" y="-94576"/><use xlink:href="#EX0QJ7J6rvCW5_Es35TW_pad-6" x="80640" y="-92036"/><use xlink:href="#EX0QJ7J6rvCW5_Es35TW_pad-6" x="74290" y="-113626"/><use xlink:href="#EX0QJ7J6rvCW5_Es35TW_pad-6" x="80640" y="-111086"/><use xlink:href="#EX0QJ7J6rvCW5_Es35TW_pad-6" x="302393" y="-89720"/><use xlink:href="#EX0QJ7J6rvCW5_Es35TW_pad-6" x="308743" y="-87180"/><use xlink:href="#EX0QJ7J6rvCW5_Es35TW_pad-6" x="150490" y="-35045"/><use xlink:href="#EX0QJ7J6rvCW5_Es35TW_pad-6" x="156840" y="-32505"/><use xlink:href="#EX0QJ7J6rvCW5_Es35TW_pad-6" x="112390" y="-106483"/><use xlink:href="#EX0QJ7J6rvCW5_Es35TW_pad-6" x="118740" y="-103943"/><use xlink:href="#EX0QJ7J6rvCW5_Es35TW_pad-6" x="173699" y="-121190"/><use xlink:href="#EX0QJ7J6rvCW5_Es35TW_pad-6" x="174675" y="-114420"/><use xlink:href="#EX0QJ7J6rvCW5_Es35TW_pad-6" x="283343" y="-87338"/><use xlink:href="#EX0QJ7J6rvCW5_Es35TW_pad-6" x="289693" y="-84798"/><use xlink:href="#EX0QJ7J6rvCW5_Es35TW_pad-6" x="321443" y="-37338"/><use xlink:href="#EX0QJ7J6rvCW5_Es35TW_pad-6" x="327793" y="-34798"/><use xlink:href="#EX0QJ7J6rvCW5_Es35TW_pad-6" x="257210" y="-119285"/><use xlink:href="#EX0QJ7J6rvCW5_Es35TW_pad-6" x="261440" y="-113911"/><use xlink:href="#EX0QJ7J6rvCW5_Es35TW_pad-6" x="112390" y="-49333"/><use xlink:href="#EX0QJ7J6rvCW5_Es35TW_pad-6" x="118740" y="-46793"/><use xlink:href="#EX0QJ7J6rvCW5_Es35TW_pad-6" x="347637" y="-75430"/><use xlink:href="#EX0QJ7J6rvCW5_Es35TW_pad-6" x="353987" y="-72890"/><use xlink:href="#EX0QJ7J6rvCW5_Es35TW_pad-6" x="179415" y="-134150"/><use xlink:href="#EX0QJ7J6rvCW5_Es35TW_pad-6" x="180391" y="-127380"/><use xlink:href="#EX0QJ7J6rvCW5_Es35TW_pad-6" x="150490" y="-54095"/><use xlink:href="#EX0QJ7J6rvCW5_Es35TW_pad-6" x="156840" y="-51555"/><use xlink:href="#EX0QJ7J6rvCW5_Es35TW_pad-6" x="302393" y="-51634"/><use xlink:href="#EX0QJ7J6rvCW5_Es35TW_pad-6" x="308743" y="-49094"/><use xlink:href="#EX0QJ7J6rvCW5_Es35TW_pad-6" x="323850" y="-113580"/><use xlink:href="#EX0QJ7J6rvCW5_Es35TW_pad-6" x="330200" y="-111040"/><use xlink:href="#EX0QJ7J6rvCW5_Es35TW_pad-6" x="112390" y="-30283"/><use xlink:href="#EX0QJ7J6rvCW5_Es35TW_pad-6" x="118740" y="-27743"/><use xlink:href="#EX0QJ7J6rvCW5_Es35TW_pad-6" x="48096" y="-75526"/><use xlink:href="#EX0QJ7J6rvCW5_Es35TW_pad-6" x="54446" y="-72986"/><use xlink:href="#EX0QJ7J6rvCW5_Es35TW_pad-6" x="264240" y="-32588"/><use xlink:href="#EX0QJ7J6rvCW5_Es35TW_pad-6" x="270590" y="-30048"/><use xlink:href="#EX0QJ7J6rvCW5_Es35TW_pad-6" x="131440" y="-89814"/><use xlink:href="#EX0QJ7J6rvCW5_Es35TW_pad-6" x="137790" y="-87274"/><use xlink:href="#EX0QJ7J6rvCW5_Es35TW_pad-6" x="71860" y="-113720"/><use xlink:href="#EX0QJ7J6rvCW5_Es35TW_pad-6" x="78210" y="-111180"/><use xlink:href="#EX0QJ7J6rvCW5_Es35TW_pad-6" x="321443" y="-75438"/><use xlink:href="#EX0QJ7J6rvCW5_Es35TW_pad-6" x="327793" y="-72898"/><use xlink:href="#EX0QJ7J6rvCW5_Es35TW_pad-6" x="112390" y="-68383"/><use xlink:href="#EX0QJ7J6rvCW5_Es35TW_pad-6" x="118740" y="-65843"/><use xlink:href="#EX0QJ7J6rvCW5_Es35TW_pad-6" x="352404" y="-94472"/><use xlink:href="#EX0QJ7J6rvCW5_Es35TW_pad-6" x="358754" y="-91932"/><use xlink:href="#EX0QJ7J6rvCW5_Es35TW_pad-6" x="245243" y="-92076"/><use xlink:href="#EX0QJ7J6rvCW5_Es35TW_pad-6" x="251593" y="-89536"/><use xlink:href="#EX0QJ7J6rvCW5_Es35TW_pad-6" x="74290" y="-75526"/><use xlink:href="#EX0QJ7J6rvCW5_Es35TW_pad-6" x="80640" y="-72986"/><use xlink:href="#EX0QJ7J6rvCW5_Es35TW_pad-6" x="169540" y="-35045"/><use xlink:href="#EX0QJ7J6rvCW5_Es35TW_pad-6" x="175890" y="-32505"/><use xlink:href="#EX0QJ7J6rvCW5_Es35TW_pad-6" x="93340" y="-108864"/><use xlink:href="#EX0QJ7J6rvCW5_Es35TW_pad-6" x="99690" y="-106324"/><use xlink:href="#EX0QJ7J6rvCW5_Es35TW_pad-6" x="283343" y="-68309"/><use xlink:href="#EX0QJ7J6rvCW5_Es35TW_pad-6" x="289693" y="-65769"/><use xlink:href="#EX0QJ7J6rvCW5_Es35TW_pad-6" x="43360" y="-94576"/><use xlink:href="#EX0QJ7J6rvCW5_Es35TW_pad-6" x="49710" y="-92036"/><use xlink:href="#EX0QJ7J6rvCW5_Es35TW_pad-6" x="139550" y="-115615"/><use xlink:href="#EX0QJ7J6rvCW5_Es35TW_pad-6" x="146320" y="-116591"/><use xlink:href="#EX0QJ7J6rvCW5_Es35TW_pad-6" x="131440" y="-70764"/><use xlink:href="#EX0QJ7J6rvCW5_Es35TW_pad-6" x="137790" y="-68224"/><use xlink:href="#EX0QJ7J6rvCW5_Es35TW_pad-6" x="340493" y="-37338"/><use xlink:href="#EX0QJ7J6rvCW5_Es35TW_pad-6" x="346843" y="-34798"/><use xlink:href="#EX0QJ7J6rvCW5_Es35TW_pad-6" x="342875" y="-113550"/><use xlink:href="#EX0QJ7J6rvCW5_Es35TW_pad-6" x="349225" y="-111010"/><use xlink:href="#EX0QJ7J6rvCW5_Es35TW_pad-7" x="192300" y="-83000"/><use xlink:href="#EX0QJ7J6rvCW5_Es35TW_pad-7" x="199300" y="-83000"/><use xlink:href="#EX0QJ7J6rvCW5_Es35TW_pad-7" x="204330" y="-83000"/><use xlink:href="#EX0QJ7J6rvCW5_Es35TW_pad-7" x="211330" y="-83000"/><use xlink:href="#EX0QJ7J6rvCW5_Es35TW_pad-8" x="224923" y="-56555"/><use xlink:href="#EX0QJ7J6rvCW5_Es35TW_pad-8" x="235083" y="-56555"/><use xlink:href="#EX0QJ7J6rvCW5_Es35TW_pad-8" x="243973" y="-75592"/><use xlink:href="#EX0QJ7J6rvCW5_Es35TW_pad-8" x="254133" y="-75592"/><use xlink:href="#EX0QJ7J6rvCW5_Es35TW_pad-8" x="130170" y="-35204"/><use xlink:href="#EX0QJ7J6rvCW5_Es35TW_pad-8" x="140330" y="-35204"/><use xlink:href="#EX0QJ7J6rvCW5_Es35TW_pad-8" x="49207" y="-59016"/><use xlink:href="#EX0QJ7J6rvCW5_Es35TW_pad-8" x="59367" y="-59016"/><use xlink:href="#EX0QJ7J6rvCW5_Es35TW_pad-8" x="92070" y="-54254"/><use xlink:href="#EX0QJ7J6rvCW5_Es35TW_pad-8" x="102230" y="-54254"/><use xlink:href="#EX0QJ7J6rvCW5_Es35TW_pad-8" x="301123" y="-111324"/><use xlink:href="#EX0QJ7J6rvCW5_Es35TW_pad-8" x="311283" y="-111324"/><use xlink:href="#EX0QJ7J6rvCW5_Es35TW_pad-8" x="73020" y="-39966"/><use xlink:href="#EX0QJ7J6rvCW5_Es35TW_pad-8" x="83180" y="-39966"/><use xlink:href="#EX0QJ7J6rvCW5_Es35TW_pad-8" x="92070" y="-92354"/><use xlink:href="#EX0QJ7J6rvCW5_Es35TW_pad-8" x="102230" y="-92354"/><use xlink:href="#EX0QJ7J6rvCW5_Es35TW_pad-8" x="224923" y="-75600"/><use xlink:href="#EX0QJ7J6rvCW5_Es35TW_pad-8" x="235083" y="-75600"/><use xlink:href="#EX0QJ7J6rvCW5_Es35TW_pad-8" x="358273" y="-39878"/><use xlink:href="#EX0QJ7J6rvCW5_Es35TW_pad-8" x="368433" y="-39878"/><use xlink:href="#EX0QJ7J6rvCW5_Es35TW_pad-8" x="232600" y="-115971"/><use xlink:href="#EX0QJ7J6rvCW5_Es35TW_pad-8" x="237680" y="-124769"/><use xlink:href="#EX0QJ7J6rvCW5_Es35TW_pad-8" x="320173" y="-97034"/><use xlink:href="#EX0QJ7J6rvCW5_Es35TW_pad-8" x="330333" y="-97034"/><use xlink:href="#EX0QJ7J6rvCW5_Es35TW_pad-8" x="263520" y="-92354"/><use xlink:href="#EX0QJ7J6rvCW5_Es35TW_pad-8" x="273680" y="-92354"/><use xlink:href="#EX0QJ7J6rvCW5_Es35TW_pad-8" x="34920" y="-39996"/><use xlink:href="#EX0QJ7J6rvCW5_Es35TW_pad-8" x="45080" y="-39996"/><use xlink:href="#EX0QJ7J6rvCW5_Es35TW_pad-8" x="111120" y="-89973"/><use xlink:href="#EX0QJ7J6rvCW5_Es35TW_pad-8" x="121280" y="-89973"/><use xlink:href="#EX0QJ7J6rvCW5_Es35TW_pad-8" x="320104" y="-116075"/><use xlink:href="#EX0QJ7J6rvCW5_Es35TW_pad-8" x="330264" y="-116075"/><use xlink:href="#EX0QJ7J6rvCW5_Es35TW_pad-8" x="282073" y="-32724"/><use xlink:href="#EX0QJ7J6rvCW5_Es35TW_pad-8" x="292233" y="-32724"/><use xlink:href="#EX0QJ7J6rvCW5_Es35TW_pad-8" x="149220" y="-94735"/><use xlink:href="#EX0QJ7J6rvCW5_Es35TW_pad-8" x="159380" y="-94735"/><use xlink:href="#EX0QJ7J6rvCW5_Es35TW_pad-8" x="301123" y="-35128"/><use xlink:href="#EX0QJ7J6rvCW5_Es35TW_pad-8" x="311283" y="-35128"/><use xlink:href="#EX0QJ7J6rvCW5_Es35TW_pad-8" x="219950" y="-131751"/><use xlink:href="#EX0QJ7J6rvCW5_Es35TW_pad-8" x="225030" y="-140549"/><use xlink:href="#EX0QJ7J6rvCW5_Es35TW_pad-8" x="168270" y="-75685"/><use xlink:href="#EX0QJ7J6rvCW5_Es35TW_pad-8" x="178430" y="-75685"/><use xlink:href="#EX0QJ7J6rvCW5_Es35TW_pad-8" x="73020" y="-59016"/><use xlink:href="#EX0QJ7J6rvCW5_Es35TW_pad-8" x="83180" y="-59016"/><use xlink:href="#EX0QJ7J6rvCW5_Es35TW_pad-8" x="92070" y="-73304"/><use xlink:href="#EX0QJ7J6rvCW5_Es35TW_pad-8" x="102230" y="-73304"/><use xlink:href="#EX0QJ7J6rvCW5_Es35TW_pad-8" x="130170" y="-54254"/><use xlink:href="#EX0QJ7J6rvCW5_Es35TW_pad-8" x="140330" y="-54254"/><use xlink:href="#EX0QJ7J6rvCW5_Es35TW_pad-8" x="320173" y="-58940"/><use xlink:href="#EX0QJ7J6rvCW5_Es35TW_pad-8" x="330333" y="-58940"/><use xlink:href="#EX0QJ7J6rvCW5_Es35TW_pad-8" x="168270" y="-56635"/><use xlink:href="#EX0QJ7J6rvCW5_Es35TW_pad-8" x="178430" y="-56635"/><use xlink:href="#EX0QJ7J6rvCW5_Es35TW_pad-8" x="243973" y="-56544"/><use xlink:href="#EX0QJ7J6rvCW5_Es35TW_pad-8" x="254133" y="-56544"/><use xlink:href="#EX0QJ7J6rvCW5_Es35TW_pad-8" x="263023" y="-73211"/><use xlink:href="#EX0QJ7J6rvCW5_Es35TW_pad-8" x="273183" y="-73211"/><use xlink:href="#EX0QJ7J6rvCW5_Es35TW_pad-8" x="243973" y="-37497"/><use xlink:href="#EX0QJ7J6rvCW5_Es35TW_pad-8" x="254133" y="-37497"/><use xlink:href="#EX0QJ7J6rvCW5_Es35TW_pad-8" x="301123" y="-73217"/><use xlink:href="#EX0QJ7J6rvCW5_Es35TW_pad-8" x="311283" y="-73217"/><use xlink:href="#EX0QJ7J6rvCW5_Es35TW_pad-8" x="92070" y="-35205"/><use xlink:href="#EX0QJ7J6rvCW5_Es35TW_pad-8" x="102230" y="-35205"/><use xlink:href="#EX0QJ7J6rvCW5_Es35TW_pad-8" x="282570" y="-51873"/><use xlink:href="#EX0QJ7J6rvCW5_Es35TW_pad-8" x="292730" y="-51873"/><use xlink:href="#EX0QJ7J6rvCW5_Es35TW_pad-8" x="53970" y="-39966"/><use xlink:href="#EX0QJ7J6rvCW5_Es35TW_pad-8" x="64130" y="-39966"/><use xlink:href="#EX0QJ7J6rvCW5_Es35TW_pad-8" x="263023" y="-54163"/><use xlink:href="#EX0QJ7J6rvCW5_Es35TW_pad-8" x="273183" y="-54163"/><use xlink:href="#EX0QJ7J6rvCW5_Es35TW_pad-8" x="224923" y="-37497"/><use xlink:href="#EX0QJ7J6rvCW5_Es35TW_pad-8" x="235083" y="-37497"/><use xlink:href="#EX0QJ7J6rvCW5_Es35TW_pad-8" x="51588" y="-116166"/><use xlink:href="#EX0QJ7J6rvCW5_Es35TW_pad-8" x="61748" y="-116166"/><use xlink:href="#EX0QJ7J6rvCW5_Es35TW_pad-8" x="282073" y="-108931"/><use xlink:href="#EX0QJ7J6rvCW5_Es35TW_pad-8" x="292233" y="-108931"/><use xlink:href="#EX0QJ7J6rvCW5_Es35TW_pad-8" x="73020" y="-97116"/><use xlink:href="#EX0QJ7J6rvCW5_Es35TW_pad-8" x="83180" y="-97116"/><use xlink:href="#EX0QJ7J6rvCW5_Es35TW_pad-8" x="73020" y="-116166"/><use xlink:href="#EX0QJ7J6rvCW5_Es35TW_pad-8" x="83180" y="-116166"/><use xlink:href="#EX0QJ7J6rvCW5_Es35TW_pad-8" x="301123" y="-92260"/><use xlink:href="#EX0QJ7J6rvCW5_Es35TW_pad-8" x="311283" y="-92260"/><use xlink:href="#EX0QJ7J6rvCW5_Es35TW_pad-8" x="149220" y="-37585"/><use xlink:href="#EX0QJ7J6rvCW5_Es35TW_pad-8" x="159380" y="-37585"/><use xlink:href="#EX0QJ7J6rvCW5_Es35TW_pad-8" x="111120" y="-109023"/><use xlink:href="#EX0QJ7J6rvCW5_Es35TW_pad-8" x="121280" y="-109023"/><use xlink:href="#EX0QJ7J6rvCW5_Es35TW_pad-8" x="168030" y="-120849"/><use xlink:href="#EX0QJ7J6rvCW5_Es35TW_pad-8" x="173110" y="-112051"/><use xlink:href="#EX0QJ7J6rvCW5_Es35TW_pad-8" x="282073" y="-89878"/><use xlink:href="#EX0QJ7J6rvCW5_Es35TW_pad-8" x="292233" y="-89878"/><use xlink:href="#EX0QJ7J6rvCW5_Es35TW_pad-8" x="320173" y="-39878"/><use xlink:href="#EX0QJ7J6rvCW5_Es35TW_pad-8" x="330333" y="-39878"/><use xlink:href="#EX0QJ7J6rvCW5_Es35TW_pad-8" x="257381" y="-122120"/><use xlink:href="#EX0QJ7J6rvCW5_Es35TW_pad-8" x="266179" y="-117040"/><use xlink:href="#EX0QJ7J6rvCW5_Es35TW_pad-8" x="111120" y="-51873"/><use xlink:href="#EX0QJ7J6rvCW5_Es35TW_pad-8" x="121280" y="-51873"/><use xlink:href="#EX0QJ7J6rvCW5_Es35TW_pad-8" x="346367" y="-77970"/><use xlink:href="#EX0QJ7J6rvCW5_Es35TW_pad-8" x="356527" y="-77970"/><use xlink:href="#EX0QJ7J6rvCW5_Es35TW_pad-8" x="180980" y="-136519"/><use xlink:href="#EX0QJ7J6rvCW5_Es35TW_pad-8" x="186060" y="-127721"/><use xlink:href="#EX0QJ7J6rvCW5_Es35TW_pad-8" x="149220" y="-56635"/><use xlink:href="#EX0QJ7J6rvCW5_Es35TW_pad-8" x="159380" y="-56635"/><use xlink:href="#EX0QJ7J6rvCW5_Es35TW_pad-8" x="301123" y="-54174"/><use xlink:href="#EX0QJ7J6rvCW5_Es35TW_pad-8" x="311283" y="-54174"/><use xlink:href="#EX0QJ7J6rvCW5_Es35TW_pad-8" x="322580" y="-116120"/><use xlink:href="#EX0QJ7J6rvCW5_Es35TW_pad-8" x="332740" y="-116120"/><use xlink:href="#EX0QJ7J6rvCW5_Es35TW_pad-8" x="111120" y="-32823"/><use xlink:href="#EX0QJ7J6rvCW5_Es35TW_pad-8" x="121280" y="-32823"/><use xlink:href="#EX0QJ7J6rvCW5_Es35TW_pad-8" x="46826" y="-78066"/><use xlink:href="#EX0QJ7J6rvCW5_Es35TW_pad-8" x="56986" y="-78066"/><use xlink:href="#EX0QJ7J6rvCW5_Es35TW_pad-8" x="262970" y="-35128"/><use xlink:href="#EX0QJ7J6rvCW5_Es35TW_pad-8" x="273130" y="-35128"/><use xlink:href="#EX0QJ7J6rvCW5_Es35TW_pad-8" x="130170" y="-92354"/><use xlink:href="#EX0QJ7J6rvCW5_Es35TW_pad-8" x="140330" y="-92354"/><use xlink:href="#EX0QJ7J6rvCW5_Es35TW_pad-8" x="70590" y="-116260"/><use xlink:href="#EX0QJ7J6rvCW5_Es35TW_pad-8" x="80750" y="-116260"/><use xlink:href="#EX0QJ7J6rvCW5_Es35TW_pad-8" x="320173" y="-77978"/><use xlink:href="#EX0QJ7J6rvCW5_Es35TW_pad-8" x="330333" y="-77978"/><use xlink:href="#EX0QJ7J6rvCW5_Es35TW_pad-8" x="111120" y="-70923"/><use xlink:href="#EX0QJ7J6rvCW5_Es35TW_pad-8" x="121280" y="-70923"/><use xlink:href="#EX0QJ7J6rvCW5_Es35TW_pad-8" x="351134" y="-97012"/><use xlink:href="#EX0QJ7J6rvCW5_Es35TW_pad-8" x="361294" y="-97012"/><use xlink:href="#EX0QJ7J6rvCW5_Es35TW_pad-8" x="243973" y="-94616"/><use xlink:href="#EX0QJ7J6rvCW5_Es35TW_pad-8" x="254133" y="-94616"/><use xlink:href="#EX0QJ7J6rvCW5_Es35TW_pad-8" x="73020" y="-78066"/><use xlink:href="#EX0QJ7J6rvCW5_Es35TW_pad-8" x="83180" y="-78066"/><use xlink:href="#EX0QJ7J6rvCW5_Es35TW_pad-8" x="168270" y="-37585"/><use xlink:href="#EX0QJ7J6rvCW5_Es35TW_pad-8" x="178430" y="-37585"/><use xlink:href="#EX0QJ7J6rvCW5_Es35TW_pad-8" x="92070" y="-111404"/><use xlink:href="#EX0QJ7J6rvCW5_Es35TW_pad-8" x="102230" y="-111404"/><use xlink:href="#EX0QJ7J6rvCW5_Es35TW_pad-8" x="282073" y="-70849"/><use xlink:href="#EX0QJ7J6rvCW5_Es35TW_pad-8" x="292233" y="-70849"/><use xlink:href="#EX0QJ7J6rvCW5_Es35TW_pad-8" x="42090" y="-97116"/><use xlink:href="#EX0QJ7J6rvCW5_Es35TW_pad-8" x="52250" y="-97116"/><use xlink:href="#EX0QJ7J6rvCW5_Es35TW_pad-8" x="137181" y="-117180"/><use xlink:href="#EX0QJ7J6rvCW5_Es35TW_pad-8" x="145979" y="-122260"/><use xlink:href="#EX0QJ7J6rvCW5_Es35TW_pad-8" x="130170" y="-73304"/><use xlink:href="#EX0QJ7J6rvCW5_Es35TW_pad-8" x="140330" y="-73304"/><use xlink:href="#EX0QJ7J6rvCW5_Es35TW_pad-8" x="339223" y="-39878"/><use xlink:href="#EX0QJ7J6rvCW5_Es35TW_pad-8" x="349383" y="-39878"/><use xlink:href="#EX0QJ7J6rvCW5_Es35TW_pad-8" x="341605" y="-116090"/><use xlink:href="#EX0QJ7J6rvCW5_Es35TW_pad-8" x="351765" y="-116090"/><use xlink:href="#EX0QJ7J6rvCW5_Es35TW_pad-8" x="343986" y="-58925"/><use xlink:href="#EX0QJ7J6rvCW5_Es35TW_pad-8" x="354146" y="-58925"/><use xlink:href="#EX0QJ7J6rvCW5_Es35TW_pad-8" x="341610" y="-96960"/><use xlink:href="#EX0QJ7J6rvCW5_Es35TW_pad-8" x="351770" y="-96960"/><use xlink:href="#EX0QJ7J6rvCW5_Es35TW_pad-8" x="149220" y="-75685"/><use xlink:href="#EX0QJ7J6rvCW5_Es35TW_pad-8" x="159380" y="-75685"/><use xlink:href="#EX0QJ7J6rvCW5_Es35TW_pad-9" x="170650" y="-130281"/><use xlink:href="#EX0QJ7J6rvCW5_Es35TW_pad-9" x="182588" y="-109604"/><use xlink:href="#EX0QJ7J6rvCW5_Es35TW_pad-9" x="171502" y="-138966"/><use xlink:href="#EX0QJ7J6rvCW5_Es35TW_pad-9" x="183440" y="-118289"/><use xlink:href="#EX0QJ7J6rvCW5_Es35TW_pad-9" x="344276" y="-90027"/><use xlink:href="#EX0QJ7J6rvCW5_Es35TW_pad-9" x="368152" y="-90027"/><use xlink:href="#EX0QJ7J6rvCW5_Es35TW_pad-9" x="35232" y="-90131"/><use xlink:href="#EX0QJ7J6rvCW5_Es35TW_pad-9" x="59108" y="-90131"/><use xlink:href="#EX0QJ7J6rvCW5_Es35TW_pad-9" x="235220" y="-106539"/><use xlink:href="#EX0QJ7J6rvCW5_Es35TW_pad-9" x="247158" y="-127216"/><use xlink:href="#EX0QJ7J6rvCW5_Es35TW_pad-10" x="306203" y="-54174"/><use xlink:href="#EX0QJ7J6rvCW5_Es35TW_pad-10" x="327660" y="-116120"/><use xlink:href="#EX0QJ7J6rvCW5_Es35TW_pad-10" x="116200" y="-32823"/><use xlink:href="#EX0QJ7J6rvCW5_Es35TW_pad-10" x="51906" y="-78066"/><use xlink:href="#EX0QJ7J6rvCW5_Es35TW_pad-10" x="268050" y="-35128"/><use xlink:href="#EX0QJ7J6rvCW5_Es35TW_pad-10" x="135250" y="-92354"/><use xlink:href="#EX0QJ7J6rvCW5_Es35TW_pad-10" x="75670" y="-116260"/><use xlink:href="#EX0QJ7J6rvCW5_Es35TW_pad-10" x="325253" y="-77978"/><use xlink:href="#EX0QJ7J6rvCW5_Es35TW_pad-10" x="116200" y="-70923"/><use xlink:href="#EX0QJ7J6rvCW5_Es35TW_pad-10" x="344276" y="-105267"/><use xlink:href="#EX0QJ7J6rvCW5_Es35TW_pad-10" x="356214" y="-97012"/><use xlink:href="#EX0QJ7J6rvCW5_Es35TW_pad-10" x="368152" y="-105267"/><use xlink:href="#EX0QJ7J6rvCW5_Es35TW_pad-10" x="249053" y="-94616"/><use xlink:href="#EX0QJ7J6rvCW5_Es35TW_pad-10" x="78100" y="-78066"/><use xlink:href="#EX0QJ7J6rvCW5_Es35TW_pad-10" x="173350" y="-37585"/><use xlink:href="#EX0QJ7J6rvCW5_Es35TW_pad-10" x="97150" y="-111404"/><use xlink:href="#EX0QJ7J6rvCW5_Es35TW_pad-10" x="287153" y="-70849"/><use xlink:href="#EX0QJ7J6rvCW5_Es35TW_pad-10" x="35232" y="-105371"/><use xlink:href="#EX0QJ7J6rvCW5_Es35TW_pad-10" x="47170" y="-97116"/><use xlink:href="#EX0QJ7J6rvCW5_Es35TW_pad-10" x="59108" y="-105371"/><use xlink:href="#EX0QJ7J6rvCW5_Es35TW_pad-10" x="141580" y="-119720"/><use xlink:href="#EX0QJ7J6rvCW5_Es35TW_pad-10" x="135250" y="-73304"/><use xlink:href="#EX0QJ7J6rvCW5_Es35TW_pad-10" x="344303" y="-39878"/><use xlink:href="#EX0QJ7J6rvCW5_Es35TW_pad-10" x="346685" y="-116090"/><use xlink:href="#EX0QJ7J6rvCW5_Es35TW_pad-10" x="349066" y="-58925"/><use xlink:href="#EX0QJ7J6rvCW5_Es35TW_pad-10" x="346690" y="-96960"/><use xlink:href="#EX0QJ7J6rvCW5_Es35TW_pad-10" x="154300" y="-75685"/><use xlink:href="#EX0QJ7J6rvCW5_Es35TW_pad-10" x="230003" y="-56555"/><use xlink:href="#EX0QJ7J6rvCW5_Es35TW_pad-10" x="249053" y="-75592"/><use xlink:href="#EX0QJ7J6rvCW5_Es35TW_pad-10" x="135250" y="-35204"/><use xlink:href="#EX0QJ7J6rvCW5_Es35TW_pad-10" x="54287" y="-59016"/><use xlink:href="#EX0QJ7J6rvCW5_Es35TW_pad-10" x="97150" y="-54254"/><use xlink:href="#EX0QJ7J6rvCW5_Es35TW_pad-10" x="306203" y="-111324"/><use xlink:href="#EX0QJ7J6rvCW5_Es35TW_pad-10" x="78100" y="-39966"/><use xlink:href="#EX0QJ7J6rvCW5_Es35TW_pad-10" x="97150" y="-92354"/><use xlink:href="#EX0QJ7J6rvCW5_Es35TW_pad-10" x="230003" y="-75600"/><use xlink:href="#EX0QJ7J6rvCW5_Es35TW_pad-10" x="363353" y="-39878"/><use xlink:href="#EX0QJ7J6rvCW5_Es35TW_pad-10" x="222022" y="-114159"/><use xlink:href="#EX0QJ7J6rvCW5_Es35TW_pad-10" x="233960" y="-134836"/><use xlink:href="#EX0QJ7J6rvCW5_Es35TW_pad-10" x="235140" y="-120370"/><use xlink:href="#EX0QJ7J6rvCW5_Es35TW_pad-10" x="325253" y="-97034"/><use xlink:href="#EX0QJ7J6rvCW5_Es35TW_pad-10" x="268600" y="-92354"/><use xlink:href="#EX0QJ7J6rvCW5_Es35TW_pad-10" x="40000" y="-39996"/><use xlink:href="#EX0QJ7J6rvCW5_Es35TW_pad-10" x="116200" y="-89973"/><use xlink:href="#EX0QJ7J6rvCW5_Es35TW_pad-10" x="325184" y="-116075"/><use xlink:href="#EX0QJ7J6rvCW5_Es35TW_pad-10" x="287153" y="-32724"/><use xlink:href="#EX0QJ7J6rvCW5_Es35TW_pad-10" x="154300" y="-94735"/><use xlink:href="#EX0QJ7J6rvCW5_Es35TW_pad-10" x="306203" y="-35128"/><use xlink:href="#EX0QJ7J6rvCW5_Es35TW_pad-10" x="222490" y="-136150"/><use xlink:href="#EX0QJ7J6rvCW5_Es35TW_pad-10" x="173350" y="-75685"/><use xlink:href="#EX0QJ7J6rvCW5_Es35TW_pad-10" x="78100" y="-59016"/><use xlink:href="#EX0QJ7J6rvCW5_Es35TW_pad-10" x="97150" y="-73304"/><use xlink:href="#EX0QJ7J6rvCW5_Es35TW_pad-10" x="135250" y="-54254"/><use xlink:href="#EX0QJ7J6rvCW5_Es35TW_pad-10" x="325253" y="-58940"/><use xlink:href="#EX0QJ7J6rvCW5_Es35TW_pad-10" x="173350" y="-56635"/><use xlink:href="#EX0QJ7J6rvCW5_Es35TW_pad-10" x="249053" y="-56544"/><use xlink:href="#EX0QJ7J6rvCW5_Es35TW_pad-10" x="268103" y="-73211"/><use xlink:href="#EX0QJ7J6rvCW5_Es35TW_pad-10" x="249053" y="-37497"/><use xlink:href="#EX0QJ7J6rvCW5_Es35TW_pad-10" x="306203" y="-73217"/><use xlink:href="#EX0QJ7J6rvCW5_Es35TW_pad-10" x="97150" y="-35205"/><use xlink:href="#EX0QJ7J6rvCW5_Es35TW_pad-10" x="287650" y="-51873"/><use xlink:href="#EX0QJ7J6rvCW5_Es35TW_pad-10" x="59050" y="-39966"/><use xlink:href="#EX0QJ7J6rvCW5_Es35TW_pad-10" x="268103" y="-54163"/><use xlink:href="#EX0QJ7J6rvCW5_Es35TW_pad-10" x="230003" y="-37497"/><use xlink:href="#EX0QJ7J6rvCW5_Es35TW_pad-10" x="56668" y="-116166"/><use xlink:href="#EX0QJ7J6rvCW5_Es35TW_pad-10" x="287153" y="-108931"/><use xlink:href="#EX0QJ7J6rvCW5_Es35TW_pad-10" x="78100" y="-97116"/><use xlink:href="#EX0QJ7J6rvCW5_Es35TW_pad-10" x="78100" y="-116166"/><use xlink:href="#EX0QJ7J6rvCW5_Es35TW_pad-10" x="306203" y="-92260"/><use xlink:href="#EX0QJ7J6rvCW5_Es35TW_pad-10" x="154300" y="-37585"/><use xlink:href="#EX0QJ7J6rvCW5_Es35TW_pad-10" x="116200" y="-109023"/><use xlink:href="#EX0QJ7J6rvCW5_Es35TW_pad-10" x="157452" y="-122661"/><use xlink:href="#EX0QJ7J6rvCW5_Es35TW_pad-10" x="169390" y="-101984"/><use xlink:href="#EX0QJ7J6rvCW5_Es35TW_pad-10" x="170570" y="-116450"/><use xlink:href="#EX0QJ7J6rvCW5_Es35TW_pad-10" x="287153" y="-89878"/><use xlink:href="#EX0QJ7J6rvCW5_Es35TW_pad-10" x="325253" y="-39878"/><use xlink:href="#EX0QJ7J6rvCW5_Es35TW_pad-10" x="261780" y="-119580"/><use xlink:href="#EX0QJ7J6rvCW5_Es35TW_pad-10" x="116200" y="-51873"/><use xlink:href="#EX0QJ7J6rvCW5_Es35TW_pad-10" x="351447" y="-77970"/><use xlink:href="#EX0QJ7J6rvCW5_Es35TW_pad-10" x="183520" y="-132120"/><use xlink:href="#EX0QJ7J6rvCW5_Es35TW_pad-10" x="184700" y="-146586"/><use xlink:href="#EX0QJ7J6rvCW5_Es35TW_pad-10" x="196638" y="-125909"/><use xlink:href="#EX0QJ7J6rvCW5_Es35TW_pad-10" x="154300" y="-56635"/><path d="M 189900 -85300 189300 -85300 M 191000 -80700 190400 -80700 M 195000 -80700 194400 -80700 M 198000 -80700 197400 -80700 M 205630 -85300 206230 -85300 M 208630 -85300 209230 -85300 M 212630 -85300 213230 -85300 M 213730 -80700 214330 -80700" fill="none" stroke-width="600"/></g><mask id="jFVwq-M2jlYYtJdqGzKI_bottom_mech-mask"><g fill="#000" stroke="#000"><rect x="33238" y="-148580" width="336908" height="121685.5" fill="#fff"/><use xlink:href="#jFVwq-M2jlYYtJdqGzKI_bottom_drill1"/></g></mask></defs><g transform="translate(0,-175474.5) scale(1,-1)"><g mask="url(#jFVwq-M2jlYYtJdqGzKI_bottom_mech-mask)" transform="translate(403384,0) scale(-1,1)"><rect x="33238" y="-148580" width="336908" height="121685.5" fill="currentColor" class="jFVwq-M2jlYYtJdqGzKI_fr4"/></g></g></svg>