<?xml version="1.0" encoding="utf-8"?>
<!-- Generator: Adobe Illustrator 23.0.2, SVG Export Plug-In . SVG Version: 6.00 Build 0)  -->
<svg version="1.1" id="EX0QJ7J6rvCW5_Es35TW" xmlns="http://www.w3.org/2000/svg" xmlns:xlink="http://www.w3.org/1999/xlink"
	 x="0px" y="0px" viewBox="0 0 955 344.9" style="enable-background:new 0 0 955 344.9;" xml:space="preserve">
<style type="text/css">
	.st0{fill-rule:evenodd;clip-rule:evenodd;fill:none;stroke:#000000;stroke-miterlimit:10;}
	.st1{fill:none;stroke:#000000;stroke-linecap:round;stroke-linejoin:round;}
</style>
<g transform="translate(0,-175474.5) scale(1,-1)">
	<g>
		<circle id="EX0QJ7J6rvCW5_Es35TW_pad-3" class="st0" cx="537.6" cy="-175701.2" r="1.4"/>
	</g>
	<g>
		<circle class="st0" cx="556.8" cy="-175690.2" r="1.4"/>
	</g>
	<g>
		<circle class="st0" cx="320.3" cy="-175605.6" r="1.4"/>
	</g>
	<g>
		<circle class="st0" cx="320.3" cy="-175627.7" r="1.4"/>
	</g>
	<g>
		<circle class="st0" cx="265.7" cy="-175599" r="1.4"/>
	</g>
	<g>
		<circle class="st0" cx="265.7" cy="-175621.1" r="1.4"/>
	</g>
	<g>
		<circle class="st0" cx="104.2" cy="-175504.2" r="1.4"/>
	</g>
	<g>
		<circle class="st0" cx="104.2" cy="-175526.3" r="1.4"/>
	</g>
	<g>
		<circle class="st0" cx="859.2" cy="-175558.2" r="1.4"/>
	</g>
	<g>
		<circle class="st0" cx="859.2" cy="-175580.3" r="1.4"/>
	</g>
	<g>
		<circle class="st0" cx="697.8" cy="-175592.3" r="1.4"/>
	</g>
	<g>
		<circle class="st0" cx="697.8" cy="-175614.4" r="1.4"/>
	</g>
	<g>
		<circle class="st0" cx="157.9" cy="-175491" r="1.4"/>
	</g>
	<g>
		<circle class="st0" cx="157.9" cy="-175513.1" r="1.4"/>
	</g>
	<g>
		<circle class="st0" cx="42.1" cy="-175720.9" r="1.4"/>
	</g>
	<g>
		<circle class="st0" cx="42.1" cy="-175743" r="1.4"/>
	</g>
	<g>
		<circle class="st0" cx="103.9" cy="-175662.9" r="1.4"/>
	</g>
	<g>
		<circle class="st0" cx="103.9" cy="-175685" r="1.4"/>
	</g>
	<g>
		<circle class="st0" cx="211.8" cy="-175700.3" r="1.4"/>
	</g>
	<g>
		<circle class="st0" cx="211.8" cy="-175722.4" r="1.4"/>
	</g>
	<g>
		<circle class="st0" cx="537.2" cy="-175497.3" r="1.4"/>
	</g>
	<g>
		<circle class="st0" cx="537.2" cy="-175519.5" r="1.4"/>
	</g>
	<g>
		<circle class="st0" cx="211.4" cy="-175592.9" r="1.4"/>
	</g>
	<g>
		<circle class="st0" cx="211.4" cy="-175615" r="1.4"/>
	</g>
	<g>
		<circle class="st0" cx="698.7" cy="-175484.1" r="1.4"/>
	</g>
	<g>
		<circle class="st0" cx="698.7" cy="-175506.2" r="1.4"/>
	</g>
	<g>
		<circle class="st0" cx="319.5" cy="-175659.6" r="1.4"/>
	</g>
	<g>
		<circle class="st0" cx="319.5" cy="-175681.7" r="1.4"/>
	</g>
	<g>
		<circle class="st0" cx="603.8" cy="-175724.7" r="1.4"/>
	</g>
	<g>
		<circle class="st0" cx="622.9" cy="-175713.6" r="1.4"/>
	</g>
	<g>
		<circle class="st0" cx="859.2" cy="-175504.1" r="1.4"/>
	</g>
	<g>
		<circle class="st0" cx="859.2" cy="-175526.3" r="1.4"/>
	</g>
	<g>
		<circle class="st0" cx="589.9" cy="-175659.2" r="1.4"/>
	</g>
	<g>
		<circle class="st0" cx="589.9" cy="-175681.3" r="1.4"/>
	</g>
	<g>
		<circle class="st0" cx="103.8" cy="-175558" r="1.4"/>
	</g>
	<g>
		<circle class="st0" cx="103.8" cy="-175580.1" r="1.4"/>
	</g>
	<g>
		<circle class="st0" cx="752.5" cy="-175652.3" r="1.4"/>
	</g>
	<g>
		<circle class="st0" cx="752.5" cy="-175674.5" r="1.4"/>
	</g>
	<g>
		<circle class="st0" cx="697.8" cy="-175699.5" r="1.4"/>
	</g>
	<g>
		<circle class="st0" cx="697.8" cy="-175721.6" r="1.4"/>
	</g>
	<g>
		<circle class="st0" cx="157.6" cy="-175544.9" r="1.4"/>
	</g>
	<g>
		<circle class="st0" cx="157.6" cy="-175567" r="1.4"/>
	</g>
	<g>
		<circle class="st0" cx="405.2" cy="-175679.8" r="1.4"/>
	</g>
	<g>
		<circle class="st0" cx="424.3" cy="-175690.8" r="1.4"/>
	</g>
	<g>
		<circle class="st0" cx="591.1" cy="-175551.3" r="1.4"/>
	</g>
	<g>
		<circle class="st0" cx="591.1" cy="-175573.4" r="1.4"/>
	</g>
	<g>
		<circle class="st0" cx="644" cy="-175653.2" r="1.4"/>
	</g>
	<g>
		<circle class="st0" cx="644" cy="-175675.3" r="1.4"/>
	</g>
	<g>
		<circle class="st0" cx="157.9" cy="-175598.9" r="1.4"/>
	</g>
	<g>
		<circle class="st0" cx="157.9" cy="-175621" r="1.4"/>
	</g>
	<g>
		<circle class="st0" cx="266.2" cy="-175545" r="1.4"/>
	</g>
	<g>
		<circle class="st0" cx="266.2" cy="-175567.1" r="1.4"/>
	</g>
	<g>
		<circle class="st0" cx="157.7" cy="-175652.9" r="1.4"/>
	</g>
	<g>
		<circle class="st0" cx="157.7" cy="-175675" r="1.4"/>
	</g>
	<g>
		<circle class="st0" cx="373.9" cy="-175606.2" r="1.4"/>
	</g>
	<g>
		<circle class="st0" cx="373.9" cy="-175628.3" r="1.4"/>
	</g>
	<g>
		<circle class="st0" cx="211.9" cy="-175484.1" r="1.4"/>
	</g>
	<g>
		<circle class="st0" cx="211.9" cy="-175506.2" r="1.4"/>
	</g>
	<g>
		<circle class="st0" cx="805.7" cy="-175666.7" r="1.4"/>
	</g>
	<g>
		<circle class="st0" cx="805.7" cy="-175688.8" r="1.4"/>
	</g>
	<g>
		<circle class="st0" cx="644" cy="-175598.9" r="1.4"/>
	</g>
	<g>
		<circle class="st0" cx="644" cy="-175621" r="1.4"/>
	</g>
	<g>
		<circle class="st0" cx="590.2" cy="-175497.3" r="1.4"/>
	</g>
	<g>
		<circle class="st0" cx="590.2" cy="-175519.5" r="1.4"/>
	</g>
	<g>
		<circle class="st0" cx="93.6" cy="-175719.8" r="1.4"/>
	</g>
	<g>
		<circle class="st0" cx="93.6" cy="-175741.9" r="1.4"/>
	</g>
	<g>
		<circle class="st0" cx="265.6" cy="-175652.9" r="1.4"/>
	</g>
	<g>
		<circle class="st0" cx="265.6" cy="-175675" r="1.4"/>
	</g>
	<g>
		<circle class="st0" cx="277.6" cy="-175737.4" r="1.4"/>
	</g>
	<g>
		<circle class="st0" cx="288.7" cy="-175718.2" r="1.4"/>
	</g>
	<g>
		<circle class="st0" cx="23.8" cy="-175612.3" r="1.4"/>
	</g>
	<g>
		<circle class="st0" cx="23.8" cy="-175634.5" r="1.4"/>
	</g>
	<g>
		<circle class="st0" cx="751.4" cy="-175490.8" r="1.4"/>
	</g>
	<g>
		<circle class="st0" cx="751.4" cy="-175512.9" r="1.4"/>
	</g>
	<g>
		<circle class="st0" cx="912.3" cy="-175504" r="1.4"/>
	</g>
	<g>
		<circle class="st0" cx="912.3" cy="-175526.1" r="1.4"/>
	</g>
	<g>
		<circle class="st0" cx="440.5" cy="-175724.9" r="1.4"/>
	</g>
	<g>
		<circle class="st0" cx="459.6" cy="-175736" r="1.4"/>
	</g>
	<g>
		<circle class="st0" cx="375.3" cy="-175551" r="1.4"/>
	</g>
	<g>
		<circle class="st0" cx="375.3" cy="-175573.1" r="1.4"/>
	</g>
	<g>
		<circle class="st0" cx="510.3" cy="-175767.7" r="1.4"/>
	</g>
	<g>
		<circle class="st0" cx="529.4" cy="-175756.7" r="1.4"/>
	</g>
	<g>
		<circle class="st0" cx="49.5" cy="-175504.3" r="1.4"/>
	</g>
	<g>
		<circle class="st0" cx="49.5" cy="-175526.5" r="1.4"/>
	</g>
	<g>
		<circle class="st0" cx="860.6" cy="-175720.5" r="1.4"/>
	</g>
	<g>
		<circle class="st0" cx="860.6" cy="-175742.6" r="1.4"/>
	</g>
	<g>
		<circle class="st0" cx="537.8" cy="-175551.6" r="1.4"/>
	</g>
	<g>
		<circle class="st0" cx="537.8" cy="-175573.7" r="1.4"/>
	</g>
	<g>
		<circle class="st0" cx="697.8" cy="-175538.9" r="1.4"/>
	</g>
	<g>
		<circle class="st0" cx="697.8" cy="-175561" r="1.4"/>
	</g>
	<g>
		<circle class="st0" cx="751.7" cy="-175545" r="1.4"/>
	</g>
	<g>
		<circle class="st0" cx="751.7" cy="-175567.1" r="1.4"/>
	</g>
	<g>
		<circle class="st0" cx="157.6" cy="-175702.7" r="1.4"/>
	</g>
	<g>
		<circle class="st0" cx="157.6" cy="-175724.8" r="1.4"/>
	</g>
	<g>
		<circle class="st0" cx="752.3" cy="-175599" r="1.4"/>
	</g>
	<g>
		<circle class="st0" cx="752.3" cy="-175621.1" r="1.4"/>
	</g>
	<g>
		<circle class="st0" cx="643.8" cy="-175544.4" r="1.4"/>
	</g>
	<g>
		<circle class="st0" cx="643.8" cy="-175566.5" r="1.4"/>
	</g>
	<g>
		<circle class="st0" cx="752" cy="-175706.1" r="1.4"/>
	</g>
	<g>
		<circle class="st0" cx="752" cy="-175728.2" r="1.4"/>
	</g>
	<g>
		<circle class="st0" cx="88.2" cy="-175661.9" r="1.4"/>
	</g>
	<g>
		<circle class="st0" cx="88.2" cy="-175684" r="1.4"/>
	</g>
	<g>
		<circle class="st0" cx="211.3" cy="-175646.5" r="1.4"/>
	</g>
	<g>
		<circle class="st0" cx="211.3" cy="-175668.6" r="1.4"/>
	</g>
	<g>
		<circle class="st0" cx="536.1" cy="-175605.6" r="1.4"/>
	</g>
	<g>
		<circle class="st0" cx="536.1" cy="-175627.7" r="1.4"/>
	</g>
	<g>
		<circle class="st0" cx="374.5" cy="-175496.6" r="1.4"/>
	</g>
	<g>
		<circle class="st0" cx="374.5" cy="-175518.7" r="1.4"/>
	</g>
	<g>
		<circle class="st0" cx="863.6" cy="-175664.6" r="1.4"/>
	</g>
	<g>
		<circle class="st0" cx="863.6" cy="-175686.8" r="1.4"/>
	</g>
	<g>
		<circle class="st0" cx="859.2" cy="-175608.2" r="1.4"/>
	</g>
	<g>
		<circle class="st0" cx="859.2" cy="-175630.3" r="1.4"/>
	</g>
	<g>
		<circle class="st0" cx="643.9" cy="-175490.8" r="1.4"/>
	</g>
	<g>
		<circle class="st0" cx="643.9" cy="-175513" r="1.4"/>
	</g>
	<g>
		<circle class="st0" cx="103.9" cy="-175612.4" r="1.4"/>
	</g>
	<g>
		<circle class="st0" cx="103.9" cy="-175634.5" r="1.4"/>
	</g>
	<g>
		<circle class="st0" cx="266.2" cy="-175490.7" r="1.4"/>
	</g>
	<g>
		<circle class="st0" cx="266.2" cy="-175512.8" r="1.4"/>
	</g>
	<g>
		<circle class="st0" cx="806.6" cy="-175612.5" r="1.4"/>
	</g>
	<g>
		<circle class="st0" cx="806.6" cy="-175634.6" r="1.4"/>
	</g>
	<g>
		<circle class="st0" cx="806" cy="-175504.4" r="1.4"/>
	</g>
	<g>
		<circle class="st0" cx="806" cy="-175526.5" r="1.4"/>
	</g>
	<g>
		<circle class="st0" cx="589.7" cy="-175605.8" r="1.4"/>
	</g>
	<g>
		<circle class="st0" cx="589.7" cy="-175627.9" r="1.4"/>
	</g>
	<g>
		<circle class="st0" cx="32.4" cy="-175558.3" r="1.4"/>
	</g>
	<g>
		<circle class="st0" cx="32.4" cy="-175580.5" r="1.4"/>
	</g>
	<g>
		<circle class="st0" cx="697.6" cy="-175646.4" r="1.4"/>
	</g>
	<g>
		<circle class="st0" cx="697.6" cy="-175668.5" r="1.4"/>
	</g>
	<g>
		<circle class="st0" cx="319.7" cy="-175497.6" r="1.4"/>
	</g>
	<g>
		<circle class="st0" cx="319.7" cy="-175519.7" r="1.4"/>
	</g>
	<g>
		<circle class="st0" cx="807.5" cy="-175720.4" r="1.4"/>
	</g>
	<g>
		<circle class="st0" cx="807.5" cy="-175742.5" r="1.4"/>
	</g>
	<g>
		<circle class="st0" cx="319.7" cy="-175551.2" r="1.4"/>
	</g>
	<g>
		<circle class="st0" cx="319.7" cy="-175573.3" r="1.4"/>
	</g>
	<g>
		<circle class="st0" cx="42.6" cy="-175503.9" r="1.4"/>
	</g>
	<g>
		<circle class="st0" cx="42.6" cy="-175526" r="1.4"/>
	</g>
	<g>
		<circle class="st0" cx="805.8" cy="-175558" r="1.4"/>
	</g>
	<g>
		<circle class="st0" cx="805.8" cy="-175580.1" r="1.4"/>
	</g>
	<g>
		<circle class="st0" cx="212" cy="-175538" r="1.4"/>
	</g>
	<g>
		<circle class="st0" cx="212" cy="-175560.2" r="1.4"/>
	</g>
	<g>
		<circle id="EX0QJ7J6rvCW5_Es35TW_pad-4" class="st0" cx="483.1" cy="-175484.7" r="1.5"/>
	</g>
	<g>
		<circle class="st0" cx="483.1" cy="-175491.9" r="1.5"/>
	</g>
	<g>
		<circle class="st0" cx="483.1" cy="-175499.1" r="1.5"/>
	</g>
	<g>
		<circle class="st0" cx="483.1" cy="-175506.3" r="1.5"/>
	</g>
	<g>
		<circle class="st0" cx="483.1" cy="-175513.5" r="1.5"/>
	</g>
	<g>
		<circle class="st0" cx="483.1" cy="-175520.7" r="1.5"/>
	</g>
	<g>
		<circle class="st0" cx="483.1" cy="-175527.9" r="1.5"/>
	</g>
	<g>
		<circle class="st0" cx="483.1" cy="-175535.1" r="1.5"/>
	</g>
	<g>
		<circle class="st0" cx="483.1" cy="-175542.3" r="1.5"/>
	</g>
	<g>
		<circle class="st0" cx="483.1" cy="-175549.5" r="1.5"/>
	</g>
	<g>
		<circle class="st0" cx="483.1" cy="-175556.7" r="1.5"/>
	</g>
	<g>
		<circle class="st0" cx="483.1" cy="-175563.9" r="1.5"/>
	</g>
	<g>
		<circle class="st0" cx="526.3" cy="-175484.7" r="1.5"/>
	</g>
	<g>
		<circle class="st0" cx="526.3" cy="-175491.9" r="1.5"/>
	</g>
	<g>
		<circle class="st0" cx="526.3" cy="-175499.1" r="1.5"/>
	</g>
	<g>
		<circle class="st0" cx="526.3" cy="-175506.3" r="1.5"/>
	</g>
	<g>
		<circle class="st0" cx="526.3" cy="-175513.5" r="1.5"/>
	</g>
	<g>
		<circle class="st0" cx="526.3" cy="-175520.7" r="1.5"/>
	</g>
	<g>
		<circle class="st0" cx="526.3" cy="-175527.9" r="1.5"/>
	</g>
	<g>
		<circle class="st0" cx="526.3" cy="-175535.1" r="1.5"/>
	</g>
	<g>
		<circle class="st0" cx="526.3" cy="-175542.3" r="1.5"/>
	</g>
	<g>
		<circle class="st0" cx="526.3" cy="-175549.5" r="1.5"/>
	</g>
	<g>
		<circle class="st0" cx="526.3" cy="-175556.7" r="1.5"/>
	</g>
	<g>
		<circle class="st0" cx="526.3" cy="-175563.9" r="1.5"/>
	</g>
	<g>
		<circle class="st0" cx="429" cy="-175484.7" r="1.5"/>
	</g>
	<g>
		<circle class="st0" cx="429" cy="-175491.9" r="1.5"/>
	</g>
	<g>
		<circle class="st0" cx="429" cy="-175499.1" r="1.5"/>
	</g>
	<g>
		<circle class="st0" cx="429" cy="-175506.3" r="1.5"/>
	</g>
	<g>
		<circle class="st0" cx="429" cy="-175513.5" r="1.5"/>
	</g>
	<g>
		<circle class="st0" cx="429" cy="-175520.7" r="1.5"/>
	</g>
	<g>
		<circle class="st0" cx="429" cy="-175527.9" r="1.5"/>
	</g>
	<g>
		<circle class="st0" cx="429" cy="-175535.1" r="1.5"/>
	</g>
	<g>
		<circle class="st0" cx="429" cy="-175542.3" r="1.5"/>
	</g>
	<g>
		<circle class="st0" cx="429" cy="-175549.5" r="1.5"/>
	</g>
	<g>
		<circle class="st0" cx="429" cy="-175556.7" r="1.5"/>
	</g>
	<g>
		<circle class="st0" cx="429" cy="-175563.9" r="1.5"/>
	</g>
	<g>
		<circle class="st0" cx="472.2" cy="-175484.7" r="1.5"/>
	</g>
	<g>
		<circle class="st0" cx="472.2" cy="-175491.9" r="1.5"/>
	</g>
	<g>
		<circle class="st0" cx="472.2" cy="-175499.1" r="1.5"/>
	</g>
	<g>
		<circle class="st0" cx="472.2" cy="-175506.3" r="1.5"/>
	</g>
	<g>
		<circle class="st0" cx="472.2" cy="-175513.5" r="1.5"/>
	</g>
	<g>
		<circle class="st0" cx="472.2" cy="-175520.7" r="1.5"/>
	</g>
	<g>
		<circle class="st0" cx="472.2" cy="-175527.9" r="1.5"/>
	</g>
	<g>
		<circle class="st0" cx="472.2" cy="-175535.1" r="1.5"/>
	</g>
	<g>
		<circle class="st0" cx="472.2" cy="-175542.3" r="1.5"/>
	</g>
	<g>
		<circle class="st0" cx="472.2" cy="-175549.5" r="1.5"/>
	</g>
	<g>
		<circle class="st0" cx="472.2" cy="-175556.7" r="1.5"/>
	</g>
	<g>
		<circle class="st0" cx="472.2" cy="-175563.9" r="1.5"/>
	</g>
	<g>
		<circle id="EX0QJ7J6rvCW5_Es35TW_pad-5" class="st0" cx="525.8" cy="-175651.1" r="1.6"/>
	</g>
	<g>
		<circle class="st0" cx="532.2" cy="-175662.1" r="1.6"/>
	</g>
	<g>
		<circle class="st0" cx="541.7" cy="-175641.9" r="1.6"/>
	</g>
	<g>
		<circle class="st0" cx="548.1" cy="-175652.9" r="1.6"/>
	</g>
	<g>
		<circle class="st0" cx="420.4" cy="-175653.4" r="1.6"/>
	</g>
	<g>
		<circle class="st0" cx="426.7" cy="-175642.3" r="1.6"/>
	</g>
	<g>
		<circle class="st0" cx="436.3" cy="-175662.6" r="1.6"/>
	</g>
	<g>
		<circle class="st0" cx="442.7" cy="-175651.5" r="1.6"/>
	</g>
	<g>
		<circle id="EX0QJ7J6rvCW5_Es35TW_pad-6" class="st0" cx="884.5" cy="-175558.1" r="2.1"/>
	</g>
	<g>
		<circle class="st0" cx="902.5" cy="-175550.9" r="2.1"/>
	</g>
	<g>
		<circle class="st0" cx="877.7" cy="-175665.9" r="2.1"/>
	</g>
	<g>
		<circle class="st0" cx="895.7" cy="-175658.7" r="2.1"/>
	</g>
	<g>
		<circle class="st0" cx="332.4" cy="-175605.6" r="2.1"/>
	</g>
	<g>
		<circle class="st0" cx="350.4" cy="-175598.4" r="2.1"/>
	</g>
	<g>
		<circle class="st0" cx="547" cy="-175551.4" r="2.1"/>
	</g>
	<g>
		<circle class="st0" cx="565" cy="-175544.2" r="2.1"/>
	</g>
	<g>
		<circle class="st0" cx="601" cy="-175605.3" r="2.1"/>
	</g>
	<g>
		<circle class="st0" cx="619" cy="-175598.1" r="2.1"/>
	</g>
	<g>
		<circle class="st0" cx="278.4" cy="-175490.9" r="2.1"/>
	</g>
	<g>
		<circle class="st0" cx="296.4" cy="-175483.7" r="2.1"/>
	</g>
	<g>
		<circle class="st0" cx="48.9" cy="-175558.4" r="2.1"/>
	</g>
	<g>
		<circle class="st0" cx="66.9" cy="-175551.2" r="2.1"/>
	</g>
	<g>
		<circle class="st0" cx="170.4" cy="-175544.9" r="2.1"/>
	</g>
	<g>
		<circle class="st0" cx="188.4" cy="-175537.7" r="2.1"/>
	</g>
	<g>
		<circle class="st0" cx="763" cy="-175706.6" r="2.1"/>
	</g>
	<g>
		<circle class="st0" cx="781" cy="-175699.4" r="2.1"/>
	</g>
	<g>
		<circle class="st0" cx="116.4" cy="-175504.4" r="2.1"/>
	</g>
	<g>
		<circle class="st0" cx="134.4" cy="-175497.2" r="2.1"/>
	</g>
	<g>
		<circle class="st0" cx="170.4" cy="-175652.9" r="2.1"/>
	</g>
	<g>
		<circle class="st0" cx="188.4" cy="-175645.7" r="2.1"/>
	</g>
	<g>
		<circle class="st0" cx="547" cy="-175605.4" r="2.1"/>
	</g>
	<g>
		<circle class="st0" cx="565" cy="-175598.2" r="2.1"/>
	</g>
	<g>
		<circle class="st0" cx="925" cy="-175504.1" r="2.1"/>
	</g>
	<g>
		<circle class="st0" cx="943" cy="-175496.9" r="2.1"/>
	</g>
	<g>
		<circle class="st0" cx="573.2" cy="-175726.5" r="2.1"/>
	</g>
	<g>
		<circle class="st0" cx="588.4" cy="-175738.5" r="2.1"/>
	</g>
	<g>
		<circle class="st0" cx="817" cy="-175666.1" r="2.1"/>
	</g>
	<g>
		<circle class="st0" cx="835" cy="-175658.9" r="2.1"/>
	</g>
	<g>
		<circle class="st0" cx="656.4" cy="-175652.9" r="2.1"/>
	</g>
	<g>
		<circle class="st0" cx="674.4" cy="-175645.7" r="2.1"/>
	</g>
	<g>
		<circle class="st0" cx="8.4" cy="-175504.4" r="2.1"/>
	</g>
	<g>
		<circle class="st0" cx="26.4" cy="-175497.3" r="2.1"/>
	</g>
	<g>
		<circle class="st0" cx="224.4" cy="-175646.1" r="2.1"/>
	</g>
	<g>
		<circle class="st0" cx="242.4" cy="-175638.9" r="2.1"/>
	</g>
	<g>
		<circle class="st0" cx="816.8" cy="-175720.1" r="2.1"/>
	</g>
	<g>
		<circle class="st0" cx="834.8" cy="-175712.9" r="2.1"/>
	</g>
	<g>
		<circle class="st0" cx="709" cy="-175483.8" r="2.1"/>
	</g>
	<g>
		<circle class="st0" cx="727" cy="-175476.6" r="2.1"/>
	</g>
	<g>
		<circle class="st0" cx="332.4" cy="-175659.6" r="2.1"/>
	</g>
	<g>
		<circle class="st0" cx="350.4" cy="-175652.4" r="2.1"/>
	</g>
	<g>
		<circle class="st0" cx="763" cy="-175490.6" r="2.1"/>
	</g>
	<g>
		<circle class="st0" cx="781" cy="-175483.5" r="2.1"/>
	</g>
	<g>
		<circle class="st0" cx="537.3" cy="-175771.3" r="2.1"/>
	</g>
	<g>
		<circle class="st0" cx="552.5" cy="-175783.3" r="2.1"/>
	</g>
	<g>
		<circle class="st0" cx="386.4" cy="-175605.6" r="2.1"/>
	</g>
	<g>
		<circle class="st0" cx="404.4" cy="-175598.4" r="2.1"/>
	</g>
	<g>
		<circle class="st0" cx="116.4" cy="-175558.4" r="2.1"/>
	</g>
	<g>
		<circle class="st0" cx="134.4" cy="-175551.2" r="2.1"/>
	</g>
	<g>
		<circle class="st0" cx="170.4" cy="-175598.9" r="2.1"/>
	</g>
	<g>
		<circle class="st0" cx="188.4" cy="-175591.7" r="2.1"/>
	</g>
	<g>
		<circle class="st0" cx="278.4" cy="-175544.9" r="2.1"/>
	</g>
	<g>
		<circle class="st0" cx="296.4" cy="-175537.7" r="2.1"/>
	</g>
	<g>
		<circle class="st0" cx="817" cy="-175558.1" r="2.1"/>
	</g>
	<g>
		<circle class="st0" cx="835" cy="-175550.9" r="2.1"/>
	</g>
	<g>
		<circle class="st0" cx="386.4" cy="-175551.6" r="2.1"/>
	</g>
	<g>
		<circle class="st0" cx="404.4" cy="-175544.4" r="2.1"/>
	</g>
	<g>
		<circle class="st0" cx="601" cy="-175551.4" r="2.1"/>
	</g>
	<g>
		<circle class="st0" cx="619" cy="-175544.2" r="2.1"/>
	</g>
	<g>
		<circle class="st0" cx="655" cy="-175598.6" r="2.1"/>
	</g>
	<g>
		<circle class="st0" cx="673" cy="-175591.4" r="2.1"/>
	</g>
	<g>
		<circle class="st0" cx="601" cy="-175497.4" r="2.1"/>
	</g>
	<g>
		<circle class="st0" cx="619" cy="-175490.2" r="2.1"/>
	</g>
	<g>
		<circle class="st0" cx="763" cy="-175598.6" r="2.1"/>
	</g>
	<g>
		<circle class="st0" cx="781" cy="-175591.4" r="2.1"/>
	</g>
	<g>
		<circle class="st0" cx="170.4" cy="-175490.9" r="2.1"/>
	</g>
	<g>
		<circle class="st0" cx="188.4" cy="-175483.7" r="2.1"/>
	</g>
	<g>
		<circle class="st0" cx="710.4" cy="-175538.1" r="2.1"/>
	</g>
	<g>
		<circle class="st0" cx="728.4" cy="-175530.9" r="2.1"/>
	</g>
	<g>
		<circle class="st0" cx="62.4" cy="-175504.4" r="2.1"/>
	</g>
	<g>
		<circle class="st0" cx="80.4" cy="-175497.2" r="2.1"/>
	</g>
	<g>
		<circle class="st0" cx="655" cy="-175544.6" r="2.1"/>
	</g>
	<g>
		<circle class="st0" cx="673" cy="-175537.4" r="2.1"/>
	</g>
	<g>
		<circle class="st0" cx="547" cy="-175497.4" r="2.1"/>
	</g>
	<g>
		<circle class="st0" cx="565" cy="-175490.2" r="2.1"/>
	</g>
	<g>
		<circle class="st0" cx="55.6" cy="-175720.4" r="2.1"/>
	</g>
	<g>
		<circle class="st0" cx="73.6" cy="-175713.2" r="2.1"/>
	</g>
	<g>
		<circle class="st0" cx="709" cy="-175699.8" r="2.1"/>
	</g>
	<g>
		<circle class="st0" cx="727" cy="-175692.7" r="2.1"/>
	</g>
	<g>
		<circle class="st0" cx="116.4" cy="-175666.4" r="2.1"/>
	</g>
	<g>
		<circle class="st0" cx="134.4" cy="-175659.2" r="2.1"/>
	</g>
	<g>
		<circle class="st0" cx="116.4" cy="-175720.4" r="2.1"/>
	</g>
	<g>
		<circle class="st0" cx="134.4" cy="-175713.2" r="2.1"/>
	</g>
	<g>
		<circle class="st0" cx="763" cy="-175652.6" r="2.1"/>
	</g>
	<g>
		<circle class="st0" cx="781" cy="-175645.4" r="2.1"/>
	</g>
	<g>
		<circle class="st0" cx="332.4" cy="-175497.6" r="2.1"/>
	</g>
	<g>
		<circle class="st0" cx="350.4" cy="-175490.4" r="2.1"/>
	</g>
	<g>
		<circle class="st0" cx="224.4" cy="-175700.1" r="2.1"/>
	</g>
	<g>
		<circle class="st0" cx="242.4" cy="-175692.9" r="2.1"/>
	</g>
	<g>
		<circle class="st0" cx="398.2" cy="-175741.8" r="2.1"/>
	</g>
	<g>
		<circle class="st0" cx="400.9" cy="-175722.6" r="2.1"/>
	</g>
	<g>
		<circle class="st0" cx="709" cy="-175645.8" r="2.1"/>
	</g>
	<g>
		<circle class="st0" cx="727" cy="-175638.6" r="2.1"/>
	</g>
	<g>
		<circle class="st0" cx="817" cy="-175504.1" r="2.1"/>
	</g>
	<g>
		<circle class="st0" cx="835" cy="-175496.9" r="2.1"/>
	</g>
	<g>
		<circle class="st0" cx="634.9" cy="-175736.4" r="2.1"/>
	</g>
	<g>
		<circle class="st0" cx="646.9" cy="-175721.2" r="2.1"/>
	</g>
	<g>
		<circle class="st0" cx="224.4" cy="-175538.1" r="2.1"/>
	</g>
	<g>
		<circle class="st0" cx="242.4" cy="-175530.9" r="2.1"/>
	</g>
	<g>
		<circle class="st0" cx="891.2" cy="-175612.1" r="2.1"/>
	</g>
	<g>
		<circle class="st0" cx="909.2" cy="-175604.9" r="2.1"/>
	</g>
	<g>
		<circle class="st0" cx="414.4" cy="-175778.5" r="2.1"/>
	</g>
	<g>
		<circle class="st0" cx="417.1" cy="-175759.3" r="2.1"/>
	</g>
	<g>
		<circle class="st0" cx="332.4" cy="-175551.6" r="2.1"/>
	</g>
	<g>
		<circle class="st0" cx="350.4" cy="-175544.4" r="2.1"/>
	</g>
	<g>
		<circle class="st0" cx="763" cy="-175544.6" r="2.1"/>
	</g>
	<g>
		<circle class="st0" cx="781" cy="-175537.4" r="2.1"/>
	</g>
	<g>
		<circle class="st0" cx="823.8" cy="-175720.2" r="2.1"/>
	</g>
	<g>
		<circle class="st0" cx="841.8" cy="-175713" r="2.1"/>
	</g>
	<g>
		<circle class="st0" cx="224.4" cy="-175484.1" r="2.1"/>
	</g>
	<g>
		<circle class="st0" cx="242.4" cy="-175476.9" r="2.1"/>
	</g>
	<g>
		<circle class="st0" cx="42.1" cy="-175612.4" r="2.1"/>
	</g>
	<g>
		<circle class="st0" cx="60.1" cy="-175605.2" r="2.1"/>
	</g>
	<g>
		<circle class="st0" cx="654.8" cy="-175490.6" r="2.1"/>
	</g>
	<g>
		<circle class="st0" cx="672.8" cy="-175483.5" r="2.1"/>
	</g>
	<g>
		<circle class="st0" cx="278.4" cy="-175652.9" r="2.1"/>
	</g>
	<g>
		<circle class="st0" cx="296.4" cy="-175645.7" r="2.1"/>
	</g>
	<g>
		<circle class="st0" cx="109.5" cy="-175720.6" r="2.1"/>
	</g>
	<g>
		<circle class="st0" cx="127.5" cy="-175713.4" r="2.1"/>
	</g>
	<g>
		<circle class="st0" cx="817" cy="-175612.1" r="2.1"/>
	</g>
	<g>
		<circle class="st0" cx="835" cy="-175604.9" r="2.1"/>
	</g>
	<g>
		<circle class="st0" cx="224.4" cy="-175592.1" r="2.1"/>
	</g>
	<g>
		<circle class="st0" cx="242.4" cy="-175584.9" r="2.1"/>
	</g>
	<g>
		<circle class="st0" cx="904.7" cy="-175666.1" r="2.1"/>
	</g>
	<g>
		<circle class="st0" cx="922.7" cy="-175658.9" r="2.1"/>
	</g>
	<g>
		<circle class="st0" cx="601" cy="-175659.3" r="2.1"/>
	</g>
	<g>
		<circle class="st0" cx="619" cy="-175652.1" r="2.1"/>
	</g>
	<g>
		<circle class="st0" cx="116.4" cy="-175612.4" r="2.1"/>
	</g>
	<g>
		<circle class="st0" cx="134.4" cy="-175605.2" r="2.1"/>
	</g>
	<g>
		<circle class="st0" cx="386.4" cy="-175497.6" r="2.1"/>
	</g>
	<g>
		<circle class="st0" cx="404.4" cy="-175490.4" r="2.1"/>
	</g>
	<g>
		<circle class="st0" cx="170.4" cy="-175706.9" r="2.1"/>
	</g>
	<g>
		<circle class="st0" cx="188.4" cy="-175699.7" r="2.1"/>
	</g>
	<g>
		<circle class="st0" cx="709" cy="-175591.9" r="2.1"/>
	</g>
	<g>
		<circle class="st0" cx="727" cy="-175584.7" r="2.1"/>
	</g>
	<g>
		<circle class="st0" cx="28.7" cy="-175666.4" r="2.1"/>
	</g>
	<g>
		<circle class="st0" cx="46.7" cy="-175659.2" r="2.1"/>
	</g>
	<g>
		<circle class="st0" cx="301.4" cy="-175726" r="2.1"/>
	</g>
	<g>
		<circle class="st0" cx="320.5" cy="-175728.8" r="2.1"/>
	</g>
	<g>
		<circle class="st0" cx="278.4" cy="-175598.9" r="2.1"/>
	</g>
	<g>
		<circle class="st0" cx="296.4" cy="-175591.7" r="2.1"/>
	</g>
	<g>
		<circle class="st0" cx="871" cy="-175504.1" r="2.1"/>
	</g>
	<g>
		<circle class="st0" cx="889" cy="-175496.9" r="2.1"/>
	</g>
	<g>
		<circle class="st0" cx="877.7" cy="-175720.1" r="2.1"/>
	</g>
	<g>
		<circle class="st0" cx="895.7" cy="-175712.9" r="2.1"/>
	</g>
	<g>
		<circle id="EX0QJ7J6rvCW5_Es35TW_pad-7" class="st0" cx="450.9" cy="-175633.5" r="2.1"/>
	</g>
	<g>
		<circle class="st0" cx="470.7" cy="-175633.5" r="2.1"/>
	</g>
	<g>
		<circle class="st0" cx="485" cy="-175633.5" r="2.1"/>
	</g>
	<g>
		<circle class="st0" cx="504.8" cy="-175633.5" r="2.1"/>
	</g>
	<g>
		<circle id="EX0QJ7J6rvCW5_Es35TW_pad-8" class="st0" cx="543.4" cy="-175558.6" r="2.6"/>
	</g>
	<g>
		<circle class="st0" cx="572.2" cy="-175558.6" r="2.6"/>
	</g>
	<g>
		<circle class="st0" cx="597.4" cy="-175612.5" r="2.6"/>
	</g>
	<g>
		<circle class="st0" cx="626.2" cy="-175612.5" r="2.6"/>
	</g>
	<g>
		<circle class="st0" cx="274.8" cy="-175498.1" r="2.6"/>
	</g>
	<g>
		<circle class="st0" cx="303.6" cy="-175498.1" r="2.6"/>
	</g>
	<g>
		<circle class="st0" cx="45.3" cy="-175565.6" r="2.6"/>
	</g>
	<g>
		<circle class="st0" cx="74.1" cy="-175565.6" r="2.6"/>
	</g>
	<g>
		<circle class="st0" cx="166.8" cy="-175552.1" r="2.6"/>
	</g>
	<g>
		<circle class="st0" cx="195.6" cy="-175552.1" r="2.6"/>
	</g>
	<g>
		<circle class="st0" cx="759.4" cy="-175713.8" r="2.6"/>
	</g>
	<g>
		<circle class="st0" cx="788.2" cy="-175713.8" r="2.6"/>
	</g>
	<g>
		<circle class="st0" cx="112.8" cy="-175511.6" r="2.6"/>
	</g>
	<g>
		<circle class="st0" cx="141.6" cy="-175511.6" r="2.6"/>
	</g>
	<g>
		<circle class="st0" cx="166.8" cy="-175660.1" r="2.6"/>
	</g>
	<g>
		<circle class="st0" cx="195.6" cy="-175660.1" r="2.6"/>
	</g>
	<g>
		<circle class="st0" cx="543.4" cy="-175612.6" r="2.6"/>
	</g>
	<g>
		<circle class="st0" cx="572.2" cy="-175612.6" r="2.6"/>
	</g>
	<g>
		<circle class="st0" cx="921.4" cy="-175511.3" r="2.6"/>
	</g>
	<g>
		<circle class="st0" cx="950.2" cy="-175511.3" r="2.6"/>
	</g>
	<g>
		<circle class="st0" cx="565.1" cy="-175727" r="2.6"/>
	</g>
	<g>
		<circle class="st0" cx="579.5" cy="-175752" r="2.6"/>
	</g>
	<g>
		<circle class="st0" cx="813.4" cy="-175673.3" r="2.6"/>
	</g>
	<g>
		<circle class="st0" cx="842.2" cy="-175673.3" r="2.6"/>
	</g>
	<g>
		<circle class="st0" cx="652.8" cy="-175660.1" r="2.6"/>
	</g>
	<g>
		<circle class="st0" cx="681.6" cy="-175660.1" r="2.6"/>
	</g>
	<g>
		<circle class="st0" cx="4.8" cy="-175511.6" r="2.6"/>
	</g>
	<g>
		<circle class="st0" cx="33.6" cy="-175511.6" r="2.6"/>
	</g>
	<g>
		<circle class="st0" cx="220.8" cy="-175653.3" r="2.6"/>
	</g>
	<g>
		<circle class="st0" cx="249.6" cy="-175653.3" r="2.6"/>
	</g>
	<g>
		<circle class="st0" cx="813.2" cy="-175727.3" r="2.6"/>
	</g>
	<g>
		<circle class="st0" cx="842" cy="-175727.3" r="2.6"/>
	</g>
	<g>
		<circle class="st0" cx="705.4" cy="-175491" r="2.6"/>
	</g>
	<g>
		<circle class="st0" cx="734.2" cy="-175491" r="2.6"/>
	</g>
	<g>
		<circle class="st0" cx="328.8" cy="-175666.8" r="2.6"/>
	</g>
	<g>
		<circle class="st0" cx="357.6" cy="-175666.8" r="2.6"/>
	</g>
	<g>
		<circle class="st0" cx="759.4" cy="-175497.8" r="2.6"/>
	</g>
	<g>
		<circle class="st0" cx="788.2" cy="-175497.8" r="2.6"/>
	</g>
	<g>
		<circle class="st0" cx="529.3" cy="-175771.7" r="2.6"/>
	</g>
	<g>
		<circle class="st0" cx="543.7" cy="-175796.7" r="2.6"/>
	</g>
	<g>
		<circle class="st0" cx="382.8" cy="-175612.8" r="2.6"/>
	</g>
	<g>
		<circle class="st0" cx="411.6" cy="-175612.8" r="2.6"/>
	</g>
	<g>
		<circle class="st0" cx="112.8" cy="-175565.6" r="2.6"/>
	</g>
	<g>
		<circle class="st0" cx="141.6" cy="-175565.6" r="2.6"/>
	</g>
	<g>
		<circle class="st0" cx="166.8" cy="-175606.1" r="2.6"/>
	</g>
	<g>
		<circle class="st0" cx="195.6" cy="-175606.1" r="2.6"/>
	</g>
	<g>
		<circle class="st0" cx="274.8" cy="-175552.1" r="2.6"/>
	</g>
	<g>
		<circle class="st0" cx="303.6" cy="-175552.1" r="2.6"/>
	</g>
	<g>
		<circle class="st0" cx="813.4" cy="-175565.3" r="2.6"/>
	</g>
	<g>
		<circle class="st0" cx="842.2" cy="-175565.3" r="2.6"/>
	</g>
	<g>
		<circle class="st0" cx="382.8" cy="-175558.8" r="2.6"/>
	</g>
	<g>
		<circle class="st0" cx="411.6" cy="-175558.8" r="2.6"/>
	</g>
	<g>
		<circle class="st0" cx="597.4" cy="-175558.5" r="2.6"/>
	</g>
	<g>
		<circle class="st0" cx="626.2" cy="-175558.5" r="2.6"/>
	</g>
	<g>
		<circle class="st0" cx="651.4" cy="-175605.8" r="2.6"/>
	</g>
	<g>
		<circle class="st0" cx="680.2" cy="-175605.8" r="2.6"/>
	</g>
	<g>
		<circle class="st0" cx="597.4" cy="-175504.6" r="2.6"/>
	</g>
	<g>
		<circle class="st0" cx="626.2" cy="-175504.6" r="2.6"/>
	</g>
	<g>
		<circle class="st0" cx="759.4" cy="-175605.8" r="2.6"/>
	</g>
	<g>
		<circle class="st0" cx="788.2" cy="-175605.8" r="2.6"/>
	</g>
	<g>
		<circle class="st0" cx="166.8" cy="-175498.1" r="2.6"/>
	</g>
	<g>
		<circle class="st0" cx="195.6" cy="-175498.1" r="2.6"/>
	</g>
	<g>
		<circle class="st0" cx="706.8" cy="-175545.3" r="2.6"/>
	</g>
	<g>
		<circle class="st0" cx="735.6" cy="-175545.3" r="2.6"/>
	</g>
	<g>
		<circle class="st0" cx="58.8" cy="-175511.6" r="2.6"/>
	</g>
	<g>
		<circle class="st0" cx="87.6" cy="-175511.6" r="2.6"/>
	</g>
	<g>
		<circle class="st0" cx="651.4" cy="-175551.8" r="2.6"/>
	</g>
	<g>
		<circle class="st0" cx="680.2" cy="-175551.8" r="2.6"/>
	</g>
	<g>
		<circle class="st0" cx="543.4" cy="-175504.6" r="2.6"/>
	</g>
	<g>
		<circle class="st0" cx="572.2" cy="-175504.6" r="2.6"/>
	</g>
	<g>
		<circle class="st0" cx="52" cy="-175727.6" r="2.6"/>
	</g>
	<g>
		<circle class="st0" cx="80.8" cy="-175727.6" r="2.6"/>
	</g>
	<g>
		<circle class="st0" cx="705.4" cy="-175707" r="2.6"/>
	</g>
	<g>
		<circle class="st0" cx="734.2" cy="-175707" r="2.6"/>
	</g>
	<g>
		<circle class="st0" cx="112.8" cy="-175673.6" r="2.6"/>
	</g>
	<g>
		<circle class="st0" cx="141.6" cy="-175673.6" r="2.6"/>
	</g>
	<g>
		<circle class="st0" cx="112.8" cy="-175727.6" r="2.6"/>
	</g>
	<g>
		<circle class="st0" cx="141.6" cy="-175727.6" r="2.6"/>
	</g>
	<g>
		<circle class="st0" cx="759.4" cy="-175659.8" r="2.6"/>
	</g>
	<g>
		<circle class="st0" cx="788.2" cy="-175659.8" r="2.6"/>
	</g>
	<g>
		<circle class="st0" cx="328.8" cy="-175504.8" r="2.6"/>
	</g>
	<g>
		<circle class="st0" cx="357.6" cy="-175504.8" r="2.6"/>
	</g>
	<g>
		<circle class="st0" cx="220.8" cy="-175707.3" r="2.6"/>
	</g>
	<g>
		<circle class="st0" cx="249.6" cy="-175707.3" r="2.6"/>
	</g>
	<g>
		<circle class="st0" cx="382.1" cy="-175740.8" r="2.6"/>
	</g>
	<g>
		<circle class="st0" cx="396.5" cy="-175715.9" r="2.6"/>
	</g>
	<g>
		<circle class="st0" cx="705.4" cy="-175653" r="2.6"/>
	</g>
	<g>
		<circle class="st0" cx="734.2" cy="-175653" r="2.6"/>
	</g>
	<g>
		<circle class="st0" cx="813.4" cy="-175511.3" r="2.6"/>
	</g>
	<g>
		<circle class="st0" cx="842.2" cy="-175511.3" r="2.6"/>
	</g>
	<g>
		<circle class="st0" cx="635.4" cy="-175744.4" r="2.6"/>
	</g>
	<g>
		<circle class="st0" cx="660.3" cy="-175730" r="2.6"/>
	</g>
	<g>
		<circle class="st0" cx="220.8" cy="-175545.3" r="2.6"/>
	</g>
	<g>
		<circle class="st0" cx="249.6" cy="-175545.3" r="2.6"/>
	</g>
	<g>
		<circle class="st0" cx="887.6" cy="-175619.3" r="2.6"/>
	</g>
	<g>
		<circle class="st0" cx="916.4" cy="-175619.3" r="2.6"/>
	</g>
	<g>
		<circle class="st0" cx="418.8" cy="-175785.3" r="2.6"/>
	</g>
	<g>
		<circle class="st0" cx="433.2" cy="-175760.3" r="2.6"/>
	</g>
	<g>
		<circle class="st0" cx="328.8" cy="-175558.8" r="2.6"/>
	</g>
	<g>
		<circle class="st0" cx="357.6" cy="-175558.8" r="2.6"/>
	</g>
	<g>
		<circle class="st0" cx="759.4" cy="-175551.8" r="2.6"/>
	</g>
	<g>
		<circle class="st0" cx="788.2" cy="-175551.8" r="2.6"/>
	</g>
	<g>
		<circle class="st0" cx="820.2" cy="-175727.4" r="2.6"/>
	</g>
	<g>
		<circle class="st0" cx="849" cy="-175727.4" r="2.6"/>
	</g>
	<g>
		<circle class="st0" cx="220.8" cy="-175491.3" r="2.6"/>
	</g>
	<g>
		<circle class="st0" cx="249.6" cy="-175491.3" r="2.6"/>
	</g>
	<g>
		<circle class="st0" cx="38.5" cy="-175619.6" r="2.6"/>
	</g>
	<g>
		<circle class="st0" cx="67.3" cy="-175619.6" r="2.6"/>
	</g>
	<g>
		<circle class="st0" cx="651.2" cy="-175497.8" r="2.6"/>
	</g>
	<g>
		<circle class="st0" cx="680" cy="-175497.8" r="2.6"/>
	</g>
	<g>
		<circle class="st0" cx="274.8" cy="-175660.1" r="2.6"/>
	</g>
	<g>
		<circle class="st0" cx="303.6" cy="-175660.1" r="2.6"/>
	</g>
	<g>
		<circle class="st0" cx="105.9" cy="-175727.8" r="2.6"/>
	</g>
	<g>
		<circle class="st0" cx="134.7" cy="-175727.8" r="2.6"/>
	</g>
	<g>
		<circle class="st0" cx="813.4" cy="-175619.3" r="2.6"/>
	</g>
	<g>
		<circle class="st0" cx="842.2" cy="-175619.3" r="2.6"/>
	</g>
	<g>
		<circle class="st0" cx="220.8" cy="-175599.3" r="2.6"/>
	</g>
	<g>
		<circle class="st0" cx="249.6" cy="-175599.3" r="2.6"/>
	</g>
	<g>
		<circle class="st0" cx="901.1" cy="-175673.3" r="2.6"/>
	</g>
	<g>
		<circle class="st0" cx="929.9" cy="-175673.3" r="2.6"/>
	</g>
	<g>
		<circle class="st0" cx="597.4" cy="-175666.5" r="2.6"/>
	</g>
	<g>
		<circle class="st0" cx="626.2" cy="-175666.5" r="2.6"/>
	</g>
	<g>
		<circle class="st0" cx="112.8" cy="-175619.6" r="2.6"/>
	</g>
	<g>
		<circle class="st0" cx="141.6" cy="-175619.6" r="2.6"/>
	</g>
	<g>
		<circle class="st0" cx="382.8" cy="-175504.8" r="2.6"/>
	</g>
	<g>
		<circle class="st0" cx="411.6" cy="-175504.8" r="2.6"/>
	</g>
	<g>
		<circle class="st0" cx="166.8" cy="-175714.1" r="2.6"/>
	</g>
	<g>
		<circle class="st0" cx="195.6" cy="-175714.1" r="2.6"/>
	</g>
	<g>
		<circle class="st0" cx="705.4" cy="-175599.1" r="2.6"/>
	</g>
	<g>
		<circle class="st0" cx="734.2" cy="-175599.1" r="2.6"/>
	</g>
	<g>
		<circle class="st0" cx="25.1" cy="-175673.6" r="2.6"/>
	</g>
	<g>
		<circle class="st0" cx="53.9" cy="-175673.6" r="2.6"/>
	</g>
	<g>
		<circle class="st0" cx="294.6" cy="-175730.4" r="2.6"/>
	</g>
	<g>
		<circle class="st0" cx="319.6" cy="-175744.8" r="2.6"/>
	</g>
	<g>
		<circle class="st0" cx="274.8" cy="-175606.1" r="2.6"/>
	</g>
	<g>
		<circle class="st0" cx="303.6" cy="-175606.1" r="2.6"/>
	</g>
	<g>
		<circle class="st0" cx="867.4" cy="-175511.3" r="2.6"/>
	</g>
	<g>
		<circle class="st0" cx="896.2" cy="-175511.3" r="2.6"/>
	</g>
	<g>
		<circle class="st0" cx="874.1" cy="-175727.3" r="2.6"/>
	</g>
	<g>
		<circle class="st0" cx="902.9" cy="-175727.3" r="2.6"/>
	</g>
	<g>
		<circle class="st0" cx="880.9" cy="-175565.3" r="2.6"/>
	</g>
	<g>
		<circle class="st0" cx="909.7" cy="-175565.3" r="2.6"/>
	</g>
	<g>
		<circle class="st0" cx="874.1" cy="-175673.1" r="2.6"/>
	</g>
	<g>
		<circle class="st0" cx="902.9" cy="-175673.1" r="2.6"/>
	</g>
	<g>
		<circle class="st0" cx="328.8" cy="-175612.8" r="2.6"/>
	</g>
	<g>
		<circle class="st0" cx="357.6" cy="-175612.8" r="2.6"/>
	</g>
	<g>
		<circle id="EX0QJ7J6rvCW5_Es35TW_pad-9" class="st0" cx="389.5" cy="-175767.6" r="4.3"/>
	</g>
	<g>
		<circle class="st0" cx="423.4" cy="-175709" r="4.3"/>
	</g>
	<g>
		<circle class="st0" cx="391.9" cy="-175792.2" r="4.3"/>
	</g>
	<g>
		<circle class="st0" cx="425.8" cy="-175733.6" r="4.3"/>
	</g>
	<g>
		<circle class="st0" cx="881.7" cy="-175653.5" r="4.3"/>
	</g>
	<g>
		<circle class="st0" cx="949.4" cy="-175653.5" r="4.3"/>
	</g>
	<g>
		<circle class="st0" cx="5.7" cy="-175653.8" r="4.3"/>
	</g>
	<g>
		<circle class="st0" cx="73.3" cy="-175653.8" r="4.3"/>
	</g>
	<g>
		<circle class="st0" cx="572.5" cy="-175700.3" r="4.3"/>
	</g>
	<g>
		<circle class="st0" cx="606.4" cy="-175758.9" r="4.3"/>
	</g>
	<g>
		<circle id="EX0QJ7J6rvCW5_Es35TW_pad-10" class="st0" cx="773.8" cy="-175551.8" r="5.7"/>
	</g>
	<g>
		<circle class="st0" cx="834.6" cy="-175727.4" r="5.7"/>
	</g>
	<g>
		<circle class="st0" cx="235.2" cy="-175491.3" r="5.7"/>
	</g>
	<g>
		<circle class="st0" cx="52.9" cy="-175619.6" r="5.7"/>
	</g>
	<g>
		<circle class="st0" cx="665.6" cy="-175497.8" r="5.7"/>
	</g>
	<g>
		<circle class="st0" cx="289.2" cy="-175660.1" r="5.7"/>
	</g>
	<g>
		<circle class="st0" cx="120.3" cy="-175727.8" r="5.7"/>
	</g>
	<g>
		<circle class="st0" cx="827.8" cy="-175619.3" r="5.7"/>
	</g>
	<g>
		<circle class="st0" cx="235.2" cy="-175599.3" r="5.7"/>
	</g>
	<g>
		<circle class="st0" cx="881.7" cy="-175696.7" r="5.7"/>
	</g>
	<g>
		<circle class="st0" cx="915.5" cy="-175673.3" r="5.7"/>
	</g>
	<g>
		<circle class="st0" cx="949.4" cy="-175696.7" r="5.7"/>
	</g>
	<g>
		<circle class="st0" cx="611.8" cy="-175666.5" r="5.7"/>
	</g>
	<g>
		<circle class="st0" cx="127.2" cy="-175619.6" r="5.7"/>
	</g>
	<g>
		<circle class="st0" cx="397.2" cy="-175504.8" r="5.7"/>
	</g>
	<g>
		<circle class="st0" cx="181.2" cy="-175714.1" r="5.7"/>
	</g>
	<g>
		<circle class="st0" cx="719.8" cy="-175599.1" r="5.7"/>
	</g>
	<g>
		<circle class="st0" cx="5.7" cy="-175697" r="5.7"/>
	</g>
	<g>
		<circle class="st0" cx="39.5" cy="-175673.6" r="5.7"/>
	</g>
	<g>
		<circle class="st0" cx="73.3" cy="-175697" r="5.7"/>
	</g>
	<g>
		<circle class="st0" cx="307.1" cy="-175737.6" r="5.7"/>
	</g>
	<g>
		<circle class="st0" cx="289.2" cy="-175606.1" r="5.7"/>
	</g>
	<g>
		<circle class="st0" cx="881.8" cy="-175511.3" r="5.7"/>
	</g>
	<g>
		<circle class="st0" cx="888.5" cy="-175727.3" r="5.7"/>
	</g>
	<g>
		<circle class="st0" cx="895.3" cy="-175565.3" r="5.7"/>
	</g>
	<g>
		<circle class="st0" cx="888.5" cy="-175673.1" r="5.7"/>
	</g>
	<g>
		<circle class="st0" cx="343.2" cy="-175612.8" r="5.7"/>
	</g>
	<g>
		<circle class="st0" cx="557.8" cy="-175558.6" r="5.7"/>
	</g>
	<g>
		<circle class="st0" cx="611.8" cy="-175612.5" r="5.7"/>
	</g>
	<g>
		<circle class="st0" cx="289.2" cy="-175498.1" r="5.7"/>
	</g>
	<g>
		<circle class="st0" cx="59.7" cy="-175565.6" r="5.7"/>
	</g>
	<g>
		<circle class="st0" cx="181.2" cy="-175552.1" r="5.7"/>
	</g>
	<g>
		<circle class="st0" cx="773.8" cy="-175713.8" r="5.7"/>
	</g>
	<g>
		<circle class="st0" cx="127.2" cy="-175511.6" r="5.7"/>
	</g>
	<g>
		<circle class="st0" cx="181.2" cy="-175660.1" r="5.7"/>
	</g>
	<g>
		<circle class="st0" cx="557.8" cy="-175612.6" r="5.7"/>
	</g>
	<g>
		<circle class="st0" cx="935.8" cy="-175511.3" r="5.7"/>
	</g>
	<g>
		<circle class="st0" cx="535.1" cy="-175721.9" r="5.7"/>
	</g>
	<g>
		<circle class="st0" cx="569" cy="-175780.5" r="5.7"/>
	</g>
	<g>
		<circle class="st0" cx="572.3" cy="-175739.5" r="5.7"/>
	</g>
	<g>
		<circle class="st0" cx="827.8" cy="-175673.3" r="5.7"/>
	</g>
	<g>
		<circle class="st0" cx="667.2" cy="-175660.1" r="5.7"/>
	</g>
	<g>
		<circle class="st0" cx="19.2" cy="-175511.6" r="5.7"/>
	</g>
	<g>
		<circle class="st0" cx="235.2" cy="-175653.3" r="5.7"/>
	</g>
	<g>
		<circle class="st0" cx="827.6" cy="-175727.3" r="5.7"/>
	</g>
	<g>
		<circle class="st0" cx="719.8" cy="-175491" r="5.7"/>
	</g>
	<g>
		<circle class="st0" cx="343.2" cy="-175666.8" r="5.7"/>
	</g>
	<g>
		<circle class="st0" cx="773.8" cy="-175497.8" r="5.7"/>
	</g>
	<g>
		<circle class="st0" cx="536.5" cy="-175784.2" r="5.7"/>
	</g>
	<g>
		<circle class="st0" cx="397.2" cy="-175612.8" r="5.7"/>
	</g>
	<g>
		<circle class="st0" cx="127.2" cy="-175565.6" r="5.7"/>
	</g>
	<g>
		<circle class="st0" cx="181.2" cy="-175606.1" r="5.7"/>
	</g>
	<g>
		<circle class="st0" cx="289.2" cy="-175552.1" r="5.7"/>
	</g>
	<g>
		<circle class="st0" cx="827.8" cy="-175565.3" r="5.7"/>
	</g>
	<g>
		<circle class="st0" cx="397.2" cy="-175558.8" r="5.7"/>
	</g>
	<g>
		<circle class="st0" cx="611.8" cy="-175558.5" r="5.7"/>
	</g>
	<g>
		<circle class="st0" cx="665.8" cy="-175605.8" r="5.7"/>
	</g>
	<g>
		<circle class="st0" cx="611.8" cy="-175504.6" r="5.7"/>
	</g>
	<g>
		<circle class="st0" cx="773.8" cy="-175605.8" r="5.7"/>
	</g>
	<g>
		<circle class="st0" cx="181.2" cy="-175498.1" r="5.7"/>
	</g>
	<g>
		<circle class="st0" cx="721.2" cy="-175545.3" r="5.7"/>
	</g>
	<g>
		<circle class="st0" cx="73.2" cy="-175511.6" r="5.7"/>
	</g>
	<g>
		<circle class="st0" cx="665.8" cy="-175551.8" r="5.7"/>
	</g>
	<g>
		<circle class="st0" cx="557.8" cy="-175504.6" r="5.7"/>
	</g>
	<g>
		<circle class="st0" cx="66.4" cy="-175727.6" r="5.7"/>
	</g>
	<g>
		<circle class="st0" cx="719.8" cy="-175707" r="5.7"/>
	</g>
	<g>
		<circle class="st0" cx="127.2" cy="-175673.6" r="5.7"/>
	</g>
	<g>
		<circle class="st0" cx="127.2" cy="-175727.6" r="5.7"/>
	</g>
	<g>
		<circle class="st0" cx="773.8" cy="-175659.8" r="5.7"/>
	</g>
	<g>
		<circle class="st0" cx="343.2" cy="-175504.8" r="5.7"/>
	</g>
	<g>
		<circle class="st0" cx="235.2" cy="-175707.3" r="5.7"/>
	</g>
	<g>
		<circle class="st0" cx="352.1" cy="-175746" r="5.7"/>
	</g>
	<g>
		<circle class="st0" cx="385.9" cy="-175687.4" r="5.7"/>
	</g>
	<g>
		<circle class="st0" cx="389.3" cy="-175728.4" r="5.7"/>
	</g>
	<g>
		<circle class="st0" cx="719.8" cy="-175653" r="5.7"/>
	</g>
	<g>
		<circle class="st0" cx="827.8" cy="-175511.3" r="5.7"/>
	</g>
	<g>
		<circle class="st0" cx="647.8" cy="-175737.2" r="5.7"/>
	</g>
	<g>
		<circle class="st0" cx="235.2" cy="-175545.3" r="5.7"/>
	</g>
	<g>
		<circle class="st0" cx="902" cy="-175619.3" r="5.7"/>
	</g>
	<g>
		<circle class="st0" cx="426" cy="-175772.8" r="5.7"/>
	</g>
	<g>
		<circle class="st0" cx="429.3" cy="-175813.8" r="5.7"/>
	</g>
	<g>
		<circle class="st0" cx="463.2" cy="-175755.2" r="5.7"/>
	</g>
	<g>
		<circle class="st0" cx="343.2" cy="-175558.8" r="5.7"/>
	</g>
	<path class="st1" d="M444.1-175640.1h-1.7 M447.2-175627h-1.7 M458.5-175627h-1.7 M467-175627h-1.7 M488.7-175640.1h1.7
		 M497.2-175640.1h1.7 M508.5-175640.1h1.7 M511.6-175627h1.7"/>
</g>
</svg>
