G04 #@! TF.GenerationSoftware,KiCad,Pcbnew,(5.1.0)-1*
G04 #@! TF.CreationDate,2019-07-24T11:11:35-04:00*
G04 #@! TF.ProjectId,ogre,6f677265-2e6b-4696-9361-645f70636258,1.0*
G04 #@! TF.SameCoordinates,Original*
G04 #@! TF.FileFunction,Copper,L1,Top*
G04 #@! TF.FilePolarity,Positive*
%FSLAX46Y46*%
G04 Gerber Fmt 4.6, Leading zero omitted, Abs format (unit mm)*
G04 Created by KiCad (PCBNEW (5.1.0)-1) date 2019-07-24 11:11:35*
%MOMM*%
%LPD*%
G04 APERTURE LIST*
%ADD10C,2.286000*%
%ADD11O,2.000000X1.600000*%
%ADD12C,1.752600*%
%ADD13R,1.752600X1.752600*%
%ADD14C,2.000000*%
%ADD15R,1.600000X1.600000*%
%ADD16C,1.600000*%
%ADD17R,0.500000X2.900000*%
%ADD18R,1.200000X1.600000*%
%ADD19C,0.100000*%
%ADD20C,0.500000*%
%ADD21C,1.200000*%
%ADD22C,0.600000*%
%ADD23C,0.250000*%
G04 APERTURE END LIST*
D10*
X245243000Y-73052000D03*
X251593000Y-70512000D03*
X50570000Y-56470000D03*
X56920000Y-53930000D03*
D11*
X210930000Y-74290000D03*
X207930000Y-74290000D03*
X214930000Y-74290000D03*
X216030000Y-78890000D03*
X192630000Y-78840000D03*
X195630000Y-78840000D03*
X188630000Y-78840000D03*
X187530000Y-74240000D03*
D10*
X342900000Y-75430000D03*
X349250000Y-72890000D03*
X169540000Y-54095000D03*
X175890000Y-51555000D03*
D12*
X199820000Y-30480000D03*
X184580000Y-58420000D03*
X199820000Y-33020000D03*
X199820000Y-35560000D03*
X199820000Y-38100000D03*
X199820000Y-40640000D03*
X199820000Y-43180000D03*
X199820000Y-45720000D03*
X199820000Y-48260000D03*
X199820000Y-50800000D03*
X199820000Y-53340000D03*
X199820000Y-55880000D03*
X199820000Y-58420000D03*
X184580000Y-55880000D03*
X184580000Y-53340000D03*
X184580000Y-50800000D03*
X184580000Y-48260000D03*
X184580000Y-45720000D03*
X184580000Y-43180000D03*
X184580000Y-40640000D03*
X184580000Y-38100000D03*
X184580000Y-35560000D03*
X184580000Y-33020000D03*
D13*
X184580000Y-30480000D03*
D10*
X48096000Y-75526000D03*
X54446000Y-72986000D03*
X179415295Y-134149557D03*
X180390591Y-127380295D03*
X174674705Y-114420443D03*
X173699409Y-121189705D03*
X93340000Y-32665000D03*
X99690000Y-30125000D03*
X74290000Y-37426000D03*
X80640000Y-34886000D03*
X55240000Y-37426000D03*
X61590000Y-34886000D03*
X36190000Y-37456000D03*
X42540000Y-34916000D03*
D12*
X218910000Y-30480000D03*
X203670000Y-58420000D03*
X218910000Y-33020000D03*
X218910000Y-35560000D03*
X218910000Y-38100000D03*
X218910000Y-40640000D03*
X218910000Y-43180000D03*
X218910000Y-45720000D03*
X218910000Y-48260000D03*
X218910000Y-50800000D03*
X218910000Y-53340000D03*
X218910000Y-55880000D03*
X218910000Y-58420000D03*
X203670000Y-55880000D03*
X203670000Y-53340000D03*
X203670000Y-50800000D03*
X203670000Y-48260000D03*
X203670000Y-45720000D03*
X203670000Y-43180000D03*
X203670000Y-40640000D03*
X203670000Y-38100000D03*
X203670000Y-35560000D03*
X203670000Y-33020000D03*
D13*
X203670000Y-30480000D03*
D14*
X215380000Y-83400000D03*
X215380000Y-87900000D03*
X208880000Y-83400000D03*
X208880000Y-87900000D03*
X194490000Y-83540000D03*
X194490000Y-88040000D03*
X187990000Y-83540000D03*
X187990000Y-88040000D03*
D10*
X71860000Y-113720000D03*
X78210000Y-111180000D03*
X323850000Y-113580000D03*
X330200000Y-111040000D03*
X342880000Y-94420000D03*
X349230000Y-91880000D03*
X359543000Y-37338000D03*
X365893000Y-34798000D03*
X352404000Y-94472000D03*
X358754000Y-91932000D03*
X321443000Y-94494000D03*
X327793000Y-91954000D03*
X74290000Y-94576000D03*
X80640000Y-92036000D03*
X43360000Y-94576000D03*
X49710000Y-92036000D03*
X112390000Y-30283000D03*
X118740000Y-27743000D03*
X131440000Y-32664000D03*
X137790000Y-30124000D03*
X150490000Y-35045000D03*
X156840000Y-32505000D03*
X169540000Y-35045000D03*
X175890000Y-32505000D03*
X226193000Y-34957000D03*
X232543000Y-32417000D03*
X245243000Y-34957000D03*
X251593000Y-32417000D03*
X264240000Y-32588000D03*
X270590000Y-30048000D03*
X283343000Y-30184000D03*
X289693000Y-27644000D03*
X302393000Y-32588000D03*
X308743000Y-30048000D03*
X321443000Y-37338000D03*
X327793000Y-34798000D03*
X340493000Y-37338000D03*
X346843000Y-34798000D03*
X74290000Y-56476000D03*
X80640000Y-53936000D03*
X93340000Y-51714000D03*
X99690000Y-49174000D03*
X112390000Y-49333000D03*
X118740000Y-46793000D03*
X131440000Y-51714000D03*
X137790000Y-49174000D03*
X150490000Y-54095000D03*
X156840000Y-51555000D03*
X226193000Y-54015000D03*
X232543000Y-51475000D03*
X245243000Y-54004000D03*
X251593000Y-51464000D03*
X264293000Y-51623000D03*
X270643000Y-49083000D03*
X283840000Y-49333000D03*
X290190000Y-46793000D03*
X302393000Y-51634000D03*
X308743000Y-49094000D03*
X321443000Y-56400000D03*
X327793000Y-53860000D03*
X345256000Y-56385000D03*
X351606000Y-53845000D03*
X74290000Y-75526000D03*
X80640000Y-72986000D03*
X93340000Y-70764000D03*
X99690000Y-68224000D03*
X112390000Y-68383000D03*
X118740000Y-65843000D03*
X131440000Y-70764000D03*
X137790000Y-68224000D03*
X150490000Y-73145000D03*
X156840000Y-70605000D03*
X169540000Y-73145000D03*
X175890000Y-70605000D03*
X226193000Y-73060000D03*
X232543000Y-70520000D03*
X264293000Y-70671000D03*
X270643000Y-68131000D03*
X283343000Y-68309000D03*
X289693000Y-65769000D03*
X302393000Y-70677000D03*
X308743000Y-68137000D03*
X321443000Y-75438000D03*
X327793000Y-72898000D03*
X347637000Y-75430000D03*
X353987000Y-72890000D03*
X93340000Y-89814000D03*
X99690000Y-87274000D03*
X112390000Y-87433000D03*
X118740000Y-84893000D03*
X131440000Y-89814000D03*
X137790000Y-87274000D03*
X150490000Y-92195000D03*
X156840000Y-89655000D03*
X245243000Y-92076000D03*
X251593000Y-89536000D03*
X264790000Y-89814000D03*
X271140000Y-87274000D03*
X283343000Y-87338000D03*
X289693000Y-84798000D03*
X302393000Y-89720000D03*
X308743000Y-87180000D03*
X52858000Y-113626000D03*
X59208000Y-111086000D03*
X74290000Y-113626000D03*
X80640000Y-111086000D03*
X93340000Y-108864000D03*
X99690000Y-106324000D03*
X112390000Y-106483000D03*
X118740000Y-103943000D03*
X139550443Y-115615295D03*
X146319705Y-116590591D03*
X222784705Y-131580443D03*
X228159409Y-135809705D03*
X235434705Y-115800443D03*
X240809409Y-120029705D03*
X257210443Y-119285295D03*
X261439705Y-113910591D03*
X283343000Y-106391000D03*
X289693000Y-103851000D03*
X302393000Y-108784000D03*
X308743000Y-106244000D03*
X321374000Y-113535000D03*
X327724000Y-110995000D03*
X342875000Y-113550000D03*
X349225000Y-111010000D03*
D15*
X64360000Y-100800000D03*
D16*
X64360000Y-93000000D03*
D17*
X64360000Y-99400000D03*
D18*
X64360000Y-98300000D03*
X64360000Y-95500000D03*
D17*
X64360000Y-94400000D03*
D16*
X188632501Y-115240000D03*
D19*
G36*
X189725321Y-114947180D02*
G01*
X188925321Y-116332820D01*
X187539681Y-115532820D01*
X188339681Y-114147180D01*
X189725321Y-114947180D01*
X189725321Y-114947180D01*
G37*
D16*
X195387499Y-119140000D03*
D20*
X189844936Y-115940000D03*
D19*
G36*
X191225673Y-116448494D02*
G01*
X190975673Y-116881506D01*
X188464199Y-115431506D01*
X188714199Y-114998494D01*
X191225673Y-116448494D01*
X191225673Y-116448494D01*
G37*
D21*
X190797564Y-116490000D03*
D19*
G36*
X191790384Y-116370385D02*
G01*
X191190384Y-117409615D01*
X189804744Y-116609615D01*
X190404744Y-115570385D01*
X191790384Y-116370385D01*
X191790384Y-116370385D01*
G37*
D21*
X193222436Y-117890000D03*
D19*
G36*
X194215256Y-117770385D02*
G01*
X193615256Y-118809615D01*
X192229616Y-118009615D01*
X192829616Y-116970385D01*
X194215256Y-117770385D01*
X194215256Y-117770385D01*
G37*
D20*
X194175064Y-118440000D03*
D19*
G36*
X195555801Y-118948494D02*
G01*
X195305801Y-119381506D01*
X192794327Y-117931506D01*
X193044327Y-117498494D01*
X195555801Y-118948494D01*
X195555801Y-118948494D01*
G37*
D16*
X131170000Y-119627499D03*
D19*
G36*
X130877180Y-118534679D02*
G01*
X132262820Y-119334679D01*
X131462820Y-120720319D01*
X130077180Y-119920319D01*
X130877180Y-118534679D01*
X130877180Y-118534679D01*
G37*
D16*
X135070000Y-112872501D03*
D20*
X131870000Y-118415064D03*
D19*
G36*
X132378494Y-117034327D02*
G01*
X132811506Y-117284327D01*
X131361506Y-119795801D01*
X130928494Y-119545801D01*
X132378494Y-117034327D01*
X132378494Y-117034327D01*
G37*
D21*
X132420000Y-117462436D03*
D19*
G36*
X132300385Y-116469616D02*
G01*
X133339615Y-117069616D01*
X132539615Y-118455256D01*
X131500385Y-117855256D01*
X132300385Y-116469616D01*
X132300385Y-116469616D01*
G37*
D21*
X133820000Y-115037564D03*
D19*
G36*
X133700385Y-114044744D02*
G01*
X134739615Y-114644744D01*
X133939615Y-116030384D01*
X132900385Y-115430384D01*
X133700385Y-114044744D01*
X133700385Y-114044744D01*
G37*
D20*
X134370000Y-114084936D03*
D19*
G36*
X134878494Y-112704199D02*
G01*
X135311506Y-112954199D01*
X133861506Y-115465673D01*
X133428494Y-115215673D01*
X134878494Y-112704199D01*
X134878494Y-112704199D01*
G37*
D15*
X50710000Y-45220000D03*
D16*
X50710000Y-37420000D03*
D17*
X50710000Y-43820000D03*
D18*
X50710000Y-42720000D03*
X50710000Y-39920000D03*
D17*
X50710000Y-38820000D03*
D15*
X69990000Y-45180000D03*
D16*
X69990000Y-37380000D03*
D17*
X69990000Y-43780000D03*
D18*
X69990000Y-42680000D03*
X69990000Y-39880000D03*
D17*
X69990000Y-38780000D03*
D15*
X88950000Y-40500000D03*
D16*
X88950000Y-32700000D03*
D17*
X88950000Y-39100000D03*
D18*
X88950000Y-38000000D03*
X88950000Y-35200000D03*
D17*
X88950000Y-34100000D03*
D15*
X107980000Y-38080000D03*
D16*
X107980000Y-30280000D03*
D17*
X107980000Y-36680000D03*
D18*
X107980000Y-35580000D03*
X107980000Y-32780000D03*
D17*
X107980000Y-31680000D03*
D15*
X127130000Y-40410000D03*
D16*
X127130000Y-32610000D03*
D17*
X127130000Y-39010000D03*
D18*
X127130000Y-37910000D03*
X127130000Y-35110000D03*
D17*
X127130000Y-34010000D03*
D15*
X146030000Y-42850000D03*
D16*
X146030000Y-35050000D03*
D17*
X146030000Y-41450000D03*
D18*
X146030000Y-40350000D03*
X146030000Y-37550000D03*
D17*
X146030000Y-36450000D03*
D15*
X165340000Y-42490000D03*
D16*
X165340000Y-34690000D03*
D17*
X165340000Y-41090000D03*
D18*
X165340000Y-39990000D03*
X165340000Y-37190000D03*
D17*
X165340000Y-36090000D03*
D15*
X222760000Y-42750000D03*
D16*
X222760000Y-34950000D03*
D17*
X222760000Y-41350000D03*
D18*
X222760000Y-40250000D03*
X222760000Y-37450000D03*
D17*
X222760000Y-36350000D03*
D15*
X241460000Y-42750000D03*
D16*
X241460000Y-34950000D03*
D17*
X241460000Y-41350000D03*
D18*
X241460000Y-40250000D03*
X241460000Y-37450000D03*
D17*
X241460000Y-36350000D03*
D15*
X260400000Y-40460000D03*
D16*
X260400000Y-32660000D03*
D17*
X260400000Y-39060000D03*
D18*
X260400000Y-37960000D03*
X260400000Y-35160000D03*
D17*
X260400000Y-34060000D03*
D15*
X279730000Y-38070000D03*
D16*
X279730000Y-30270000D03*
D17*
X279730000Y-36670000D03*
D18*
X279730000Y-35570000D03*
X279730000Y-32770000D03*
D17*
X279730000Y-31670000D03*
D15*
X317560000Y-45230000D03*
D16*
X317560000Y-37430000D03*
D17*
X317560000Y-43830000D03*
D18*
X317560000Y-42730000D03*
X317560000Y-39930000D03*
D17*
X317560000Y-38830000D03*
D15*
X336360000Y-45150000D03*
D16*
X336360000Y-37350000D03*
D17*
X336360000Y-43750000D03*
D18*
X336360000Y-42650000D03*
X336360000Y-39850000D03*
D17*
X336360000Y-38750000D03*
D15*
X44660000Y-64270000D03*
D16*
X44660000Y-56470000D03*
D17*
X44660000Y-62870000D03*
D18*
X44660000Y-61770000D03*
X44660000Y-58970000D03*
D17*
X44660000Y-57870000D03*
D15*
X69840000Y-64140000D03*
D16*
X69840000Y-56340000D03*
D17*
X69840000Y-62740000D03*
D18*
X69840000Y-61640000D03*
X69840000Y-58840000D03*
D17*
X69840000Y-57740000D03*
D15*
X88840000Y-59520000D03*
D16*
X88840000Y-51720000D03*
D17*
X88840000Y-58120000D03*
D18*
X88840000Y-57020000D03*
X88840000Y-54220000D03*
D17*
X88840000Y-53120000D03*
D15*
X108020000Y-57110000D03*
D16*
X108020000Y-49310000D03*
D17*
X108020000Y-55710000D03*
D18*
X108020000Y-54610000D03*
X108020000Y-51810000D03*
D17*
X108020000Y-50710000D03*
D15*
X127130000Y-59570000D03*
D16*
X127130000Y-51770000D03*
D17*
X127130000Y-58170000D03*
D18*
X127130000Y-57070000D03*
X127130000Y-54270000D03*
D17*
X127130000Y-53170000D03*
D15*
X146030000Y-61760000D03*
D16*
X146030000Y-53960000D03*
D17*
X146030000Y-60360000D03*
D18*
X146030000Y-59260000D03*
X146030000Y-56460000D03*
D17*
X146030000Y-55360000D03*
D15*
X165640000Y-61690000D03*
D16*
X165640000Y-53890000D03*
D17*
X165640000Y-60290000D03*
D18*
X165640000Y-59190000D03*
X165640000Y-56390000D03*
D17*
X165640000Y-55290000D03*
D15*
X222950000Y-61880000D03*
D16*
X222950000Y-54080000D03*
D17*
X222950000Y-60480000D03*
D18*
X222950000Y-59380000D03*
X222950000Y-56580000D03*
D17*
X222950000Y-55480000D03*
D15*
X241770000Y-61790000D03*
D16*
X241770000Y-53990000D03*
D17*
X241770000Y-60390000D03*
D18*
X241770000Y-59290000D03*
X241770000Y-56490000D03*
D17*
X241770000Y-55390000D03*
D15*
X260360000Y-59350000D03*
D16*
X260360000Y-51550000D03*
D17*
X260360000Y-57950000D03*
D18*
X260360000Y-56850000D03*
X260360000Y-54050000D03*
D17*
X260360000Y-52950000D03*
D15*
X279420000Y-57410000D03*
D16*
X279420000Y-49610000D03*
D17*
X279420000Y-56010000D03*
D18*
X279420000Y-54910000D03*
X279420000Y-52110000D03*
D17*
X279420000Y-51010000D03*
D15*
X298420000Y-59570000D03*
D16*
X298420000Y-51770000D03*
D17*
X298420000Y-58170000D03*
D18*
X298420000Y-57070000D03*
X298420000Y-54270000D03*
D17*
X298420000Y-53170000D03*
D15*
X317500000Y-64140000D03*
D16*
X317500000Y-56340000D03*
D17*
X317500000Y-62740000D03*
D18*
X317500000Y-61640000D03*
X317500000Y-58840000D03*
D17*
X317500000Y-57740000D03*
D15*
X336330000Y-64210000D03*
D16*
X336330000Y-56410000D03*
D17*
X336330000Y-62810000D03*
D18*
X336330000Y-61710000D03*
X336330000Y-58910000D03*
D17*
X336330000Y-57810000D03*
D15*
X41630000Y-83320000D03*
D16*
X41630000Y-75520000D03*
D17*
X41630000Y-81920000D03*
D18*
X41630000Y-80820000D03*
X41630000Y-78020000D03*
D17*
X41630000Y-76920000D03*
D15*
X69880000Y-83330000D03*
D16*
X69880000Y-75530000D03*
D17*
X69880000Y-81930000D03*
D18*
X69880000Y-80830000D03*
X69880000Y-78030000D03*
D17*
X69880000Y-76930000D03*
D15*
X88950000Y-78590000D03*
D16*
X88950000Y-70790000D03*
D17*
X88950000Y-77190000D03*
D18*
X88950000Y-76090000D03*
X88950000Y-73290000D03*
D17*
X88950000Y-72190000D03*
D15*
X107830000Y-76460000D03*
D16*
X107830000Y-68660000D03*
D17*
X107830000Y-75060000D03*
D18*
X107830000Y-73960000D03*
X107830000Y-71160000D03*
D17*
X107830000Y-70060000D03*
D15*
X126960000Y-78610000D03*
D16*
X126960000Y-70810000D03*
D17*
X126960000Y-77210000D03*
D18*
X126960000Y-76110000D03*
X126960000Y-73310000D03*
D17*
X126960000Y-72210000D03*
D15*
X146240000Y-80930000D03*
D16*
X146240000Y-73130000D03*
D17*
X146240000Y-79530000D03*
D18*
X146240000Y-78430000D03*
X146240000Y-75630000D03*
D17*
X146240000Y-74530000D03*
D15*
X165150000Y-81140000D03*
D16*
X165150000Y-73340000D03*
D17*
X165150000Y-79740000D03*
D18*
X165150000Y-78640000D03*
X165150000Y-75840000D03*
D17*
X165150000Y-74740000D03*
D15*
X222370000Y-80930000D03*
D16*
X222370000Y-73130000D03*
D17*
X222370000Y-79530000D03*
D18*
X222370000Y-78430000D03*
X222370000Y-75630000D03*
D17*
X222370000Y-74530000D03*
D15*
X241280000Y-81020000D03*
D16*
X241280000Y-73220000D03*
D17*
X241280000Y-79620000D03*
D18*
X241280000Y-78520000D03*
X241280000Y-75720000D03*
D17*
X241280000Y-74620000D03*
D15*
X260410000Y-78570000D03*
D16*
X260410000Y-70770000D03*
D17*
X260410000Y-77170000D03*
D18*
X260410000Y-76070000D03*
X260410000Y-73270000D03*
D17*
X260410000Y-72170000D03*
D15*
X279400000Y-76240000D03*
D16*
X279400000Y-68440000D03*
D17*
X279400000Y-74840000D03*
D18*
X279400000Y-73740000D03*
X279400000Y-70940000D03*
D17*
X279400000Y-69840000D03*
D15*
X298630000Y-78600000D03*
D16*
X298630000Y-70800000D03*
D17*
X298630000Y-77200000D03*
D18*
X298630000Y-76100000D03*
X298630000Y-73300000D03*
D17*
X298630000Y-72200000D03*
D15*
X317780000Y-83360000D03*
D16*
X317780000Y-75560000D03*
D17*
X317780000Y-81960000D03*
D18*
X317780000Y-80860000D03*
X317780000Y-78060000D03*
D17*
X317780000Y-76960000D03*
D15*
X336350000Y-81850000D03*
D16*
X336350000Y-74050000D03*
D17*
X336350000Y-80450000D03*
D18*
X336350000Y-79350000D03*
X336350000Y-76550000D03*
D17*
X336350000Y-75450000D03*
D15*
X69890000Y-101160000D03*
D16*
X69890000Y-93360000D03*
D17*
X69890000Y-99760000D03*
D18*
X69890000Y-98660000D03*
X69890000Y-95860000D03*
D17*
X69890000Y-94760000D03*
D15*
X88880000Y-97640000D03*
D16*
X88880000Y-89840000D03*
D17*
X88880000Y-96240000D03*
D18*
X88880000Y-95140000D03*
X88880000Y-92340000D03*
D17*
X88880000Y-91240000D03*
D15*
X107780000Y-95380000D03*
D16*
X107780000Y-87580000D03*
D17*
X107780000Y-93980000D03*
D18*
X107780000Y-92880000D03*
X107780000Y-90080000D03*
D17*
X107780000Y-88980000D03*
D15*
X126940000Y-97640000D03*
D16*
X126940000Y-89840000D03*
D17*
X126940000Y-96240000D03*
D18*
X126940000Y-95140000D03*
X126940000Y-92340000D03*
D17*
X126940000Y-91240000D03*
D15*
X145960000Y-99980000D03*
D16*
X145960000Y-92180000D03*
D17*
X145960000Y-98580000D03*
D18*
X145960000Y-97480000D03*
X145960000Y-94680000D03*
D17*
X145960000Y-93580000D03*
D15*
X48280000Y-45050000D03*
D16*
X48280000Y-37250000D03*
D17*
X48280000Y-43650000D03*
D18*
X48280000Y-42550000D03*
X48280000Y-39750000D03*
D17*
X48280000Y-38650000D03*
D15*
X355090000Y-45080000D03*
D16*
X355090000Y-37280000D03*
D17*
X355090000Y-43680000D03*
D18*
X355090000Y-42580000D03*
X355090000Y-39780000D03*
D17*
X355090000Y-38680000D03*
D15*
X241350000Y-99850000D03*
D16*
X241350000Y-92050000D03*
D17*
X241350000Y-98450000D03*
D18*
X241350000Y-97350000D03*
X241350000Y-94550000D03*
D17*
X241350000Y-93450000D03*
D15*
X260410000Y-97740000D03*
D16*
X260410000Y-89940000D03*
D17*
X260410000Y-96340000D03*
D18*
X260410000Y-95240000D03*
X260410000Y-92440000D03*
D17*
X260410000Y-91340000D03*
D15*
X279330000Y-95350000D03*
D16*
X279330000Y-87550000D03*
D17*
X279330000Y-93950000D03*
D18*
X279330000Y-92850000D03*
X279330000Y-90050000D03*
D17*
X279330000Y-88950000D03*
D15*
X298690000Y-97430000D03*
D16*
X298690000Y-89630000D03*
D17*
X298690000Y-96030000D03*
D18*
X298690000Y-94930000D03*
X298690000Y-92130000D03*
D17*
X298690000Y-91030000D03*
D15*
X317470000Y-102490000D03*
D16*
X317470000Y-94690000D03*
D17*
X317470000Y-101090000D03*
D18*
X317470000Y-99990000D03*
X317470000Y-97190000D03*
D17*
X317470000Y-96090000D03*
D15*
X337900000Y-101770000D03*
D16*
X337900000Y-93970000D03*
D17*
X337900000Y-100370000D03*
D18*
X337900000Y-99270000D03*
X337900000Y-96470000D03*
D17*
X337900000Y-95370000D03*
D15*
X48100000Y-121630000D03*
D16*
X48100000Y-113830000D03*
D17*
X48100000Y-120230000D03*
D18*
X48100000Y-119130000D03*
X48100000Y-116330000D03*
D17*
X48100000Y-115230000D03*
D15*
X66260000Y-121240000D03*
D16*
X66260000Y-113440000D03*
D17*
X66260000Y-119840000D03*
D18*
X66260000Y-118740000D03*
X66260000Y-115940000D03*
D17*
X66260000Y-114840000D03*
D15*
X88840000Y-115180000D03*
D16*
X88840000Y-107380000D03*
D17*
X88840000Y-113780000D03*
D18*
X88840000Y-112680000D03*
X88840000Y-109880000D03*
D17*
X88840000Y-108780000D03*
D15*
X107970000Y-114350000D03*
D16*
X107970000Y-106550000D03*
D17*
X107970000Y-112950000D03*
D18*
X107970000Y-111850000D03*
X107970000Y-109050000D03*
D17*
X107970000Y-107950000D03*
D16*
X176172501Y-99300000D03*
D19*
G36*
X177265321Y-99007180D02*
G01*
X176465321Y-100392820D01*
X175079681Y-99592820D01*
X175879681Y-98207180D01*
X177265321Y-99007180D01*
X177265321Y-99007180D01*
G37*
D16*
X182927499Y-103200000D03*
D20*
X177384936Y-100000000D03*
D19*
G36*
X178765673Y-100508494D02*
G01*
X178515673Y-100941506D01*
X176004199Y-99491506D01*
X176254199Y-99058494D01*
X178765673Y-100508494D01*
X178765673Y-100508494D01*
G37*
D21*
X178337564Y-100550000D03*
D19*
G36*
X179330384Y-100430385D02*
G01*
X178730384Y-101469615D01*
X177344744Y-100669615D01*
X177944744Y-99630385D01*
X179330384Y-100430385D01*
X179330384Y-100430385D01*
G37*
D21*
X180762436Y-101950000D03*
D19*
G36*
X181755256Y-101830385D02*
G01*
X181155256Y-102869615D01*
X179769616Y-102069615D01*
X180369616Y-101030385D01*
X181755256Y-101830385D01*
X181755256Y-101830385D01*
G37*
D20*
X181715064Y-102500000D03*
D19*
G36*
X183095801Y-103008494D02*
G01*
X182845801Y-103441506D01*
X180334327Y-101991506D01*
X180584327Y-101558494D01*
X183095801Y-103008494D01*
X183095801Y-103008494D01*
G37*
D16*
X213242501Y-130340000D03*
D19*
G36*
X213535321Y-129247180D02*
G01*
X214335321Y-130632820D01*
X212949681Y-131432820D01*
X212149681Y-130047180D01*
X213535321Y-129247180D01*
X213535321Y-129247180D01*
G37*
D16*
X219997499Y-126440000D03*
D20*
X214454936Y-129640000D03*
D19*
G36*
X215585673Y-128698494D02*
G01*
X215835673Y-129131506D01*
X213324199Y-130581506D01*
X213074199Y-130148494D01*
X215585673Y-128698494D01*
X215585673Y-128698494D01*
G37*
D21*
X215407564Y-129090000D03*
D19*
G36*
X215800384Y-128170385D02*
G01*
X216400384Y-129209615D01*
X215014744Y-130009615D01*
X214414744Y-128970385D01*
X215800384Y-128170385D01*
X215800384Y-128170385D01*
G37*
D21*
X217832436Y-127690000D03*
D19*
G36*
X218225256Y-126770385D02*
G01*
X218825256Y-127809615D01*
X217439616Y-128609615D01*
X216839616Y-127570385D01*
X218225256Y-126770385D01*
X218225256Y-126770385D01*
G37*
D20*
X218785064Y-127140000D03*
D19*
G36*
X219915801Y-126198494D02*
G01*
X220165801Y-126631506D01*
X217654327Y-128081506D01*
X217404327Y-127648494D01*
X219915801Y-126198494D01*
X219915801Y-126198494D01*
G37*
D16*
X222902501Y-106880000D03*
D19*
G36*
X223195321Y-105787180D02*
G01*
X223995321Y-107172820D01*
X222609681Y-107972820D01*
X221809681Y-106587180D01*
X223195321Y-105787180D01*
X223195321Y-105787180D01*
G37*
D16*
X229657499Y-102980000D03*
D20*
X224114936Y-106180000D03*
D19*
G36*
X225245673Y-105238494D02*
G01*
X225495673Y-105671506D01*
X222984199Y-107121506D01*
X222734199Y-106688494D01*
X225245673Y-105238494D01*
X225245673Y-105238494D01*
G37*
D21*
X225067564Y-105630000D03*
D19*
G36*
X225460384Y-104710385D02*
G01*
X226060384Y-105749615D01*
X224674744Y-106549615D01*
X224074744Y-105510385D01*
X225460384Y-104710385D01*
X225460384Y-104710385D01*
G37*
D21*
X227492436Y-104230000D03*
D19*
G36*
X227885256Y-103310385D02*
G01*
X228485256Y-104349615D01*
X227099616Y-105149615D01*
X226499616Y-104110385D01*
X227885256Y-103310385D01*
X227885256Y-103310385D01*
G37*
D20*
X228445064Y-103680000D03*
D19*
G36*
X229575801Y-102738494D02*
G01*
X229825801Y-103171506D01*
X227314327Y-104621506D01*
X227064327Y-104188494D01*
X229575801Y-102738494D01*
X229575801Y-102738494D01*
G37*
D16*
X246242501Y-115150000D03*
D19*
G36*
X246535321Y-114057180D02*
G01*
X247335321Y-115442820D01*
X245949681Y-116242820D01*
X245149681Y-114857180D01*
X246535321Y-114057180D01*
X246535321Y-114057180D01*
G37*
D16*
X252997499Y-111250000D03*
D20*
X247454936Y-114450000D03*
D19*
G36*
X248585673Y-113508494D02*
G01*
X248835673Y-113941506D01*
X246324199Y-115391506D01*
X246074199Y-114958494D01*
X248585673Y-113508494D01*
X248585673Y-113508494D01*
G37*
D21*
X248407564Y-113900000D03*
D19*
G36*
X248800384Y-112980385D02*
G01*
X249400384Y-114019615D01*
X248014744Y-114819615D01*
X247414744Y-113780385D01*
X248800384Y-112980385D01*
X248800384Y-112980385D01*
G37*
D21*
X250832436Y-112500000D03*
D19*
G36*
X251225256Y-111580385D02*
G01*
X251825256Y-112619615D01*
X250439616Y-113419615D01*
X249839616Y-112380385D01*
X251225256Y-111580385D01*
X251225256Y-111580385D01*
G37*
D20*
X251785064Y-111950000D03*
D19*
G36*
X252915801Y-111008494D02*
G01*
X253165801Y-111441506D01*
X250654327Y-112891506D01*
X250404327Y-112458494D01*
X252915801Y-111008494D01*
X252915801Y-111008494D01*
G37*
D15*
X279410000Y-114070000D03*
D16*
X279410000Y-106270000D03*
D17*
X279410000Y-112670000D03*
D18*
X279410000Y-111570000D03*
X279410000Y-108770000D03*
D17*
X279410000Y-107670000D03*
D15*
X298540000Y-116380000D03*
D16*
X298540000Y-108580000D03*
D17*
X298540000Y-114980000D03*
D18*
X298540000Y-113880000D03*
X298540000Y-111080000D03*
D17*
X298540000Y-109980000D03*
D15*
X318100000Y-121440000D03*
D16*
X318100000Y-113640000D03*
D17*
X318100000Y-120040000D03*
D18*
X318100000Y-118940000D03*
X318100000Y-116140000D03*
D17*
X318100000Y-115040000D03*
D15*
X336850000Y-121470000D03*
D16*
X336850000Y-113670000D03*
D17*
X336850000Y-120070000D03*
D18*
X336850000Y-118970000D03*
X336850000Y-116170000D03*
D17*
X336850000Y-115070000D03*
D15*
X298320000Y-40440000D03*
D16*
X298320000Y-32640000D03*
D17*
X298320000Y-39040000D03*
D18*
X298320000Y-37940000D03*
X298320000Y-35140000D03*
D17*
X298320000Y-34040000D03*
D22*
X210930000Y-49490000D03*
X210950000Y-46660000D03*
X211249999Y-31279999D03*
X207320000Y-60240000D03*
X221470000Y-60070000D03*
X181470000Y-61780000D03*
X208460000Y-49340000D03*
X208510000Y-44210000D03*
X206410000Y-61770000D03*
X182380000Y-81780000D03*
X210840000Y-78280000D03*
X205604999Y-80835001D03*
X48030000Y-49620000D03*
X65610000Y-49890000D03*
X183290000Y-97490000D03*
X210230000Y-94210000D03*
X362519001Y-101249001D03*
X204871301Y-97248699D03*
X150500000Y-99300000D03*
X150530000Y-124690000D03*
X189270000Y-99120000D03*
X184620000Y-99120000D03*
X207170000Y-99420000D03*
X178272296Y-120612296D03*
X214090000Y-106880000D03*
X203670000Y-106360000D03*
X246470000Y-124010000D03*
X245237890Y-108387890D03*
X235434705Y-111174705D03*
X228445064Y-111295064D03*
X191260000Y-64560000D03*
X162370000Y-64270000D03*
X162370000Y-28810000D03*
X213084999Y-66155001D03*
X193669990Y-62630010D03*
X213070000Y-63300000D03*
X214220000Y-64340000D03*
X194390000Y-65510000D03*
X200010000Y-65510000D03*
X202970000Y-64010000D03*
X215150000Y-65530000D03*
X195360000Y-66660000D03*
X177100000Y-106190000D03*
X185470000Y-106310000D03*
X216080000Y-66730000D03*
X196510000Y-67800000D03*
X216090000Y-67790000D03*
X156840000Y-117010000D03*
X216910000Y-68440000D03*
X197750000Y-68760000D03*
X217708699Y-70371301D03*
X198618699Y-70111301D03*
X187000000Y-40520000D03*
X185600000Y-80810000D03*
X216220000Y-69690000D03*
X212700000Y-69690000D03*
X189750000Y-70810000D03*
X180780000Y-71160000D03*
X179460000Y-83830000D03*
X220111301Y-83298699D03*
X191885000Y-71955000D03*
X189030000Y-71890000D03*
D23*
X55234000Y-37420000D02*
X55240000Y-37426000D01*
X50710000Y-37420000D02*
X55234000Y-37420000D01*
X165140000Y-42490000D02*
X165340000Y-42490000D01*
X164780000Y-42850000D02*
X165140000Y-42490000D01*
X146030000Y-42850000D02*
X164780000Y-42850000D01*
X127130000Y-41460000D02*
X127130000Y-40410000D01*
X128520000Y-42850000D02*
X127130000Y-41460000D01*
X146030000Y-42850000D02*
X128520000Y-42850000D01*
X109260000Y-40410000D02*
X107980000Y-39130000D01*
X127130000Y-40410000D02*
X109260000Y-40410000D01*
X107980000Y-39130000D02*
X107980000Y-38080000D01*
X106610000Y-40500000D02*
X107980000Y-39130000D01*
X88950000Y-40500000D02*
X106610000Y-40500000D01*
X88950000Y-41550000D02*
X88950000Y-40500000D01*
X85320000Y-45180000D02*
X88950000Y-41550000D01*
X69990000Y-45180000D02*
X85320000Y-45180000D01*
X69950000Y-45220000D02*
X69990000Y-45180000D01*
X50710000Y-45220000D02*
X69950000Y-45220000D01*
X165340000Y-43540000D02*
X165340000Y-42490000D01*
X170060000Y-48260000D02*
X165340000Y-43540000D01*
X184580000Y-48260000D02*
X170060000Y-48260000D01*
X210930000Y-49065736D02*
X210950000Y-49045736D01*
X210930000Y-49490000D02*
X210930000Y-49065736D01*
X210950000Y-49045736D02*
X210950000Y-46660000D01*
X210950000Y-46660000D02*
X210950000Y-46660000D01*
X204469999Y-31279999D02*
X203670000Y-30480000D01*
X211249999Y-31279999D02*
X204469999Y-31279999D01*
X74244000Y-37380000D02*
X74290000Y-37426000D01*
X69990000Y-37380000D02*
X74244000Y-37380000D01*
X93305000Y-32700000D02*
X93340000Y-32665000D01*
X88950000Y-32700000D02*
X93305000Y-32700000D01*
X112387000Y-30280000D02*
X112390000Y-30283000D01*
X107980000Y-30280000D02*
X112387000Y-30280000D01*
X131386000Y-32610000D02*
X131440000Y-32664000D01*
X127130000Y-32610000D02*
X131386000Y-32610000D01*
X150485000Y-35050000D02*
X150490000Y-35045000D01*
X146030000Y-35050000D02*
X150485000Y-35050000D01*
X169185000Y-34690000D02*
X169540000Y-35045000D01*
X165340000Y-34690000D02*
X169185000Y-34690000D01*
X317560000Y-44180000D02*
X317560000Y-45230000D01*
X317990000Y-43750000D02*
X317560000Y-44180000D01*
X336360000Y-43750000D02*
X317990000Y-43750000D01*
X298320000Y-41490000D02*
X298320000Y-40440000D01*
X302060000Y-45230000D02*
X298320000Y-41490000D01*
X317560000Y-45230000D02*
X302060000Y-45230000D01*
X281050000Y-40440000D02*
X279730000Y-39120000D01*
X298320000Y-40440000D02*
X281050000Y-40440000D01*
X279730000Y-39120000D02*
X279730000Y-38070000D01*
X278390000Y-40460000D02*
X279730000Y-39120000D01*
X260400000Y-40460000D02*
X278390000Y-40460000D01*
X260400000Y-41510000D02*
X260400000Y-40460000D01*
X259160000Y-42750000D02*
X260400000Y-41510000D01*
X241460000Y-42750000D02*
X259160000Y-42750000D01*
X223810000Y-42750000D02*
X241460000Y-42750000D01*
X222760000Y-42750000D02*
X223810000Y-42750000D01*
X207744264Y-60240000D02*
X207784264Y-60200000D01*
X207320000Y-60240000D02*
X207744264Y-60240000D01*
X207784264Y-60200000D02*
X221080000Y-60200000D01*
X221080000Y-60200000D02*
X221080000Y-60200000D01*
X221210000Y-60070000D02*
X221080000Y-60200000D01*
X221470000Y-60070000D02*
X221210000Y-60070000D01*
X224576554Y-34957000D02*
X226193000Y-34957000D01*
X222953000Y-34957000D02*
X224576554Y-34957000D01*
X222760000Y-35150000D02*
X222953000Y-34957000D01*
X222760000Y-36350000D02*
X222760000Y-35150000D01*
X245236000Y-34950000D02*
X245243000Y-34957000D01*
X241460000Y-34950000D02*
X245236000Y-34950000D01*
X264168000Y-32660000D02*
X264240000Y-32588000D01*
X260400000Y-32660000D02*
X264168000Y-32660000D01*
X283257000Y-30270000D02*
X283343000Y-30184000D01*
X279730000Y-30270000D02*
X283257000Y-30270000D01*
X302341000Y-32640000D02*
X302393000Y-32588000D01*
X298320000Y-32640000D02*
X302341000Y-32640000D01*
X321351000Y-37430000D02*
X321443000Y-37338000D01*
X317560000Y-37430000D02*
X321351000Y-37430000D01*
X338876554Y-37338000D02*
X340493000Y-37338000D01*
X338272000Y-37338000D02*
X338876554Y-37338000D01*
X336860000Y-38750000D02*
X338272000Y-37338000D01*
X336360000Y-38750000D02*
X336860000Y-38750000D01*
X50471000Y-56470000D02*
X50477000Y-56476000D01*
X44660000Y-56470000D02*
X50471000Y-56470000D01*
X69710000Y-64270000D02*
X69840000Y-64140000D01*
X44660000Y-64270000D02*
X69710000Y-64270000D01*
X88840000Y-60570000D02*
X88840000Y-59520000D01*
X85270000Y-64140000D02*
X88840000Y-60570000D01*
X69840000Y-64140000D02*
X85270000Y-64140000D01*
X106660000Y-59520000D02*
X108020000Y-58160000D01*
X88840000Y-59520000D02*
X106660000Y-59520000D01*
X108020000Y-58160000D02*
X108020000Y-57110000D01*
X109430000Y-59570000D02*
X108020000Y-58160000D01*
X127130000Y-59570000D02*
X109430000Y-59570000D01*
X127130000Y-60620000D02*
X127130000Y-59570000D01*
X128270000Y-61760000D02*
X127130000Y-60620000D01*
X146030000Y-61760000D02*
X128270000Y-61760000D01*
X146100000Y-61690000D02*
X146030000Y-61760000D01*
X165640000Y-61690000D02*
X146100000Y-61690000D01*
X165730000Y-61780000D02*
X165640000Y-61690000D01*
X181470000Y-61780000D02*
X165730000Y-61780000D01*
X208460000Y-48915736D02*
X208510000Y-48865736D01*
X208460000Y-49340000D02*
X208460000Y-48915736D01*
X208510000Y-48865736D02*
X208510000Y-44210000D01*
X208510000Y-44210000D02*
X208510000Y-44210000D01*
X74154000Y-56340000D02*
X74290000Y-56476000D01*
X69840000Y-56340000D02*
X74154000Y-56340000D01*
X93334000Y-51720000D02*
X93340000Y-51714000D01*
X88840000Y-51720000D02*
X93334000Y-51720000D01*
X112367000Y-49310000D02*
X112390000Y-49333000D01*
X108020000Y-49310000D02*
X112367000Y-49310000D01*
X131384000Y-51770000D02*
X131440000Y-51714000D01*
X127130000Y-51770000D02*
X131384000Y-51770000D01*
X150355000Y-53960000D02*
X150490000Y-54095000D01*
X146030000Y-53960000D02*
X150355000Y-53960000D01*
X169335000Y-53890000D02*
X169540000Y-54095000D01*
X165640000Y-53890000D02*
X169335000Y-53890000D01*
X226128000Y-54080000D02*
X226193000Y-54015000D01*
X222950000Y-54080000D02*
X226128000Y-54080000D01*
X241680000Y-61880000D02*
X241770000Y-61790000D01*
X222950000Y-61880000D02*
X241680000Y-61880000D01*
X260360000Y-60400000D02*
X260360000Y-59350000D01*
X258970000Y-61790000D02*
X260360000Y-60400000D01*
X241770000Y-61790000D02*
X258970000Y-61790000D01*
X278530000Y-59350000D02*
X279420000Y-58460000D01*
X260360000Y-59350000D02*
X278530000Y-59350000D01*
X279420000Y-58460000D02*
X279420000Y-57410000D01*
X280530000Y-59570000D02*
X279420000Y-58460000D01*
X298420000Y-59570000D02*
X280530000Y-59570000D01*
X298420000Y-60620000D02*
X298420000Y-59570000D01*
X301940000Y-64140000D02*
X298420000Y-60620000D01*
X317500000Y-64140000D02*
X301940000Y-64140000D01*
X317570000Y-64210000D02*
X317500000Y-64140000D01*
X336330000Y-64210000D02*
X317570000Y-64210000D01*
X222840000Y-61770000D02*
X222950000Y-61880000D01*
X206410000Y-61770000D02*
X222840000Y-61770000D01*
X245229000Y-53990000D02*
X245243000Y-54004000D01*
X241770000Y-53990000D02*
X245229000Y-53990000D01*
X264220000Y-51550000D02*
X264293000Y-51623000D01*
X260360000Y-51550000D02*
X264220000Y-51550000D01*
X283563000Y-49610000D02*
X283840000Y-49333000D01*
X279420000Y-49610000D02*
X283563000Y-49610000D01*
X302257000Y-51770000D02*
X302393000Y-51634000D01*
X298420000Y-51770000D02*
X302257000Y-51770000D01*
X321383000Y-56340000D02*
X321443000Y-56400000D01*
X317500000Y-56340000D02*
X321383000Y-56340000D01*
X345231000Y-56410000D02*
X345256000Y-56385000D01*
X336330000Y-56410000D02*
X345231000Y-56410000D01*
X146450000Y-81140000D02*
X146240000Y-80930000D01*
X165150000Y-81140000D02*
X146450000Y-81140000D01*
X126960000Y-79660000D02*
X126960000Y-78610000D01*
X128230000Y-80930000D02*
X126960000Y-79660000D01*
X146240000Y-80930000D02*
X128230000Y-80930000D01*
X107830000Y-77510000D02*
X107830000Y-76460000D01*
X108930000Y-78610000D02*
X107830000Y-77510000D01*
X126960000Y-78610000D02*
X108930000Y-78610000D01*
X107630000Y-76460000D02*
X107830000Y-76460000D01*
X106900000Y-77190000D02*
X107630000Y-76460000D01*
X88950000Y-77190000D02*
X106900000Y-77190000D01*
X88950000Y-79640000D02*
X88950000Y-78590000D01*
X85260000Y-83330000D02*
X88950000Y-79640000D01*
X69880000Y-83330000D02*
X85260000Y-83330000D01*
X69870000Y-83320000D02*
X69880000Y-83330000D01*
X41630000Y-83320000D02*
X69870000Y-83320000D01*
X181740000Y-81140000D02*
X182380000Y-81780000D01*
X165150000Y-81140000D02*
X181740000Y-81140000D01*
X182804264Y-81780000D02*
X182380000Y-81780000D01*
X198948184Y-81780000D02*
X182804264Y-81780000D01*
X202448184Y-78280000D02*
X198948184Y-81780000D01*
X210840000Y-78280000D02*
X202448184Y-78280000D01*
X48090000Y-75520000D02*
X48096000Y-75526000D01*
X41630000Y-75520000D02*
X48090000Y-75520000D01*
X74286000Y-75530000D02*
X74290000Y-75526000D01*
X69880000Y-75530000D02*
X74286000Y-75530000D01*
X93314000Y-70790000D02*
X93340000Y-70764000D01*
X88950000Y-70790000D02*
X93314000Y-70790000D01*
X112113000Y-68660000D02*
X112390000Y-68383000D01*
X107830000Y-68660000D02*
X112113000Y-68660000D01*
X131394000Y-70810000D02*
X131440000Y-70764000D01*
X126960000Y-70810000D02*
X131394000Y-70810000D01*
X150475000Y-73130000D02*
X150490000Y-73145000D01*
X146240000Y-73130000D02*
X150475000Y-73130000D01*
X169345000Y-73340000D02*
X169540000Y-73145000D01*
X165150000Y-73340000D02*
X169345000Y-73340000D01*
X226123000Y-73130000D02*
X226193000Y-73060000D01*
X222370000Y-73130000D02*
X226123000Y-73130000D01*
X336350000Y-81650000D02*
X336350000Y-80450000D01*
X334640000Y-83360000D02*
X336350000Y-81650000D01*
X317780000Y-83360000D02*
X334640000Y-83360000D01*
X298630000Y-79650000D02*
X298630000Y-78600000D01*
X302340000Y-83360000D02*
X298630000Y-79650000D01*
X317780000Y-83360000D02*
X302340000Y-83360000D01*
X280710000Y-78600000D02*
X279400000Y-77290000D01*
X298630000Y-78600000D02*
X280710000Y-78600000D01*
X279400000Y-77290000D02*
X279400000Y-76240000D01*
X278120000Y-78570000D02*
X279400000Y-77290000D01*
X260410000Y-78570000D02*
X278120000Y-78570000D01*
X260410000Y-79620000D02*
X260410000Y-78570000D01*
X259010000Y-81020000D02*
X260410000Y-79620000D01*
X241280000Y-81020000D02*
X259010000Y-81020000D01*
X241190000Y-80930000D02*
X241280000Y-81020000D01*
X222370000Y-80930000D02*
X241190000Y-80930000D01*
X222275001Y-80835001D02*
X222370000Y-80930000D01*
X205604999Y-80835001D02*
X222275001Y-80835001D01*
X245075000Y-73220000D02*
X245243000Y-73052000D01*
X241280000Y-73220000D02*
X245075000Y-73220000D01*
X264194000Y-70770000D02*
X264293000Y-70671000D01*
X260410000Y-70770000D02*
X264194000Y-70770000D01*
X283212000Y-68440000D02*
X283343000Y-68309000D01*
X279400000Y-68440000D02*
X283212000Y-68440000D01*
X302270000Y-70800000D02*
X302393000Y-70677000D01*
X298630000Y-70800000D02*
X302270000Y-70800000D01*
X321321000Y-75560000D02*
X321443000Y-75438000D01*
X317780000Y-75560000D02*
X321321000Y-75560000D01*
X346020554Y-75430000D02*
X342900000Y-75430000D01*
X347637000Y-75430000D02*
X346020554Y-75430000D01*
X336850000Y-75450000D02*
X336350000Y-75450000D01*
X337710000Y-75450000D02*
X336850000Y-75450000D01*
X337730000Y-75430000D02*
X337710000Y-75450000D01*
X342900000Y-75430000D02*
X337730000Y-75430000D01*
X36396000Y-37250000D02*
X36190000Y-37456000D01*
X48280000Y-37250000D02*
X36396000Y-37250000D01*
X65340000Y-49620000D02*
X65610000Y-49890000D01*
X48030000Y-49620000D02*
X65340000Y-49620000D01*
X64720000Y-101160000D02*
X64360000Y-100800000D01*
X69890000Y-101160000D02*
X64720000Y-101160000D01*
X88880000Y-98690000D02*
X88880000Y-97640000D01*
X86410000Y-101160000D02*
X88880000Y-98690000D01*
X69890000Y-101160000D02*
X86410000Y-101160000D01*
X106570000Y-97640000D02*
X107780000Y-96430000D01*
X88880000Y-97640000D02*
X106570000Y-97640000D01*
X107780000Y-96430000D02*
X107780000Y-95380000D01*
X108990000Y-97640000D02*
X107780000Y-96430000D01*
X126940000Y-97640000D02*
X108990000Y-97640000D01*
X126940000Y-98690000D02*
X126940000Y-97640000D01*
X128230000Y-99980000D02*
X126940000Y-98690000D01*
X145960000Y-99980000D02*
X128230000Y-99980000D01*
X145970000Y-97490000D02*
X145960000Y-97480000D01*
X183290000Y-97490000D02*
X145970000Y-97490000D01*
X183714264Y-97490000D02*
X183290000Y-97490000D01*
X198626728Y-97490000D02*
X183714264Y-97490000D01*
X201906728Y-94210000D02*
X198626728Y-97490000D01*
X210230000Y-94210000D02*
X201906728Y-94210000D01*
X44976446Y-94576000D02*
X43360000Y-94576000D01*
X61652630Y-94576000D02*
X44976446Y-94576000D01*
X63228630Y-93000000D02*
X61652630Y-94576000D01*
X64360000Y-93000000D02*
X63228630Y-93000000D01*
X71106000Y-94576000D02*
X74290000Y-94576000D01*
X69890000Y-93360000D02*
X71106000Y-94576000D01*
X93314000Y-89840000D02*
X93340000Y-89814000D01*
X88880000Y-89840000D02*
X93314000Y-89840000D01*
X112243000Y-87580000D02*
X112390000Y-87433000D01*
X107780000Y-87580000D02*
X112243000Y-87580000D01*
X131414000Y-89840000D02*
X131440000Y-89814000D01*
X126940000Y-89840000D02*
X131414000Y-89840000D01*
X150475000Y-92180000D02*
X150490000Y-92195000D01*
X145960000Y-92180000D02*
X150475000Y-92180000D01*
X260410000Y-98790000D02*
X260410000Y-97740000D01*
X259350000Y-99850000D02*
X260410000Y-98790000D01*
X241350000Y-99850000D02*
X259350000Y-99850000D01*
X277990000Y-97740000D02*
X279330000Y-96400000D01*
X260410000Y-97740000D02*
X277990000Y-97740000D01*
X279330000Y-96400000D02*
X279330000Y-95350000D01*
X280360000Y-97430000D02*
X279330000Y-96400000D01*
X298690000Y-97430000D02*
X280360000Y-97430000D01*
X299740000Y-97430000D02*
X298690000Y-97430000D01*
X313460000Y-97430000D02*
X299740000Y-97430000D01*
X317470000Y-101440000D02*
X313460000Y-97430000D01*
X317470000Y-102490000D02*
X317470000Y-101440000D01*
X337180000Y-102490000D02*
X337900000Y-101770000D01*
X317470000Y-102490000D02*
X337180000Y-102490000D01*
X361998002Y-101770000D02*
X362519001Y-101249001D01*
X337900000Y-101770000D02*
X361998002Y-101770000D01*
X241350000Y-98800000D02*
X241350000Y-99850000D01*
X239798699Y-97248699D02*
X241350000Y-98800000D01*
X204871301Y-97248699D02*
X239798699Y-97248699D01*
X245217000Y-92050000D02*
X245243000Y-92076000D01*
X241350000Y-92050000D02*
X245217000Y-92050000D01*
X264664000Y-89940000D02*
X264790000Y-89814000D01*
X260410000Y-89940000D02*
X264664000Y-89940000D01*
X283131000Y-87550000D02*
X283343000Y-87338000D01*
X279330000Y-87550000D02*
X283131000Y-87550000D01*
X302303000Y-89630000D02*
X302393000Y-89720000D01*
X298690000Y-89630000D02*
X302303000Y-89630000D01*
X321247000Y-94690000D02*
X321443000Y-94494000D01*
X317470000Y-94690000D02*
X321247000Y-94690000D01*
X342430000Y-93970000D02*
X342880000Y-94420000D01*
X337900000Y-93970000D02*
X342430000Y-93970000D01*
X342932000Y-94472000D02*
X342880000Y-94420000D01*
X352404000Y-94472000D02*
X342932000Y-94472000D01*
X359485000Y-37280000D02*
X359543000Y-37338000D01*
X355090000Y-37280000D02*
X359485000Y-37280000D01*
X52654000Y-113830000D02*
X52858000Y-113626000D01*
X48100000Y-113830000D02*
X52654000Y-113830000D01*
X48490000Y-121240000D02*
X48100000Y-121630000D01*
X66260000Y-121240000D02*
X48490000Y-121240000D01*
X88840000Y-116230000D02*
X88840000Y-115180000D01*
X83830000Y-121240000D02*
X88840000Y-116230000D01*
X66260000Y-121240000D02*
X83830000Y-121240000D01*
X107140000Y-115180000D02*
X107970000Y-114350000D01*
X88840000Y-115180000D02*
X107140000Y-115180000D01*
X127804936Y-114350000D02*
X107970000Y-114350000D01*
X131870000Y-118415064D02*
X127804936Y-114350000D01*
X176172501Y-99300000D02*
X150500000Y-99300000D01*
X131170000Y-119627499D02*
X136232501Y-124690000D01*
X136232501Y-124690000D02*
X150530000Y-124690000D01*
X150500000Y-99300000D02*
X150350000Y-99300000D01*
X150530000Y-124690000D02*
X150530000Y-124690000D01*
X177196261Y-99300000D02*
X177376261Y-99120000D01*
X176172501Y-99300000D02*
X177196261Y-99300000D01*
X177376261Y-99120000D02*
X184620000Y-99120000D01*
X189270000Y-99120000D02*
X189270000Y-99120000D01*
X184620000Y-99120000D02*
X189270000Y-99120000D01*
X189569999Y-99419999D02*
X189270000Y-99120000D01*
X190320000Y-100170000D02*
X189569999Y-99419999D01*
X206420000Y-100170000D02*
X190320000Y-100170000D01*
X207170000Y-99420000D02*
X206420000Y-100170000D01*
X74196000Y-113720000D02*
X74290000Y-113626000D01*
X71860000Y-113720000D02*
X74196000Y-113720000D01*
X71580000Y-113440000D02*
X71860000Y-113720000D01*
X66260000Y-113440000D02*
X71580000Y-113440000D01*
X90324000Y-108864000D02*
X93340000Y-108864000D01*
X88840000Y-107380000D02*
X90324000Y-108864000D01*
X112323000Y-106550000D02*
X112390000Y-106483000D01*
X107970000Y-106550000D02*
X112323000Y-106550000D01*
X138020084Y-114084936D02*
X139550443Y-115615295D01*
X134370000Y-114084936D02*
X138020084Y-114084936D01*
X174674705Y-111452794D02*
X182927499Y-103200000D01*
X174674705Y-114420443D02*
X174674705Y-111452794D01*
X193915203Y-120612296D02*
X178272296Y-120612296D01*
X195387499Y-119140000D02*
X193915203Y-120612296D01*
X219997499Y-128793237D02*
X222784705Y-131580443D01*
X219997499Y-126440000D02*
X219997499Y-128793237D01*
X336820000Y-121440000D02*
X336850000Y-121470000D01*
X318100000Y-121440000D02*
X336820000Y-121440000D01*
X299590000Y-116380000D02*
X298540000Y-116380000D01*
X311990000Y-116380000D02*
X299590000Y-116380000D01*
X317050000Y-121440000D02*
X311990000Y-116380000D01*
X318100000Y-121440000D02*
X317050000Y-121440000D01*
X279410000Y-115120000D02*
X279410000Y-114070000D01*
X280670000Y-116380000D02*
X279410000Y-115120000D01*
X298540000Y-116380000D02*
X280670000Y-116380000D01*
X278360000Y-114070000D02*
X279410000Y-114070000D01*
X266690000Y-125740000D02*
X278360000Y-114070000D01*
X256832501Y-125740000D02*
X266690000Y-125740000D01*
X221878741Y-106880000D02*
X221808741Y-106810000D01*
X222902501Y-106880000D02*
X221878741Y-106880000D01*
X222902501Y-106880000D02*
X214090000Y-106880000D01*
X214090000Y-106880000D02*
X213890000Y-107080000D01*
X214090000Y-106880000D02*
X214090000Y-106880000D01*
X245586151Y-114493650D02*
X246242501Y-115150000D01*
X224410391Y-108387890D02*
X239480391Y-108387890D01*
X222902501Y-106880000D02*
X224410391Y-108387890D01*
X204190000Y-106880000D02*
X203670000Y-106360000D01*
X214090000Y-106880000D02*
X204190000Y-106880000D01*
X239480391Y-108387890D02*
X245237890Y-108387890D01*
X256832501Y-125740000D02*
X255102501Y-124010000D01*
X255102501Y-124010000D02*
X246470000Y-124010000D01*
X246470000Y-124010000D02*
X246470000Y-124010000D01*
X245237890Y-108387890D02*
X245237890Y-108387890D01*
X228565423Y-111174705D02*
X228445064Y-111295064D01*
X235434705Y-111174705D02*
X228565423Y-111174705D01*
X252997499Y-115072351D02*
X252997499Y-111250000D01*
X257210443Y-119285295D02*
X252997499Y-115072351D01*
X283222000Y-106270000D02*
X283343000Y-106391000D01*
X279410000Y-106270000D02*
X283222000Y-106270000D01*
X302189000Y-108580000D02*
X302393000Y-108784000D01*
X298540000Y-108580000D02*
X302189000Y-108580000D01*
X321269000Y-113640000D02*
X321374000Y-113535000D01*
X318100000Y-113640000D02*
X321269000Y-113640000D01*
X321419000Y-113580000D02*
X321374000Y-113535000D01*
X323850000Y-113580000D02*
X321419000Y-113580000D01*
X342755000Y-113670000D02*
X342875000Y-113550000D01*
X336850000Y-113670000D02*
X342755000Y-113670000D01*
X352370554Y-72890000D02*
X349250000Y-72890000D01*
X353987000Y-72890000D02*
X352370554Y-72890000D01*
X349282000Y-91932000D02*
X349230000Y-91880000D01*
X358754000Y-91932000D02*
X349282000Y-91932000D01*
X350463001Y-52702001D02*
X351606000Y-53845000D01*
X350152999Y-52391999D02*
X350463001Y-52702001D01*
X301518589Y-45324999D02*
X308585589Y-52391999D01*
X223149997Y-45324999D02*
X301518589Y-45324999D01*
X220111301Y-42286303D02*
X223149997Y-45324999D01*
X308585589Y-52391999D02*
X350152999Y-52391999D01*
X220111301Y-41841301D02*
X220111301Y-42286303D01*
X218910000Y-40640000D02*
X220111301Y-41841301D01*
X345226554Y-34798000D02*
X346843000Y-34798000D01*
X329965642Y-34798000D02*
X345226554Y-34798000D01*
X328497641Y-36266001D02*
X329965642Y-34798000D01*
X327088359Y-36266001D02*
X328497641Y-36266001D01*
X324602367Y-33780009D02*
X327088359Y-36266001D01*
X309665957Y-33780009D02*
X324602367Y-33780009D01*
X307769307Y-31883359D02*
X309665957Y-33780009D01*
X303861001Y-31883359D02*
X307769307Y-31883359D01*
X303861001Y-34203001D02*
X303861001Y-31883359D01*
X301711001Y-36353001D02*
X303861001Y-34203001D01*
X294048999Y-36353001D02*
X301711001Y-36353001D01*
X289471901Y-31775903D02*
X294048999Y-36353001D01*
X289471901Y-31610927D02*
X289471901Y-31775903D01*
X288266073Y-30405099D02*
X289471901Y-31610927D01*
X286039927Y-30405099D02*
X288266073Y-30405099D01*
X284834099Y-31610927D02*
X286039927Y-30405099D01*
X284834099Y-31775903D02*
X284834099Y-31610927D01*
X282661001Y-33949001D02*
X284834099Y-31775903D01*
X280644001Y-33949001D02*
X282661001Y-33949001D01*
X280590001Y-33895001D02*
X280644001Y-33949001D01*
X271627949Y-33895001D02*
X280590001Y-33895001D01*
X269131957Y-31399009D02*
X271627949Y-33895001D01*
X267601633Y-31399009D02*
X269131957Y-31399009D01*
X264944641Y-34056001D02*
X267601633Y-31399009D01*
X263711003Y-34056001D02*
X264944641Y-34056001D01*
X263558001Y-33902999D02*
X263711003Y-34056001D01*
X261522001Y-33902999D02*
X263558001Y-33902999D01*
X261325001Y-34099999D02*
X261522001Y-33902999D01*
X261325001Y-36220001D02*
X261325001Y-34099999D01*
X261260001Y-36285001D02*
X261325001Y-36220001D01*
X259539999Y-36285001D02*
X261260001Y-36285001D01*
X259474999Y-36220001D02*
X259539999Y-36285001D01*
X252959749Y-36220001D02*
X259474999Y-36220001D01*
X249606758Y-32867010D02*
X252959749Y-36220001D01*
X234265632Y-32867010D02*
X249606758Y-32867010D01*
X233247641Y-33885001D02*
X234265632Y-32867010D01*
X231838359Y-33885001D02*
X233247641Y-33885001D01*
X226533357Y-28579999D02*
X231838359Y-33885001D01*
X141769198Y-26089198D02*
X144259999Y-28579999D01*
X93259390Y-26089198D02*
X141769198Y-26089198D01*
X88497391Y-30851197D02*
X93259390Y-26089198D01*
X65624803Y-30851197D02*
X88497391Y-30851197D01*
X61590000Y-34886000D02*
X65624803Y-30851197D01*
X190835736Y-64560000D02*
X190545736Y-64270000D01*
X191260000Y-64560000D02*
X190835736Y-64560000D01*
X190545736Y-64270000D02*
X162370000Y-64270000D01*
X162370000Y-64270000D02*
X162370000Y-64270000D01*
X162280000Y-28810000D02*
X162049999Y-28579999D01*
X162370000Y-28810000D02*
X162280000Y-28810000D01*
X144259999Y-28579999D02*
X162049999Y-28579999D01*
X162049999Y-28579999D02*
X226533357Y-28579999D01*
X297146641Y-101364999D02*
X223665001Y-101364999D01*
X303493643Y-107712001D02*
X297146641Y-101364999D01*
X343289027Y-107712001D02*
X303493643Y-107712001D01*
X349225000Y-111010000D02*
X346587026Y-111010000D01*
X346587026Y-111010000D02*
X343289027Y-107712001D01*
X223665001Y-101364999D02*
X219570000Y-105460000D01*
X179954260Y-100705375D02*
X175609635Y-105050000D01*
X196201765Y-100705375D02*
X179954260Y-100705375D01*
X219570000Y-105460000D02*
X200956390Y-105460000D01*
X200956390Y-105460000D02*
X196201765Y-100705375D01*
X175609635Y-105050000D02*
X126590000Y-105050000D01*
X126590000Y-105050000D02*
X123140000Y-101600000D01*
X123140000Y-101600000D02*
X91280000Y-101600000D01*
X60350999Y-109943001D02*
X59208000Y-111086000D01*
X62604099Y-107689901D02*
X60350999Y-109943001D01*
X85190099Y-107689901D02*
X62604099Y-107689901D01*
X91280000Y-101600000D02*
X85190099Y-107689901D01*
X326650001Y-71755001D02*
X327793000Y-72898000D01*
X310188359Y-71755001D02*
X326650001Y-71755001D01*
X287731368Y-65980010D02*
X290960357Y-69208999D01*
X290960357Y-69208999D02*
X307642357Y-69208999D01*
X215624992Y-65980010D02*
X287731368Y-65980010D01*
X215450001Y-66155001D02*
X215624992Y-65980010D01*
X214849999Y-66155001D02*
X215450001Y-66155001D01*
X307642357Y-69208999D02*
X310188359Y-71755001D01*
X214849999Y-66155001D02*
X213084999Y-66155001D01*
X213084999Y-66155001D02*
X213084999Y-66155001D01*
X194260204Y-63220224D02*
X213069776Y-63220224D01*
X193669990Y-62630010D02*
X194260204Y-63220224D01*
X90326000Y-63300000D02*
X80640000Y-72986000D01*
X193669990Y-62630010D02*
X193000000Y-63300000D01*
X193000000Y-63300000D02*
X90326000Y-63300000D01*
X307126554Y-68137000D02*
X308743000Y-68137000D01*
X305300590Y-68137000D02*
X307126554Y-68137000D01*
X301203591Y-64040001D02*
X305300590Y-68137000D01*
X214519999Y-64040001D02*
X301203591Y-64040001D01*
X214220000Y-64340000D02*
X214519999Y-64040001D01*
X100832999Y-67081001D02*
X99690000Y-68224000D01*
X103539001Y-64374999D02*
X100832999Y-67081001D01*
X119444641Y-64374999D02*
X103539001Y-64374999D01*
X120579642Y-65510000D02*
X119444641Y-64374999D01*
X194120000Y-65510000D02*
X120579642Y-65510000D01*
X194120000Y-65510000D02*
X194390000Y-65510000D01*
X194390000Y-65510000D02*
X194390000Y-65510000D01*
X194390000Y-65510000D02*
X200010000Y-65510000D01*
X200010000Y-65510000D02*
X200010000Y-65510000D01*
X213890000Y-64010000D02*
X214220000Y-64340000D01*
X202970000Y-64010000D02*
X213890000Y-64010000D01*
X289454000Y-65530000D02*
X289693000Y-65769000D01*
X215150000Y-65530000D02*
X289454000Y-65530000D01*
X119557000Y-66660000D02*
X118740000Y-65843000D01*
X195360000Y-66660000D02*
X119557000Y-66660000D01*
X118740000Y-103943000D02*
X120987000Y-106190000D01*
X120987000Y-106190000D02*
X177100000Y-106190000D01*
X177100000Y-106190000D02*
X177350000Y-106190000D01*
X288076554Y-103851000D02*
X289693000Y-103851000D01*
X280163998Y-103851000D02*
X288076554Y-103851000D01*
X273922116Y-110092882D02*
X280163998Y-103851000D01*
X201152443Y-110092882D02*
X273922116Y-110092882D01*
X197369561Y-106310000D02*
X201152443Y-110092882D01*
X185470000Y-106310000D02*
X197369561Y-106310000D01*
X269242000Y-66730000D02*
X270643000Y-68131000D01*
X216080000Y-66730000D02*
X269242000Y-66730000D01*
X138214000Y-67800000D02*
X137790000Y-68224000D01*
X196510000Y-67800000D02*
X138214000Y-67800000D01*
X196934264Y-67800000D02*
X196510000Y-67800000D01*
X216080000Y-66730000D02*
X215655736Y-66730000D01*
X215655736Y-67800000D02*
X214360000Y-67800000D01*
X215665736Y-67790000D02*
X215655736Y-67800000D01*
X216090000Y-67790000D02*
X215665736Y-67790000D01*
X214585736Y-67800000D02*
X214360000Y-67800000D01*
X214360000Y-67800000D02*
X196934264Y-67800000D01*
X157264264Y-117010000D02*
X156840000Y-117010000D01*
X167698026Y-117010000D02*
X157264264Y-117010000D01*
X171877731Y-121189705D02*
X167698026Y-117010000D01*
X173699409Y-121189705D02*
X171877731Y-121189705D01*
X249521000Y-68440000D02*
X251593000Y-70512000D01*
X216910000Y-68440000D02*
X249521000Y-68440000D01*
X239666410Y-121172704D02*
X240809409Y-120029705D01*
X238150213Y-122688901D02*
X239666410Y-121172704D01*
X234026927Y-122688901D02*
X238150213Y-122688901D01*
X233670730Y-122332704D02*
X234026927Y-122688901D01*
X174842408Y-122332704D02*
X233670730Y-122332704D01*
X173699409Y-121189705D02*
X174842408Y-122332704D01*
X158685000Y-68760000D02*
X156840000Y-70605000D01*
X197750000Y-68760000D02*
X158685000Y-68760000D01*
X174273554Y-32505000D02*
X175890000Y-32505000D01*
X164391997Y-33973001D02*
X165859998Y-32505000D01*
X165859998Y-32505000D02*
X174273554Y-32505000D01*
X139070357Y-33576999D02*
X155739357Y-33576999D01*
X136689357Y-31195999D02*
X139070357Y-33576999D01*
X120020357Y-31195999D02*
X136689357Y-31195999D01*
X117584358Y-28760000D02*
X120020357Y-31195999D01*
X107834998Y-28760000D02*
X117584358Y-28760000D01*
X105001997Y-31593001D02*
X107834998Y-28760000D01*
X98985359Y-31593001D02*
X105001997Y-31593001D01*
X83630997Y-36354001D02*
X89155357Y-30829641D01*
X89155357Y-30829641D02*
X98221999Y-30829641D01*
X79935359Y-36354001D02*
X83630997Y-36354001D01*
X79539357Y-35957999D02*
X79935359Y-36354001D01*
X98221999Y-30829641D02*
X98985359Y-31593001D01*
X69746999Y-35957999D02*
X79539357Y-35957999D01*
X155739357Y-33576999D02*
X156135359Y-33973001D01*
X69054998Y-36650000D02*
X69746999Y-35957999D01*
X56636642Y-36650000D02*
X69054998Y-36650000D01*
X54902642Y-34916000D02*
X56636642Y-36650000D01*
X156135359Y-33973001D02*
X164391997Y-33973001D01*
X42540000Y-34916000D02*
X54902642Y-34916000D01*
X232394301Y-70371301D02*
X232543000Y-70520000D01*
X217708699Y-70371301D02*
X232394301Y-70371301D01*
X176383699Y-70111301D02*
X175890000Y-70605000D01*
X198618699Y-70111301D02*
X176383699Y-70111301D01*
X364750001Y-33655001D02*
X365893000Y-34798000D01*
X364424999Y-33329999D02*
X364750001Y-33655001D01*
X309852357Y-33329999D02*
X364424999Y-33329999D01*
X290996357Y-31119999D02*
X307642357Y-31119999D01*
X288224999Y-28348641D02*
X290996357Y-31119999D01*
X276818997Y-31516001D02*
X279986357Y-28348641D01*
X269885359Y-31516001D02*
X276818997Y-31516001D01*
X269318357Y-30948999D02*
X269885359Y-31516001D01*
X250888359Y-30948999D02*
X269318357Y-30948999D01*
X307642357Y-31119999D02*
X309852357Y-33329999D01*
X249420358Y-32417000D02*
X250888359Y-30948999D01*
X279986357Y-28348641D02*
X288224999Y-28348641D01*
X232543000Y-32417000D02*
X249420358Y-32417000D01*
X217408700Y-70671300D02*
X217708699Y-70371301D01*
X214987481Y-73092519D02*
X217408700Y-70671300D01*
X201175653Y-73092519D02*
X214987481Y-73092519D01*
X198618699Y-70535565D02*
X201175653Y-73092519D01*
X198618699Y-70111301D02*
X198618699Y-70535565D01*
X184580000Y-38100000D02*
X187000000Y-40520000D01*
X187000000Y-40520000D02*
X187000000Y-40520000D01*
X215380000Y-87900000D02*
X208880000Y-87900000D01*
X194490000Y-88040000D02*
X187990000Y-88040000D01*
X187530000Y-75290000D02*
X185600000Y-77220000D01*
X187530000Y-74240000D02*
X187530000Y-75290000D01*
X185600000Y-77220000D02*
X185600000Y-80810000D01*
X185600000Y-80810000D02*
X185600000Y-80810000D01*
X199820000Y-33020000D02*
X192320000Y-40520000D01*
X203670000Y-36860725D02*
X203670000Y-35560000D01*
X203670000Y-38100000D02*
X203670000Y-36860725D01*
X184580000Y-38100000D02*
X184580000Y-35560000D01*
X192320000Y-40520000D02*
X187000000Y-40520000D01*
X216220000Y-69690000D02*
X215795736Y-69690000D01*
X215795736Y-69690000D02*
X212700000Y-69690000D01*
X212700000Y-69690000D02*
X212690000Y-69690000D01*
X193075787Y-83540000D02*
X187990000Y-83540000D01*
X194490000Y-83540000D02*
X193075787Y-83540000D01*
X189750000Y-70810000D02*
X181130000Y-70810000D01*
X181130000Y-70810000D02*
X180780000Y-71160000D01*
X180780000Y-71160000D02*
X180780000Y-71160000D01*
X187700000Y-83830000D02*
X187990000Y-83540000D01*
X179460000Y-83830000D02*
X187700000Y-83830000D01*
X215481301Y-83298699D02*
X215380000Y-83400000D01*
X220111301Y-83298699D02*
X215481301Y-83298699D01*
X213965787Y-83400000D02*
X208880000Y-83400000D01*
X215380000Y-83400000D02*
X213965787Y-83400000D01*
X191460736Y-71955000D02*
X191395736Y-71890000D01*
X191885000Y-71955000D02*
X191460736Y-71955000D01*
X191395736Y-71890000D02*
X189030000Y-71890000D01*
X189030000Y-71890000D02*
X189030000Y-71890000D01*
M02*
