G04 #@! TF.GenerationSoftware,KiCad,Pcbnew,(5.1.0)-1*
G04 #@! TF.CreationDate,2019-07-24T11:11:36-04:00*
G04 #@! TF.ProjectId,ogre,6f677265-2e6b-4696-9361-645f70636258,1.0*
G04 #@! TF.SameCoordinates,Original*
G04 #@! TF.FileFunction,Other,Comment*
%FSLAX46Y46*%
G04 Gerber Fmt 4.6, Leading zero omitted, Abs format (unit mm)*
G04 Created by KiCad (PCBNEW (5.1.0)-1) date 2019-07-24 11:11:36*
%MOMM*%
%LPD*%
G04 APERTURE LIST*
%ADD10C,0.152400*%
G04 APERTURE END LIST*
D10*
X242703000Y-81942000D02*
X242703000Y-69242000D01*
X255403000Y-81942000D02*
X242703000Y-81942000D01*
X255403000Y-69242000D02*
X255403000Y-81942000D01*
X242703000Y-69242000D02*
X255403000Y-69242000D01*
X48030000Y-65360000D02*
X48030000Y-52660000D01*
X60730000Y-65360000D02*
X48030000Y-65360000D01*
X60730000Y-52660000D02*
X60730000Y-65360000D01*
X48030000Y-52660000D02*
X60730000Y-52660000D01*
X340360000Y-84320000D02*
X340360000Y-71620000D01*
X353060000Y-84320000D02*
X340360000Y-84320000D01*
X353060000Y-71620000D02*
X353060000Y-84320000D01*
X340360000Y-71620000D02*
X353060000Y-71620000D01*
X167000000Y-62985000D02*
X167000000Y-50285000D01*
X179700000Y-62985000D02*
X167000000Y-62985000D01*
X179700000Y-50285000D02*
X179700000Y-62985000D01*
X167000000Y-50285000D02*
X179700000Y-50285000D01*
X45556000Y-84416000D02*
X45556000Y-71716000D01*
X58256000Y-84416000D02*
X45556000Y-84416000D01*
X58256000Y-71716000D02*
X58256000Y-84416000D01*
X45556000Y-71716000D02*
X58256000Y-71716000D01*
X200002318Y-123891788D02*
X184604386Y-115001788D01*
X184635318Y-150508212D02*
X200002318Y-123891788D01*
X169237386Y-141618212D02*
X184635318Y-150508212D01*
X172666386Y-135679010D02*
X169237386Y-141618212D01*
X185864614Y-143299010D02*
X172666386Y-135679010D01*
X194373614Y-128560990D02*
X185864614Y-143299010D01*
X181175386Y-120940990D02*
X194373614Y-128560990D01*
X184604386Y-115001788D02*
X181175386Y-120940990D01*
X185844261Y-140794261D02*
X174845739Y-134444261D01*
X192194261Y-129795739D02*
X185844261Y-140794261D01*
X181195739Y-123445739D02*
X192194261Y-129795739D01*
X174845739Y-134444261D02*
X181195739Y-123445739D01*
X154087682Y-124678212D02*
X169485614Y-133568212D01*
X169454682Y-98061788D02*
X154087682Y-124678212D01*
X184852614Y-106951788D02*
X169454682Y-98061788D01*
X181423614Y-112890990D02*
X184852614Y-106951788D01*
X168225386Y-105270990D02*
X181423614Y-112890990D01*
X159716386Y-120009010D02*
X168225386Y-105270990D01*
X172914614Y-127629010D02*
X159716386Y-120009010D01*
X169485614Y-133568212D02*
X172914614Y-127629010D01*
X168245739Y-107775739D02*
X179244261Y-114125739D01*
X161895739Y-118774261D02*
X168245739Y-107775739D01*
X172894261Y-125124261D02*
X161895739Y-118774261D01*
X179244261Y-114125739D02*
X172894261Y-125124261D01*
X90800000Y-41555000D02*
X90800000Y-28855000D01*
X103500000Y-41555000D02*
X90800000Y-41555000D01*
X103500000Y-28855000D02*
X103500000Y-41555000D01*
X90800000Y-28855000D02*
X103500000Y-28855000D01*
X71750000Y-46316000D02*
X71750000Y-33616000D01*
X84450000Y-46316000D02*
X71750000Y-46316000D01*
X84450000Y-33616000D02*
X84450000Y-46316000D01*
X71750000Y-33616000D02*
X84450000Y-33616000D01*
X52700000Y-46316000D02*
X52700000Y-33616000D01*
X65400000Y-46316000D02*
X52700000Y-46316000D01*
X65400000Y-33616000D02*
X65400000Y-46316000D01*
X52700000Y-33616000D02*
X65400000Y-33616000D01*
X33650000Y-46346000D02*
X33650000Y-33646000D01*
X46350000Y-46346000D02*
X33650000Y-46346000D01*
X46350000Y-33646000D02*
X46350000Y-46346000D01*
X33650000Y-33646000D02*
X46350000Y-33646000D01*
X69320000Y-122610000D02*
X69320000Y-109910000D01*
X82020000Y-122610000D02*
X69320000Y-122610000D01*
X82020000Y-109910000D02*
X82020000Y-122610000D01*
X69320000Y-109910000D02*
X82020000Y-109910000D01*
X321310000Y-122470000D02*
X321310000Y-109770000D01*
X334010000Y-122470000D02*
X321310000Y-122470000D01*
X334010000Y-109770000D02*
X334010000Y-122470000D01*
X321310000Y-109770000D02*
X334010000Y-109770000D01*
X340340000Y-103310000D02*
X340340000Y-90610000D01*
X353040000Y-103310000D02*
X340340000Y-103310000D01*
X353040000Y-90610000D02*
X353040000Y-103310000D01*
X340340000Y-90610000D02*
X353040000Y-90610000D01*
X357003000Y-46228000D02*
X357003000Y-33528000D01*
X369703000Y-46228000D02*
X357003000Y-46228000D01*
X369703000Y-33528000D02*
X369703000Y-46228000D01*
X357003000Y-33528000D02*
X369703000Y-33528000D01*
X371581000Y-107172000D02*
X371581000Y-89392000D01*
X340847000Y-107172000D02*
X371581000Y-107172000D01*
X340847000Y-89392000D02*
X340847000Y-107172000D01*
X347705000Y-89392000D02*
X340847000Y-89392000D01*
X347705000Y-104632000D02*
X347705000Y-89392000D01*
X364723000Y-104632000D02*
X347705000Y-104632000D01*
X364723000Y-89392000D02*
X364723000Y-104632000D01*
X371581000Y-89392000D02*
X364723000Y-89392000D01*
X349864000Y-103362000D02*
X349864000Y-90662000D01*
X362564000Y-103362000D02*
X349864000Y-103362000D01*
X362564000Y-90662000D02*
X362564000Y-103362000D01*
X349864000Y-90662000D02*
X362564000Y-90662000D01*
X318903000Y-103384000D02*
X318903000Y-90684000D01*
X331603000Y-103384000D02*
X318903000Y-103384000D01*
X331603000Y-90684000D02*
X331603000Y-103384000D01*
X318903000Y-90684000D02*
X331603000Y-90684000D01*
X71750000Y-103466000D02*
X71750000Y-90766000D01*
X84450000Y-103466000D02*
X71750000Y-103466000D01*
X84450000Y-90766000D02*
X84450000Y-103466000D01*
X71750000Y-90766000D02*
X84450000Y-90766000D01*
X62537000Y-107276000D02*
X62537000Y-89496000D01*
X31803000Y-107276000D02*
X62537000Y-107276000D01*
X31803000Y-89496000D02*
X31803000Y-107276000D01*
X38661000Y-89496000D02*
X31803000Y-89496000D01*
X38661000Y-104736000D02*
X38661000Y-89496000D01*
X55679000Y-104736000D02*
X38661000Y-104736000D01*
X55679000Y-89496000D02*
X55679000Y-104736000D01*
X62537000Y-89496000D02*
X55679000Y-89496000D01*
X40820000Y-103466000D02*
X40820000Y-90766000D01*
X53520000Y-103466000D02*
X40820000Y-103466000D01*
X53520000Y-90766000D02*
X53520000Y-103466000D01*
X40820000Y-90766000D02*
X53520000Y-90766000D01*
X109850000Y-39173000D02*
X109850000Y-26473000D01*
X122550000Y-39173000D02*
X109850000Y-39173000D01*
X122550000Y-26473000D02*
X122550000Y-39173000D01*
X109850000Y-26473000D02*
X122550000Y-26473000D01*
X128900000Y-41554000D02*
X128900000Y-28854000D01*
X141600000Y-41554000D02*
X128900000Y-41554000D01*
X141600000Y-28854000D02*
X141600000Y-41554000D01*
X128900000Y-28854000D02*
X141600000Y-28854000D01*
X147950000Y-43935000D02*
X147950000Y-31235000D01*
X160650000Y-43935000D02*
X147950000Y-43935000D01*
X160650000Y-31235000D02*
X160650000Y-43935000D01*
X147950000Y-31235000D02*
X160650000Y-31235000D01*
X167000000Y-43935000D02*
X167000000Y-31235000D01*
X179700000Y-43935000D02*
X167000000Y-43935000D01*
X179700000Y-31235000D02*
X179700000Y-43935000D01*
X167000000Y-31235000D02*
X179700000Y-31235000D01*
X223653000Y-43847000D02*
X223653000Y-31147000D01*
X236353000Y-43847000D02*
X223653000Y-43847000D01*
X236353000Y-31147000D02*
X236353000Y-43847000D01*
X223653000Y-31147000D02*
X236353000Y-31147000D01*
X242703000Y-43847000D02*
X242703000Y-31147000D01*
X255403000Y-43847000D02*
X242703000Y-43847000D01*
X255403000Y-31147000D02*
X255403000Y-43847000D01*
X242703000Y-31147000D02*
X255403000Y-31147000D01*
X261700000Y-41478000D02*
X261700000Y-28778000D01*
X274400000Y-41478000D02*
X261700000Y-41478000D01*
X274400000Y-28778000D02*
X274400000Y-41478000D01*
X261700000Y-28778000D02*
X274400000Y-28778000D01*
X280803000Y-39074000D02*
X280803000Y-26374000D01*
X293503000Y-39074000D02*
X280803000Y-39074000D01*
X293503000Y-26374000D02*
X293503000Y-39074000D01*
X280803000Y-26374000D02*
X293503000Y-26374000D01*
X299853000Y-41478000D02*
X299853000Y-28778000D01*
X312553000Y-41478000D02*
X299853000Y-41478000D01*
X312553000Y-28778000D02*
X312553000Y-41478000D01*
X299853000Y-28778000D02*
X312553000Y-28778000D01*
X318903000Y-46228000D02*
X318903000Y-33528000D01*
X331603000Y-46228000D02*
X318903000Y-46228000D01*
X331603000Y-33528000D02*
X331603000Y-46228000D01*
X318903000Y-33528000D02*
X331603000Y-33528000D01*
X337953000Y-46228000D02*
X337953000Y-33528000D01*
X350653000Y-46228000D02*
X337953000Y-46228000D01*
X350653000Y-33528000D02*
X350653000Y-46228000D01*
X337953000Y-33528000D02*
X350653000Y-33528000D01*
X71750000Y-65366000D02*
X71750000Y-52666000D01*
X84450000Y-65366000D02*
X71750000Y-65366000D01*
X84450000Y-52666000D02*
X84450000Y-65366000D01*
X71750000Y-52666000D02*
X84450000Y-52666000D01*
X90800000Y-60604000D02*
X90800000Y-47904000D01*
X103500000Y-60604000D02*
X90800000Y-60604000D01*
X103500000Y-47904000D02*
X103500000Y-60604000D01*
X90800000Y-47904000D02*
X103500000Y-47904000D01*
X109850000Y-58223000D02*
X109850000Y-45523000D01*
X122550000Y-58223000D02*
X109850000Y-58223000D01*
X122550000Y-45523000D02*
X122550000Y-58223000D01*
X109850000Y-45523000D02*
X122550000Y-45523000D01*
X128900000Y-60604000D02*
X128900000Y-47904000D01*
X141600000Y-60604000D02*
X128900000Y-60604000D01*
X141600000Y-47904000D02*
X141600000Y-60604000D01*
X128900000Y-47904000D02*
X141600000Y-47904000D01*
X147950000Y-62985000D02*
X147950000Y-50285000D01*
X160650000Y-62985000D02*
X147950000Y-62985000D01*
X160650000Y-50285000D02*
X160650000Y-62985000D01*
X147950000Y-50285000D02*
X160650000Y-50285000D01*
X223653000Y-62905000D02*
X223653000Y-50205000D01*
X236353000Y-62905000D02*
X223653000Y-62905000D01*
X236353000Y-50205000D02*
X236353000Y-62905000D01*
X223653000Y-50205000D02*
X236353000Y-50205000D01*
X242703000Y-62894000D02*
X242703000Y-50194000D01*
X255403000Y-62894000D02*
X242703000Y-62894000D01*
X255403000Y-50194000D02*
X255403000Y-62894000D01*
X242703000Y-50194000D02*
X255403000Y-50194000D01*
X261753000Y-60513000D02*
X261753000Y-47813000D01*
X274453000Y-60513000D02*
X261753000Y-60513000D01*
X274453000Y-47813000D02*
X274453000Y-60513000D01*
X261753000Y-47813000D02*
X274453000Y-47813000D01*
X281300000Y-58223000D02*
X281300000Y-45523000D01*
X294000000Y-58223000D02*
X281300000Y-58223000D01*
X294000000Y-45523000D02*
X294000000Y-58223000D01*
X281300000Y-45523000D02*
X294000000Y-45523000D01*
X299853000Y-60524000D02*
X299853000Y-47824000D01*
X312553000Y-60524000D02*
X299853000Y-60524000D01*
X312553000Y-47824000D02*
X312553000Y-60524000D01*
X299853000Y-47824000D02*
X312553000Y-47824000D01*
X318903000Y-65290000D02*
X318903000Y-52590000D01*
X331603000Y-65290000D02*
X318903000Y-65290000D01*
X331603000Y-52590000D02*
X331603000Y-65290000D01*
X318903000Y-52590000D02*
X331603000Y-52590000D01*
X342716000Y-65275000D02*
X342716000Y-52575000D01*
X355416000Y-65275000D02*
X342716000Y-65275000D01*
X355416000Y-52575000D02*
X355416000Y-65275000D01*
X342716000Y-52575000D02*
X355416000Y-52575000D01*
X71750000Y-84416000D02*
X71750000Y-71716000D01*
X84450000Y-84416000D02*
X71750000Y-84416000D01*
X84450000Y-71716000D02*
X84450000Y-84416000D01*
X71750000Y-71716000D02*
X84450000Y-71716000D01*
X90800000Y-79654000D02*
X90800000Y-66954000D01*
X103500000Y-79654000D02*
X90800000Y-79654000D01*
X103500000Y-66954000D02*
X103500000Y-79654000D01*
X90800000Y-66954000D02*
X103500000Y-66954000D01*
X109850000Y-77273000D02*
X109850000Y-64573000D01*
X122550000Y-77273000D02*
X109850000Y-77273000D01*
X122550000Y-64573000D02*
X122550000Y-77273000D01*
X109850000Y-64573000D02*
X122550000Y-64573000D01*
X128900000Y-79654000D02*
X128900000Y-66954000D01*
X141600000Y-79654000D02*
X128900000Y-79654000D01*
X141600000Y-66954000D02*
X141600000Y-79654000D01*
X128900000Y-66954000D02*
X141600000Y-66954000D01*
X147950000Y-82035000D02*
X147950000Y-69335000D01*
X160650000Y-82035000D02*
X147950000Y-82035000D01*
X160650000Y-69335000D02*
X160650000Y-82035000D01*
X147950000Y-69335000D02*
X160650000Y-69335000D01*
X167000000Y-82035000D02*
X167000000Y-69335000D01*
X179700000Y-82035000D02*
X167000000Y-82035000D01*
X179700000Y-69335000D02*
X179700000Y-82035000D01*
X167000000Y-69335000D02*
X179700000Y-69335000D01*
X223653000Y-81950000D02*
X223653000Y-69250000D01*
X236353000Y-81950000D02*
X223653000Y-81950000D01*
X236353000Y-69250000D02*
X236353000Y-81950000D01*
X223653000Y-69250000D02*
X236353000Y-69250000D01*
X261753000Y-79561000D02*
X261753000Y-66861000D01*
X274453000Y-79561000D02*
X261753000Y-79561000D01*
X274453000Y-66861000D02*
X274453000Y-79561000D01*
X261753000Y-66861000D02*
X274453000Y-66861000D01*
X280803000Y-77199000D02*
X280803000Y-64499000D01*
X293503000Y-77199000D02*
X280803000Y-77199000D01*
X293503000Y-64499000D02*
X293503000Y-77199000D01*
X280803000Y-64499000D02*
X293503000Y-64499000D01*
X299853000Y-79567000D02*
X299853000Y-66867000D01*
X312553000Y-79567000D02*
X299853000Y-79567000D01*
X312553000Y-66867000D02*
X312553000Y-79567000D01*
X299853000Y-66867000D02*
X312553000Y-66867000D01*
X318903000Y-84328000D02*
X318903000Y-71628000D01*
X331603000Y-84328000D02*
X318903000Y-84328000D01*
X331603000Y-71628000D02*
X331603000Y-84328000D01*
X318903000Y-71628000D02*
X331603000Y-71628000D01*
X345097000Y-84320000D02*
X345097000Y-71620000D01*
X357797000Y-84320000D02*
X345097000Y-84320000D01*
X357797000Y-71620000D02*
X357797000Y-84320000D01*
X345097000Y-71620000D02*
X357797000Y-71620000D01*
X90800000Y-98704000D02*
X90800000Y-86004000D01*
X103500000Y-98704000D02*
X90800000Y-98704000D01*
X103500000Y-86004000D02*
X103500000Y-98704000D01*
X90800000Y-86004000D02*
X103500000Y-86004000D01*
X109850000Y-96323000D02*
X109850000Y-83623000D01*
X122550000Y-96323000D02*
X109850000Y-96323000D01*
X122550000Y-83623000D02*
X122550000Y-96323000D01*
X109850000Y-83623000D02*
X122550000Y-83623000D01*
X128900000Y-98704000D02*
X128900000Y-86004000D01*
X141600000Y-98704000D02*
X128900000Y-98704000D01*
X141600000Y-86004000D02*
X141600000Y-98704000D01*
X128900000Y-86004000D02*
X141600000Y-86004000D01*
X147950000Y-101085000D02*
X147950000Y-88385000D01*
X160650000Y-101085000D02*
X147950000Y-101085000D01*
X160650000Y-88385000D02*
X160650000Y-101085000D01*
X147950000Y-88385000D02*
X160650000Y-88385000D01*
X242703000Y-100966000D02*
X242703000Y-88266000D01*
X255403000Y-100966000D02*
X242703000Y-100966000D01*
X255403000Y-88266000D02*
X255403000Y-100966000D01*
X242703000Y-88266000D02*
X255403000Y-88266000D01*
X262250000Y-98704000D02*
X262250000Y-86004000D01*
X274950000Y-98704000D02*
X262250000Y-98704000D01*
X274950000Y-86004000D02*
X274950000Y-98704000D01*
X262250000Y-86004000D02*
X274950000Y-86004000D01*
X280803000Y-96228000D02*
X280803000Y-83528000D01*
X293503000Y-96228000D02*
X280803000Y-96228000D01*
X293503000Y-83528000D02*
X293503000Y-96228000D01*
X280803000Y-83528000D02*
X293503000Y-83528000D01*
X299853000Y-98610000D02*
X299853000Y-85910000D01*
X312553000Y-98610000D02*
X299853000Y-98610000D01*
X312553000Y-85910000D02*
X312553000Y-98610000D01*
X299853000Y-85910000D02*
X312553000Y-85910000D01*
X50318000Y-122516000D02*
X50318000Y-109816000D01*
X63018000Y-122516000D02*
X50318000Y-122516000D01*
X63018000Y-109816000D02*
X63018000Y-122516000D01*
X50318000Y-109816000D02*
X63018000Y-109816000D01*
X71750000Y-122516000D02*
X71750000Y-109816000D01*
X84450000Y-122516000D02*
X71750000Y-122516000D01*
X84450000Y-109816000D02*
X84450000Y-122516000D01*
X71750000Y-109816000D02*
X84450000Y-109816000D01*
X90800000Y-117754000D02*
X90800000Y-105054000D01*
X103500000Y-117754000D02*
X90800000Y-117754000D01*
X103500000Y-105054000D02*
X103500000Y-117754000D01*
X90800000Y-105054000D02*
X103500000Y-105054000D01*
X109850000Y-115373000D02*
X109850000Y-102673000D01*
X122550000Y-115373000D02*
X109850000Y-115373000D01*
X122550000Y-102673000D02*
X122550000Y-115373000D01*
X109850000Y-102673000D02*
X122550000Y-102673000D01*
X132905739Y-122044261D02*
X139255739Y-111045739D01*
X143904261Y-128394261D02*
X132905739Y-122044261D01*
X150254261Y-117395739D02*
X143904261Y-128394261D01*
X139255739Y-111045739D02*
X150254261Y-117395739D01*
X213815739Y-133825739D02*
X224814261Y-127475739D01*
X220165739Y-144824261D02*
X213815739Y-133825739D01*
X231164261Y-138474261D02*
X220165739Y-144824261D01*
X224814261Y-127475739D02*
X231164261Y-138474261D01*
X234024682Y-138758212D02*
X249422614Y-129868212D01*
X218657682Y-112141788D02*
X234024682Y-138758212D01*
X234055614Y-103251788D02*
X218657682Y-112141788D01*
X237484614Y-109190990D02*
X234055614Y-103251788D01*
X224286386Y-116810990D02*
X237484614Y-109190990D01*
X232795386Y-131549010D02*
X224286386Y-116810990D01*
X245993614Y-123929010D02*
X232795386Y-131549010D01*
X249422614Y-129868212D02*
X245993614Y-123929010D01*
X226465739Y-118045739D02*
X237464261Y-111695739D01*
X232815739Y-129044261D02*
X226465739Y-118045739D01*
X243814261Y-122694261D02*
X232815739Y-129044261D01*
X237464261Y-111695739D02*
X243814261Y-122694261D01*
X259455739Y-128254261D02*
X253105739Y-117255739D01*
X270454261Y-121904261D02*
X259455739Y-128254261D01*
X264104261Y-110905739D02*
X270454261Y-121904261D01*
X253105739Y-117255739D02*
X264104261Y-110905739D01*
X280803000Y-115281000D02*
X280803000Y-102581000D01*
X293503000Y-115281000D02*
X280803000Y-115281000D01*
X293503000Y-102581000D02*
X293503000Y-115281000D01*
X280803000Y-102581000D02*
X293503000Y-102581000D01*
X299853000Y-117674000D02*
X299853000Y-104974000D01*
X312553000Y-117674000D02*
X299853000Y-117674000D01*
X312553000Y-104974000D02*
X312553000Y-117674000D01*
X299853000Y-104974000D02*
X312553000Y-104974000D01*
X318834000Y-122425000D02*
X318834000Y-109725000D01*
X331534000Y-122425000D02*
X318834000Y-122425000D01*
X331534000Y-109725000D02*
X331534000Y-122425000D01*
X318834000Y-109725000D02*
X331534000Y-109725000D01*
X340335000Y-122440000D02*
X340335000Y-109740000D01*
X353035000Y-122440000D02*
X340335000Y-122440000D01*
X353035000Y-109740000D02*
X353035000Y-122440000D01*
X340335000Y-109740000D02*
X353035000Y-109740000D01*
M02*
