G04 #@! TF.GenerationSoftware,KiCad,Pcbnew,(5.1.0)-1*
G04 #@! TF.CreationDate,2019-07-24T11:11:36-04:00*
G04 #@! TF.ProjectId,ogre,6f677265-2e6b-4696-9361-645f70636258,1.0*
G04 #@! TF.SameCoordinates,Original*
G04 #@! TF.FileFunction,Paste,Bot*
G04 #@! TF.FilePolarity,Positive*
%FSLAX46Y46*%
G04 Gerber Fmt 4.6, Leading zero omitted, Abs format (unit mm)*
G04 Created by KiCad (PCBNEW (5.1.0)-1) date 2019-07-24 11:11:36*
%MOMM*%
%LPD*%
G04 APERTURE LIST*
%ADD10R,1.200000X1.600000*%
%ADD11C,1.200000*%
%ADD12C,0.100000*%
G04 APERTURE END LIST*
D10*
X64360000Y-95500000D03*
X64360000Y-98300000D03*
D11*
X193222436Y-117890000D03*
D12*
G36*
X194215256Y-117770385D02*
G01*
X193615256Y-118809615D01*
X192229616Y-118009615D01*
X192829616Y-116970385D01*
X194215256Y-117770385D01*
X194215256Y-117770385D01*
G37*
D11*
X190797564Y-116490000D03*
D12*
G36*
X191790384Y-116370385D02*
G01*
X191190384Y-117409615D01*
X189804744Y-116609615D01*
X190404744Y-115570385D01*
X191790384Y-116370385D01*
X191790384Y-116370385D01*
G37*
D11*
X133820000Y-115037564D03*
D12*
G36*
X133700385Y-114044744D02*
G01*
X134739615Y-114644744D01*
X133939615Y-116030384D01*
X132900385Y-115430384D01*
X133700385Y-114044744D01*
X133700385Y-114044744D01*
G37*
D11*
X132420000Y-117462436D03*
D12*
G36*
X132300385Y-116469616D02*
G01*
X133339615Y-117069616D01*
X132539615Y-118455256D01*
X131500385Y-117855256D01*
X132300385Y-116469616D01*
X132300385Y-116469616D01*
G37*
D10*
X50710000Y-39920000D03*
X50710000Y-42720000D03*
X69990000Y-39880000D03*
X69990000Y-42680000D03*
X88950000Y-35200000D03*
X88950000Y-38000000D03*
X107980000Y-32780000D03*
X107980000Y-35580000D03*
X127130000Y-35110000D03*
X127130000Y-37910000D03*
X146030000Y-37550000D03*
X146030000Y-40350000D03*
X165340000Y-37190000D03*
X165340000Y-39990000D03*
X222760000Y-37450000D03*
X222760000Y-40250000D03*
X241460000Y-37450000D03*
X241460000Y-40250000D03*
X260400000Y-35160000D03*
X260400000Y-37960000D03*
X279730000Y-32770000D03*
X279730000Y-35570000D03*
X317560000Y-39930000D03*
X317560000Y-42730000D03*
X336360000Y-39850000D03*
X336360000Y-42650000D03*
X44660000Y-58970000D03*
X44660000Y-61770000D03*
X69840000Y-58840000D03*
X69840000Y-61640000D03*
X88840000Y-54220000D03*
X88840000Y-57020000D03*
X108020000Y-51810000D03*
X108020000Y-54610000D03*
X127130000Y-54270000D03*
X127130000Y-57070000D03*
X146030000Y-56460000D03*
X146030000Y-59260000D03*
X165640000Y-56390000D03*
X165640000Y-59190000D03*
X222950000Y-56580000D03*
X222950000Y-59380000D03*
X241770000Y-56490000D03*
X241770000Y-59290000D03*
X260360000Y-54050000D03*
X260360000Y-56850000D03*
X279420000Y-52110000D03*
X279420000Y-54910000D03*
X298420000Y-54270000D03*
X298420000Y-57070000D03*
X317500000Y-58840000D03*
X317500000Y-61640000D03*
X336330000Y-58910000D03*
X336330000Y-61710000D03*
X41630000Y-78020000D03*
X41630000Y-80820000D03*
X69880000Y-78030000D03*
X69880000Y-80830000D03*
X88950000Y-73290000D03*
X88950000Y-76090000D03*
X107830000Y-71160000D03*
X107830000Y-73960000D03*
X126960000Y-73310000D03*
X126960000Y-76110000D03*
X146240000Y-75630000D03*
X146240000Y-78430000D03*
X165150000Y-75840000D03*
X165150000Y-78640000D03*
X222370000Y-75630000D03*
X222370000Y-78430000D03*
X241280000Y-75720000D03*
X241280000Y-78520000D03*
X260410000Y-73270000D03*
X260410000Y-76070000D03*
X279400000Y-70940000D03*
X279400000Y-73740000D03*
X298630000Y-73300000D03*
X298630000Y-76100000D03*
X317780000Y-78060000D03*
X317780000Y-80860000D03*
X336350000Y-76550000D03*
X336350000Y-79350000D03*
X69890000Y-95860000D03*
X69890000Y-98660000D03*
X88880000Y-92340000D03*
X88880000Y-95140000D03*
X107780000Y-90080000D03*
X107780000Y-92880000D03*
X126940000Y-92340000D03*
X126940000Y-95140000D03*
X145960000Y-94680000D03*
X145960000Y-97480000D03*
X48280000Y-39750000D03*
X48280000Y-42550000D03*
X355090000Y-39780000D03*
X355090000Y-42580000D03*
X241350000Y-94550000D03*
X241350000Y-97350000D03*
X260410000Y-92440000D03*
X260410000Y-95240000D03*
X279330000Y-90050000D03*
X279330000Y-92850000D03*
X298690000Y-92130000D03*
X298690000Y-94930000D03*
X317470000Y-97190000D03*
X317470000Y-99990000D03*
X337900000Y-96470000D03*
X337900000Y-99270000D03*
X48100000Y-116330000D03*
X48100000Y-119130000D03*
X66260000Y-115940000D03*
X66260000Y-118740000D03*
X88840000Y-109880000D03*
X88840000Y-112680000D03*
X107970000Y-109050000D03*
X107970000Y-111850000D03*
D11*
X180762436Y-101950000D03*
D12*
G36*
X181755256Y-101830385D02*
G01*
X181155256Y-102869615D01*
X179769616Y-102069615D01*
X180369616Y-101030385D01*
X181755256Y-101830385D01*
X181755256Y-101830385D01*
G37*
D11*
X178337564Y-100550000D03*
D12*
G36*
X179330384Y-100430385D02*
G01*
X178730384Y-101469615D01*
X177344744Y-100669615D01*
X177944744Y-99630385D01*
X179330384Y-100430385D01*
X179330384Y-100430385D01*
G37*
D11*
X217832436Y-127690000D03*
D12*
G36*
X218225256Y-126770385D02*
G01*
X218825256Y-127809615D01*
X217439616Y-128609615D01*
X216839616Y-127570385D01*
X218225256Y-126770385D01*
X218225256Y-126770385D01*
G37*
D11*
X215407564Y-129090000D03*
D12*
G36*
X215800384Y-128170385D02*
G01*
X216400384Y-129209615D01*
X215014744Y-130009615D01*
X214414744Y-128970385D01*
X215800384Y-128170385D01*
X215800384Y-128170385D01*
G37*
D11*
X227492436Y-104230000D03*
D12*
G36*
X227885256Y-103310385D02*
G01*
X228485256Y-104349615D01*
X227099616Y-105149615D01*
X226499616Y-104110385D01*
X227885256Y-103310385D01*
X227885256Y-103310385D01*
G37*
D11*
X225067564Y-105630000D03*
D12*
G36*
X225460384Y-104710385D02*
G01*
X226060384Y-105749615D01*
X224674744Y-106549615D01*
X224074744Y-105510385D01*
X225460384Y-104710385D01*
X225460384Y-104710385D01*
G37*
D11*
X250832436Y-112500000D03*
D12*
G36*
X251225256Y-111580385D02*
G01*
X251825256Y-112619615D01*
X250439616Y-113419615D01*
X249839616Y-112380385D01*
X251225256Y-111580385D01*
X251225256Y-111580385D01*
G37*
D11*
X248407564Y-113900000D03*
D12*
G36*
X248800384Y-112980385D02*
G01*
X249400384Y-114019615D01*
X248014744Y-114819615D01*
X247414744Y-113780385D01*
X248800384Y-112980385D01*
X248800384Y-112980385D01*
G37*
D10*
X279410000Y-108770000D03*
X279410000Y-111570000D03*
X298540000Y-111080000D03*
X298540000Y-113880000D03*
X318100000Y-116140000D03*
X318100000Y-118940000D03*
X336850000Y-116170000D03*
X336850000Y-118970000D03*
X298320000Y-35140000D03*
X298320000Y-37940000D03*
M02*
