G04 #@! TF.GenerationSoftware,KiCad,Pcbnew,(5.1.0)-1*
G04 #@! TF.CreationDate,2019-07-24T11:11:36-04:00*
G04 #@! TF.ProjectId,ogre,6f677265-2e6b-4696-9361-645f70636258,1.0*
G04 #@! TF.SameCoordinates,Original*
G04 #@! TF.FileFunction,Other,User*
%FSLAX46Y46*%
G04 Gerber Fmt 4.6, Leading zero omitted, Abs format (unit mm)*
G04 Created by KiCad (PCBNEW (5.1.0)-1) date 2019-07-24 11:11:36*
%MOMM*%
%LPD*%
G04 APERTURE LIST*
%ADD10C,0.050000*%
G04 APERTURE END LIST*
D10*
X216880000Y-82150000D02*
X216880000Y-89150000D01*
X216630000Y-89400000D02*
X207630000Y-89400000D01*
X207380000Y-89150000D02*
X207380000Y-82150000D01*
X207630000Y-81900000D02*
X216630000Y-81900000D01*
X207380000Y-89400000D02*
X207630000Y-89400000D01*
X207380000Y-89150000D02*
X207380000Y-89400000D01*
X207380000Y-81900000D02*
X207630000Y-81900000D01*
X207380000Y-82150000D02*
X207380000Y-81900000D01*
X216880000Y-81900000D02*
X216880000Y-82150000D01*
X216630000Y-81900000D02*
X216880000Y-81900000D01*
X216880000Y-89400000D02*
X216880000Y-89150000D01*
X216630000Y-89400000D02*
X216880000Y-89400000D01*
X195990000Y-82290000D02*
X195990000Y-89290000D01*
X195740000Y-89540000D02*
X186740000Y-89540000D01*
X186490000Y-89290000D02*
X186490000Y-82290000D01*
X186740000Y-82040000D02*
X195740000Y-82040000D01*
X186490000Y-89540000D02*
X186740000Y-89540000D01*
X186490000Y-89290000D02*
X186490000Y-89540000D01*
X186490000Y-82040000D02*
X186740000Y-82040000D01*
X186490000Y-82290000D02*
X186490000Y-82040000D01*
X195990000Y-82040000D02*
X195990000Y-82290000D01*
X195740000Y-82040000D02*
X195990000Y-82040000D01*
X195990000Y-89540000D02*
X195990000Y-89290000D01*
X195740000Y-89540000D02*
X195990000Y-89540000D01*
M02*
