G04 #@! TF.GenerationSoftware,KiCad,Pcbnew,(5.1.0)-1*
G04 #@! TF.CreationDate,2019-07-24T11:11:36-04:00*
G04 #@! TF.ProjectId,ogre,6f677265-2e6b-4696-9361-645f70636258,1.0*
G04 #@! TF.SameCoordinates,Original*
G04 #@! TF.FileFunction,Drawing*
%FSLAX46Y46*%
G04 Gerber Fmt 4.6, Leading zero omitted, Abs format (unit mm)*
G04 Created by KiCad (PCBNEW (5.1.0)-1) date 2019-07-24 11:11:36*
%MOMM*%
%LPD*%
G04 APERTURE LIST*
%ADD10C,0.152400*%
%ADD11C,0.200000*%
%ADD12C,0.304800*%
%ADD13C,0.150000*%
G04 APERTURE END LIST*
D10*
X239655000Y-84990000D02*
X239655000Y-66194000D01*
X258451000Y-84990000D02*
X239655000Y-84990000D01*
X258451000Y-66194000D02*
X258451000Y-84990000D01*
X239655000Y-66194000D02*
X258451000Y-66194000D01*
X40219500Y-68408000D02*
X40219500Y-49612000D01*
X68540500Y-68408000D02*
X40219500Y-68408000D01*
X68540500Y-49612000D02*
X68540500Y-68408000D01*
X40219500Y-49612000D02*
X68540500Y-49612000D01*
X334929480Y-87368000D02*
X334929480Y-68572000D01*
X358490520Y-87368000D02*
X334929480Y-87368000D01*
X358490520Y-68572000D02*
X358490520Y-87368000D01*
X334929480Y-68572000D02*
X358490520Y-68572000D01*
X163952000Y-66033000D02*
X163952000Y-47237000D01*
X182748000Y-66033000D02*
X163952000Y-66033000D01*
X182748000Y-47237000D02*
X182748000Y-66033000D01*
X163952000Y-47237000D02*
X182748000Y-47237000D01*
D11*
X195756000Y-25146000D02*
X195756000Y-30226000D01*
X188390000Y-25146000D02*
X195756000Y-25146000D01*
X188390000Y-30226000D02*
X188390000Y-25146000D01*
X195756000Y-30226000D02*
X188390000Y-30226000D01*
D10*
X35362980Y-87464000D02*
X35362980Y-68668000D01*
X68449020Y-87464000D02*
X35362980Y-87464000D01*
X68449020Y-68668000D02*
X68449020Y-87464000D01*
X35362980Y-68668000D02*
X68449020Y-68668000D01*
X182197407Y-153206799D02*
X165919593Y-143808799D01*
X201120407Y-120431201D02*
X182197407Y-153206799D01*
X184842593Y-111033201D02*
X201120407Y-120431201D01*
X165919593Y-143808799D02*
X184842593Y-111033201D01*
X175465103Y-89175432D02*
X191742917Y-98573432D01*
X149397083Y-134326568D02*
X175465103Y-89175432D01*
X165674897Y-143724568D02*
X149397083Y-134326568D01*
X191742917Y-98573432D02*
X165674897Y-143724568D01*
X87752000Y-44603000D02*
X87752000Y-25807000D01*
X106548000Y-44603000D02*
X87752000Y-44603000D01*
X106548000Y-25807000D02*
X106548000Y-44603000D01*
X87752000Y-25807000D02*
X106548000Y-25807000D01*
X68702000Y-49364000D02*
X68702000Y-30568000D01*
X87498000Y-49364000D02*
X68702000Y-49364000D01*
X87498000Y-30568000D02*
X87498000Y-49364000D01*
X68702000Y-30568000D02*
X87498000Y-30568000D01*
X49652000Y-49364000D02*
X49652000Y-30568000D01*
X68448000Y-49364000D02*
X49652000Y-49364000D01*
X68448000Y-30568000D02*
X68448000Y-49364000D01*
X49652000Y-30568000D02*
X68448000Y-30568000D01*
X30602000Y-49394000D02*
X30602000Y-30598000D01*
X49398000Y-49394000D02*
X30602000Y-49394000D01*
X49398000Y-30598000D02*
X49398000Y-49394000D01*
X30602000Y-30598000D02*
X49398000Y-30598000D01*
D11*
X214846000Y-25146000D02*
X214846000Y-30226000D01*
X207480000Y-25146000D02*
X214846000Y-25146000D01*
X207480000Y-30226000D02*
X207480000Y-25146000D01*
X214846000Y-30226000D02*
X207480000Y-30226000D01*
D10*
X63889480Y-125658000D02*
X63889480Y-106862000D01*
X87450520Y-125658000D02*
X63889480Y-125658000D01*
X87450520Y-106862000D02*
X87450520Y-125658000D01*
X63889480Y-106862000D02*
X87450520Y-106862000D01*
X315879480Y-125518000D02*
X315879480Y-106722000D01*
X339440520Y-125518000D02*
X315879480Y-125518000D01*
X339440520Y-106722000D02*
X339440520Y-125518000D01*
X315879480Y-106722000D02*
X339440520Y-106722000D01*
X334909480Y-106358000D02*
X334909480Y-87562000D01*
X358470520Y-106358000D02*
X334909480Y-106358000D01*
X358470520Y-87562000D02*
X358470520Y-106358000D01*
X334909480Y-87562000D02*
X358470520Y-87562000D01*
X353955000Y-49276000D02*
X353955000Y-30480000D01*
X372751000Y-49276000D02*
X353955000Y-49276000D01*
X372751000Y-30480000D02*
X372751000Y-49276000D01*
X353955000Y-30480000D02*
X372751000Y-30480000D01*
X334908480Y-106410000D02*
X334908480Y-87614000D01*
X377519520Y-106410000D02*
X334908480Y-106410000D01*
X377519520Y-87614000D02*
X377519520Y-106410000D01*
X334908480Y-87614000D02*
X377519520Y-87614000D01*
X315855000Y-106432000D02*
X315855000Y-87636000D01*
X334651000Y-106432000D02*
X315855000Y-106432000D01*
X334651000Y-87636000D02*
X334651000Y-106432000D01*
X315855000Y-87636000D02*
X334651000Y-87636000D01*
X68702000Y-106514000D02*
X68702000Y-87718000D01*
X87498000Y-106514000D02*
X68702000Y-106514000D01*
X87498000Y-87718000D02*
X87498000Y-106514000D01*
X68702000Y-87718000D02*
X87498000Y-87718000D01*
X25864480Y-106514000D02*
X25864480Y-87718000D01*
X68475520Y-106514000D02*
X25864480Y-106514000D01*
X68475520Y-87718000D02*
X68475520Y-106514000D01*
X25864480Y-87718000D02*
X68475520Y-87718000D01*
X106802000Y-42221000D02*
X106802000Y-23425000D01*
X125598000Y-42221000D02*
X106802000Y-42221000D01*
X125598000Y-23425000D02*
X125598000Y-42221000D01*
X106802000Y-23425000D02*
X125598000Y-23425000D01*
X125852000Y-44602000D02*
X125852000Y-25806000D01*
X144648000Y-44602000D02*
X125852000Y-44602000D01*
X144648000Y-25806000D02*
X144648000Y-44602000D01*
X125852000Y-25806000D02*
X144648000Y-25806000D01*
X144902000Y-46983000D02*
X144902000Y-28187000D01*
X163698000Y-46983000D02*
X144902000Y-46983000D01*
X163698000Y-28187000D02*
X163698000Y-46983000D01*
X144902000Y-28187000D02*
X163698000Y-28187000D01*
X163952000Y-46983000D02*
X163952000Y-28187000D01*
X182748000Y-46983000D02*
X163952000Y-46983000D01*
X182748000Y-28187000D02*
X182748000Y-46983000D01*
X163952000Y-28187000D02*
X182748000Y-28187000D01*
X220605000Y-46895000D02*
X220605000Y-28099000D01*
X239401000Y-46895000D02*
X220605000Y-46895000D01*
X239401000Y-28099000D02*
X239401000Y-46895000D01*
X220605000Y-28099000D02*
X239401000Y-28099000D01*
X239655000Y-46895000D02*
X239655000Y-28099000D01*
X258451000Y-46895000D02*
X239655000Y-46895000D01*
X258451000Y-28099000D02*
X258451000Y-46895000D01*
X239655000Y-28099000D02*
X258451000Y-28099000D01*
X258652000Y-44526000D02*
X258652000Y-25730000D01*
X277448000Y-44526000D02*
X258652000Y-44526000D01*
X277448000Y-25730000D02*
X277448000Y-44526000D01*
X258652000Y-25730000D02*
X277448000Y-25730000D01*
X277755000Y-42122000D02*
X277755000Y-23326000D01*
X296551000Y-42122000D02*
X277755000Y-42122000D01*
X296551000Y-23326000D02*
X296551000Y-42122000D01*
X277755000Y-23326000D02*
X296551000Y-23326000D01*
X296805000Y-44526000D02*
X296805000Y-25730000D01*
X315601000Y-44526000D02*
X296805000Y-44526000D01*
X315601000Y-25730000D02*
X315601000Y-44526000D01*
X296805000Y-25730000D02*
X315601000Y-25730000D01*
X315855000Y-49276000D02*
X315855000Y-30480000D01*
X334651000Y-49276000D02*
X315855000Y-49276000D01*
X334651000Y-30480000D02*
X334651000Y-49276000D01*
X315855000Y-30480000D02*
X334651000Y-30480000D01*
X334905000Y-49276000D02*
X334905000Y-30480000D01*
X353701000Y-49276000D02*
X334905000Y-49276000D01*
X353701000Y-30480000D02*
X353701000Y-49276000D01*
X334905000Y-30480000D02*
X353701000Y-30480000D01*
X68702000Y-68414000D02*
X68702000Y-49618000D01*
X87498000Y-68414000D02*
X68702000Y-68414000D01*
X87498000Y-49618000D02*
X87498000Y-68414000D01*
X68702000Y-49618000D02*
X87498000Y-49618000D01*
X87752000Y-63652000D02*
X87752000Y-44856000D01*
X106548000Y-63652000D02*
X87752000Y-63652000D01*
X106548000Y-44856000D02*
X106548000Y-63652000D01*
X87752000Y-44856000D02*
X106548000Y-44856000D01*
X106802000Y-61271000D02*
X106802000Y-42475000D01*
X125598000Y-61271000D02*
X106802000Y-61271000D01*
X125598000Y-42475000D02*
X125598000Y-61271000D01*
X106802000Y-42475000D02*
X125598000Y-42475000D01*
X125852000Y-63652000D02*
X125852000Y-44856000D01*
X144648000Y-63652000D02*
X125852000Y-63652000D01*
X144648000Y-44856000D02*
X144648000Y-63652000D01*
X125852000Y-44856000D02*
X144648000Y-44856000D01*
X144902000Y-66033000D02*
X144902000Y-47237000D01*
X163698000Y-66033000D02*
X144902000Y-66033000D01*
X163698000Y-47237000D02*
X163698000Y-66033000D01*
X144902000Y-47237000D02*
X163698000Y-47237000D01*
X220605000Y-65953000D02*
X220605000Y-47157000D01*
X239401000Y-65953000D02*
X220605000Y-65953000D01*
X239401000Y-47157000D02*
X239401000Y-65953000D01*
X220605000Y-47157000D02*
X239401000Y-47157000D01*
X239655000Y-65942000D02*
X239655000Y-47146000D01*
X258451000Y-65942000D02*
X239655000Y-65942000D01*
X258451000Y-47146000D02*
X258451000Y-65942000D01*
X239655000Y-47146000D02*
X258451000Y-47146000D01*
X258705000Y-63561000D02*
X258705000Y-44765000D01*
X277501000Y-63561000D02*
X258705000Y-63561000D01*
X277501000Y-44765000D02*
X277501000Y-63561000D01*
X258705000Y-44765000D02*
X277501000Y-44765000D01*
X278252000Y-61271000D02*
X278252000Y-42475000D01*
X297048000Y-61271000D02*
X278252000Y-61271000D01*
X297048000Y-42475000D02*
X297048000Y-61271000D01*
X278252000Y-42475000D02*
X297048000Y-42475000D01*
X296805000Y-63572000D02*
X296805000Y-44776000D01*
X315601000Y-63572000D02*
X296805000Y-63572000D01*
X315601000Y-44776000D02*
X315601000Y-63572000D01*
X296805000Y-44776000D02*
X315601000Y-44776000D01*
X315855000Y-68338000D02*
X315855000Y-49542000D01*
X334651000Y-68338000D02*
X315855000Y-68338000D01*
X334651000Y-49542000D02*
X334651000Y-68338000D01*
X315855000Y-49542000D02*
X334651000Y-49542000D01*
X334905500Y-68323000D02*
X334905500Y-49527000D01*
X363226500Y-68323000D02*
X334905500Y-68323000D01*
X363226500Y-49527000D02*
X363226500Y-68323000D01*
X334905500Y-49527000D02*
X363226500Y-49527000D01*
X68702000Y-87464000D02*
X68702000Y-68668000D01*
X87498000Y-87464000D02*
X68702000Y-87464000D01*
X87498000Y-68668000D02*
X87498000Y-87464000D01*
X68702000Y-68668000D02*
X87498000Y-68668000D01*
X87752000Y-82702000D02*
X87752000Y-63906000D01*
X106548000Y-82702000D02*
X87752000Y-82702000D01*
X106548000Y-63906000D02*
X106548000Y-82702000D01*
X87752000Y-63906000D02*
X106548000Y-63906000D01*
X106802000Y-80321000D02*
X106802000Y-61525000D01*
X125598000Y-80321000D02*
X106802000Y-80321000D01*
X125598000Y-61525000D02*
X125598000Y-80321000D01*
X106802000Y-61525000D02*
X125598000Y-61525000D01*
X125852000Y-82702000D02*
X125852000Y-63906000D01*
X144648000Y-82702000D02*
X125852000Y-82702000D01*
X144648000Y-63906000D02*
X144648000Y-82702000D01*
X125852000Y-63906000D02*
X144648000Y-63906000D01*
X144902000Y-85083000D02*
X144902000Y-66287000D01*
X163698000Y-85083000D02*
X144902000Y-85083000D01*
X163698000Y-66287000D02*
X163698000Y-85083000D01*
X144902000Y-66287000D02*
X163698000Y-66287000D01*
X163952000Y-85083000D02*
X163952000Y-66287000D01*
X182748000Y-85083000D02*
X163952000Y-85083000D01*
X182748000Y-66287000D02*
X182748000Y-85083000D01*
X163952000Y-66287000D02*
X182748000Y-66287000D01*
X220605000Y-84998000D02*
X220605000Y-66202000D01*
X239401000Y-84998000D02*
X220605000Y-84998000D01*
X239401000Y-66202000D02*
X239401000Y-84998000D01*
X220605000Y-66202000D02*
X239401000Y-66202000D01*
X258705000Y-82609000D02*
X258705000Y-63813000D01*
X277501000Y-82609000D02*
X258705000Y-82609000D01*
X277501000Y-63813000D02*
X277501000Y-82609000D01*
X258705000Y-63813000D02*
X277501000Y-63813000D01*
X277755000Y-80247000D02*
X277755000Y-61451000D01*
X296551000Y-80247000D02*
X277755000Y-80247000D01*
X296551000Y-61451000D02*
X296551000Y-80247000D01*
X277755000Y-61451000D02*
X296551000Y-61451000D01*
X296805000Y-82615000D02*
X296805000Y-63819000D01*
X315601000Y-82615000D02*
X296805000Y-82615000D01*
X315601000Y-63819000D02*
X315601000Y-82615000D01*
X296805000Y-63819000D02*
X315601000Y-63819000D01*
X315855000Y-87376000D02*
X315855000Y-68580000D01*
X334651000Y-87376000D02*
X315855000Y-87376000D01*
X334651000Y-68580000D02*
X334651000Y-87376000D01*
X315855000Y-68580000D02*
X334651000Y-68580000D01*
X334903980Y-87368000D02*
X334903980Y-68572000D01*
X367990020Y-87368000D02*
X334903980Y-87368000D01*
X367990020Y-68572000D02*
X367990020Y-87368000D01*
X334903980Y-68572000D02*
X367990020Y-68572000D01*
X87752000Y-101752000D02*
X87752000Y-82956000D01*
X106548000Y-101752000D02*
X87752000Y-101752000D01*
X106548000Y-82956000D02*
X106548000Y-101752000D01*
X87752000Y-82956000D02*
X106548000Y-82956000D01*
X106802000Y-99371000D02*
X106802000Y-80575000D01*
X125598000Y-99371000D02*
X106802000Y-99371000D01*
X125598000Y-80575000D02*
X125598000Y-99371000D01*
X106802000Y-80575000D02*
X125598000Y-80575000D01*
X125852000Y-101752000D02*
X125852000Y-82956000D01*
X144648000Y-101752000D02*
X125852000Y-101752000D01*
X144648000Y-82956000D02*
X144648000Y-101752000D01*
X125852000Y-82956000D02*
X144648000Y-82956000D01*
X144902000Y-104133000D02*
X144902000Y-85337000D01*
X163698000Y-104133000D02*
X144902000Y-104133000D01*
X163698000Y-85337000D02*
X163698000Y-104133000D01*
X144902000Y-85337000D02*
X163698000Y-85337000D01*
X239655000Y-104014000D02*
X239655000Y-85218000D01*
X258451000Y-104014000D02*
X239655000Y-104014000D01*
X258451000Y-85218000D02*
X258451000Y-104014000D01*
X239655000Y-85218000D02*
X258451000Y-85218000D01*
X259202000Y-101752000D02*
X259202000Y-82956000D01*
X277998000Y-101752000D02*
X259202000Y-101752000D01*
X277998000Y-82956000D02*
X277998000Y-101752000D01*
X259202000Y-82956000D02*
X277998000Y-82956000D01*
X277755000Y-99276000D02*
X277755000Y-80480000D01*
X296551000Y-99276000D02*
X277755000Y-99276000D01*
X296551000Y-80480000D02*
X296551000Y-99276000D01*
X277755000Y-80480000D02*
X296551000Y-80480000D01*
X296805000Y-101658000D02*
X296805000Y-82862000D01*
X315601000Y-101658000D02*
X296805000Y-101658000D01*
X315601000Y-82862000D02*
X315601000Y-101658000D01*
X296805000Y-82862000D02*
X315601000Y-82862000D01*
X44887480Y-125564000D02*
X44887480Y-106768000D01*
X68448520Y-125564000D02*
X44887480Y-125564000D01*
X68448520Y-106768000D02*
X68448520Y-125564000D01*
X44887480Y-106768000D02*
X68448520Y-106768000D01*
X68702000Y-125564000D02*
X68702000Y-106768000D01*
X87498000Y-125564000D02*
X68702000Y-125564000D01*
X87498000Y-106768000D02*
X87498000Y-125564000D01*
X68702000Y-106768000D02*
X87498000Y-106768000D01*
X87752000Y-120802000D02*
X87752000Y-102006000D01*
X106548000Y-120802000D02*
X87752000Y-120802000D01*
X106548000Y-102006000D02*
X106548000Y-120802000D01*
X87752000Y-102006000D02*
X106548000Y-102006000D01*
X106802000Y-118421000D02*
X106802000Y-99625000D01*
X125598000Y-118421000D02*
X106802000Y-118421000D01*
X125598000Y-99625000D02*
X125598000Y-118421000D01*
X106802000Y-99625000D02*
X125598000Y-99625000D01*
X126678770Y-121968647D02*
X136076770Y-105690833D01*
X147083230Y-133749167D02*
X126678770Y-121968647D01*
X156481230Y-117471353D02*
X147083230Y-133749167D01*
X136076770Y-105690833D02*
X156481230Y-117471353D01*
X208460833Y-130646770D02*
X224738647Y-121248770D01*
X220241353Y-151051230D02*
X208460833Y-130646770D01*
X236519167Y-141653230D02*
X220241353Y-151051230D01*
X224738647Y-121248770D02*
X236519167Y-141653230D01*
X216348333Y-106617878D02*
X232626147Y-97219878D01*
X237653853Y-143520122D02*
X216348333Y-106617878D01*
X253931667Y-134122122D02*
X237653853Y-143520122D01*
X232626147Y-97219878D02*
X253931667Y-134122122D01*
X256276770Y-133609167D02*
X246878770Y-117331353D01*
X276681230Y-121828647D02*
X256276770Y-133609167D01*
X267283230Y-105550833D02*
X276681230Y-121828647D01*
X246878770Y-117331353D02*
X267283230Y-105550833D01*
X277755000Y-118329000D02*
X277755000Y-99533000D01*
X296551000Y-118329000D02*
X277755000Y-118329000D01*
X296551000Y-99533000D02*
X296551000Y-118329000D01*
X277755000Y-99533000D02*
X296551000Y-99533000D01*
X296805000Y-120722000D02*
X296805000Y-101926000D01*
X315601000Y-120722000D02*
X296805000Y-120722000D01*
X315601000Y-101926000D02*
X315601000Y-120722000D01*
X296805000Y-101926000D02*
X315601000Y-101926000D01*
X315786000Y-125473000D02*
X315786000Y-106677000D01*
X334582000Y-125473000D02*
X315786000Y-125473000D01*
X334582000Y-106677000D02*
X334582000Y-125473000D01*
X315786000Y-106677000D02*
X334582000Y-106677000D01*
X334904480Y-125488000D02*
X334904480Y-106692000D01*
X358465520Y-125488000D02*
X334904480Y-125488000D01*
X358465520Y-106692000D02*
X358465520Y-125488000D01*
X334904480Y-106692000D02*
X358465520Y-106692000D01*
D12*
X241269714Y-84536428D02*
X240398857Y-84536428D01*
X240834285Y-84536428D02*
X240834285Y-83012428D01*
X240689142Y-83230142D01*
X240544000Y-83375285D01*
X240398857Y-83447857D01*
X241922857Y-84391285D02*
X241995428Y-84463857D01*
X241922857Y-84536428D01*
X241850285Y-84463857D01*
X241922857Y-84391285D01*
X241922857Y-84536428D01*
X242938857Y-83012428D02*
X243084000Y-83012428D01*
X243229142Y-83085000D01*
X243301714Y-83157571D01*
X243374285Y-83302714D01*
X243446857Y-83593000D01*
X243446857Y-83955857D01*
X243374285Y-84246142D01*
X243301714Y-84391285D01*
X243229142Y-84463857D01*
X243084000Y-84536428D01*
X242938857Y-84536428D01*
X242793714Y-84463857D01*
X242721142Y-84391285D01*
X242648571Y-84246142D01*
X242576000Y-83955857D01*
X242576000Y-83593000D01*
X242648571Y-83302714D01*
X242721142Y-83157571D01*
X242793714Y-83085000D01*
X242938857Y-83012428D01*
X244390285Y-83012428D02*
X244535428Y-83012428D01*
X244680571Y-83085000D01*
X244753142Y-83157571D01*
X244825714Y-83302714D01*
X244898285Y-83593000D01*
X244898285Y-83955857D01*
X244825714Y-84246142D01*
X244753142Y-84391285D01*
X244680571Y-84463857D01*
X244535428Y-84536428D01*
X244390285Y-84536428D01*
X244245142Y-84463857D01*
X244172571Y-84391285D01*
X244100000Y-84246142D01*
X244027428Y-83955857D01*
X244027428Y-83593000D01*
X244100000Y-83302714D01*
X244172571Y-83157571D01*
X244245142Y-83085000D01*
X244390285Y-83012428D01*
X246204571Y-83520428D02*
X246204571Y-84536428D01*
X245551428Y-83520428D02*
X245551428Y-84318714D01*
X245624000Y-84463857D01*
X245769142Y-84536428D01*
X245986857Y-84536428D01*
X246132000Y-84463857D01*
X246204571Y-84391285D01*
X41834214Y-67954428D02*
X40963357Y-67954428D01*
X41398785Y-67954428D02*
X41398785Y-66430428D01*
X41253642Y-66648142D01*
X41108500Y-66793285D01*
X40963357Y-66865857D01*
X42487357Y-67809285D02*
X42559928Y-67881857D01*
X42487357Y-67954428D01*
X42414785Y-67881857D01*
X42487357Y-67809285D01*
X42487357Y-67954428D01*
X43938785Y-66430428D02*
X43213071Y-66430428D01*
X43140500Y-67156142D01*
X43213071Y-67083571D01*
X43358214Y-67011000D01*
X43721071Y-67011000D01*
X43866214Y-67083571D01*
X43938785Y-67156142D01*
X44011357Y-67301285D01*
X44011357Y-67664142D01*
X43938785Y-67809285D01*
X43866214Y-67881857D01*
X43721071Y-67954428D01*
X43358214Y-67954428D01*
X43213071Y-67881857D01*
X43140500Y-67809285D01*
X44954785Y-66430428D02*
X45099928Y-66430428D01*
X45245071Y-66503000D01*
X45317642Y-66575571D01*
X45390214Y-66720714D01*
X45462785Y-67011000D01*
X45462785Y-67373857D01*
X45390214Y-67664142D01*
X45317642Y-67809285D01*
X45245071Y-67881857D01*
X45099928Y-67954428D01*
X44954785Y-67954428D01*
X44809642Y-67881857D01*
X44737071Y-67809285D01*
X44664500Y-67664142D01*
X44591928Y-67373857D01*
X44591928Y-67011000D01*
X44664500Y-66720714D01*
X44737071Y-66575571D01*
X44809642Y-66503000D01*
X44954785Y-66430428D01*
X46769071Y-66938428D02*
X46769071Y-67954428D01*
X46115928Y-66938428D02*
X46115928Y-67736714D01*
X46188500Y-67881857D01*
X46333642Y-67954428D01*
X46551357Y-67954428D01*
X46696500Y-67881857D01*
X46769071Y-67809285D01*
D13*
X218382380Y-77828095D02*
X219191904Y-77828095D01*
X219287142Y-77780476D01*
X219334761Y-77732857D01*
X219382380Y-77637619D01*
X219382380Y-77447142D01*
X219334761Y-77351904D01*
X219287142Y-77304285D01*
X219191904Y-77256666D01*
X218382380Y-77256666D01*
X218382380Y-76875714D02*
X218382380Y-76256666D01*
X218763333Y-76590000D01*
X218763333Y-76447142D01*
X218810952Y-76351904D01*
X218858571Y-76304285D01*
X218953809Y-76256666D01*
X219191904Y-76256666D01*
X219287142Y-76304285D01*
X219334761Y-76351904D01*
X219382380Y-76447142D01*
X219382380Y-76732857D01*
X219334761Y-76828095D01*
X219287142Y-76875714D01*
X219382380Y-75304285D02*
X219382380Y-75875714D01*
X219382380Y-75590000D02*
X218382380Y-75590000D01*
X218525238Y-75685238D01*
X218620476Y-75780476D01*
X218668095Y-75875714D01*
X184082380Y-77778095D02*
X184891904Y-77778095D01*
X184987142Y-77730476D01*
X185034761Y-77682857D01*
X185082380Y-77587619D01*
X185082380Y-77397142D01*
X185034761Y-77301904D01*
X184987142Y-77254285D01*
X184891904Y-77206666D01*
X184082380Y-77206666D01*
X184177619Y-76778095D02*
X184130000Y-76730476D01*
X184082380Y-76635238D01*
X184082380Y-76397142D01*
X184130000Y-76301904D01*
X184177619Y-76254285D01*
X184272857Y-76206666D01*
X184368095Y-76206666D01*
X184510952Y-76254285D01*
X185082380Y-76825714D01*
X185082380Y-76206666D01*
X185082380Y-75254285D02*
X185082380Y-75825714D01*
X185082380Y-75540000D02*
X184082380Y-75540000D01*
X184225238Y-75635238D01*
X184320476Y-75730476D01*
X184368095Y-75825714D01*
D12*
X336544194Y-86914428D02*
X335673337Y-86914428D01*
X336108765Y-86914428D02*
X336108765Y-85390428D01*
X335963622Y-85608142D01*
X335818480Y-85753285D01*
X335673337Y-85825857D01*
X337197337Y-86769285D02*
X337269908Y-86841857D01*
X337197337Y-86914428D01*
X337124765Y-86841857D01*
X337197337Y-86769285D01*
X337197337Y-86914428D01*
X337850480Y-85535571D02*
X337923051Y-85463000D01*
X338068194Y-85390428D01*
X338431051Y-85390428D01*
X338576194Y-85463000D01*
X338648765Y-85535571D01*
X338721337Y-85680714D01*
X338721337Y-85825857D01*
X338648765Y-86043571D01*
X337777908Y-86914428D01*
X338721337Y-86914428D01*
X340100194Y-85390428D02*
X339374480Y-85390428D01*
X339301908Y-86116142D01*
X339374480Y-86043571D01*
X339519622Y-85971000D01*
X339882480Y-85971000D01*
X340027622Y-86043571D01*
X340100194Y-86116142D01*
X340172765Y-86261285D01*
X340172765Y-86624142D01*
X340100194Y-86769285D01*
X340027622Y-86841857D01*
X339882480Y-86914428D01*
X339519622Y-86914428D01*
X339374480Y-86841857D01*
X339301908Y-86769285D01*
X341479051Y-85898428D02*
X341479051Y-86914428D01*
X340825908Y-85898428D02*
X340825908Y-86696714D01*
X340898480Y-86841857D01*
X341043622Y-86914428D01*
X341261337Y-86914428D01*
X341406480Y-86841857D01*
X341479051Y-86769285D01*
X165566714Y-65579428D02*
X164695857Y-65579428D01*
X165131285Y-65579428D02*
X165131285Y-64055428D01*
X164986142Y-64273142D01*
X164841000Y-64418285D01*
X164695857Y-64490857D01*
X166219857Y-65434285D02*
X166292428Y-65506857D01*
X166219857Y-65579428D01*
X166147285Y-65506857D01*
X166219857Y-65434285D01*
X166219857Y-65579428D01*
X167235857Y-64055428D02*
X167381000Y-64055428D01*
X167526142Y-64128000D01*
X167598714Y-64200571D01*
X167671285Y-64345714D01*
X167743857Y-64636000D01*
X167743857Y-64998857D01*
X167671285Y-65289142D01*
X167598714Y-65434285D01*
X167526142Y-65506857D01*
X167381000Y-65579428D01*
X167235857Y-65579428D01*
X167090714Y-65506857D01*
X167018142Y-65434285D01*
X166945571Y-65289142D01*
X166873000Y-64998857D01*
X166873000Y-64636000D01*
X166945571Y-64345714D01*
X167018142Y-64200571D01*
X167090714Y-64128000D01*
X167235857Y-64055428D01*
X168687285Y-64055428D02*
X168832428Y-64055428D01*
X168977571Y-64128000D01*
X169050142Y-64200571D01*
X169122714Y-64345714D01*
X169195285Y-64636000D01*
X169195285Y-64998857D01*
X169122714Y-65289142D01*
X169050142Y-65434285D01*
X168977571Y-65506857D01*
X168832428Y-65579428D01*
X168687285Y-65579428D01*
X168542142Y-65506857D01*
X168469571Y-65434285D01*
X168397000Y-65289142D01*
X168324428Y-64998857D01*
X168324428Y-64636000D01*
X168397000Y-64345714D01*
X168469571Y-64200571D01*
X168542142Y-64128000D01*
X168687285Y-64055428D01*
X170501571Y-64563428D02*
X170501571Y-65579428D01*
X169848428Y-64563428D02*
X169848428Y-65361714D01*
X169921000Y-65506857D01*
X170066142Y-65579428D01*
X170283857Y-65579428D01*
X170429000Y-65506857D01*
X170501571Y-65434285D01*
X36977694Y-87010428D02*
X36106837Y-87010428D01*
X36542265Y-87010428D02*
X36542265Y-85486428D01*
X36397122Y-85704142D01*
X36251980Y-85849285D01*
X36106837Y-85921857D01*
X37630837Y-86865285D02*
X37703408Y-86937857D01*
X37630837Y-87010428D01*
X37558265Y-86937857D01*
X37630837Y-86865285D01*
X37630837Y-87010428D01*
X38211408Y-85486428D02*
X39227408Y-85486428D01*
X38574265Y-87010428D01*
X40533694Y-85486428D02*
X39807980Y-85486428D01*
X39735408Y-86212142D01*
X39807980Y-86139571D01*
X39953122Y-86067000D01*
X40315980Y-86067000D01*
X40461122Y-86139571D01*
X40533694Y-86212142D01*
X40606265Y-86357285D01*
X40606265Y-86720142D01*
X40533694Y-86865285D01*
X40461122Y-86937857D01*
X40315980Y-87010428D01*
X39953122Y-87010428D01*
X39807980Y-86937857D01*
X39735408Y-86865285D01*
X41912551Y-85994428D02*
X41912551Y-87010428D01*
X41259408Y-85994428D02*
X41259408Y-86792714D01*
X41331980Y-86937857D01*
X41477122Y-87010428D01*
X41694837Y-87010428D01*
X41839980Y-86937857D01*
X41912551Y-86865285D01*
X180982405Y-151646385D02*
X180955842Y-151547250D01*
X180965565Y-151385267D01*
X181146994Y-151071024D01*
X181282414Y-150981612D01*
X181381548Y-150955049D01*
X181543531Y-150964772D01*
X181669229Y-151037343D01*
X181821489Y-151209049D01*
X182140245Y-152398662D01*
X182611959Y-151581629D01*
X182812833Y-150943419D02*
X182911968Y-150916856D01*
X182938531Y-151015990D01*
X182839396Y-151042553D01*
X182812833Y-150943419D01*
X182938531Y-151015990D01*
X182126708Y-149374109D02*
X182199279Y-149248411D01*
X182334700Y-149159000D01*
X182433834Y-149132437D01*
X182595817Y-149142159D01*
X182883498Y-149224453D01*
X183197741Y-149405882D01*
X183412850Y-149613874D01*
X183502262Y-149749294D01*
X183528825Y-149848428D01*
X183519102Y-150010411D01*
X183446531Y-150136109D01*
X183311111Y-150225520D01*
X183211976Y-150252083D01*
X183049993Y-150242361D01*
X182762313Y-150160066D01*
X182448069Y-149978638D01*
X182232960Y-149770646D01*
X182143548Y-149635226D01*
X182116985Y-149536092D01*
X182126708Y-149374109D01*
X182852422Y-148117135D02*
X182924994Y-147991437D01*
X183060414Y-147902026D01*
X183159548Y-147875463D01*
X183321531Y-147885185D01*
X183609212Y-147967479D01*
X183923455Y-148148908D01*
X184138564Y-148356900D01*
X184227976Y-148492320D01*
X184254539Y-148591454D01*
X184244816Y-148753437D01*
X184172245Y-148879135D01*
X184036825Y-148968546D01*
X183937690Y-148995109D01*
X183775707Y-148985387D01*
X183488027Y-148903092D01*
X183173783Y-148721664D01*
X182958674Y-148513672D01*
X182869263Y-148378252D01*
X182842700Y-148279118D01*
X182852422Y-148117135D01*
X184199506Y-146799917D02*
X185079388Y-147307917D01*
X183872935Y-147365555D02*
X184564270Y-147764698D01*
X184726253Y-147774421D01*
X184861674Y-147685009D01*
X184970531Y-147496463D01*
X184980253Y-147334480D01*
X184953690Y-147235346D01*
X172546835Y-95137162D02*
X172520272Y-95038027D01*
X172529995Y-94876044D01*
X172711424Y-94561801D01*
X172846844Y-94472389D01*
X172945978Y-94445826D01*
X173107961Y-94455549D01*
X173233659Y-94528120D01*
X173385919Y-94699826D01*
X173704675Y-95889439D01*
X174176389Y-95072406D01*
X174377263Y-94434196D02*
X174476398Y-94407633D01*
X174502961Y-94506767D01*
X174403826Y-94533330D01*
X174377263Y-94434196D01*
X174502961Y-94506767D01*
X173473424Y-93241978D02*
X173981424Y-92362096D01*
X174974675Y-93689734D01*
X174634567Y-91230819D02*
X174271709Y-91859306D01*
X174863911Y-92285012D01*
X174837348Y-92185878D01*
X174847070Y-92023895D01*
X175028499Y-91709651D01*
X175163919Y-91620240D01*
X175263054Y-91593677D01*
X175425037Y-91603399D01*
X175739280Y-91784828D01*
X175828692Y-91920248D01*
X175855255Y-92019382D01*
X175845532Y-92181366D01*
X175664104Y-92495609D01*
X175528683Y-92585021D01*
X175429549Y-92611584D01*
X175763936Y-90290694D02*
X176643818Y-90798694D01*
X175437365Y-90856332D02*
X176128700Y-91255475D01*
X176290683Y-91265198D01*
X176426104Y-91175786D01*
X176534961Y-90987240D01*
X176544683Y-90825257D01*
X176518120Y-90726123D01*
X89366714Y-44149428D02*
X88495857Y-44149428D01*
X88931285Y-44149428D02*
X88931285Y-42625428D01*
X88786142Y-42843142D01*
X88641000Y-42988285D01*
X88495857Y-43060857D01*
X90019857Y-44004285D02*
X90092428Y-44076857D01*
X90019857Y-44149428D01*
X89947285Y-44076857D01*
X90019857Y-44004285D01*
X90019857Y-44149428D01*
X91035857Y-42625428D02*
X91181000Y-42625428D01*
X91326142Y-42698000D01*
X91398714Y-42770571D01*
X91471285Y-42915714D01*
X91543857Y-43206000D01*
X91543857Y-43568857D01*
X91471285Y-43859142D01*
X91398714Y-44004285D01*
X91326142Y-44076857D01*
X91181000Y-44149428D01*
X91035857Y-44149428D01*
X90890714Y-44076857D01*
X90818142Y-44004285D01*
X90745571Y-43859142D01*
X90673000Y-43568857D01*
X90673000Y-43206000D01*
X90745571Y-42915714D01*
X90818142Y-42770571D01*
X90890714Y-42698000D01*
X91035857Y-42625428D01*
X92487285Y-42625428D02*
X92632428Y-42625428D01*
X92777571Y-42698000D01*
X92850142Y-42770571D01*
X92922714Y-42915714D01*
X92995285Y-43206000D01*
X92995285Y-43568857D01*
X92922714Y-43859142D01*
X92850142Y-44004285D01*
X92777571Y-44076857D01*
X92632428Y-44149428D01*
X92487285Y-44149428D01*
X92342142Y-44076857D01*
X92269571Y-44004285D01*
X92197000Y-43859142D01*
X92124428Y-43568857D01*
X92124428Y-43206000D01*
X92197000Y-42915714D01*
X92269571Y-42770571D01*
X92342142Y-42698000D01*
X92487285Y-42625428D01*
X94301571Y-43133428D02*
X94301571Y-44149428D01*
X93648428Y-43133428D02*
X93648428Y-43931714D01*
X93721000Y-44076857D01*
X93866142Y-44149428D01*
X94083857Y-44149428D01*
X94229000Y-44076857D01*
X94301571Y-44004285D01*
X70316714Y-48910428D02*
X69445857Y-48910428D01*
X69881285Y-48910428D02*
X69881285Y-47386428D01*
X69736142Y-47604142D01*
X69591000Y-47749285D01*
X69445857Y-47821857D01*
X70969857Y-48765285D02*
X71042428Y-48837857D01*
X70969857Y-48910428D01*
X70897285Y-48837857D01*
X70969857Y-48765285D01*
X70969857Y-48910428D01*
X71985857Y-47386428D02*
X72131000Y-47386428D01*
X72276142Y-47459000D01*
X72348714Y-47531571D01*
X72421285Y-47676714D01*
X72493857Y-47967000D01*
X72493857Y-48329857D01*
X72421285Y-48620142D01*
X72348714Y-48765285D01*
X72276142Y-48837857D01*
X72131000Y-48910428D01*
X71985857Y-48910428D01*
X71840714Y-48837857D01*
X71768142Y-48765285D01*
X71695571Y-48620142D01*
X71623000Y-48329857D01*
X71623000Y-47967000D01*
X71695571Y-47676714D01*
X71768142Y-47531571D01*
X71840714Y-47459000D01*
X71985857Y-47386428D01*
X73437285Y-47386428D02*
X73582428Y-47386428D01*
X73727571Y-47459000D01*
X73800142Y-47531571D01*
X73872714Y-47676714D01*
X73945285Y-47967000D01*
X73945285Y-48329857D01*
X73872714Y-48620142D01*
X73800142Y-48765285D01*
X73727571Y-48837857D01*
X73582428Y-48910428D01*
X73437285Y-48910428D01*
X73292142Y-48837857D01*
X73219571Y-48765285D01*
X73147000Y-48620142D01*
X73074428Y-48329857D01*
X73074428Y-47967000D01*
X73147000Y-47676714D01*
X73219571Y-47531571D01*
X73292142Y-47459000D01*
X73437285Y-47386428D01*
X75251571Y-47894428D02*
X75251571Y-48910428D01*
X74598428Y-47894428D02*
X74598428Y-48692714D01*
X74671000Y-48837857D01*
X74816142Y-48910428D01*
X75033857Y-48910428D01*
X75179000Y-48837857D01*
X75251571Y-48765285D01*
X51266714Y-48910428D02*
X50395857Y-48910428D01*
X50831285Y-48910428D02*
X50831285Y-47386428D01*
X50686142Y-47604142D01*
X50541000Y-47749285D01*
X50395857Y-47821857D01*
X51919857Y-48765285D02*
X51992428Y-48837857D01*
X51919857Y-48910428D01*
X51847285Y-48837857D01*
X51919857Y-48765285D01*
X51919857Y-48910428D01*
X52935857Y-47386428D02*
X53081000Y-47386428D01*
X53226142Y-47459000D01*
X53298714Y-47531571D01*
X53371285Y-47676714D01*
X53443857Y-47967000D01*
X53443857Y-48329857D01*
X53371285Y-48620142D01*
X53298714Y-48765285D01*
X53226142Y-48837857D01*
X53081000Y-48910428D01*
X52935857Y-48910428D01*
X52790714Y-48837857D01*
X52718142Y-48765285D01*
X52645571Y-48620142D01*
X52573000Y-48329857D01*
X52573000Y-47967000D01*
X52645571Y-47676714D01*
X52718142Y-47531571D01*
X52790714Y-47459000D01*
X52935857Y-47386428D01*
X54387285Y-47386428D02*
X54532428Y-47386428D01*
X54677571Y-47459000D01*
X54750142Y-47531571D01*
X54822714Y-47676714D01*
X54895285Y-47967000D01*
X54895285Y-48329857D01*
X54822714Y-48620142D01*
X54750142Y-48765285D01*
X54677571Y-48837857D01*
X54532428Y-48910428D01*
X54387285Y-48910428D01*
X54242142Y-48837857D01*
X54169571Y-48765285D01*
X54097000Y-48620142D01*
X54024428Y-48329857D01*
X54024428Y-47967000D01*
X54097000Y-47676714D01*
X54169571Y-47531571D01*
X54242142Y-47459000D01*
X54387285Y-47386428D01*
X56201571Y-47894428D02*
X56201571Y-48910428D01*
X55548428Y-47894428D02*
X55548428Y-48692714D01*
X55621000Y-48837857D01*
X55766142Y-48910428D01*
X55983857Y-48910428D01*
X56129000Y-48837857D01*
X56201571Y-48765285D01*
X32216714Y-48940428D02*
X31345857Y-48940428D01*
X31781285Y-48940428D02*
X31781285Y-47416428D01*
X31636142Y-47634142D01*
X31491000Y-47779285D01*
X31345857Y-47851857D01*
X32869857Y-48795285D02*
X32942428Y-48867857D01*
X32869857Y-48940428D01*
X32797285Y-48867857D01*
X32869857Y-48795285D01*
X32869857Y-48940428D01*
X33885857Y-47416428D02*
X34031000Y-47416428D01*
X34176142Y-47489000D01*
X34248714Y-47561571D01*
X34321285Y-47706714D01*
X34393857Y-47997000D01*
X34393857Y-48359857D01*
X34321285Y-48650142D01*
X34248714Y-48795285D01*
X34176142Y-48867857D01*
X34031000Y-48940428D01*
X33885857Y-48940428D01*
X33740714Y-48867857D01*
X33668142Y-48795285D01*
X33595571Y-48650142D01*
X33523000Y-48359857D01*
X33523000Y-47997000D01*
X33595571Y-47706714D01*
X33668142Y-47561571D01*
X33740714Y-47489000D01*
X33885857Y-47416428D01*
X35337285Y-47416428D02*
X35482428Y-47416428D01*
X35627571Y-47489000D01*
X35700142Y-47561571D01*
X35772714Y-47706714D01*
X35845285Y-47997000D01*
X35845285Y-48359857D01*
X35772714Y-48650142D01*
X35700142Y-48795285D01*
X35627571Y-48867857D01*
X35482428Y-48940428D01*
X35337285Y-48940428D01*
X35192142Y-48867857D01*
X35119571Y-48795285D01*
X35047000Y-48650142D01*
X34974428Y-48359857D01*
X34974428Y-47997000D01*
X35047000Y-47706714D01*
X35119571Y-47561571D01*
X35192142Y-47489000D01*
X35337285Y-47416428D01*
X37151571Y-47924428D02*
X37151571Y-48940428D01*
X36498428Y-47924428D02*
X36498428Y-48722714D01*
X36571000Y-48867857D01*
X36716142Y-48940428D01*
X36933857Y-48940428D01*
X37079000Y-48867857D01*
X37151571Y-48795285D01*
X65504194Y-125204428D02*
X64633337Y-125204428D01*
X65068765Y-125204428D02*
X65068765Y-123680428D01*
X64923622Y-123898142D01*
X64778480Y-124043285D01*
X64633337Y-124115857D01*
X66157337Y-125059285D02*
X66229908Y-125131857D01*
X66157337Y-125204428D01*
X66084765Y-125131857D01*
X66157337Y-125059285D01*
X66157337Y-125204428D01*
X66810480Y-123825571D02*
X66883051Y-123753000D01*
X67028194Y-123680428D01*
X67391051Y-123680428D01*
X67536194Y-123753000D01*
X67608765Y-123825571D01*
X67681337Y-123970714D01*
X67681337Y-124115857D01*
X67608765Y-124333571D01*
X66737908Y-125204428D01*
X67681337Y-125204428D01*
X69060194Y-123680428D02*
X68334480Y-123680428D01*
X68261908Y-124406142D01*
X68334480Y-124333571D01*
X68479622Y-124261000D01*
X68842480Y-124261000D01*
X68987622Y-124333571D01*
X69060194Y-124406142D01*
X69132765Y-124551285D01*
X69132765Y-124914142D01*
X69060194Y-125059285D01*
X68987622Y-125131857D01*
X68842480Y-125204428D01*
X68479622Y-125204428D01*
X68334480Y-125131857D01*
X68261908Y-125059285D01*
X70439051Y-124188428D02*
X70439051Y-125204428D01*
X69785908Y-124188428D02*
X69785908Y-124986714D01*
X69858480Y-125131857D01*
X70003622Y-125204428D01*
X70221337Y-125204428D01*
X70366480Y-125131857D01*
X70439051Y-125059285D01*
X317494194Y-125064428D02*
X316623337Y-125064428D01*
X317058765Y-125064428D02*
X317058765Y-123540428D01*
X316913622Y-123758142D01*
X316768480Y-123903285D01*
X316623337Y-123975857D01*
X318147337Y-124919285D02*
X318219908Y-124991857D01*
X318147337Y-125064428D01*
X318074765Y-124991857D01*
X318147337Y-124919285D01*
X318147337Y-125064428D01*
X318800480Y-123685571D02*
X318873051Y-123613000D01*
X319018194Y-123540428D01*
X319381051Y-123540428D01*
X319526194Y-123613000D01*
X319598765Y-123685571D01*
X319671337Y-123830714D01*
X319671337Y-123975857D01*
X319598765Y-124193571D01*
X318727908Y-125064428D01*
X319671337Y-125064428D01*
X321050194Y-123540428D02*
X320324480Y-123540428D01*
X320251908Y-124266142D01*
X320324480Y-124193571D01*
X320469622Y-124121000D01*
X320832480Y-124121000D01*
X320977622Y-124193571D01*
X321050194Y-124266142D01*
X321122765Y-124411285D01*
X321122765Y-124774142D01*
X321050194Y-124919285D01*
X320977622Y-124991857D01*
X320832480Y-125064428D01*
X320469622Y-125064428D01*
X320324480Y-124991857D01*
X320251908Y-124919285D01*
X322429051Y-124048428D02*
X322429051Y-125064428D01*
X321775908Y-124048428D02*
X321775908Y-124846714D01*
X321848480Y-124991857D01*
X321993622Y-125064428D01*
X322211337Y-125064428D01*
X322356480Y-124991857D01*
X322429051Y-124919285D01*
X336524194Y-105904428D02*
X335653337Y-105904428D01*
X336088765Y-105904428D02*
X336088765Y-104380428D01*
X335943622Y-104598142D01*
X335798480Y-104743285D01*
X335653337Y-104815857D01*
X337177337Y-105759285D02*
X337249908Y-105831857D01*
X337177337Y-105904428D01*
X337104765Y-105831857D01*
X337177337Y-105759285D01*
X337177337Y-105904428D01*
X337830480Y-104525571D02*
X337903051Y-104453000D01*
X338048194Y-104380428D01*
X338411051Y-104380428D01*
X338556194Y-104453000D01*
X338628765Y-104525571D01*
X338701337Y-104670714D01*
X338701337Y-104815857D01*
X338628765Y-105033571D01*
X337757908Y-105904428D01*
X338701337Y-105904428D01*
X340080194Y-104380428D02*
X339354480Y-104380428D01*
X339281908Y-105106142D01*
X339354480Y-105033571D01*
X339499622Y-104961000D01*
X339862480Y-104961000D01*
X340007622Y-105033571D01*
X340080194Y-105106142D01*
X340152765Y-105251285D01*
X340152765Y-105614142D01*
X340080194Y-105759285D01*
X340007622Y-105831857D01*
X339862480Y-105904428D01*
X339499622Y-105904428D01*
X339354480Y-105831857D01*
X339281908Y-105759285D01*
X341459051Y-104888428D02*
X341459051Y-105904428D01*
X340805908Y-104888428D02*
X340805908Y-105686714D01*
X340878480Y-105831857D01*
X341023622Y-105904428D01*
X341241337Y-105904428D01*
X341386480Y-105831857D01*
X341459051Y-105759285D01*
X355569714Y-48822428D02*
X354698857Y-48822428D01*
X355134285Y-48822428D02*
X355134285Y-47298428D01*
X354989142Y-47516142D01*
X354844000Y-47661285D01*
X354698857Y-47733857D01*
X356222857Y-48677285D02*
X356295428Y-48749857D01*
X356222857Y-48822428D01*
X356150285Y-48749857D01*
X356222857Y-48677285D01*
X356222857Y-48822428D01*
X357238857Y-47298428D02*
X357384000Y-47298428D01*
X357529142Y-47371000D01*
X357601714Y-47443571D01*
X357674285Y-47588714D01*
X357746857Y-47879000D01*
X357746857Y-48241857D01*
X357674285Y-48532142D01*
X357601714Y-48677285D01*
X357529142Y-48749857D01*
X357384000Y-48822428D01*
X357238857Y-48822428D01*
X357093714Y-48749857D01*
X357021142Y-48677285D01*
X356948571Y-48532142D01*
X356876000Y-48241857D01*
X356876000Y-47879000D01*
X356948571Y-47588714D01*
X357021142Y-47443571D01*
X357093714Y-47371000D01*
X357238857Y-47298428D01*
X358690285Y-47298428D02*
X358835428Y-47298428D01*
X358980571Y-47371000D01*
X359053142Y-47443571D01*
X359125714Y-47588714D01*
X359198285Y-47879000D01*
X359198285Y-48241857D01*
X359125714Y-48532142D01*
X359053142Y-48677285D01*
X358980571Y-48749857D01*
X358835428Y-48822428D01*
X358690285Y-48822428D01*
X358545142Y-48749857D01*
X358472571Y-48677285D01*
X358400000Y-48532142D01*
X358327428Y-48241857D01*
X358327428Y-47879000D01*
X358400000Y-47588714D01*
X358472571Y-47443571D01*
X358545142Y-47371000D01*
X358690285Y-47298428D01*
X360504571Y-47806428D02*
X360504571Y-48822428D01*
X359851428Y-47806428D02*
X359851428Y-48604714D01*
X359924000Y-48749857D01*
X360069142Y-48822428D01*
X360286857Y-48822428D01*
X360432000Y-48749857D01*
X360504571Y-48677285D01*
X335652337Y-104577571D02*
X335724908Y-104505000D01*
X335870051Y-104432428D01*
X336232908Y-104432428D01*
X336378051Y-104505000D01*
X336450622Y-104577571D01*
X336523194Y-104722714D01*
X336523194Y-104867857D01*
X336450622Y-105085571D01*
X335579765Y-105956428D01*
X336523194Y-105956428D01*
X337176337Y-105811285D02*
X337248908Y-105883857D01*
X337176337Y-105956428D01*
X337103765Y-105883857D01*
X337176337Y-105811285D01*
X337176337Y-105956428D01*
X337829480Y-104577571D02*
X337902051Y-104505000D01*
X338047194Y-104432428D01*
X338410051Y-104432428D01*
X338555194Y-104505000D01*
X338627765Y-104577571D01*
X338700337Y-104722714D01*
X338700337Y-104867857D01*
X338627765Y-105085571D01*
X337756908Y-105956428D01*
X338700337Y-105956428D01*
X340079194Y-104432428D02*
X339353480Y-104432428D01*
X339280908Y-105158142D01*
X339353480Y-105085571D01*
X339498622Y-105013000D01*
X339861480Y-105013000D01*
X340006622Y-105085571D01*
X340079194Y-105158142D01*
X340151765Y-105303285D01*
X340151765Y-105666142D01*
X340079194Y-105811285D01*
X340006622Y-105883857D01*
X339861480Y-105956428D01*
X339498622Y-105956428D01*
X339353480Y-105883857D01*
X339280908Y-105811285D01*
X341458051Y-104940428D02*
X341458051Y-105956428D01*
X340804908Y-104940428D02*
X340804908Y-105738714D01*
X340877480Y-105883857D01*
X341022622Y-105956428D01*
X341240337Y-105956428D01*
X341385480Y-105883857D01*
X341458051Y-105811285D01*
X317469714Y-105978428D02*
X316598857Y-105978428D01*
X317034285Y-105978428D02*
X317034285Y-104454428D01*
X316889142Y-104672142D01*
X316744000Y-104817285D01*
X316598857Y-104889857D01*
X318122857Y-105833285D02*
X318195428Y-105905857D01*
X318122857Y-105978428D01*
X318050285Y-105905857D01*
X318122857Y-105833285D01*
X318122857Y-105978428D01*
X319138857Y-104454428D02*
X319284000Y-104454428D01*
X319429142Y-104527000D01*
X319501714Y-104599571D01*
X319574285Y-104744714D01*
X319646857Y-105035000D01*
X319646857Y-105397857D01*
X319574285Y-105688142D01*
X319501714Y-105833285D01*
X319429142Y-105905857D01*
X319284000Y-105978428D01*
X319138857Y-105978428D01*
X318993714Y-105905857D01*
X318921142Y-105833285D01*
X318848571Y-105688142D01*
X318776000Y-105397857D01*
X318776000Y-105035000D01*
X318848571Y-104744714D01*
X318921142Y-104599571D01*
X318993714Y-104527000D01*
X319138857Y-104454428D01*
X320590285Y-104454428D02*
X320735428Y-104454428D01*
X320880571Y-104527000D01*
X320953142Y-104599571D01*
X321025714Y-104744714D01*
X321098285Y-105035000D01*
X321098285Y-105397857D01*
X321025714Y-105688142D01*
X320953142Y-105833285D01*
X320880571Y-105905857D01*
X320735428Y-105978428D01*
X320590285Y-105978428D01*
X320445142Y-105905857D01*
X320372571Y-105833285D01*
X320300000Y-105688142D01*
X320227428Y-105397857D01*
X320227428Y-105035000D01*
X320300000Y-104744714D01*
X320372571Y-104599571D01*
X320445142Y-104527000D01*
X320590285Y-104454428D01*
X322404571Y-104962428D02*
X322404571Y-105978428D01*
X321751428Y-104962428D02*
X321751428Y-105760714D01*
X321824000Y-105905857D01*
X321969142Y-105978428D01*
X322186857Y-105978428D01*
X322332000Y-105905857D01*
X322404571Y-105833285D01*
X70316714Y-106060428D02*
X69445857Y-106060428D01*
X69881285Y-106060428D02*
X69881285Y-104536428D01*
X69736142Y-104754142D01*
X69591000Y-104899285D01*
X69445857Y-104971857D01*
X70969857Y-105915285D02*
X71042428Y-105987857D01*
X70969857Y-106060428D01*
X70897285Y-105987857D01*
X70969857Y-105915285D01*
X70969857Y-106060428D01*
X71985857Y-104536428D02*
X72131000Y-104536428D01*
X72276142Y-104609000D01*
X72348714Y-104681571D01*
X72421285Y-104826714D01*
X72493857Y-105117000D01*
X72493857Y-105479857D01*
X72421285Y-105770142D01*
X72348714Y-105915285D01*
X72276142Y-105987857D01*
X72131000Y-106060428D01*
X71985857Y-106060428D01*
X71840714Y-105987857D01*
X71768142Y-105915285D01*
X71695571Y-105770142D01*
X71623000Y-105479857D01*
X71623000Y-105117000D01*
X71695571Y-104826714D01*
X71768142Y-104681571D01*
X71840714Y-104609000D01*
X71985857Y-104536428D01*
X73437285Y-104536428D02*
X73582428Y-104536428D01*
X73727571Y-104609000D01*
X73800142Y-104681571D01*
X73872714Y-104826714D01*
X73945285Y-105117000D01*
X73945285Y-105479857D01*
X73872714Y-105770142D01*
X73800142Y-105915285D01*
X73727571Y-105987857D01*
X73582428Y-106060428D01*
X73437285Y-106060428D01*
X73292142Y-105987857D01*
X73219571Y-105915285D01*
X73147000Y-105770142D01*
X73074428Y-105479857D01*
X73074428Y-105117000D01*
X73147000Y-104826714D01*
X73219571Y-104681571D01*
X73292142Y-104609000D01*
X73437285Y-104536428D01*
X75251571Y-105044428D02*
X75251571Y-106060428D01*
X74598428Y-105044428D02*
X74598428Y-105842714D01*
X74671000Y-105987857D01*
X74816142Y-106060428D01*
X75033857Y-106060428D01*
X75179000Y-105987857D01*
X75251571Y-105915285D01*
X26608337Y-104681571D02*
X26680908Y-104609000D01*
X26826051Y-104536428D01*
X27188908Y-104536428D01*
X27334051Y-104609000D01*
X27406622Y-104681571D01*
X27479194Y-104826714D01*
X27479194Y-104971857D01*
X27406622Y-105189571D01*
X26535765Y-106060428D01*
X27479194Y-106060428D01*
X28132337Y-105915285D02*
X28204908Y-105987857D01*
X28132337Y-106060428D01*
X28059765Y-105987857D01*
X28132337Y-105915285D01*
X28132337Y-106060428D01*
X28785480Y-104681571D02*
X28858051Y-104609000D01*
X29003194Y-104536428D01*
X29366051Y-104536428D01*
X29511194Y-104609000D01*
X29583765Y-104681571D01*
X29656337Y-104826714D01*
X29656337Y-104971857D01*
X29583765Y-105189571D01*
X28712908Y-106060428D01*
X29656337Y-106060428D01*
X31035194Y-104536428D02*
X30309480Y-104536428D01*
X30236908Y-105262142D01*
X30309480Y-105189571D01*
X30454622Y-105117000D01*
X30817480Y-105117000D01*
X30962622Y-105189571D01*
X31035194Y-105262142D01*
X31107765Y-105407285D01*
X31107765Y-105770142D01*
X31035194Y-105915285D01*
X30962622Y-105987857D01*
X30817480Y-106060428D01*
X30454622Y-106060428D01*
X30309480Y-105987857D01*
X30236908Y-105915285D01*
X32414051Y-105044428D02*
X32414051Y-106060428D01*
X31760908Y-105044428D02*
X31760908Y-105842714D01*
X31833480Y-105987857D01*
X31978622Y-106060428D01*
X32196337Y-106060428D01*
X32341480Y-105987857D01*
X32414051Y-105915285D01*
X108416714Y-41767428D02*
X107545857Y-41767428D01*
X107981285Y-41767428D02*
X107981285Y-40243428D01*
X107836142Y-40461142D01*
X107691000Y-40606285D01*
X107545857Y-40678857D01*
X109069857Y-41622285D02*
X109142428Y-41694857D01*
X109069857Y-41767428D01*
X108997285Y-41694857D01*
X109069857Y-41622285D01*
X109069857Y-41767428D01*
X110085857Y-40243428D02*
X110231000Y-40243428D01*
X110376142Y-40316000D01*
X110448714Y-40388571D01*
X110521285Y-40533714D01*
X110593857Y-40824000D01*
X110593857Y-41186857D01*
X110521285Y-41477142D01*
X110448714Y-41622285D01*
X110376142Y-41694857D01*
X110231000Y-41767428D01*
X110085857Y-41767428D01*
X109940714Y-41694857D01*
X109868142Y-41622285D01*
X109795571Y-41477142D01*
X109723000Y-41186857D01*
X109723000Y-40824000D01*
X109795571Y-40533714D01*
X109868142Y-40388571D01*
X109940714Y-40316000D01*
X110085857Y-40243428D01*
X111537285Y-40243428D02*
X111682428Y-40243428D01*
X111827571Y-40316000D01*
X111900142Y-40388571D01*
X111972714Y-40533714D01*
X112045285Y-40824000D01*
X112045285Y-41186857D01*
X111972714Y-41477142D01*
X111900142Y-41622285D01*
X111827571Y-41694857D01*
X111682428Y-41767428D01*
X111537285Y-41767428D01*
X111392142Y-41694857D01*
X111319571Y-41622285D01*
X111247000Y-41477142D01*
X111174428Y-41186857D01*
X111174428Y-40824000D01*
X111247000Y-40533714D01*
X111319571Y-40388571D01*
X111392142Y-40316000D01*
X111537285Y-40243428D01*
X113351571Y-40751428D02*
X113351571Y-41767428D01*
X112698428Y-40751428D02*
X112698428Y-41549714D01*
X112771000Y-41694857D01*
X112916142Y-41767428D01*
X113133857Y-41767428D01*
X113279000Y-41694857D01*
X113351571Y-41622285D01*
X127466714Y-44148428D02*
X126595857Y-44148428D01*
X127031285Y-44148428D02*
X127031285Y-42624428D01*
X126886142Y-42842142D01*
X126741000Y-42987285D01*
X126595857Y-43059857D01*
X128119857Y-44003285D02*
X128192428Y-44075857D01*
X128119857Y-44148428D01*
X128047285Y-44075857D01*
X128119857Y-44003285D01*
X128119857Y-44148428D01*
X129135857Y-42624428D02*
X129281000Y-42624428D01*
X129426142Y-42697000D01*
X129498714Y-42769571D01*
X129571285Y-42914714D01*
X129643857Y-43205000D01*
X129643857Y-43567857D01*
X129571285Y-43858142D01*
X129498714Y-44003285D01*
X129426142Y-44075857D01*
X129281000Y-44148428D01*
X129135857Y-44148428D01*
X128990714Y-44075857D01*
X128918142Y-44003285D01*
X128845571Y-43858142D01*
X128773000Y-43567857D01*
X128773000Y-43205000D01*
X128845571Y-42914714D01*
X128918142Y-42769571D01*
X128990714Y-42697000D01*
X129135857Y-42624428D01*
X130587285Y-42624428D02*
X130732428Y-42624428D01*
X130877571Y-42697000D01*
X130950142Y-42769571D01*
X131022714Y-42914714D01*
X131095285Y-43205000D01*
X131095285Y-43567857D01*
X131022714Y-43858142D01*
X130950142Y-44003285D01*
X130877571Y-44075857D01*
X130732428Y-44148428D01*
X130587285Y-44148428D01*
X130442142Y-44075857D01*
X130369571Y-44003285D01*
X130297000Y-43858142D01*
X130224428Y-43567857D01*
X130224428Y-43205000D01*
X130297000Y-42914714D01*
X130369571Y-42769571D01*
X130442142Y-42697000D01*
X130587285Y-42624428D01*
X132401571Y-43132428D02*
X132401571Y-44148428D01*
X131748428Y-43132428D02*
X131748428Y-43930714D01*
X131821000Y-44075857D01*
X131966142Y-44148428D01*
X132183857Y-44148428D01*
X132329000Y-44075857D01*
X132401571Y-44003285D01*
X146516714Y-46529428D02*
X145645857Y-46529428D01*
X146081285Y-46529428D02*
X146081285Y-45005428D01*
X145936142Y-45223142D01*
X145791000Y-45368285D01*
X145645857Y-45440857D01*
X147169857Y-46384285D02*
X147242428Y-46456857D01*
X147169857Y-46529428D01*
X147097285Y-46456857D01*
X147169857Y-46384285D01*
X147169857Y-46529428D01*
X148185857Y-45005428D02*
X148331000Y-45005428D01*
X148476142Y-45078000D01*
X148548714Y-45150571D01*
X148621285Y-45295714D01*
X148693857Y-45586000D01*
X148693857Y-45948857D01*
X148621285Y-46239142D01*
X148548714Y-46384285D01*
X148476142Y-46456857D01*
X148331000Y-46529428D01*
X148185857Y-46529428D01*
X148040714Y-46456857D01*
X147968142Y-46384285D01*
X147895571Y-46239142D01*
X147823000Y-45948857D01*
X147823000Y-45586000D01*
X147895571Y-45295714D01*
X147968142Y-45150571D01*
X148040714Y-45078000D01*
X148185857Y-45005428D01*
X149637285Y-45005428D02*
X149782428Y-45005428D01*
X149927571Y-45078000D01*
X150000142Y-45150571D01*
X150072714Y-45295714D01*
X150145285Y-45586000D01*
X150145285Y-45948857D01*
X150072714Y-46239142D01*
X150000142Y-46384285D01*
X149927571Y-46456857D01*
X149782428Y-46529428D01*
X149637285Y-46529428D01*
X149492142Y-46456857D01*
X149419571Y-46384285D01*
X149347000Y-46239142D01*
X149274428Y-45948857D01*
X149274428Y-45586000D01*
X149347000Y-45295714D01*
X149419571Y-45150571D01*
X149492142Y-45078000D01*
X149637285Y-45005428D01*
X151451571Y-45513428D02*
X151451571Y-46529428D01*
X150798428Y-45513428D02*
X150798428Y-46311714D01*
X150871000Y-46456857D01*
X151016142Y-46529428D01*
X151233857Y-46529428D01*
X151379000Y-46456857D01*
X151451571Y-46384285D01*
X165566714Y-46529428D02*
X164695857Y-46529428D01*
X165131285Y-46529428D02*
X165131285Y-45005428D01*
X164986142Y-45223142D01*
X164841000Y-45368285D01*
X164695857Y-45440857D01*
X166219857Y-46384285D02*
X166292428Y-46456857D01*
X166219857Y-46529428D01*
X166147285Y-46456857D01*
X166219857Y-46384285D01*
X166219857Y-46529428D01*
X167235857Y-45005428D02*
X167381000Y-45005428D01*
X167526142Y-45078000D01*
X167598714Y-45150571D01*
X167671285Y-45295714D01*
X167743857Y-45586000D01*
X167743857Y-45948857D01*
X167671285Y-46239142D01*
X167598714Y-46384285D01*
X167526142Y-46456857D01*
X167381000Y-46529428D01*
X167235857Y-46529428D01*
X167090714Y-46456857D01*
X167018142Y-46384285D01*
X166945571Y-46239142D01*
X166873000Y-45948857D01*
X166873000Y-45586000D01*
X166945571Y-45295714D01*
X167018142Y-45150571D01*
X167090714Y-45078000D01*
X167235857Y-45005428D01*
X168687285Y-45005428D02*
X168832428Y-45005428D01*
X168977571Y-45078000D01*
X169050142Y-45150571D01*
X169122714Y-45295714D01*
X169195285Y-45586000D01*
X169195285Y-45948857D01*
X169122714Y-46239142D01*
X169050142Y-46384285D01*
X168977571Y-46456857D01*
X168832428Y-46529428D01*
X168687285Y-46529428D01*
X168542142Y-46456857D01*
X168469571Y-46384285D01*
X168397000Y-46239142D01*
X168324428Y-45948857D01*
X168324428Y-45586000D01*
X168397000Y-45295714D01*
X168469571Y-45150571D01*
X168542142Y-45078000D01*
X168687285Y-45005428D01*
X170501571Y-45513428D02*
X170501571Y-46529428D01*
X169848428Y-45513428D02*
X169848428Y-46311714D01*
X169921000Y-46456857D01*
X170066142Y-46529428D01*
X170283857Y-46529428D01*
X170429000Y-46456857D01*
X170501571Y-46384285D01*
X222219714Y-46441428D02*
X221348857Y-46441428D01*
X221784285Y-46441428D02*
X221784285Y-44917428D01*
X221639142Y-45135142D01*
X221494000Y-45280285D01*
X221348857Y-45352857D01*
X222872857Y-46296285D02*
X222945428Y-46368857D01*
X222872857Y-46441428D01*
X222800285Y-46368857D01*
X222872857Y-46296285D01*
X222872857Y-46441428D01*
X223888857Y-44917428D02*
X224034000Y-44917428D01*
X224179142Y-44990000D01*
X224251714Y-45062571D01*
X224324285Y-45207714D01*
X224396857Y-45498000D01*
X224396857Y-45860857D01*
X224324285Y-46151142D01*
X224251714Y-46296285D01*
X224179142Y-46368857D01*
X224034000Y-46441428D01*
X223888857Y-46441428D01*
X223743714Y-46368857D01*
X223671142Y-46296285D01*
X223598571Y-46151142D01*
X223526000Y-45860857D01*
X223526000Y-45498000D01*
X223598571Y-45207714D01*
X223671142Y-45062571D01*
X223743714Y-44990000D01*
X223888857Y-44917428D01*
X225340285Y-44917428D02*
X225485428Y-44917428D01*
X225630571Y-44990000D01*
X225703142Y-45062571D01*
X225775714Y-45207714D01*
X225848285Y-45498000D01*
X225848285Y-45860857D01*
X225775714Y-46151142D01*
X225703142Y-46296285D01*
X225630571Y-46368857D01*
X225485428Y-46441428D01*
X225340285Y-46441428D01*
X225195142Y-46368857D01*
X225122571Y-46296285D01*
X225050000Y-46151142D01*
X224977428Y-45860857D01*
X224977428Y-45498000D01*
X225050000Y-45207714D01*
X225122571Y-45062571D01*
X225195142Y-44990000D01*
X225340285Y-44917428D01*
X227154571Y-45425428D02*
X227154571Y-46441428D01*
X226501428Y-45425428D02*
X226501428Y-46223714D01*
X226574000Y-46368857D01*
X226719142Y-46441428D01*
X226936857Y-46441428D01*
X227082000Y-46368857D01*
X227154571Y-46296285D01*
X241269714Y-46441428D02*
X240398857Y-46441428D01*
X240834285Y-46441428D02*
X240834285Y-44917428D01*
X240689142Y-45135142D01*
X240544000Y-45280285D01*
X240398857Y-45352857D01*
X241922857Y-46296285D02*
X241995428Y-46368857D01*
X241922857Y-46441428D01*
X241850285Y-46368857D01*
X241922857Y-46296285D01*
X241922857Y-46441428D01*
X242938857Y-44917428D02*
X243084000Y-44917428D01*
X243229142Y-44990000D01*
X243301714Y-45062571D01*
X243374285Y-45207714D01*
X243446857Y-45498000D01*
X243446857Y-45860857D01*
X243374285Y-46151142D01*
X243301714Y-46296285D01*
X243229142Y-46368857D01*
X243084000Y-46441428D01*
X242938857Y-46441428D01*
X242793714Y-46368857D01*
X242721142Y-46296285D01*
X242648571Y-46151142D01*
X242576000Y-45860857D01*
X242576000Y-45498000D01*
X242648571Y-45207714D01*
X242721142Y-45062571D01*
X242793714Y-44990000D01*
X242938857Y-44917428D01*
X244390285Y-44917428D02*
X244535428Y-44917428D01*
X244680571Y-44990000D01*
X244753142Y-45062571D01*
X244825714Y-45207714D01*
X244898285Y-45498000D01*
X244898285Y-45860857D01*
X244825714Y-46151142D01*
X244753142Y-46296285D01*
X244680571Y-46368857D01*
X244535428Y-46441428D01*
X244390285Y-46441428D01*
X244245142Y-46368857D01*
X244172571Y-46296285D01*
X244100000Y-46151142D01*
X244027428Y-45860857D01*
X244027428Y-45498000D01*
X244100000Y-45207714D01*
X244172571Y-45062571D01*
X244245142Y-44990000D01*
X244390285Y-44917428D01*
X246204571Y-45425428D02*
X246204571Y-46441428D01*
X245551428Y-45425428D02*
X245551428Y-46223714D01*
X245624000Y-46368857D01*
X245769142Y-46441428D01*
X245986857Y-46441428D01*
X246132000Y-46368857D01*
X246204571Y-46296285D01*
X260266714Y-44072428D02*
X259395857Y-44072428D01*
X259831285Y-44072428D02*
X259831285Y-42548428D01*
X259686142Y-42766142D01*
X259541000Y-42911285D01*
X259395857Y-42983857D01*
X260919857Y-43927285D02*
X260992428Y-43999857D01*
X260919857Y-44072428D01*
X260847285Y-43999857D01*
X260919857Y-43927285D01*
X260919857Y-44072428D01*
X261935857Y-42548428D02*
X262081000Y-42548428D01*
X262226142Y-42621000D01*
X262298714Y-42693571D01*
X262371285Y-42838714D01*
X262443857Y-43129000D01*
X262443857Y-43491857D01*
X262371285Y-43782142D01*
X262298714Y-43927285D01*
X262226142Y-43999857D01*
X262081000Y-44072428D01*
X261935857Y-44072428D01*
X261790714Y-43999857D01*
X261718142Y-43927285D01*
X261645571Y-43782142D01*
X261573000Y-43491857D01*
X261573000Y-43129000D01*
X261645571Y-42838714D01*
X261718142Y-42693571D01*
X261790714Y-42621000D01*
X261935857Y-42548428D01*
X263387285Y-42548428D02*
X263532428Y-42548428D01*
X263677571Y-42621000D01*
X263750142Y-42693571D01*
X263822714Y-42838714D01*
X263895285Y-43129000D01*
X263895285Y-43491857D01*
X263822714Y-43782142D01*
X263750142Y-43927285D01*
X263677571Y-43999857D01*
X263532428Y-44072428D01*
X263387285Y-44072428D01*
X263242142Y-43999857D01*
X263169571Y-43927285D01*
X263097000Y-43782142D01*
X263024428Y-43491857D01*
X263024428Y-43129000D01*
X263097000Y-42838714D01*
X263169571Y-42693571D01*
X263242142Y-42621000D01*
X263387285Y-42548428D01*
X265201571Y-43056428D02*
X265201571Y-44072428D01*
X264548428Y-43056428D02*
X264548428Y-43854714D01*
X264621000Y-43999857D01*
X264766142Y-44072428D01*
X264983857Y-44072428D01*
X265129000Y-43999857D01*
X265201571Y-43927285D01*
X279369714Y-41668428D02*
X278498857Y-41668428D01*
X278934285Y-41668428D02*
X278934285Y-40144428D01*
X278789142Y-40362142D01*
X278644000Y-40507285D01*
X278498857Y-40579857D01*
X280022857Y-41523285D02*
X280095428Y-41595857D01*
X280022857Y-41668428D01*
X279950285Y-41595857D01*
X280022857Y-41523285D01*
X280022857Y-41668428D01*
X281038857Y-40144428D02*
X281184000Y-40144428D01*
X281329142Y-40217000D01*
X281401714Y-40289571D01*
X281474285Y-40434714D01*
X281546857Y-40725000D01*
X281546857Y-41087857D01*
X281474285Y-41378142D01*
X281401714Y-41523285D01*
X281329142Y-41595857D01*
X281184000Y-41668428D01*
X281038857Y-41668428D01*
X280893714Y-41595857D01*
X280821142Y-41523285D01*
X280748571Y-41378142D01*
X280676000Y-41087857D01*
X280676000Y-40725000D01*
X280748571Y-40434714D01*
X280821142Y-40289571D01*
X280893714Y-40217000D01*
X281038857Y-40144428D01*
X282490285Y-40144428D02*
X282635428Y-40144428D01*
X282780571Y-40217000D01*
X282853142Y-40289571D01*
X282925714Y-40434714D01*
X282998285Y-40725000D01*
X282998285Y-41087857D01*
X282925714Y-41378142D01*
X282853142Y-41523285D01*
X282780571Y-41595857D01*
X282635428Y-41668428D01*
X282490285Y-41668428D01*
X282345142Y-41595857D01*
X282272571Y-41523285D01*
X282200000Y-41378142D01*
X282127428Y-41087857D01*
X282127428Y-40725000D01*
X282200000Y-40434714D01*
X282272571Y-40289571D01*
X282345142Y-40217000D01*
X282490285Y-40144428D01*
X284304571Y-40652428D02*
X284304571Y-41668428D01*
X283651428Y-40652428D02*
X283651428Y-41450714D01*
X283724000Y-41595857D01*
X283869142Y-41668428D01*
X284086857Y-41668428D01*
X284232000Y-41595857D01*
X284304571Y-41523285D01*
X298419714Y-44072428D02*
X297548857Y-44072428D01*
X297984285Y-44072428D02*
X297984285Y-42548428D01*
X297839142Y-42766142D01*
X297694000Y-42911285D01*
X297548857Y-42983857D01*
X299072857Y-43927285D02*
X299145428Y-43999857D01*
X299072857Y-44072428D01*
X299000285Y-43999857D01*
X299072857Y-43927285D01*
X299072857Y-44072428D01*
X300088857Y-42548428D02*
X300234000Y-42548428D01*
X300379142Y-42621000D01*
X300451714Y-42693571D01*
X300524285Y-42838714D01*
X300596857Y-43129000D01*
X300596857Y-43491857D01*
X300524285Y-43782142D01*
X300451714Y-43927285D01*
X300379142Y-43999857D01*
X300234000Y-44072428D01*
X300088857Y-44072428D01*
X299943714Y-43999857D01*
X299871142Y-43927285D01*
X299798571Y-43782142D01*
X299726000Y-43491857D01*
X299726000Y-43129000D01*
X299798571Y-42838714D01*
X299871142Y-42693571D01*
X299943714Y-42621000D01*
X300088857Y-42548428D01*
X301540285Y-42548428D02*
X301685428Y-42548428D01*
X301830571Y-42621000D01*
X301903142Y-42693571D01*
X301975714Y-42838714D01*
X302048285Y-43129000D01*
X302048285Y-43491857D01*
X301975714Y-43782142D01*
X301903142Y-43927285D01*
X301830571Y-43999857D01*
X301685428Y-44072428D01*
X301540285Y-44072428D01*
X301395142Y-43999857D01*
X301322571Y-43927285D01*
X301250000Y-43782142D01*
X301177428Y-43491857D01*
X301177428Y-43129000D01*
X301250000Y-42838714D01*
X301322571Y-42693571D01*
X301395142Y-42621000D01*
X301540285Y-42548428D01*
X303354571Y-43056428D02*
X303354571Y-44072428D01*
X302701428Y-43056428D02*
X302701428Y-43854714D01*
X302774000Y-43999857D01*
X302919142Y-44072428D01*
X303136857Y-44072428D01*
X303282000Y-43999857D01*
X303354571Y-43927285D01*
X317469714Y-48822428D02*
X316598857Y-48822428D01*
X317034285Y-48822428D02*
X317034285Y-47298428D01*
X316889142Y-47516142D01*
X316744000Y-47661285D01*
X316598857Y-47733857D01*
X318122857Y-48677285D02*
X318195428Y-48749857D01*
X318122857Y-48822428D01*
X318050285Y-48749857D01*
X318122857Y-48677285D01*
X318122857Y-48822428D01*
X319138857Y-47298428D02*
X319284000Y-47298428D01*
X319429142Y-47371000D01*
X319501714Y-47443571D01*
X319574285Y-47588714D01*
X319646857Y-47879000D01*
X319646857Y-48241857D01*
X319574285Y-48532142D01*
X319501714Y-48677285D01*
X319429142Y-48749857D01*
X319284000Y-48822428D01*
X319138857Y-48822428D01*
X318993714Y-48749857D01*
X318921142Y-48677285D01*
X318848571Y-48532142D01*
X318776000Y-48241857D01*
X318776000Y-47879000D01*
X318848571Y-47588714D01*
X318921142Y-47443571D01*
X318993714Y-47371000D01*
X319138857Y-47298428D01*
X320590285Y-47298428D02*
X320735428Y-47298428D01*
X320880571Y-47371000D01*
X320953142Y-47443571D01*
X321025714Y-47588714D01*
X321098285Y-47879000D01*
X321098285Y-48241857D01*
X321025714Y-48532142D01*
X320953142Y-48677285D01*
X320880571Y-48749857D01*
X320735428Y-48822428D01*
X320590285Y-48822428D01*
X320445142Y-48749857D01*
X320372571Y-48677285D01*
X320300000Y-48532142D01*
X320227428Y-48241857D01*
X320227428Y-47879000D01*
X320300000Y-47588714D01*
X320372571Y-47443571D01*
X320445142Y-47371000D01*
X320590285Y-47298428D01*
X322404571Y-47806428D02*
X322404571Y-48822428D01*
X321751428Y-47806428D02*
X321751428Y-48604714D01*
X321824000Y-48749857D01*
X321969142Y-48822428D01*
X322186857Y-48822428D01*
X322332000Y-48749857D01*
X322404571Y-48677285D01*
X336519714Y-48822428D02*
X335648857Y-48822428D01*
X336084285Y-48822428D02*
X336084285Y-47298428D01*
X335939142Y-47516142D01*
X335794000Y-47661285D01*
X335648857Y-47733857D01*
X337172857Y-48677285D02*
X337245428Y-48749857D01*
X337172857Y-48822428D01*
X337100285Y-48749857D01*
X337172857Y-48677285D01*
X337172857Y-48822428D01*
X338188857Y-47298428D02*
X338334000Y-47298428D01*
X338479142Y-47371000D01*
X338551714Y-47443571D01*
X338624285Y-47588714D01*
X338696857Y-47879000D01*
X338696857Y-48241857D01*
X338624285Y-48532142D01*
X338551714Y-48677285D01*
X338479142Y-48749857D01*
X338334000Y-48822428D01*
X338188857Y-48822428D01*
X338043714Y-48749857D01*
X337971142Y-48677285D01*
X337898571Y-48532142D01*
X337826000Y-48241857D01*
X337826000Y-47879000D01*
X337898571Y-47588714D01*
X337971142Y-47443571D01*
X338043714Y-47371000D01*
X338188857Y-47298428D01*
X339640285Y-47298428D02*
X339785428Y-47298428D01*
X339930571Y-47371000D01*
X340003142Y-47443571D01*
X340075714Y-47588714D01*
X340148285Y-47879000D01*
X340148285Y-48241857D01*
X340075714Y-48532142D01*
X340003142Y-48677285D01*
X339930571Y-48749857D01*
X339785428Y-48822428D01*
X339640285Y-48822428D01*
X339495142Y-48749857D01*
X339422571Y-48677285D01*
X339350000Y-48532142D01*
X339277428Y-48241857D01*
X339277428Y-47879000D01*
X339350000Y-47588714D01*
X339422571Y-47443571D01*
X339495142Y-47371000D01*
X339640285Y-47298428D01*
X341454571Y-47806428D02*
X341454571Y-48822428D01*
X340801428Y-47806428D02*
X340801428Y-48604714D01*
X340874000Y-48749857D01*
X341019142Y-48822428D01*
X341236857Y-48822428D01*
X341382000Y-48749857D01*
X341454571Y-48677285D01*
X70316714Y-67960428D02*
X69445857Y-67960428D01*
X69881285Y-67960428D02*
X69881285Y-66436428D01*
X69736142Y-66654142D01*
X69591000Y-66799285D01*
X69445857Y-66871857D01*
X70969857Y-67815285D02*
X71042428Y-67887857D01*
X70969857Y-67960428D01*
X70897285Y-67887857D01*
X70969857Y-67815285D01*
X70969857Y-67960428D01*
X71985857Y-66436428D02*
X72131000Y-66436428D01*
X72276142Y-66509000D01*
X72348714Y-66581571D01*
X72421285Y-66726714D01*
X72493857Y-67017000D01*
X72493857Y-67379857D01*
X72421285Y-67670142D01*
X72348714Y-67815285D01*
X72276142Y-67887857D01*
X72131000Y-67960428D01*
X71985857Y-67960428D01*
X71840714Y-67887857D01*
X71768142Y-67815285D01*
X71695571Y-67670142D01*
X71623000Y-67379857D01*
X71623000Y-67017000D01*
X71695571Y-66726714D01*
X71768142Y-66581571D01*
X71840714Y-66509000D01*
X71985857Y-66436428D01*
X73437285Y-66436428D02*
X73582428Y-66436428D01*
X73727571Y-66509000D01*
X73800142Y-66581571D01*
X73872714Y-66726714D01*
X73945285Y-67017000D01*
X73945285Y-67379857D01*
X73872714Y-67670142D01*
X73800142Y-67815285D01*
X73727571Y-67887857D01*
X73582428Y-67960428D01*
X73437285Y-67960428D01*
X73292142Y-67887857D01*
X73219571Y-67815285D01*
X73147000Y-67670142D01*
X73074428Y-67379857D01*
X73074428Y-67017000D01*
X73147000Y-66726714D01*
X73219571Y-66581571D01*
X73292142Y-66509000D01*
X73437285Y-66436428D01*
X75251571Y-66944428D02*
X75251571Y-67960428D01*
X74598428Y-66944428D02*
X74598428Y-67742714D01*
X74671000Y-67887857D01*
X74816142Y-67960428D01*
X75033857Y-67960428D01*
X75179000Y-67887857D01*
X75251571Y-67815285D01*
X89366714Y-63198428D02*
X88495857Y-63198428D01*
X88931285Y-63198428D02*
X88931285Y-61674428D01*
X88786142Y-61892142D01*
X88641000Y-62037285D01*
X88495857Y-62109857D01*
X90019857Y-63053285D02*
X90092428Y-63125857D01*
X90019857Y-63198428D01*
X89947285Y-63125857D01*
X90019857Y-63053285D01*
X90019857Y-63198428D01*
X91035857Y-61674428D02*
X91181000Y-61674428D01*
X91326142Y-61747000D01*
X91398714Y-61819571D01*
X91471285Y-61964714D01*
X91543857Y-62255000D01*
X91543857Y-62617857D01*
X91471285Y-62908142D01*
X91398714Y-63053285D01*
X91326142Y-63125857D01*
X91181000Y-63198428D01*
X91035857Y-63198428D01*
X90890714Y-63125857D01*
X90818142Y-63053285D01*
X90745571Y-62908142D01*
X90673000Y-62617857D01*
X90673000Y-62255000D01*
X90745571Y-61964714D01*
X90818142Y-61819571D01*
X90890714Y-61747000D01*
X91035857Y-61674428D01*
X92487285Y-61674428D02*
X92632428Y-61674428D01*
X92777571Y-61747000D01*
X92850142Y-61819571D01*
X92922714Y-61964714D01*
X92995285Y-62255000D01*
X92995285Y-62617857D01*
X92922714Y-62908142D01*
X92850142Y-63053285D01*
X92777571Y-63125857D01*
X92632428Y-63198428D01*
X92487285Y-63198428D01*
X92342142Y-63125857D01*
X92269571Y-63053285D01*
X92197000Y-62908142D01*
X92124428Y-62617857D01*
X92124428Y-62255000D01*
X92197000Y-61964714D01*
X92269571Y-61819571D01*
X92342142Y-61747000D01*
X92487285Y-61674428D01*
X94301571Y-62182428D02*
X94301571Y-63198428D01*
X93648428Y-62182428D02*
X93648428Y-62980714D01*
X93721000Y-63125857D01*
X93866142Y-63198428D01*
X94083857Y-63198428D01*
X94229000Y-63125857D01*
X94301571Y-63053285D01*
X108416714Y-60817428D02*
X107545857Y-60817428D01*
X107981285Y-60817428D02*
X107981285Y-59293428D01*
X107836142Y-59511142D01*
X107691000Y-59656285D01*
X107545857Y-59728857D01*
X109069857Y-60672285D02*
X109142428Y-60744857D01*
X109069857Y-60817428D01*
X108997285Y-60744857D01*
X109069857Y-60672285D01*
X109069857Y-60817428D01*
X110085857Y-59293428D02*
X110231000Y-59293428D01*
X110376142Y-59366000D01*
X110448714Y-59438571D01*
X110521285Y-59583714D01*
X110593857Y-59874000D01*
X110593857Y-60236857D01*
X110521285Y-60527142D01*
X110448714Y-60672285D01*
X110376142Y-60744857D01*
X110231000Y-60817428D01*
X110085857Y-60817428D01*
X109940714Y-60744857D01*
X109868142Y-60672285D01*
X109795571Y-60527142D01*
X109723000Y-60236857D01*
X109723000Y-59874000D01*
X109795571Y-59583714D01*
X109868142Y-59438571D01*
X109940714Y-59366000D01*
X110085857Y-59293428D01*
X111537285Y-59293428D02*
X111682428Y-59293428D01*
X111827571Y-59366000D01*
X111900142Y-59438571D01*
X111972714Y-59583714D01*
X112045285Y-59874000D01*
X112045285Y-60236857D01*
X111972714Y-60527142D01*
X111900142Y-60672285D01*
X111827571Y-60744857D01*
X111682428Y-60817428D01*
X111537285Y-60817428D01*
X111392142Y-60744857D01*
X111319571Y-60672285D01*
X111247000Y-60527142D01*
X111174428Y-60236857D01*
X111174428Y-59874000D01*
X111247000Y-59583714D01*
X111319571Y-59438571D01*
X111392142Y-59366000D01*
X111537285Y-59293428D01*
X113351571Y-59801428D02*
X113351571Y-60817428D01*
X112698428Y-59801428D02*
X112698428Y-60599714D01*
X112771000Y-60744857D01*
X112916142Y-60817428D01*
X113133857Y-60817428D01*
X113279000Y-60744857D01*
X113351571Y-60672285D01*
X127466714Y-63198428D02*
X126595857Y-63198428D01*
X127031285Y-63198428D02*
X127031285Y-61674428D01*
X126886142Y-61892142D01*
X126741000Y-62037285D01*
X126595857Y-62109857D01*
X128119857Y-63053285D02*
X128192428Y-63125857D01*
X128119857Y-63198428D01*
X128047285Y-63125857D01*
X128119857Y-63053285D01*
X128119857Y-63198428D01*
X129135857Y-61674428D02*
X129281000Y-61674428D01*
X129426142Y-61747000D01*
X129498714Y-61819571D01*
X129571285Y-61964714D01*
X129643857Y-62255000D01*
X129643857Y-62617857D01*
X129571285Y-62908142D01*
X129498714Y-63053285D01*
X129426142Y-63125857D01*
X129281000Y-63198428D01*
X129135857Y-63198428D01*
X128990714Y-63125857D01*
X128918142Y-63053285D01*
X128845571Y-62908142D01*
X128773000Y-62617857D01*
X128773000Y-62255000D01*
X128845571Y-61964714D01*
X128918142Y-61819571D01*
X128990714Y-61747000D01*
X129135857Y-61674428D01*
X130587285Y-61674428D02*
X130732428Y-61674428D01*
X130877571Y-61747000D01*
X130950142Y-61819571D01*
X131022714Y-61964714D01*
X131095285Y-62255000D01*
X131095285Y-62617857D01*
X131022714Y-62908142D01*
X130950142Y-63053285D01*
X130877571Y-63125857D01*
X130732428Y-63198428D01*
X130587285Y-63198428D01*
X130442142Y-63125857D01*
X130369571Y-63053285D01*
X130297000Y-62908142D01*
X130224428Y-62617857D01*
X130224428Y-62255000D01*
X130297000Y-61964714D01*
X130369571Y-61819571D01*
X130442142Y-61747000D01*
X130587285Y-61674428D01*
X132401571Y-62182428D02*
X132401571Y-63198428D01*
X131748428Y-62182428D02*
X131748428Y-62980714D01*
X131821000Y-63125857D01*
X131966142Y-63198428D01*
X132183857Y-63198428D01*
X132329000Y-63125857D01*
X132401571Y-63053285D01*
X146516714Y-65579428D02*
X145645857Y-65579428D01*
X146081285Y-65579428D02*
X146081285Y-64055428D01*
X145936142Y-64273142D01*
X145791000Y-64418285D01*
X145645857Y-64490857D01*
X147169857Y-65434285D02*
X147242428Y-65506857D01*
X147169857Y-65579428D01*
X147097285Y-65506857D01*
X147169857Y-65434285D01*
X147169857Y-65579428D01*
X148185857Y-64055428D02*
X148331000Y-64055428D01*
X148476142Y-64128000D01*
X148548714Y-64200571D01*
X148621285Y-64345714D01*
X148693857Y-64636000D01*
X148693857Y-64998857D01*
X148621285Y-65289142D01*
X148548714Y-65434285D01*
X148476142Y-65506857D01*
X148331000Y-65579428D01*
X148185857Y-65579428D01*
X148040714Y-65506857D01*
X147968142Y-65434285D01*
X147895571Y-65289142D01*
X147823000Y-64998857D01*
X147823000Y-64636000D01*
X147895571Y-64345714D01*
X147968142Y-64200571D01*
X148040714Y-64128000D01*
X148185857Y-64055428D01*
X149637285Y-64055428D02*
X149782428Y-64055428D01*
X149927571Y-64128000D01*
X150000142Y-64200571D01*
X150072714Y-64345714D01*
X150145285Y-64636000D01*
X150145285Y-64998857D01*
X150072714Y-65289142D01*
X150000142Y-65434285D01*
X149927571Y-65506857D01*
X149782428Y-65579428D01*
X149637285Y-65579428D01*
X149492142Y-65506857D01*
X149419571Y-65434285D01*
X149347000Y-65289142D01*
X149274428Y-64998857D01*
X149274428Y-64636000D01*
X149347000Y-64345714D01*
X149419571Y-64200571D01*
X149492142Y-64128000D01*
X149637285Y-64055428D01*
X151451571Y-64563428D02*
X151451571Y-65579428D01*
X150798428Y-64563428D02*
X150798428Y-65361714D01*
X150871000Y-65506857D01*
X151016142Y-65579428D01*
X151233857Y-65579428D01*
X151379000Y-65506857D01*
X151451571Y-65434285D01*
X222219714Y-65499428D02*
X221348857Y-65499428D01*
X221784285Y-65499428D02*
X221784285Y-63975428D01*
X221639142Y-64193142D01*
X221494000Y-64338285D01*
X221348857Y-64410857D01*
X222872857Y-65354285D02*
X222945428Y-65426857D01*
X222872857Y-65499428D01*
X222800285Y-65426857D01*
X222872857Y-65354285D01*
X222872857Y-65499428D01*
X223888857Y-63975428D02*
X224034000Y-63975428D01*
X224179142Y-64048000D01*
X224251714Y-64120571D01*
X224324285Y-64265714D01*
X224396857Y-64556000D01*
X224396857Y-64918857D01*
X224324285Y-65209142D01*
X224251714Y-65354285D01*
X224179142Y-65426857D01*
X224034000Y-65499428D01*
X223888857Y-65499428D01*
X223743714Y-65426857D01*
X223671142Y-65354285D01*
X223598571Y-65209142D01*
X223526000Y-64918857D01*
X223526000Y-64556000D01*
X223598571Y-64265714D01*
X223671142Y-64120571D01*
X223743714Y-64048000D01*
X223888857Y-63975428D01*
X225340285Y-63975428D02*
X225485428Y-63975428D01*
X225630571Y-64048000D01*
X225703142Y-64120571D01*
X225775714Y-64265714D01*
X225848285Y-64556000D01*
X225848285Y-64918857D01*
X225775714Y-65209142D01*
X225703142Y-65354285D01*
X225630571Y-65426857D01*
X225485428Y-65499428D01*
X225340285Y-65499428D01*
X225195142Y-65426857D01*
X225122571Y-65354285D01*
X225050000Y-65209142D01*
X224977428Y-64918857D01*
X224977428Y-64556000D01*
X225050000Y-64265714D01*
X225122571Y-64120571D01*
X225195142Y-64048000D01*
X225340285Y-63975428D01*
X227154571Y-64483428D02*
X227154571Y-65499428D01*
X226501428Y-64483428D02*
X226501428Y-65281714D01*
X226574000Y-65426857D01*
X226719142Y-65499428D01*
X226936857Y-65499428D01*
X227082000Y-65426857D01*
X227154571Y-65354285D01*
X241269714Y-65488428D02*
X240398857Y-65488428D01*
X240834285Y-65488428D02*
X240834285Y-63964428D01*
X240689142Y-64182142D01*
X240544000Y-64327285D01*
X240398857Y-64399857D01*
X241922857Y-65343285D02*
X241995428Y-65415857D01*
X241922857Y-65488428D01*
X241850285Y-65415857D01*
X241922857Y-65343285D01*
X241922857Y-65488428D01*
X242938857Y-63964428D02*
X243084000Y-63964428D01*
X243229142Y-64037000D01*
X243301714Y-64109571D01*
X243374285Y-64254714D01*
X243446857Y-64545000D01*
X243446857Y-64907857D01*
X243374285Y-65198142D01*
X243301714Y-65343285D01*
X243229142Y-65415857D01*
X243084000Y-65488428D01*
X242938857Y-65488428D01*
X242793714Y-65415857D01*
X242721142Y-65343285D01*
X242648571Y-65198142D01*
X242576000Y-64907857D01*
X242576000Y-64545000D01*
X242648571Y-64254714D01*
X242721142Y-64109571D01*
X242793714Y-64037000D01*
X242938857Y-63964428D01*
X244390285Y-63964428D02*
X244535428Y-63964428D01*
X244680571Y-64037000D01*
X244753142Y-64109571D01*
X244825714Y-64254714D01*
X244898285Y-64545000D01*
X244898285Y-64907857D01*
X244825714Y-65198142D01*
X244753142Y-65343285D01*
X244680571Y-65415857D01*
X244535428Y-65488428D01*
X244390285Y-65488428D01*
X244245142Y-65415857D01*
X244172571Y-65343285D01*
X244100000Y-65198142D01*
X244027428Y-64907857D01*
X244027428Y-64545000D01*
X244100000Y-64254714D01*
X244172571Y-64109571D01*
X244245142Y-64037000D01*
X244390285Y-63964428D01*
X246204571Y-64472428D02*
X246204571Y-65488428D01*
X245551428Y-64472428D02*
X245551428Y-65270714D01*
X245624000Y-65415857D01*
X245769142Y-65488428D01*
X245986857Y-65488428D01*
X246132000Y-65415857D01*
X246204571Y-65343285D01*
X260319714Y-63107428D02*
X259448857Y-63107428D01*
X259884285Y-63107428D02*
X259884285Y-61583428D01*
X259739142Y-61801142D01*
X259594000Y-61946285D01*
X259448857Y-62018857D01*
X260972857Y-62962285D02*
X261045428Y-63034857D01*
X260972857Y-63107428D01*
X260900285Y-63034857D01*
X260972857Y-62962285D01*
X260972857Y-63107428D01*
X261988857Y-61583428D02*
X262134000Y-61583428D01*
X262279142Y-61656000D01*
X262351714Y-61728571D01*
X262424285Y-61873714D01*
X262496857Y-62164000D01*
X262496857Y-62526857D01*
X262424285Y-62817142D01*
X262351714Y-62962285D01*
X262279142Y-63034857D01*
X262134000Y-63107428D01*
X261988857Y-63107428D01*
X261843714Y-63034857D01*
X261771142Y-62962285D01*
X261698571Y-62817142D01*
X261626000Y-62526857D01*
X261626000Y-62164000D01*
X261698571Y-61873714D01*
X261771142Y-61728571D01*
X261843714Y-61656000D01*
X261988857Y-61583428D01*
X263440285Y-61583428D02*
X263585428Y-61583428D01*
X263730571Y-61656000D01*
X263803142Y-61728571D01*
X263875714Y-61873714D01*
X263948285Y-62164000D01*
X263948285Y-62526857D01*
X263875714Y-62817142D01*
X263803142Y-62962285D01*
X263730571Y-63034857D01*
X263585428Y-63107428D01*
X263440285Y-63107428D01*
X263295142Y-63034857D01*
X263222571Y-62962285D01*
X263150000Y-62817142D01*
X263077428Y-62526857D01*
X263077428Y-62164000D01*
X263150000Y-61873714D01*
X263222571Y-61728571D01*
X263295142Y-61656000D01*
X263440285Y-61583428D01*
X265254571Y-62091428D02*
X265254571Y-63107428D01*
X264601428Y-62091428D02*
X264601428Y-62889714D01*
X264674000Y-63034857D01*
X264819142Y-63107428D01*
X265036857Y-63107428D01*
X265182000Y-63034857D01*
X265254571Y-62962285D01*
X279866714Y-60817428D02*
X278995857Y-60817428D01*
X279431285Y-60817428D02*
X279431285Y-59293428D01*
X279286142Y-59511142D01*
X279141000Y-59656285D01*
X278995857Y-59728857D01*
X280519857Y-60672285D02*
X280592428Y-60744857D01*
X280519857Y-60817428D01*
X280447285Y-60744857D01*
X280519857Y-60672285D01*
X280519857Y-60817428D01*
X281535857Y-59293428D02*
X281681000Y-59293428D01*
X281826142Y-59366000D01*
X281898714Y-59438571D01*
X281971285Y-59583714D01*
X282043857Y-59874000D01*
X282043857Y-60236857D01*
X281971285Y-60527142D01*
X281898714Y-60672285D01*
X281826142Y-60744857D01*
X281681000Y-60817428D01*
X281535857Y-60817428D01*
X281390714Y-60744857D01*
X281318142Y-60672285D01*
X281245571Y-60527142D01*
X281173000Y-60236857D01*
X281173000Y-59874000D01*
X281245571Y-59583714D01*
X281318142Y-59438571D01*
X281390714Y-59366000D01*
X281535857Y-59293428D01*
X282987285Y-59293428D02*
X283132428Y-59293428D01*
X283277571Y-59366000D01*
X283350142Y-59438571D01*
X283422714Y-59583714D01*
X283495285Y-59874000D01*
X283495285Y-60236857D01*
X283422714Y-60527142D01*
X283350142Y-60672285D01*
X283277571Y-60744857D01*
X283132428Y-60817428D01*
X282987285Y-60817428D01*
X282842142Y-60744857D01*
X282769571Y-60672285D01*
X282697000Y-60527142D01*
X282624428Y-60236857D01*
X282624428Y-59874000D01*
X282697000Y-59583714D01*
X282769571Y-59438571D01*
X282842142Y-59366000D01*
X282987285Y-59293428D01*
X284801571Y-59801428D02*
X284801571Y-60817428D01*
X284148428Y-59801428D02*
X284148428Y-60599714D01*
X284221000Y-60744857D01*
X284366142Y-60817428D01*
X284583857Y-60817428D01*
X284729000Y-60744857D01*
X284801571Y-60672285D01*
X298419714Y-63118428D02*
X297548857Y-63118428D01*
X297984285Y-63118428D02*
X297984285Y-61594428D01*
X297839142Y-61812142D01*
X297694000Y-61957285D01*
X297548857Y-62029857D01*
X299072857Y-62973285D02*
X299145428Y-63045857D01*
X299072857Y-63118428D01*
X299000285Y-63045857D01*
X299072857Y-62973285D01*
X299072857Y-63118428D01*
X300088857Y-61594428D02*
X300234000Y-61594428D01*
X300379142Y-61667000D01*
X300451714Y-61739571D01*
X300524285Y-61884714D01*
X300596857Y-62175000D01*
X300596857Y-62537857D01*
X300524285Y-62828142D01*
X300451714Y-62973285D01*
X300379142Y-63045857D01*
X300234000Y-63118428D01*
X300088857Y-63118428D01*
X299943714Y-63045857D01*
X299871142Y-62973285D01*
X299798571Y-62828142D01*
X299726000Y-62537857D01*
X299726000Y-62175000D01*
X299798571Y-61884714D01*
X299871142Y-61739571D01*
X299943714Y-61667000D01*
X300088857Y-61594428D01*
X301540285Y-61594428D02*
X301685428Y-61594428D01*
X301830571Y-61667000D01*
X301903142Y-61739571D01*
X301975714Y-61884714D01*
X302048285Y-62175000D01*
X302048285Y-62537857D01*
X301975714Y-62828142D01*
X301903142Y-62973285D01*
X301830571Y-63045857D01*
X301685428Y-63118428D01*
X301540285Y-63118428D01*
X301395142Y-63045857D01*
X301322571Y-62973285D01*
X301250000Y-62828142D01*
X301177428Y-62537857D01*
X301177428Y-62175000D01*
X301250000Y-61884714D01*
X301322571Y-61739571D01*
X301395142Y-61667000D01*
X301540285Y-61594428D01*
X303354571Y-62102428D02*
X303354571Y-63118428D01*
X302701428Y-62102428D02*
X302701428Y-62900714D01*
X302774000Y-63045857D01*
X302919142Y-63118428D01*
X303136857Y-63118428D01*
X303282000Y-63045857D01*
X303354571Y-62973285D01*
X317469714Y-67884428D02*
X316598857Y-67884428D01*
X317034285Y-67884428D02*
X317034285Y-66360428D01*
X316889142Y-66578142D01*
X316744000Y-66723285D01*
X316598857Y-66795857D01*
X318122857Y-67739285D02*
X318195428Y-67811857D01*
X318122857Y-67884428D01*
X318050285Y-67811857D01*
X318122857Y-67739285D01*
X318122857Y-67884428D01*
X319138857Y-66360428D02*
X319284000Y-66360428D01*
X319429142Y-66433000D01*
X319501714Y-66505571D01*
X319574285Y-66650714D01*
X319646857Y-66941000D01*
X319646857Y-67303857D01*
X319574285Y-67594142D01*
X319501714Y-67739285D01*
X319429142Y-67811857D01*
X319284000Y-67884428D01*
X319138857Y-67884428D01*
X318993714Y-67811857D01*
X318921142Y-67739285D01*
X318848571Y-67594142D01*
X318776000Y-67303857D01*
X318776000Y-66941000D01*
X318848571Y-66650714D01*
X318921142Y-66505571D01*
X318993714Y-66433000D01*
X319138857Y-66360428D01*
X320590285Y-66360428D02*
X320735428Y-66360428D01*
X320880571Y-66433000D01*
X320953142Y-66505571D01*
X321025714Y-66650714D01*
X321098285Y-66941000D01*
X321098285Y-67303857D01*
X321025714Y-67594142D01*
X320953142Y-67739285D01*
X320880571Y-67811857D01*
X320735428Y-67884428D01*
X320590285Y-67884428D01*
X320445142Y-67811857D01*
X320372571Y-67739285D01*
X320300000Y-67594142D01*
X320227428Y-67303857D01*
X320227428Y-66941000D01*
X320300000Y-66650714D01*
X320372571Y-66505571D01*
X320445142Y-66433000D01*
X320590285Y-66360428D01*
X322404571Y-66868428D02*
X322404571Y-67884428D01*
X321751428Y-66868428D02*
X321751428Y-67666714D01*
X321824000Y-67811857D01*
X321969142Y-67884428D01*
X322186857Y-67884428D01*
X322332000Y-67811857D01*
X322404571Y-67739285D01*
X336520214Y-67869428D02*
X335649357Y-67869428D01*
X336084785Y-67869428D02*
X336084785Y-66345428D01*
X335939642Y-66563142D01*
X335794500Y-66708285D01*
X335649357Y-66780857D01*
X337173357Y-67724285D02*
X337245928Y-67796857D01*
X337173357Y-67869428D01*
X337100785Y-67796857D01*
X337173357Y-67724285D01*
X337173357Y-67869428D01*
X338624785Y-66345428D02*
X337899071Y-66345428D01*
X337826500Y-67071142D01*
X337899071Y-66998571D01*
X338044214Y-66926000D01*
X338407071Y-66926000D01*
X338552214Y-66998571D01*
X338624785Y-67071142D01*
X338697357Y-67216285D01*
X338697357Y-67579142D01*
X338624785Y-67724285D01*
X338552214Y-67796857D01*
X338407071Y-67869428D01*
X338044214Y-67869428D01*
X337899071Y-67796857D01*
X337826500Y-67724285D01*
X339640785Y-66345428D02*
X339785928Y-66345428D01*
X339931071Y-66418000D01*
X340003642Y-66490571D01*
X340076214Y-66635714D01*
X340148785Y-66926000D01*
X340148785Y-67288857D01*
X340076214Y-67579142D01*
X340003642Y-67724285D01*
X339931071Y-67796857D01*
X339785928Y-67869428D01*
X339640785Y-67869428D01*
X339495642Y-67796857D01*
X339423071Y-67724285D01*
X339350500Y-67579142D01*
X339277928Y-67288857D01*
X339277928Y-66926000D01*
X339350500Y-66635714D01*
X339423071Y-66490571D01*
X339495642Y-66418000D01*
X339640785Y-66345428D01*
X341455071Y-66853428D02*
X341455071Y-67869428D01*
X340801928Y-66853428D02*
X340801928Y-67651714D01*
X340874500Y-67796857D01*
X341019642Y-67869428D01*
X341237357Y-67869428D01*
X341382500Y-67796857D01*
X341455071Y-67724285D01*
X70316714Y-87010428D02*
X69445857Y-87010428D01*
X69881285Y-87010428D02*
X69881285Y-85486428D01*
X69736142Y-85704142D01*
X69591000Y-85849285D01*
X69445857Y-85921857D01*
X70969857Y-86865285D02*
X71042428Y-86937857D01*
X70969857Y-87010428D01*
X70897285Y-86937857D01*
X70969857Y-86865285D01*
X70969857Y-87010428D01*
X71985857Y-85486428D02*
X72131000Y-85486428D01*
X72276142Y-85559000D01*
X72348714Y-85631571D01*
X72421285Y-85776714D01*
X72493857Y-86067000D01*
X72493857Y-86429857D01*
X72421285Y-86720142D01*
X72348714Y-86865285D01*
X72276142Y-86937857D01*
X72131000Y-87010428D01*
X71985857Y-87010428D01*
X71840714Y-86937857D01*
X71768142Y-86865285D01*
X71695571Y-86720142D01*
X71623000Y-86429857D01*
X71623000Y-86067000D01*
X71695571Y-85776714D01*
X71768142Y-85631571D01*
X71840714Y-85559000D01*
X71985857Y-85486428D01*
X73437285Y-85486428D02*
X73582428Y-85486428D01*
X73727571Y-85559000D01*
X73800142Y-85631571D01*
X73872714Y-85776714D01*
X73945285Y-86067000D01*
X73945285Y-86429857D01*
X73872714Y-86720142D01*
X73800142Y-86865285D01*
X73727571Y-86937857D01*
X73582428Y-87010428D01*
X73437285Y-87010428D01*
X73292142Y-86937857D01*
X73219571Y-86865285D01*
X73147000Y-86720142D01*
X73074428Y-86429857D01*
X73074428Y-86067000D01*
X73147000Y-85776714D01*
X73219571Y-85631571D01*
X73292142Y-85559000D01*
X73437285Y-85486428D01*
X75251571Y-85994428D02*
X75251571Y-87010428D01*
X74598428Y-85994428D02*
X74598428Y-86792714D01*
X74671000Y-86937857D01*
X74816142Y-87010428D01*
X75033857Y-87010428D01*
X75179000Y-86937857D01*
X75251571Y-86865285D01*
X89366714Y-82248428D02*
X88495857Y-82248428D01*
X88931285Y-82248428D02*
X88931285Y-80724428D01*
X88786142Y-80942142D01*
X88641000Y-81087285D01*
X88495857Y-81159857D01*
X90019857Y-82103285D02*
X90092428Y-82175857D01*
X90019857Y-82248428D01*
X89947285Y-82175857D01*
X90019857Y-82103285D01*
X90019857Y-82248428D01*
X91035857Y-80724428D02*
X91181000Y-80724428D01*
X91326142Y-80797000D01*
X91398714Y-80869571D01*
X91471285Y-81014714D01*
X91543857Y-81305000D01*
X91543857Y-81667857D01*
X91471285Y-81958142D01*
X91398714Y-82103285D01*
X91326142Y-82175857D01*
X91181000Y-82248428D01*
X91035857Y-82248428D01*
X90890714Y-82175857D01*
X90818142Y-82103285D01*
X90745571Y-81958142D01*
X90673000Y-81667857D01*
X90673000Y-81305000D01*
X90745571Y-81014714D01*
X90818142Y-80869571D01*
X90890714Y-80797000D01*
X91035857Y-80724428D01*
X92487285Y-80724428D02*
X92632428Y-80724428D01*
X92777571Y-80797000D01*
X92850142Y-80869571D01*
X92922714Y-81014714D01*
X92995285Y-81305000D01*
X92995285Y-81667857D01*
X92922714Y-81958142D01*
X92850142Y-82103285D01*
X92777571Y-82175857D01*
X92632428Y-82248428D01*
X92487285Y-82248428D01*
X92342142Y-82175857D01*
X92269571Y-82103285D01*
X92197000Y-81958142D01*
X92124428Y-81667857D01*
X92124428Y-81305000D01*
X92197000Y-81014714D01*
X92269571Y-80869571D01*
X92342142Y-80797000D01*
X92487285Y-80724428D01*
X94301571Y-81232428D02*
X94301571Y-82248428D01*
X93648428Y-81232428D02*
X93648428Y-82030714D01*
X93721000Y-82175857D01*
X93866142Y-82248428D01*
X94083857Y-82248428D01*
X94229000Y-82175857D01*
X94301571Y-82103285D01*
X108416714Y-79867428D02*
X107545857Y-79867428D01*
X107981285Y-79867428D02*
X107981285Y-78343428D01*
X107836142Y-78561142D01*
X107691000Y-78706285D01*
X107545857Y-78778857D01*
X109069857Y-79722285D02*
X109142428Y-79794857D01*
X109069857Y-79867428D01*
X108997285Y-79794857D01*
X109069857Y-79722285D01*
X109069857Y-79867428D01*
X110085857Y-78343428D02*
X110231000Y-78343428D01*
X110376142Y-78416000D01*
X110448714Y-78488571D01*
X110521285Y-78633714D01*
X110593857Y-78924000D01*
X110593857Y-79286857D01*
X110521285Y-79577142D01*
X110448714Y-79722285D01*
X110376142Y-79794857D01*
X110231000Y-79867428D01*
X110085857Y-79867428D01*
X109940714Y-79794857D01*
X109868142Y-79722285D01*
X109795571Y-79577142D01*
X109723000Y-79286857D01*
X109723000Y-78924000D01*
X109795571Y-78633714D01*
X109868142Y-78488571D01*
X109940714Y-78416000D01*
X110085857Y-78343428D01*
X111537285Y-78343428D02*
X111682428Y-78343428D01*
X111827571Y-78416000D01*
X111900142Y-78488571D01*
X111972714Y-78633714D01*
X112045285Y-78924000D01*
X112045285Y-79286857D01*
X111972714Y-79577142D01*
X111900142Y-79722285D01*
X111827571Y-79794857D01*
X111682428Y-79867428D01*
X111537285Y-79867428D01*
X111392142Y-79794857D01*
X111319571Y-79722285D01*
X111247000Y-79577142D01*
X111174428Y-79286857D01*
X111174428Y-78924000D01*
X111247000Y-78633714D01*
X111319571Y-78488571D01*
X111392142Y-78416000D01*
X111537285Y-78343428D01*
X113351571Y-78851428D02*
X113351571Y-79867428D01*
X112698428Y-78851428D02*
X112698428Y-79649714D01*
X112771000Y-79794857D01*
X112916142Y-79867428D01*
X113133857Y-79867428D01*
X113279000Y-79794857D01*
X113351571Y-79722285D01*
X127466714Y-82248428D02*
X126595857Y-82248428D01*
X127031285Y-82248428D02*
X127031285Y-80724428D01*
X126886142Y-80942142D01*
X126741000Y-81087285D01*
X126595857Y-81159857D01*
X128119857Y-82103285D02*
X128192428Y-82175857D01*
X128119857Y-82248428D01*
X128047285Y-82175857D01*
X128119857Y-82103285D01*
X128119857Y-82248428D01*
X129135857Y-80724428D02*
X129281000Y-80724428D01*
X129426142Y-80797000D01*
X129498714Y-80869571D01*
X129571285Y-81014714D01*
X129643857Y-81305000D01*
X129643857Y-81667857D01*
X129571285Y-81958142D01*
X129498714Y-82103285D01*
X129426142Y-82175857D01*
X129281000Y-82248428D01*
X129135857Y-82248428D01*
X128990714Y-82175857D01*
X128918142Y-82103285D01*
X128845571Y-81958142D01*
X128773000Y-81667857D01*
X128773000Y-81305000D01*
X128845571Y-81014714D01*
X128918142Y-80869571D01*
X128990714Y-80797000D01*
X129135857Y-80724428D01*
X130587285Y-80724428D02*
X130732428Y-80724428D01*
X130877571Y-80797000D01*
X130950142Y-80869571D01*
X131022714Y-81014714D01*
X131095285Y-81305000D01*
X131095285Y-81667857D01*
X131022714Y-81958142D01*
X130950142Y-82103285D01*
X130877571Y-82175857D01*
X130732428Y-82248428D01*
X130587285Y-82248428D01*
X130442142Y-82175857D01*
X130369571Y-82103285D01*
X130297000Y-81958142D01*
X130224428Y-81667857D01*
X130224428Y-81305000D01*
X130297000Y-81014714D01*
X130369571Y-80869571D01*
X130442142Y-80797000D01*
X130587285Y-80724428D01*
X132401571Y-81232428D02*
X132401571Y-82248428D01*
X131748428Y-81232428D02*
X131748428Y-82030714D01*
X131821000Y-82175857D01*
X131966142Y-82248428D01*
X132183857Y-82248428D01*
X132329000Y-82175857D01*
X132401571Y-82103285D01*
X146516714Y-84629428D02*
X145645857Y-84629428D01*
X146081285Y-84629428D02*
X146081285Y-83105428D01*
X145936142Y-83323142D01*
X145791000Y-83468285D01*
X145645857Y-83540857D01*
X147169857Y-84484285D02*
X147242428Y-84556857D01*
X147169857Y-84629428D01*
X147097285Y-84556857D01*
X147169857Y-84484285D01*
X147169857Y-84629428D01*
X148185857Y-83105428D02*
X148331000Y-83105428D01*
X148476142Y-83178000D01*
X148548714Y-83250571D01*
X148621285Y-83395714D01*
X148693857Y-83686000D01*
X148693857Y-84048857D01*
X148621285Y-84339142D01*
X148548714Y-84484285D01*
X148476142Y-84556857D01*
X148331000Y-84629428D01*
X148185857Y-84629428D01*
X148040714Y-84556857D01*
X147968142Y-84484285D01*
X147895571Y-84339142D01*
X147823000Y-84048857D01*
X147823000Y-83686000D01*
X147895571Y-83395714D01*
X147968142Y-83250571D01*
X148040714Y-83178000D01*
X148185857Y-83105428D01*
X149637285Y-83105428D02*
X149782428Y-83105428D01*
X149927571Y-83178000D01*
X150000142Y-83250571D01*
X150072714Y-83395714D01*
X150145285Y-83686000D01*
X150145285Y-84048857D01*
X150072714Y-84339142D01*
X150000142Y-84484285D01*
X149927571Y-84556857D01*
X149782428Y-84629428D01*
X149637285Y-84629428D01*
X149492142Y-84556857D01*
X149419571Y-84484285D01*
X149347000Y-84339142D01*
X149274428Y-84048857D01*
X149274428Y-83686000D01*
X149347000Y-83395714D01*
X149419571Y-83250571D01*
X149492142Y-83178000D01*
X149637285Y-83105428D01*
X151451571Y-83613428D02*
X151451571Y-84629428D01*
X150798428Y-83613428D02*
X150798428Y-84411714D01*
X150871000Y-84556857D01*
X151016142Y-84629428D01*
X151233857Y-84629428D01*
X151379000Y-84556857D01*
X151451571Y-84484285D01*
X165566714Y-84629428D02*
X164695857Y-84629428D01*
X165131285Y-84629428D02*
X165131285Y-83105428D01*
X164986142Y-83323142D01*
X164841000Y-83468285D01*
X164695857Y-83540857D01*
X166219857Y-84484285D02*
X166292428Y-84556857D01*
X166219857Y-84629428D01*
X166147285Y-84556857D01*
X166219857Y-84484285D01*
X166219857Y-84629428D01*
X167235857Y-83105428D02*
X167381000Y-83105428D01*
X167526142Y-83178000D01*
X167598714Y-83250571D01*
X167671285Y-83395714D01*
X167743857Y-83686000D01*
X167743857Y-84048857D01*
X167671285Y-84339142D01*
X167598714Y-84484285D01*
X167526142Y-84556857D01*
X167381000Y-84629428D01*
X167235857Y-84629428D01*
X167090714Y-84556857D01*
X167018142Y-84484285D01*
X166945571Y-84339142D01*
X166873000Y-84048857D01*
X166873000Y-83686000D01*
X166945571Y-83395714D01*
X167018142Y-83250571D01*
X167090714Y-83178000D01*
X167235857Y-83105428D01*
X168687285Y-83105428D02*
X168832428Y-83105428D01*
X168977571Y-83178000D01*
X169050142Y-83250571D01*
X169122714Y-83395714D01*
X169195285Y-83686000D01*
X169195285Y-84048857D01*
X169122714Y-84339142D01*
X169050142Y-84484285D01*
X168977571Y-84556857D01*
X168832428Y-84629428D01*
X168687285Y-84629428D01*
X168542142Y-84556857D01*
X168469571Y-84484285D01*
X168397000Y-84339142D01*
X168324428Y-84048857D01*
X168324428Y-83686000D01*
X168397000Y-83395714D01*
X168469571Y-83250571D01*
X168542142Y-83178000D01*
X168687285Y-83105428D01*
X170501571Y-83613428D02*
X170501571Y-84629428D01*
X169848428Y-83613428D02*
X169848428Y-84411714D01*
X169921000Y-84556857D01*
X170066142Y-84629428D01*
X170283857Y-84629428D01*
X170429000Y-84556857D01*
X170501571Y-84484285D01*
X222219714Y-84544428D02*
X221348857Y-84544428D01*
X221784285Y-84544428D02*
X221784285Y-83020428D01*
X221639142Y-83238142D01*
X221494000Y-83383285D01*
X221348857Y-83455857D01*
X222872857Y-84399285D02*
X222945428Y-84471857D01*
X222872857Y-84544428D01*
X222800285Y-84471857D01*
X222872857Y-84399285D01*
X222872857Y-84544428D01*
X223888857Y-83020428D02*
X224034000Y-83020428D01*
X224179142Y-83093000D01*
X224251714Y-83165571D01*
X224324285Y-83310714D01*
X224396857Y-83601000D01*
X224396857Y-83963857D01*
X224324285Y-84254142D01*
X224251714Y-84399285D01*
X224179142Y-84471857D01*
X224034000Y-84544428D01*
X223888857Y-84544428D01*
X223743714Y-84471857D01*
X223671142Y-84399285D01*
X223598571Y-84254142D01*
X223526000Y-83963857D01*
X223526000Y-83601000D01*
X223598571Y-83310714D01*
X223671142Y-83165571D01*
X223743714Y-83093000D01*
X223888857Y-83020428D01*
X225340285Y-83020428D02*
X225485428Y-83020428D01*
X225630571Y-83093000D01*
X225703142Y-83165571D01*
X225775714Y-83310714D01*
X225848285Y-83601000D01*
X225848285Y-83963857D01*
X225775714Y-84254142D01*
X225703142Y-84399285D01*
X225630571Y-84471857D01*
X225485428Y-84544428D01*
X225340285Y-84544428D01*
X225195142Y-84471857D01*
X225122571Y-84399285D01*
X225050000Y-84254142D01*
X224977428Y-83963857D01*
X224977428Y-83601000D01*
X225050000Y-83310714D01*
X225122571Y-83165571D01*
X225195142Y-83093000D01*
X225340285Y-83020428D01*
X227154571Y-83528428D02*
X227154571Y-84544428D01*
X226501428Y-83528428D02*
X226501428Y-84326714D01*
X226574000Y-84471857D01*
X226719142Y-84544428D01*
X226936857Y-84544428D01*
X227082000Y-84471857D01*
X227154571Y-84399285D01*
X260319714Y-82155428D02*
X259448857Y-82155428D01*
X259884285Y-82155428D02*
X259884285Y-80631428D01*
X259739142Y-80849142D01*
X259594000Y-80994285D01*
X259448857Y-81066857D01*
X260972857Y-82010285D02*
X261045428Y-82082857D01*
X260972857Y-82155428D01*
X260900285Y-82082857D01*
X260972857Y-82010285D01*
X260972857Y-82155428D01*
X261988857Y-80631428D02*
X262134000Y-80631428D01*
X262279142Y-80704000D01*
X262351714Y-80776571D01*
X262424285Y-80921714D01*
X262496857Y-81212000D01*
X262496857Y-81574857D01*
X262424285Y-81865142D01*
X262351714Y-82010285D01*
X262279142Y-82082857D01*
X262134000Y-82155428D01*
X261988857Y-82155428D01*
X261843714Y-82082857D01*
X261771142Y-82010285D01*
X261698571Y-81865142D01*
X261626000Y-81574857D01*
X261626000Y-81212000D01*
X261698571Y-80921714D01*
X261771142Y-80776571D01*
X261843714Y-80704000D01*
X261988857Y-80631428D01*
X263440285Y-80631428D02*
X263585428Y-80631428D01*
X263730571Y-80704000D01*
X263803142Y-80776571D01*
X263875714Y-80921714D01*
X263948285Y-81212000D01*
X263948285Y-81574857D01*
X263875714Y-81865142D01*
X263803142Y-82010285D01*
X263730571Y-82082857D01*
X263585428Y-82155428D01*
X263440285Y-82155428D01*
X263295142Y-82082857D01*
X263222571Y-82010285D01*
X263150000Y-81865142D01*
X263077428Y-81574857D01*
X263077428Y-81212000D01*
X263150000Y-80921714D01*
X263222571Y-80776571D01*
X263295142Y-80704000D01*
X263440285Y-80631428D01*
X265254571Y-81139428D02*
X265254571Y-82155428D01*
X264601428Y-81139428D02*
X264601428Y-81937714D01*
X264674000Y-82082857D01*
X264819142Y-82155428D01*
X265036857Y-82155428D01*
X265182000Y-82082857D01*
X265254571Y-82010285D01*
X279369714Y-79793428D02*
X278498857Y-79793428D01*
X278934285Y-79793428D02*
X278934285Y-78269428D01*
X278789142Y-78487142D01*
X278644000Y-78632285D01*
X278498857Y-78704857D01*
X280022857Y-79648285D02*
X280095428Y-79720857D01*
X280022857Y-79793428D01*
X279950285Y-79720857D01*
X280022857Y-79648285D01*
X280022857Y-79793428D01*
X281038857Y-78269428D02*
X281184000Y-78269428D01*
X281329142Y-78342000D01*
X281401714Y-78414571D01*
X281474285Y-78559714D01*
X281546857Y-78850000D01*
X281546857Y-79212857D01*
X281474285Y-79503142D01*
X281401714Y-79648285D01*
X281329142Y-79720857D01*
X281184000Y-79793428D01*
X281038857Y-79793428D01*
X280893714Y-79720857D01*
X280821142Y-79648285D01*
X280748571Y-79503142D01*
X280676000Y-79212857D01*
X280676000Y-78850000D01*
X280748571Y-78559714D01*
X280821142Y-78414571D01*
X280893714Y-78342000D01*
X281038857Y-78269428D01*
X282490285Y-78269428D02*
X282635428Y-78269428D01*
X282780571Y-78342000D01*
X282853142Y-78414571D01*
X282925714Y-78559714D01*
X282998285Y-78850000D01*
X282998285Y-79212857D01*
X282925714Y-79503142D01*
X282853142Y-79648285D01*
X282780571Y-79720857D01*
X282635428Y-79793428D01*
X282490285Y-79793428D01*
X282345142Y-79720857D01*
X282272571Y-79648285D01*
X282200000Y-79503142D01*
X282127428Y-79212857D01*
X282127428Y-78850000D01*
X282200000Y-78559714D01*
X282272571Y-78414571D01*
X282345142Y-78342000D01*
X282490285Y-78269428D01*
X284304571Y-78777428D02*
X284304571Y-79793428D01*
X283651428Y-78777428D02*
X283651428Y-79575714D01*
X283724000Y-79720857D01*
X283869142Y-79793428D01*
X284086857Y-79793428D01*
X284232000Y-79720857D01*
X284304571Y-79648285D01*
X298419714Y-82161428D02*
X297548857Y-82161428D01*
X297984285Y-82161428D02*
X297984285Y-80637428D01*
X297839142Y-80855142D01*
X297694000Y-81000285D01*
X297548857Y-81072857D01*
X299072857Y-82016285D02*
X299145428Y-82088857D01*
X299072857Y-82161428D01*
X299000285Y-82088857D01*
X299072857Y-82016285D01*
X299072857Y-82161428D01*
X300088857Y-80637428D02*
X300234000Y-80637428D01*
X300379142Y-80710000D01*
X300451714Y-80782571D01*
X300524285Y-80927714D01*
X300596857Y-81218000D01*
X300596857Y-81580857D01*
X300524285Y-81871142D01*
X300451714Y-82016285D01*
X300379142Y-82088857D01*
X300234000Y-82161428D01*
X300088857Y-82161428D01*
X299943714Y-82088857D01*
X299871142Y-82016285D01*
X299798571Y-81871142D01*
X299726000Y-81580857D01*
X299726000Y-81218000D01*
X299798571Y-80927714D01*
X299871142Y-80782571D01*
X299943714Y-80710000D01*
X300088857Y-80637428D01*
X301540285Y-80637428D02*
X301685428Y-80637428D01*
X301830571Y-80710000D01*
X301903142Y-80782571D01*
X301975714Y-80927714D01*
X302048285Y-81218000D01*
X302048285Y-81580857D01*
X301975714Y-81871142D01*
X301903142Y-82016285D01*
X301830571Y-82088857D01*
X301685428Y-82161428D01*
X301540285Y-82161428D01*
X301395142Y-82088857D01*
X301322571Y-82016285D01*
X301250000Y-81871142D01*
X301177428Y-81580857D01*
X301177428Y-81218000D01*
X301250000Y-80927714D01*
X301322571Y-80782571D01*
X301395142Y-80710000D01*
X301540285Y-80637428D01*
X303354571Y-81145428D02*
X303354571Y-82161428D01*
X302701428Y-81145428D02*
X302701428Y-81943714D01*
X302774000Y-82088857D01*
X302919142Y-82161428D01*
X303136857Y-82161428D01*
X303282000Y-82088857D01*
X303354571Y-82016285D01*
X317469714Y-86922428D02*
X316598857Y-86922428D01*
X317034285Y-86922428D02*
X317034285Y-85398428D01*
X316889142Y-85616142D01*
X316744000Y-85761285D01*
X316598857Y-85833857D01*
X318122857Y-86777285D02*
X318195428Y-86849857D01*
X318122857Y-86922428D01*
X318050285Y-86849857D01*
X318122857Y-86777285D01*
X318122857Y-86922428D01*
X319138857Y-85398428D02*
X319284000Y-85398428D01*
X319429142Y-85471000D01*
X319501714Y-85543571D01*
X319574285Y-85688714D01*
X319646857Y-85979000D01*
X319646857Y-86341857D01*
X319574285Y-86632142D01*
X319501714Y-86777285D01*
X319429142Y-86849857D01*
X319284000Y-86922428D01*
X319138857Y-86922428D01*
X318993714Y-86849857D01*
X318921142Y-86777285D01*
X318848571Y-86632142D01*
X318776000Y-86341857D01*
X318776000Y-85979000D01*
X318848571Y-85688714D01*
X318921142Y-85543571D01*
X318993714Y-85471000D01*
X319138857Y-85398428D01*
X320590285Y-85398428D02*
X320735428Y-85398428D01*
X320880571Y-85471000D01*
X320953142Y-85543571D01*
X321025714Y-85688714D01*
X321098285Y-85979000D01*
X321098285Y-86341857D01*
X321025714Y-86632142D01*
X320953142Y-86777285D01*
X320880571Y-86849857D01*
X320735428Y-86922428D01*
X320590285Y-86922428D01*
X320445142Y-86849857D01*
X320372571Y-86777285D01*
X320300000Y-86632142D01*
X320227428Y-86341857D01*
X320227428Y-85979000D01*
X320300000Y-85688714D01*
X320372571Y-85543571D01*
X320445142Y-85471000D01*
X320590285Y-85398428D01*
X322404571Y-85906428D02*
X322404571Y-86922428D01*
X321751428Y-85906428D02*
X321751428Y-86704714D01*
X321824000Y-86849857D01*
X321969142Y-86922428D01*
X322186857Y-86922428D01*
X322332000Y-86849857D01*
X322404571Y-86777285D01*
X336518694Y-86914428D02*
X335647837Y-86914428D01*
X336083265Y-86914428D02*
X336083265Y-85390428D01*
X335938122Y-85608142D01*
X335792980Y-85753285D01*
X335647837Y-85825857D01*
X337171837Y-86769285D02*
X337244408Y-86841857D01*
X337171837Y-86914428D01*
X337099265Y-86841857D01*
X337171837Y-86769285D01*
X337171837Y-86914428D01*
X337752408Y-85390428D02*
X338768408Y-85390428D01*
X338115265Y-86914428D01*
X340074694Y-85390428D02*
X339348980Y-85390428D01*
X339276408Y-86116142D01*
X339348980Y-86043571D01*
X339494122Y-85971000D01*
X339856980Y-85971000D01*
X340002122Y-86043571D01*
X340074694Y-86116142D01*
X340147265Y-86261285D01*
X340147265Y-86624142D01*
X340074694Y-86769285D01*
X340002122Y-86841857D01*
X339856980Y-86914428D01*
X339494122Y-86914428D01*
X339348980Y-86841857D01*
X339276408Y-86769285D01*
X341453551Y-85898428D02*
X341453551Y-86914428D01*
X340800408Y-85898428D02*
X340800408Y-86696714D01*
X340872980Y-86841857D01*
X341018122Y-86914428D01*
X341235837Y-86914428D01*
X341380980Y-86841857D01*
X341453551Y-86769285D01*
X89366714Y-101298428D02*
X88495857Y-101298428D01*
X88931285Y-101298428D02*
X88931285Y-99774428D01*
X88786142Y-99992142D01*
X88641000Y-100137285D01*
X88495857Y-100209857D01*
X90019857Y-101153285D02*
X90092428Y-101225857D01*
X90019857Y-101298428D01*
X89947285Y-101225857D01*
X90019857Y-101153285D01*
X90019857Y-101298428D01*
X91035857Y-99774428D02*
X91181000Y-99774428D01*
X91326142Y-99847000D01*
X91398714Y-99919571D01*
X91471285Y-100064714D01*
X91543857Y-100355000D01*
X91543857Y-100717857D01*
X91471285Y-101008142D01*
X91398714Y-101153285D01*
X91326142Y-101225857D01*
X91181000Y-101298428D01*
X91035857Y-101298428D01*
X90890714Y-101225857D01*
X90818142Y-101153285D01*
X90745571Y-101008142D01*
X90673000Y-100717857D01*
X90673000Y-100355000D01*
X90745571Y-100064714D01*
X90818142Y-99919571D01*
X90890714Y-99847000D01*
X91035857Y-99774428D01*
X92487285Y-99774428D02*
X92632428Y-99774428D01*
X92777571Y-99847000D01*
X92850142Y-99919571D01*
X92922714Y-100064714D01*
X92995285Y-100355000D01*
X92995285Y-100717857D01*
X92922714Y-101008142D01*
X92850142Y-101153285D01*
X92777571Y-101225857D01*
X92632428Y-101298428D01*
X92487285Y-101298428D01*
X92342142Y-101225857D01*
X92269571Y-101153285D01*
X92197000Y-101008142D01*
X92124428Y-100717857D01*
X92124428Y-100355000D01*
X92197000Y-100064714D01*
X92269571Y-99919571D01*
X92342142Y-99847000D01*
X92487285Y-99774428D01*
X94301571Y-100282428D02*
X94301571Y-101298428D01*
X93648428Y-100282428D02*
X93648428Y-101080714D01*
X93721000Y-101225857D01*
X93866142Y-101298428D01*
X94083857Y-101298428D01*
X94229000Y-101225857D01*
X94301571Y-101153285D01*
X108416714Y-98917428D02*
X107545857Y-98917428D01*
X107981285Y-98917428D02*
X107981285Y-97393428D01*
X107836142Y-97611142D01*
X107691000Y-97756285D01*
X107545857Y-97828857D01*
X109069857Y-98772285D02*
X109142428Y-98844857D01*
X109069857Y-98917428D01*
X108997285Y-98844857D01*
X109069857Y-98772285D01*
X109069857Y-98917428D01*
X110085857Y-97393428D02*
X110231000Y-97393428D01*
X110376142Y-97466000D01*
X110448714Y-97538571D01*
X110521285Y-97683714D01*
X110593857Y-97974000D01*
X110593857Y-98336857D01*
X110521285Y-98627142D01*
X110448714Y-98772285D01*
X110376142Y-98844857D01*
X110231000Y-98917428D01*
X110085857Y-98917428D01*
X109940714Y-98844857D01*
X109868142Y-98772285D01*
X109795571Y-98627142D01*
X109723000Y-98336857D01*
X109723000Y-97974000D01*
X109795571Y-97683714D01*
X109868142Y-97538571D01*
X109940714Y-97466000D01*
X110085857Y-97393428D01*
X111537285Y-97393428D02*
X111682428Y-97393428D01*
X111827571Y-97466000D01*
X111900142Y-97538571D01*
X111972714Y-97683714D01*
X112045285Y-97974000D01*
X112045285Y-98336857D01*
X111972714Y-98627142D01*
X111900142Y-98772285D01*
X111827571Y-98844857D01*
X111682428Y-98917428D01*
X111537285Y-98917428D01*
X111392142Y-98844857D01*
X111319571Y-98772285D01*
X111247000Y-98627142D01*
X111174428Y-98336857D01*
X111174428Y-97974000D01*
X111247000Y-97683714D01*
X111319571Y-97538571D01*
X111392142Y-97466000D01*
X111537285Y-97393428D01*
X113351571Y-97901428D02*
X113351571Y-98917428D01*
X112698428Y-97901428D02*
X112698428Y-98699714D01*
X112771000Y-98844857D01*
X112916142Y-98917428D01*
X113133857Y-98917428D01*
X113279000Y-98844857D01*
X113351571Y-98772285D01*
X127466714Y-101298428D02*
X126595857Y-101298428D01*
X127031285Y-101298428D02*
X127031285Y-99774428D01*
X126886142Y-99992142D01*
X126741000Y-100137285D01*
X126595857Y-100209857D01*
X128119857Y-101153285D02*
X128192428Y-101225857D01*
X128119857Y-101298428D01*
X128047285Y-101225857D01*
X128119857Y-101153285D01*
X128119857Y-101298428D01*
X129135857Y-99774428D02*
X129281000Y-99774428D01*
X129426142Y-99847000D01*
X129498714Y-99919571D01*
X129571285Y-100064714D01*
X129643857Y-100355000D01*
X129643857Y-100717857D01*
X129571285Y-101008142D01*
X129498714Y-101153285D01*
X129426142Y-101225857D01*
X129281000Y-101298428D01*
X129135857Y-101298428D01*
X128990714Y-101225857D01*
X128918142Y-101153285D01*
X128845571Y-101008142D01*
X128773000Y-100717857D01*
X128773000Y-100355000D01*
X128845571Y-100064714D01*
X128918142Y-99919571D01*
X128990714Y-99847000D01*
X129135857Y-99774428D01*
X130587285Y-99774428D02*
X130732428Y-99774428D01*
X130877571Y-99847000D01*
X130950142Y-99919571D01*
X131022714Y-100064714D01*
X131095285Y-100355000D01*
X131095285Y-100717857D01*
X131022714Y-101008142D01*
X130950142Y-101153285D01*
X130877571Y-101225857D01*
X130732428Y-101298428D01*
X130587285Y-101298428D01*
X130442142Y-101225857D01*
X130369571Y-101153285D01*
X130297000Y-101008142D01*
X130224428Y-100717857D01*
X130224428Y-100355000D01*
X130297000Y-100064714D01*
X130369571Y-99919571D01*
X130442142Y-99847000D01*
X130587285Y-99774428D01*
X132401571Y-100282428D02*
X132401571Y-101298428D01*
X131748428Y-100282428D02*
X131748428Y-101080714D01*
X131821000Y-101225857D01*
X131966142Y-101298428D01*
X132183857Y-101298428D01*
X132329000Y-101225857D01*
X132401571Y-101153285D01*
X146516714Y-103679428D02*
X145645857Y-103679428D01*
X146081285Y-103679428D02*
X146081285Y-102155428D01*
X145936142Y-102373142D01*
X145791000Y-102518285D01*
X145645857Y-102590857D01*
X147169857Y-103534285D02*
X147242428Y-103606857D01*
X147169857Y-103679428D01*
X147097285Y-103606857D01*
X147169857Y-103534285D01*
X147169857Y-103679428D01*
X148185857Y-102155428D02*
X148331000Y-102155428D01*
X148476142Y-102228000D01*
X148548714Y-102300571D01*
X148621285Y-102445714D01*
X148693857Y-102736000D01*
X148693857Y-103098857D01*
X148621285Y-103389142D01*
X148548714Y-103534285D01*
X148476142Y-103606857D01*
X148331000Y-103679428D01*
X148185857Y-103679428D01*
X148040714Y-103606857D01*
X147968142Y-103534285D01*
X147895571Y-103389142D01*
X147823000Y-103098857D01*
X147823000Y-102736000D01*
X147895571Y-102445714D01*
X147968142Y-102300571D01*
X148040714Y-102228000D01*
X148185857Y-102155428D01*
X149637285Y-102155428D02*
X149782428Y-102155428D01*
X149927571Y-102228000D01*
X150000142Y-102300571D01*
X150072714Y-102445714D01*
X150145285Y-102736000D01*
X150145285Y-103098857D01*
X150072714Y-103389142D01*
X150000142Y-103534285D01*
X149927571Y-103606857D01*
X149782428Y-103679428D01*
X149637285Y-103679428D01*
X149492142Y-103606857D01*
X149419571Y-103534285D01*
X149347000Y-103389142D01*
X149274428Y-103098857D01*
X149274428Y-102736000D01*
X149347000Y-102445714D01*
X149419571Y-102300571D01*
X149492142Y-102228000D01*
X149637285Y-102155428D01*
X151451571Y-102663428D02*
X151451571Y-103679428D01*
X150798428Y-102663428D02*
X150798428Y-103461714D01*
X150871000Y-103606857D01*
X151016142Y-103679428D01*
X151233857Y-103679428D01*
X151379000Y-103606857D01*
X151451571Y-103534285D01*
X241269714Y-103560428D02*
X240398857Y-103560428D01*
X240834285Y-103560428D02*
X240834285Y-102036428D01*
X240689142Y-102254142D01*
X240544000Y-102399285D01*
X240398857Y-102471857D01*
X241922857Y-103415285D02*
X241995428Y-103487857D01*
X241922857Y-103560428D01*
X241850285Y-103487857D01*
X241922857Y-103415285D01*
X241922857Y-103560428D01*
X242938857Y-102036428D02*
X243084000Y-102036428D01*
X243229142Y-102109000D01*
X243301714Y-102181571D01*
X243374285Y-102326714D01*
X243446857Y-102617000D01*
X243446857Y-102979857D01*
X243374285Y-103270142D01*
X243301714Y-103415285D01*
X243229142Y-103487857D01*
X243084000Y-103560428D01*
X242938857Y-103560428D01*
X242793714Y-103487857D01*
X242721142Y-103415285D01*
X242648571Y-103270142D01*
X242576000Y-102979857D01*
X242576000Y-102617000D01*
X242648571Y-102326714D01*
X242721142Y-102181571D01*
X242793714Y-102109000D01*
X242938857Y-102036428D01*
X244390285Y-102036428D02*
X244535428Y-102036428D01*
X244680571Y-102109000D01*
X244753142Y-102181571D01*
X244825714Y-102326714D01*
X244898285Y-102617000D01*
X244898285Y-102979857D01*
X244825714Y-103270142D01*
X244753142Y-103415285D01*
X244680571Y-103487857D01*
X244535428Y-103560428D01*
X244390285Y-103560428D01*
X244245142Y-103487857D01*
X244172571Y-103415285D01*
X244100000Y-103270142D01*
X244027428Y-102979857D01*
X244027428Y-102617000D01*
X244100000Y-102326714D01*
X244172571Y-102181571D01*
X244245142Y-102109000D01*
X244390285Y-102036428D01*
X246204571Y-102544428D02*
X246204571Y-103560428D01*
X245551428Y-102544428D02*
X245551428Y-103342714D01*
X245624000Y-103487857D01*
X245769142Y-103560428D01*
X245986857Y-103560428D01*
X246132000Y-103487857D01*
X246204571Y-103415285D01*
X260816714Y-101298428D02*
X259945857Y-101298428D01*
X260381285Y-101298428D02*
X260381285Y-99774428D01*
X260236142Y-99992142D01*
X260091000Y-100137285D01*
X259945857Y-100209857D01*
X261469857Y-101153285D02*
X261542428Y-101225857D01*
X261469857Y-101298428D01*
X261397285Y-101225857D01*
X261469857Y-101153285D01*
X261469857Y-101298428D01*
X262485857Y-99774428D02*
X262631000Y-99774428D01*
X262776142Y-99847000D01*
X262848714Y-99919571D01*
X262921285Y-100064714D01*
X262993857Y-100355000D01*
X262993857Y-100717857D01*
X262921285Y-101008142D01*
X262848714Y-101153285D01*
X262776142Y-101225857D01*
X262631000Y-101298428D01*
X262485857Y-101298428D01*
X262340714Y-101225857D01*
X262268142Y-101153285D01*
X262195571Y-101008142D01*
X262123000Y-100717857D01*
X262123000Y-100355000D01*
X262195571Y-100064714D01*
X262268142Y-99919571D01*
X262340714Y-99847000D01*
X262485857Y-99774428D01*
X263937285Y-99774428D02*
X264082428Y-99774428D01*
X264227571Y-99847000D01*
X264300142Y-99919571D01*
X264372714Y-100064714D01*
X264445285Y-100355000D01*
X264445285Y-100717857D01*
X264372714Y-101008142D01*
X264300142Y-101153285D01*
X264227571Y-101225857D01*
X264082428Y-101298428D01*
X263937285Y-101298428D01*
X263792142Y-101225857D01*
X263719571Y-101153285D01*
X263647000Y-101008142D01*
X263574428Y-100717857D01*
X263574428Y-100355000D01*
X263647000Y-100064714D01*
X263719571Y-99919571D01*
X263792142Y-99847000D01*
X263937285Y-99774428D01*
X265751571Y-100282428D02*
X265751571Y-101298428D01*
X265098428Y-100282428D02*
X265098428Y-101080714D01*
X265171000Y-101225857D01*
X265316142Y-101298428D01*
X265533857Y-101298428D01*
X265679000Y-101225857D01*
X265751571Y-101153285D01*
X279369714Y-98822428D02*
X278498857Y-98822428D01*
X278934285Y-98822428D02*
X278934285Y-97298428D01*
X278789142Y-97516142D01*
X278644000Y-97661285D01*
X278498857Y-97733857D01*
X280022857Y-98677285D02*
X280095428Y-98749857D01*
X280022857Y-98822428D01*
X279950285Y-98749857D01*
X280022857Y-98677285D01*
X280022857Y-98822428D01*
X281038857Y-97298428D02*
X281184000Y-97298428D01*
X281329142Y-97371000D01*
X281401714Y-97443571D01*
X281474285Y-97588714D01*
X281546857Y-97879000D01*
X281546857Y-98241857D01*
X281474285Y-98532142D01*
X281401714Y-98677285D01*
X281329142Y-98749857D01*
X281184000Y-98822428D01*
X281038857Y-98822428D01*
X280893714Y-98749857D01*
X280821142Y-98677285D01*
X280748571Y-98532142D01*
X280676000Y-98241857D01*
X280676000Y-97879000D01*
X280748571Y-97588714D01*
X280821142Y-97443571D01*
X280893714Y-97371000D01*
X281038857Y-97298428D01*
X282490285Y-97298428D02*
X282635428Y-97298428D01*
X282780571Y-97371000D01*
X282853142Y-97443571D01*
X282925714Y-97588714D01*
X282998285Y-97879000D01*
X282998285Y-98241857D01*
X282925714Y-98532142D01*
X282853142Y-98677285D01*
X282780571Y-98749857D01*
X282635428Y-98822428D01*
X282490285Y-98822428D01*
X282345142Y-98749857D01*
X282272571Y-98677285D01*
X282200000Y-98532142D01*
X282127428Y-98241857D01*
X282127428Y-97879000D01*
X282200000Y-97588714D01*
X282272571Y-97443571D01*
X282345142Y-97371000D01*
X282490285Y-97298428D01*
X284304571Y-97806428D02*
X284304571Y-98822428D01*
X283651428Y-97806428D02*
X283651428Y-98604714D01*
X283724000Y-98749857D01*
X283869142Y-98822428D01*
X284086857Y-98822428D01*
X284232000Y-98749857D01*
X284304571Y-98677285D01*
X298419714Y-101204428D02*
X297548857Y-101204428D01*
X297984285Y-101204428D02*
X297984285Y-99680428D01*
X297839142Y-99898142D01*
X297694000Y-100043285D01*
X297548857Y-100115857D01*
X299072857Y-101059285D02*
X299145428Y-101131857D01*
X299072857Y-101204428D01*
X299000285Y-101131857D01*
X299072857Y-101059285D01*
X299072857Y-101204428D01*
X300088857Y-99680428D02*
X300234000Y-99680428D01*
X300379142Y-99753000D01*
X300451714Y-99825571D01*
X300524285Y-99970714D01*
X300596857Y-100261000D01*
X300596857Y-100623857D01*
X300524285Y-100914142D01*
X300451714Y-101059285D01*
X300379142Y-101131857D01*
X300234000Y-101204428D01*
X300088857Y-101204428D01*
X299943714Y-101131857D01*
X299871142Y-101059285D01*
X299798571Y-100914142D01*
X299726000Y-100623857D01*
X299726000Y-100261000D01*
X299798571Y-99970714D01*
X299871142Y-99825571D01*
X299943714Y-99753000D01*
X300088857Y-99680428D01*
X301540285Y-99680428D02*
X301685428Y-99680428D01*
X301830571Y-99753000D01*
X301903142Y-99825571D01*
X301975714Y-99970714D01*
X302048285Y-100261000D01*
X302048285Y-100623857D01*
X301975714Y-100914142D01*
X301903142Y-101059285D01*
X301830571Y-101131857D01*
X301685428Y-101204428D01*
X301540285Y-101204428D01*
X301395142Y-101131857D01*
X301322571Y-101059285D01*
X301250000Y-100914142D01*
X301177428Y-100623857D01*
X301177428Y-100261000D01*
X301250000Y-99970714D01*
X301322571Y-99825571D01*
X301395142Y-99753000D01*
X301540285Y-99680428D01*
X303354571Y-100188428D02*
X303354571Y-101204428D01*
X302701428Y-100188428D02*
X302701428Y-100986714D01*
X302774000Y-101131857D01*
X302919142Y-101204428D01*
X303136857Y-101204428D01*
X303282000Y-101131857D01*
X303354571Y-101059285D01*
X46502194Y-125110428D02*
X45631337Y-125110428D01*
X46066765Y-125110428D02*
X46066765Y-123586428D01*
X45921622Y-123804142D01*
X45776480Y-123949285D01*
X45631337Y-124021857D01*
X47155337Y-124965285D02*
X47227908Y-125037857D01*
X47155337Y-125110428D01*
X47082765Y-125037857D01*
X47155337Y-124965285D01*
X47155337Y-125110428D01*
X47808480Y-123731571D02*
X47881051Y-123659000D01*
X48026194Y-123586428D01*
X48389051Y-123586428D01*
X48534194Y-123659000D01*
X48606765Y-123731571D01*
X48679337Y-123876714D01*
X48679337Y-124021857D01*
X48606765Y-124239571D01*
X47735908Y-125110428D01*
X48679337Y-125110428D01*
X50058194Y-123586428D02*
X49332480Y-123586428D01*
X49259908Y-124312142D01*
X49332480Y-124239571D01*
X49477622Y-124167000D01*
X49840480Y-124167000D01*
X49985622Y-124239571D01*
X50058194Y-124312142D01*
X50130765Y-124457285D01*
X50130765Y-124820142D01*
X50058194Y-124965285D01*
X49985622Y-125037857D01*
X49840480Y-125110428D01*
X49477622Y-125110428D01*
X49332480Y-125037857D01*
X49259908Y-124965285D01*
X51437051Y-124094428D02*
X51437051Y-125110428D01*
X50783908Y-124094428D02*
X50783908Y-124892714D01*
X50856480Y-125037857D01*
X51001622Y-125110428D01*
X51219337Y-125110428D01*
X51364480Y-125037857D01*
X51437051Y-124965285D01*
X70316714Y-125110428D02*
X69445857Y-125110428D01*
X69881285Y-125110428D02*
X69881285Y-123586428D01*
X69736142Y-123804142D01*
X69591000Y-123949285D01*
X69445857Y-124021857D01*
X70969857Y-124965285D02*
X71042428Y-125037857D01*
X70969857Y-125110428D01*
X70897285Y-125037857D01*
X70969857Y-124965285D01*
X70969857Y-125110428D01*
X71985857Y-123586428D02*
X72131000Y-123586428D01*
X72276142Y-123659000D01*
X72348714Y-123731571D01*
X72421285Y-123876714D01*
X72493857Y-124167000D01*
X72493857Y-124529857D01*
X72421285Y-124820142D01*
X72348714Y-124965285D01*
X72276142Y-125037857D01*
X72131000Y-125110428D01*
X71985857Y-125110428D01*
X71840714Y-125037857D01*
X71768142Y-124965285D01*
X71695571Y-124820142D01*
X71623000Y-124529857D01*
X71623000Y-124167000D01*
X71695571Y-123876714D01*
X71768142Y-123731571D01*
X71840714Y-123659000D01*
X71985857Y-123586428D01*
X73437285Y-123586428D02*
X73582428Y-123586428D01*
X73727571Y-123659000D01*
X73800142Y-123731571D01*
X73872714Y-123876714D01*
X73945285Y-124167000D01*
X73945285Y-124529857D01*
X73872714Y-124820142D01*
X73800142Y-124965285D01*
X73727571Y-125037857D01*
X73582428Y-125110428D01*
X73437285Y-125110428D01*
X73292142Y-125037857D01*
X73219571Y-124965285D01*
X73147000Y-124820142D01*
X73074428Y-124529857D01*
X73074428Y-124167000D01*
X73147000Y-123876714D01*
X73219571Y-123731571D01*
X73292142Y-123659000D01*
X73437285Y-123586428D01*
X75251571Y-124094428D02*
X75251571Y-125110428D01*
X74598428Y-124094428D02*
X74598428Y-124892714D01*
X74671000Y-125037857D01*
X74816142Y-125110428D01*
X75033857Y-125110428D01*
X75179000Y-125037857D01*
X75251571Y-124965285D01*
X89366714Y-120348428D02*
X88495857Y-120348428D01*
X88931285Y-120348428D02*
X88931285Y-118824428D01*
X88786142Y-119042142D01*
X88641000Y-119187285D01*
X88495857Y-119259857D01*
X90019857Y-120203285D02*
X90092428Y-120275857D01*
X90019857Y-120348428D01*
X89947285Y-120275857D01*
X90019857Y-120203285D01*
X90019857Y-120348428D01*
X91035857Y-118824428D02*
X91181000Y-118824428D01*
X91326142Y-118897000D01*
X91398714Y-118969571D01*
X91471285Y-119114714D01*
X91543857Y-119405000D01*
X91543857Y-119767857D01*
X91471285Y-120058142D01*
X91398714Y-120203285D01*
X91326142Y-120275857D01*
X91181000Y-120348428D01*
X91035857Y-120348428D01*
X90890714Y-120275857D01*
X90818142Y-120203285D01*
X90745571Y-120058142D01*
X90673000Y-119767857D01*
X90673000Y-119405000D01*
X90745571Y-119114714D01*
X90818142Y-118969571D01*
X90890714Y-118897000D01*
X91035857Y-118824428D01*
X92487285Y-118824428D02*
X92632428Y-118824428D01*
X92777571Y-118897000D01*
X92850142Y-118969571D01*
X92922714Y-119114714D01*
X92995285Y-119405000D01*
X92995285Y-119767857D01*
X92922714Y-120058142D01*
X92850142Y-120203285D01*
X92777571Y-120275857D01*
X92632428Y-120348428D01*
X92487285Y-120348428D01*
X92342142Y-120275857D01*
X92269571Y-120203285D01*
X92197000Y-120058142D01*
X92124428Y-119767857D01*
X92124428Y-119405000D01*
X92197000Y-119114714D01*
X92269571Y-118969571D01*
X92342142Y-118897000D01*
X92487285Y-118824428D01*
X94301571Y-119332428D02*
X94301571Y-120348428D01*
X93648428Y-119332428D02*
X93648428Y-120130714D01*
X93721000Y-120275857D01*
X93866142Y-120348428D01*
X94083857Y-120348428D01*
X94229000Y-120275857D01*
X94301571Y-120203285D01*
X108416714Y-117967428D02*
X107545857Y-117967428D01*
X107981285Y-117967428D02*
X107981285Y-116443428D01*
X107836142Y-116661142D01*
X107691000Y-116806285D01*
X107545857Y-116878857D01*
X109069857Y-117822285D02*
X109142428Y-117894857D01*
X109069857Y-117967428D01*
X108997285Y-117894857D01*
X109069857Y-117822285D01*
X109069857Y-117967428D01*
X110085857Y-116443428D02*
X110231000Y-116443428D01*
X110376142Y-116516000D01*
X110448714Y-116588571D01*
X110521285Y-116733714D01*
X110593857Y-117024000D01*
X110593857Y-117386857D01*
X110521285Y-117677142D01*
X110448714Y-117822285D01*
X110376142Y-117894857D01*
X110231000Y-117967428D01*
X110085857Y-117967428D01*
X109940714Y-117894857D01*
X109868142Y-117822285D01*
X109795571Y-117677142D01*
X109723000Y-117386857D01*
X109723000Y-117024000D01*
X109795571Y-116733714D01*
X109868142Y-116588571D01*
X109940714Y-116516000D01*
X110085857Y-116443428D01*
X111537285Y-116443428D02*
X111682428Y-116443428D01*
X111827571Y-116516000D01*
X111900142Y-116588571D01*
X111972714Y-116733714D01*
X112045285Y-117024000D01*
X112045285Y-117386857D01*
X111972714Y-117677142D01*
X111900142Y-117822285D01*
X111827571Y-117894857D01*
X111682428Y-117967428D01*
X111537285Y-117967428D01*
X111392142Y-117894857D01*
X111319571Y-117822285D01*
X111247000Y-117677142D01*
X111174428Y-117386857D01*
X111174428Y-117024000D01*
X111247000Y-116733714D01*
X111319571Y-116588571D01*
X111392142Y-116516000D01*
X111537285Y-116443428D01*
X113351571Y-116951428D02*
X113351571Y-117967428D01*
X112698428Y-116951428D02*
X112698428Y-117749714D01*
X112771000Y-117894857D01*
X112916142Y-117967428D01*
X113133857Y-117967428D01*
X113279000Y-117894857D01*
X113351571Y-117822285D01*
X128303939Y-122383199D02*
X127549755Y-121947771D01*
X127926847Y-122165485D02*
X128688847Y-120845662D01*
X128454292Y-120961637D01*
X128256024Y-121014763D01*
X128094041Y-121005040D01*
X128942149Y-122584073D02*
X128968712Y-122683208D01*
X128869578Y-122709771D01*
X128843015Y-122610636D01*
X128942149Y-122584073D01*
X128869578Y-122709771D01*
X130124644Y-121842217D02*
X130223779Y-121815654D01*
X130385762Y-121825377D01*
X130700005Y-122006805D01*
X130789417Y-122142225D01*
X130815980Y-122241360D01*
X130806257Y-122403343D01*
X130733686Y-122529040D01*
X130561980Y-122681301D01*
X129372367Y-123000056D01*
X130189400Y-123471771D01*
X132145526Y-122841377D02*
X131517039Y-122478519D01*
X131091333Y-123070721D01*
X131190467Y-123044158D01*
X131352450Y-123053880D01*
X131666694Y-123235309D01*
X131756105Y-123370729D01*
X131782668Y-123469864D01*
X131772946Y-123631847D01*
X131591517Y-123946090D01*
X131456097Y-124035502D01*
X131356963Y-124062065D01*
X131194979Y-124052342D01*
X130880736Y-123870914D01*
X130791324Y-123735493D01*
X130764761Y-123636359D01*
X133085651Y-123970746D02*
X132577651Y-124850628D01*
X132520013Y-123644175D02*
X132120870Y-124335510D01*
X132111147Y-124497493D01*
X132200559Y-124632914D01*
X132389105Y-124741771D01*
X132551088Y-124751493D01*
X132650222Y-124724930D01*
X209660994Y-131818368D02*
X209225565Y-131064183D01*
X209443280Y-131441276D02*
X210763102Y-130679276D01*
X210501985Y-130662435D01*
X210303716Y-130609309D01*
X210168296Y-130519898D01*
X210113263Y-132311435D02*
X210086700Y-132410569D01*
X209987565Y-132384006D01*
X210014128Y-132284872D01*
X210113263Y-132311435D01*
X209987565Y-132384006D01*
X211508262Y-132260216D02*
X211607397Y-132286779D01*
X211742817Y-132376191D01*
X211924245Y-132690434D01*
X211933968Y-132852417D01*
X211907405Y-132951552D01*
X211817993Y-133086972D01*
X211692296Y-133159543D01*
X211467464Y-133205552D01*
X210277851Y-132886796D01*
X210749565Y-133703829D01*
X212758817Y-134135954D02*
X212395960Y-133507467D01*
X211731187Y-133807476D01*
X211830321Y-133834039D01*
X211965741Y-133923450D01*
X212147170Y-134237694D01*
X212156893Y-134399677D01*
X212130330Y-134498811D01*
X212040918Y-134634231D01*
X211726675Y-134815660D01*
X211564691Y-134825383D01*
X211465557Y-134798820D01*
X211330137Y-134709408D01*
X211148708Y-134395165D01*
X211138986Y-134233181D01*
X211165549Y-134134047D01*
X213008304Y-135584079D02*
X212128423Y-136092079D01*
X212681733Y-135018441D02*
X211990397Y-135417584D01*
X211900986Y-135553004D01*
X211910708Y-135714987D01*
X212019565Y-135903533D01*
X212154986Y-135992945D01*
X212254120Y-136019508D01*
X218307191Y-106345863D02*
X218406325Y-106372426D01*
X218541745Y-106461838D01*
X218723174Y-106776081D01*
X218732897Y-106938064D01*
X218706334Y-107037199D01*
X218616922Y-107172619D01*
X218491224Y-107245190D01*
X218266393Y-107291199D01*
X217076780Y-106972443D01*
X217548494Y-107789476D01*
X218000763Y-108282543D02*
X217974200Y-108381677D01*
X217875065Y-108355114D01*
X217901628Y-108255980D01*
X218000763Y-108282543D01*
X217875065Y-108355114D01*
X219395762Y-108231324D02*
X219494897Y-108257887D01*
X219630317Y-108347299D01*
X219811745Y-108661542D01*
X219821468Y-108823525D01*
X219794905Y-108922660D01*
X219705493Y-109058080D01*
X219579796Y-109130651D01*
X219354964Y-109176660D01*
X218165351Y-108857904D01*
X218637065Y-109674937D01*
X220646317Y-110107062D02*
X220283460Y-109478575D01*
X219618687Y-109778584D01*
X219717821Y-109805147D01*
X219853241Y-109894558D01*
X220034670Y-110208802D01*
X220044393Y-110370785D01*
X220017830Y-110469919D01*
X219928418Y-110605339D01*
X219614175Y-110786768D01*
X219452191Y-110796491D01*
X219353057Y-110769928D01*
X219217637Y-110680516D01*
X219036208Y-110366273D01*
X219026486Y-110204289D01*
X219053049Y-110105155D01*
X220895804Y-111555187D02*
X220015923Y-112063187D01*
X220569233Y-110989549D02*
X219877897Y-111388692D01*
X219788486Y-111524112D01*
X219798208Y-111686095D01*
X219907065Y-111874641D01*
X220042486Y-111964053D01*
X220141620Y-111990616D01*
X257448368Y-132409005D02*
X256694183Y-132844434D01*
X257071276Y-132626719D02*
X256309276Y-131306897D01*
X256292435Y-131568014D01*
X256239309Y-131766283D01*
X256149898Y-131901703D01*
X257941435Y-131956736D02*
X258040569Y-131983299D01*
X258014006Y-132082434D01*
X257914872Y-132055871D01*
X257941435Y-131956736D01*
X258014006Y-132082434D01*
X257890216Y-130561737D02*
X257916779Y-130462602D01*
X258006191Y-130327182D01*
X258320434Y-130145754D01*
X258482417Y-130136031D01*
X258581552Y-130162594D01*
X258716972Y-130252006D01*
X258789543Y-130377703D01*
X258835552Y-130602535D01*
X258516796Y-131792148D01*
X259333829Y-131320434D01*
X259765954Y-129311182D02*
X259137467Y-129674039D01*
X259437476Y-130338812D01*
X259464039Y-130239678D01*
X259553450Y-130104258D01*
X259867694Y-129922829D01*
X260029677Y-129913106D01*
X260128811Y-129939669D01*
X260264231Y-130029081D01*
X260445660Y-130343324D01*
X260455383Y-130505308D01*
X260428820Y-130604442D01*
X260339408Y-130739862D01*
X260025165Y-130921291D01*
X259863181Y-130931013D01*
X259764047Y-130904450D01*
X261214079Y-129061695D02*
X261722079Y-129941576D01*
X260648441Y-129388266D02*
X261047584Y-130079602D01*
X261183004Y-130169013D01*
X261344987Y-130159291D01*
X261533533Y-130050434D01*
X261622945Y-129915013D01*
X261649508Y-129815879D01*
X279369714Y-117875428D02*
X278498857Y-117875428D01*
X278934285Y-117875428D02*
X278934285Y-116351428D01*
X278789142Y-116569142D01*
X278644000Y-116714285D01*
X278498857Y-116786857D01*
X280022857Y-117730285D02*
X280095428Y-117802857D01*
X280022857Y-117875428D01*
X279950285Y-117802857D01*
X280022857Y-117730285D01*
X280022857Y-117875428D01*
X281038857Y-116351428D02*
X281184000Y-116351428D01*
X281329142Y-116424000D01*
X281401714Y-116496571D01*
X281474285Y-116641714D01*
X281546857Y-116932000D01*
X281546857Y-117294857D01*
X281474285Y-117585142D01*
X281401714Y-117730285D01*
X281329142Y-117802857D01*
X281184000Y-117875428D01*
X281038857Y-117875428D01*
X280893714Y-117802857D01*
X280821142Y-117730285D01*
X280748571Y-117585142D01*
X280676000Y-117294857D01*
X280676000Y-116932000D01*
X280748571Y-116641714D01*
X280821142Y-116496571D01*
X280893714Y-116424000D01*
X281038857Y-116351428D01*
X282490285Y-116351428D02*
X282635428Y-116351428D01*
X282780571Y-116424000D01*
X282853142Y-116496571D01*
X282925714Y-116641714D01*
X282998285Y-116932000D01*
X282998285Y-117294857D01*
X282925714Y-117585142D01*
X282853142Y-117730285D01*
X282780571Y-117802857D01*
X282635428Y-117875428D01*
X282490285Y-117875428D01*
X282345142Y-117802857D01*
X282272571Y-117730285D01*
X282200000Y-117585142D01*
X282127428Y-117294857D01*
X282127428Y-116932000D01*
X282200000Y-116641714D01*
X282272571Y-116496571D01*
X282345142Y-116424000D01*
X282490285Y-116351428D01*
X284304571Y-116859428D02*
X284304571Y-117875428D01*
X283651428Y-116859428D02*
X283651428Y-117657714D01*
X283724000Y-117802857D01*
X283869142Y-117875428D01*
X284086857Y-117875428D01*
X284232000Y-117802857D01*
X284304571Y-117730285D01*
X298419714Y-120268428D02*
X297548857Y-120268428D01*
X297984285Y-120268428D02*
X297984285Y-118744428D01*
X297839142Y-118962142D01*
X297694000Y-119107285D01*
X297548857Y-119179857D01*
X299072857Y-120123285D02*
X299145428Y-120195857D01*
X299072857Y-120268428D01*
X299000285Y-120195857D01*
X299072857Y-120123285D01*
X299072857Y-120268428D01*
X300088857Y-118744428D02*
X300234000Y-118744428D01*
X300379142Y-118817000D01*
X300451714Y-118889571D01*
X300524285Y-119034714D01*
X300596857Y-119325000D01*
X300596857Y-119687857D01*
X300524285Y-119978142D01*
X300451714Y-120123285D01*
X300379142Y-120195857D01*
X300234000Y-120268428D01*
X300088857Y-120268428D01*
X299943714Y-120195857D01*
X299871142Y-120123285D01*
X299798571Y-119978142D01*
X299726000Y-119687857D01*
X299726000Y-119325000D01*
X299798571Y-119034714D01*
X299871142Y-118889571D01*
X299943714Y-118817000D01*
X300088857Y-118744428D01*
X301540285Y-118744428D02*
X301685428Y-118744428D01*
X301830571Y-118817000D01*
X301903142Y-118889571D01*
X301975714Y-119034714D01*
X302048285Y-119325000D01*
X302048285Y-119687857D01*
X301975714Y-119978142D01*
X301903142Y-120123285D01*
X301830571Y-120195857D01*
X301685428Y-120268428D01*
X301540285Y-120268428D01*
X301395142Y-120195857D01*
X301322571Y-120123285D01*
X301250000Y-119978142D01*
X301177428Y-119687857D01*
X301177428Y-119325000D01*
X301250000Y-119034714D01*
X301322571Y-118889571D01*
X301395142Y-118817000D01*
X301540285Y-118744428D01*
X303354571Y-119252428D02*
X303354571Y-120268428D01*
X302701428Y-119252428D02*
X302701428Y-120050714D01*
X302774000Y-120195857D01*
X302919142Y-120268428D01*
X303136857Y-120268428D01*
X303282000Y-120195857D01*
X303354571Y-120123285D01*
X317400714Y-125019428D02*
X316529857Y-125019428D01*
X316965285Y-125019428D02*
X316965285Y-123495428D01*
X316820142Y-123713142D01*
X316675000Y-123858285D01*
X316529857Y-123930857D01*
X318053857Y-124874285D02*
X318126428Y-124946857D01*
X318053857Y-125019428D01*
X317981285Y-124946857D01*
X318053857Y-124874285D01*
X318053857Y-125019428D01*
X319069857Y-123495428D02*
X319215000Y-123495428D01*
X319360142Y-123568000D01*
X319432714Y-123640571D01*
X319505285Y-123785714D01*
X319577857Y-124076000D01*
X319577857Y-124438857D01*
X319505285Y-124729142D01*
X319432714Y-124874285D01*
X319360142Y-124946857D01*
X319215000Y-125019428D01*
X319069857Y-125019428D01*
X318924714Y-124946857D01*
X318852142Y-124874285D01*
X318779571Y-124729142D01*
X318707000Y-124438857D01*
X318707000Y-124076000D01*
X318779571Y-123785714D01*
X318852142Y-123640571D01*
X318924714Y-123568000D01*
X319069857Y-123495428D01*
X320521285Y-123495428D02*
X320666428Y-123495428D01*
X320811571Y-123568000D01*
X320884142Y-123640571D01*
X320956714Y-123785714D01*
X321029285Y-124076000D01*
X321029285Y-124438857D01*
X320956714Y-124729142D01*
X320884142Y-124874285D01*
X320811571Y-124946857D01*
X320666428Y-125019428D01*
X320521285Y-125019428D01*
X320376142Y-124946857D01*
X320303571Y-124874285D01*
X320231000Y-124729142D01*
X320158428Y-124438857D01*
X320158428Y-124076000D01*
X320231000Y-123785714D01*
X320303571Y-123640571D01*
X320376142Y-123568000D01*
X320521285Y-123495428D01*
X322335571Y-124003428D02*
X322335571Y-125019428D01*
X321682428Y-124003428D02*
X321682428Y-124801714D01*
X321755000Y-124946857D01*
X321900142Y-125019428D01*
X322117857Y-125019428D01*
X322263000Y-124946857D01*
X322335571Y-124874285D01*
X336519194Y-125034428D02*
X335648337Y-125034428D01*
X336083765Y-125034428D02*
X336083765Y-123510428D01*
X335938622Y-123728142D01*
X335793480Y-123873285D01*
X335648337Y-123945857D01*
X337172337Y-124889285D02*
X337244908Y-124961857D01*
X337172337Y-125034428D01*
X337099765Y-124961857D01*
X337172337Y-124889285D01*
X337172337Y-125034428D01*
X337825480Y-123655571D02*
X337898051Y-123583000D01*
X338043194Y-123510428D01*
X338406051Y-123510428D01*
X338551194Y-123583000D01*
X338623765Y-123655571D01*
X338696337Y-123800714D01*
X338696337Y-123945857D01*
X338623765Y-124163571D01*
X337752908Y-125034428D01*
X338696337Y-125034428D01*
X340075194Y-123510428D02*
X339349480Y-123510428D01*
X339276908Y-124236142D01*
X339349480Y-124163571D01*
X339494622Y-124091000D01*
X339857480Y-124091000D01*
X340002622Y-124163571D01*
X340075194Y-124236142D01*
X340147765Y-124381285D01*
X340147765Y-124744142D01*
X340075194Y-124889285D01*
X340002622Y-124961857D01*
X339857480Y-125034428D01*
X339494622Y-125034428D01*
X339349480Y-124961857D01*
X339276908Y-124889285D01*
X341454051Y-124018428D02*
X341454051Y-125034428D01*
X340800908Y-124018428D02*
X340800908Y-124816714D01*
X340873480Y-124961857D01*
X341018622Y-125034428D01*
X341236337Y-125034428D01*
X341381480Y-124961857D01*
X341454051Y-124889285D01*
M02*
